%TF.GenerationSoftware,KiCad,Pcbnew,(6.0.5-0)*%
%TF.CreationDate,2024-08-31T12:48:40+10:00*%
%TF.ProjectId,AAPiHat,41415069-4861-4742-9e6b-696361645f70,rev?*%
%TF.SameCoordinates,Original*%
%TF.FileFunction,Soldermask,Top*%
%TF.FilePolarity,Negative*%
%FSLAX46Y46*%
G04 Gerber Fmt 4.6, Leading zero omitted, Abs format (unit mm)*
G04 Created by KiCad (PCBNEW (6.0.5-0)) date 2024-08-31 12:48:40*
%MOMM*%
%LPD*%
G01*
G04 APERTURE LIST*
G04 Aperture macros list*
%AMRoundRect*
0 Rectangle with rounded corners*
0 $1 Rounding radius*
0 $2 $3 $4 $5 $6 $7 $8 $9 X,Y pos of 4 corners*
0 Add a 4 corners polygon primitive as box body*
4,1,4,$2,$3,$4,$5,$6,$7,$8,$9,$2,$3,0*
0 Add four circle primitives for the rounded corners*
1,1,$1+$1,$2,$3*
1,1,$1+$1,$4,$5*
1,1,$1+$1,$6,$7*
1,1,$1+$1,$8,$9*
0 Add four rect primitives between the rounded corners*
20,1,$1+$1,$2,$3,$4,$5,0*
20,1,$1+$1,$4,$5,$6,$7,0*
20,1,$1+$1,$6,$7,$8,$9,0*
20,1,$1+$1,$8,$9,$2,$3,0*%
G04 Aperture macros list end*
%ADD10R,1.700000X1.700000*%
%ADD11O,1.700000X1.700000*%
%ADD12R,2.300000X3.500000*%
%ADD13RoundRect,0.250000X1.100000X-0.412500X1.100000X0.412500X-1.100000X0.412500X-1.100000X-0.412500X0*%
%ADD14RoundRect,0.250000X0.412500X1.100000X-0.412500X1.100000X-0.412500X-1.100000X0.412500X-1.100000X0*%
%ADD15RoundRect,0.250000X-0.400000X-1.075000X0.400000X-1.075000X0.400000X1.075000X-0.400000X1.075000X0*%
%ADD16C,2.700000*%
%ADD17R,5.400000X2.900000*%
%ADD18RoundRect,0.250000X0.400000X1.075000X-0.400000X1.075000X-0.400000X-1.075000X0.400000X-1.075000X0*%
%ADD19RoundRect,0.250000X1.075000X-0.400000X1.075000X0.400000X-1.075000X0.400000X-1.075000X-0.400000X0*%
%ADD20C,3.250000*%
%ADD21RoundRect,0.400000X-0.400000X-0.400000X0.400000X-0.400000X0.400000X0.400000X-0.400000X0.400000X0*%
%ADD22C,1.600000*%
%ADD23C,2.200000*%
%ADD24RoundRect,0.150000X-0.150000X0.825000X-0.150000X-0.825000X0.150000X-0.825000X0.150000X0.825000X0*%
%ADD25R,3.000000X2.290000*%
G04 APERTURE END LIST*
D10*
%TO.C,JP1*%
X85979000Y-101346000D03*
D11*
X85979000Y-103886000D03*
X85979000Y-106426000D03*
%TD*%
D12*
%TO.C,D1*%
X65151000Y-102776000D03*
X65151000Y-97376000D03*
%TD*%
D13*
%TO.C,C5*%
X59690000Y-98248000D03*
X59690000Y-95123000D03*
%TD*%
D14*
%TO.C,C4*%
X55664500Y-90424000D03*
X52539500Y-90424000D03*
%TD*%
D13*
%TO.C,C7*%
X65913000Y-92367500D03*
X65913000Y-89242500D03*
%TD*%
D15*
%TO.C,R6*%
X82524000Y-88138000D03*
X85624000Y-88138000D03*
%TD*%
D16*
%TO.C,REF\u002A\u002A*%
X109093000Y-105283000D03*
%TD*%
D17*
%TO.C,L1*%
X76835000Y-105407000D03*
X76835000Y-95507000D03*
%TD*%
D10*
%TO.C,JP2*%
X76840000Y-88773000D03*
D11*
X74300000Y-88773000D03*
%TD*%
D18*
%TO.C,R7*%
X58827000Y-103251000D03*
X55727000Y-103251000D03*
%TD*%
D19*
%TO.C,R8*%
X49911000Y-98959000D03*
X49911000Y-95859000D03*
%TD*%
D18*
%TO.C,R5*%
X85624000Y-91567000D03*
X82524000Y-91567000D03*
%TD*%
D20*
%TO.C,J2*%
X102743000Y-97537500D03*
X91313000Y-97537500D03*
D21*
X92583000Y-91187500D03*
D22*
X93853000Y-88647500D03*
X95123000Y-91187500D03*
X96393000Y-88647500D03*
X97663000Y-91187500D03*
X98933000Y-88647500D03*
X100203000Y-91187500D03*
X101473000Y-88647500D03*
D23*
X89128000Y-94487500D03*
X104928000Y-94487500D03*
%TD*%
D13*
%TO.C,C6*%
X70104000Y-92367500D03*
X70104000Y-89242500D03*
%TD*%
D16*
%TO.C,REF\u002A\u002A*%
X51054000Y-82169000D03*
%TD*%
D24*
%TO.C,U4*%
X56896000Y-94045000D03*
X55626000Y-94045000D03*
X54356000Y-94045000D03*
X53086000Y-94045000D03*
X53086000Y-98995000D03*
X54356000Y-98995000D03*
X55626000Y-98995000D03*
X56896000Y-98995000D03*
D25*
X54991000Y-96520000D03*
%TD*%
D11*
%TO.C,J1*%
X104145000Y-81031000D03*
X104145000Y-83571000D03*
X101605000Y-81031000D03*
X101605000Y-83571000D03*
X99065000Y-81031000D03*
X99065000Y-83571000D03*
X96525000Y-81031000D03*
X96525000Y-83571000D03*
X93985000Y-81031000D03*
X93985000Y-83571000D03*
X91445000Y-81031000D03*
X91445000Y-83571000D03*
X88905000Y-81031000D03*
X88905000Y-83571000D03*
X86365000Y-81031000D03*
X86365000Y-83571000D03*
X83825000Y-81031000D03*
X83825000Y-83571000D03*
X81285000Y-81031000D03*
X81285000Y-83571000D03*
X78745000Y-81031000D03*
X78745000Y-83571000D03*
X76205000Y-81031000D03*
X76205000Y-83571000D03*
X73665000Y-81031000D03*
X73665000Y-83571000D03*
X71125000Y-81031000D03*
X71125000Y-83571000D03*
X68585000Y-81031000D03*
X68585000Y-83571000D03*
X66045000Y-81031000D03*
X66045000Y-83571000D03*
X63505000Y-81031000D03*
X63505000Y-83571000D03*
X60965000Y-81031000D03*
X60965000Y-83571000D03*
X58425000Y-81031000D03*
X58425000Y-83571000D03*
X55885000Y-81031000D03*
D10*
X55885000Y-83571000D03*
%TD*%
D16*
%TO.C,REF\u002A\u002A*%
X51054000Y-105283000D03*
%TD*%
%TO.C,REF\u002A\u002A*%
X109093000Y-82169000D03*
%TD*%
M02*
