%TF.GenerationSoftware,KiCad,Pcbnew,(6.0.5-0)*%
%TF.CreationDate,2024-08-31T12:48:49+10:00*%
%TF.ProjectId,AAPiHat,41415069-4861-4742-9e6b-696361645f70,rev?*%
%TF.SameCoordinates,Original*%
%TF.FileFunction,Plated,1,4,PTH,Drill*%
%TF.FilePolarity,Positive*%
%FSLAX46Y46*%
G04 Gerber Fmt 4.6, Leading zero omitted, Abs format (unit mm)*
G04 Created by KiCad (PCBNEW (6.0.5-0)) date 2024-08-31 12:48:49*
%MOMM*%
%LPD*%
G01*
G04 APERTURE LIST*
%TA.AperFunction,ViaDrill*%
%ADD10C,0.400000*%
%TD*%
%TA.AperFunction,ComponentDrill*%
%ADD11C,0.900000*%
%TD*%
%TA.AperFunction,ComponentDrill*%
%ADD12C,1.000000*%
%TD*%
%TA.AperFunction,ComponentDrill*%
%ADD13C,1.600000*%
%TD*%
G04 APERTURE END LIST*
D10*
X49276000Y-86995000D03*
X49276000Y-88519000D03*
X49784000Y-87757000D03*
X49784000Y-89281000D03*
X50292000Y-86995000D03*
X50292000Y-88519000D03*
X50800000Y-87757000D03*
X50927000Y-101600000D03*
X51308000Y-86995000D03*
X51816000Y-87757000D03*
X51943000Y-101600000D03*
X52324000Y-86995000D03*
X52705000Y-102235000D03*
X55372000Y-100711000D03*
X57912000Y-85979000D03*
X58293000Y-88265000D03*
X58293000Y-89789000D03*
X58801000Y-89027000D03*
X58801000Y-90551000D03*
X59309000Y-88265000D03*
X59309000Y-89789000D03*
X59817000Y-89027000D03*
X59817000Y-90551000D03*
X60325000Y-88265000D03*
X60325000Y-89789000D03*
X60833000Y-89027000D03*
X61341000Y-88265000D03*
X61341000Y-89789000D03*
X61849000Y-89027000D03*
X62357000Y-88265000D03*
X62357000Y-89789000D03*
X64897000Y-85979000D03*
X66802000Y-87757000D03*
X67183000Y-96266000D03*
X67183000Y-97790000D03*
X67310000Y-86995000D03*
X67691000Y-97028000D03*
X67691000Y-98552000D03*
X67818000Y-87757000D03*
X68199000Y-96266000D03*
X68199000Y-97790000D03*
X68326000Y-86995000D03*
X68707000Y-97028000D03*
X68707000Y-98552000D03*
X68834000Y-87757000D03*
X79883000Y-91186000D03*
X79883000Y-92202000D03*
X80899000Y-91694000D03*
X80899000Y-92710000D03*
D11*
%TO.C,J2*%
X92583000Y-91187500D03*
X93853000Y-88647500D03*
X95123000Y-91187500D03*
X96393000Y-88647500D03*
X97663000Y-91187500D03*
X98933000Y-88647500D03*
X100203000Y-91187500D03*
X101473000Y-88647500D03*
D12*
%TO.C,J1*%
X55885000Y-81031000D03*
X55885000Y-83571000D03*
X58425000Y-81031000D03*
X58425000Y-83571000D03*
X60965000Y-81031000D03*
X60965000Y-83571000D03*
X63505000Y-81031000D03*
X63505000Y-83571000D03*
X66045000Y-81031000D03*
X66045000Y-83571000D03*
X68585000Y-81031000D03*
X68585000Y-83571000D03*
X71125000Y-81031000D03*
X71125000Y-83571000D03*
X73665000Y-81031000D03*
X73665000Y-83571000D03*
%TO.C,JP2*%
X74300000Y-88773000D03*
%TO.C,J1*%
X76205000Y-81031000D03*
X76205000Y-83571000D03*
%TO.C,JP2*%
X76840000Y-88773000D03*
%TO.C,J1*%
X78745000Y-81031000D03*
X78745000Y-83571000D03*
X81285000Y-81031000D03*
X81285000Y-83571000D03*
X83825000Y-81031000D03*
X83825000Y-83571000D03*
%TO.C,JP1*%
X85979000Y-101346000D03*
X85979000Y-103886000D03*
X85979000Y-106426000D03*
%TO.C,J1*%
X86365000Y-81031000D03*
X86365000Y-83571000D03*
X88905000Y-81031000D03*
X88905000Y-83571000D03*
X91445000Y-81031000D03*
X91445000Y-83571000D03*
X93985000Y-81031000D03*
X93985000Y-83571000D03*
X96525000Y-81031000D03*
X96525000Y-83571000D03*
X99065000Y-81031000D03*
X99065000Y-83571000D03*
X101605000Y-81031000D03*
X101605000Y-83571000D03*
X104145000Y-81031000D03*
X104145000Y-83571000D03*
D13*
%TO.C,J2*%
X89128000Y-94487500D03*
X104928000Y-94487500D03*
M02*
