%TF.GenerationSoftware,KiCad,Pcbnew,(6.0.5-0)*%
%TF.CreationDate,2024-08-31T12:48:39+10:00*%
%TF.ProjectId,AAPiHat,41415069-4861-4742-9e6b-696361645f70,rev?*%
%TF.SameCoordinates,Original*%
%TF.FileFunction,Copper,L3,Inr*%
%TF.FilePolarity,Positive*%
%FSLAX46Y46*%
G04 Gerber Fmt 4.6, Leading zero omitted, Abs format (unit mm)*
G04 Created by KiCad (PCBNEW (6.0.5-0)) date 2024-08-31 12:48:39*
%MOMM*%
%LPD*%
G01*
G04 APERTURE LIST*
G04 Aperture macros list*
%AMRoundRect*
0 Rectangle with rounded corners*
0 $1 Rounding radius*
0 $2 $3 $4 $5 $6 $7 $8 $9 X,Y pos of 4 corners*
0 Add a 4 corners polygon primitive as box body*
4,1,4,$2,$3,$4,$5,$6,$7,$8,$9,$2,$3,0*
0 Add four circle primitives for the rounded corners*
1,1,$1+$1,$2,$3*
1,1,$1+$1,$4,$5*
1,1,$1+$1,$6,$7*
1,1,$1+$1,$8,$9*
0 Add four rect primitives between the rounded corners*
20,1,$1+$1,$2,$3,$4,$5,0*
20,1,$1+$1,$4,$5,$6,$7,0*
20,1,$1+$1,$6,$7,$8,$9,0*
20,1,$1+$1,$8,$9,$2,$3,0*%
G04 Aperture macros list end*
%TA.AperFunction,ComponentPad*%
%ADD10R,1.700000X1.700000*%
%TD*%
%TA.AperFunction,ComponentPad*%
%ADD11O,1.700000X1.700000*%
%TD*%
%TA.AperFunction,ComponentPad*%
%ADD12RoundRect,0.400000X-0.400000X-0.400000X0.400000X-0.400000X0.400000X0.400000X-0.400000X0.400000X0*%
%TD*%
%TA.AperFunction,ComponentPad*%
%ADD13C,1.600000*%
%TD*%
%TA.AperFunction,ComponentPad*%
%ADD14C,2.200000*%
%TD*%
%TA.AperFunction,ViaPad*%
%ADD15C,0.800000*%
%TD*%
G04 APERTURE END LIST*
D10*
%TO.N,Net-(J2-Pad5)*%
%TO.C,JP1*%
X85979000Y-101346000D03*
D11*
%TO.N,14_2VIN*%
X85979000Y-103886000D03*
%TO.N,GND*%
X85979000Y-106426000D03*
%TD*%
D10*
%TO.N,Net-(C6-Pad1)*%
%TO.C,JP2*%
X76840000Y-88773000D03*
D11*
%TO.N,+5V*%
X74300000Y-88773000D03*
%TD*%
D12*
%TO.N,/CB_RS485_B*%
%TO.C,J2*%
X92583000Y-91187500D03*
D13*
%TO.N,/CB_RS485_A*%
X93853000Y-88647500D03*
%TO.N,unconnected-(J2-Pad3)*%
X95123000Y-91187500D03*
%TO.N,unconnected-(J2-Pad4)*%
X96393000Y-88647500D03*
%TO.N,Net-(J2-Pad5)*%
X97663000Y-91187500D03*
%TO.N,GND*%
X98933000Y-88647500D03*
%TO.N,unconnected-(J2-Pad7)*%
X100203000Y-91187500D03*
%TO.N,unconnected-(J2-Pad8)*%
X101473000Y-88647500D03*
D14*
%TO.N,unconnected-(J2-PadSH)*%
X89128000Y-94487500D03*
X104928000Y-94487500D03*
%TD*%
D11*
%TO.N,unconnected-(J1-Pad40)*%
%TO.C,J1*%
X104145000Y-81031000D03*
%TO.N,GND*%
X104145000Y-83571000D03*
%TO.N,unconnected-(J1-Pad38)*%
X101605000Y-81031000D03*
%TO.N,unconnected-(J1-Pad37)*%
X101605000Y-83571000D03*
%TO.N,unconnected-(J1-Pad36)*%
X99065000Y-81031000D03*
%TO.N,unconnected-(J1-Pad35)*%
X99065000Y-83571000D03*
%TO.N,GND*%
X96525000Y-81031000D03*
%TO.N,unconnected-(J1-Pad33)*%
X96525000Y-83571000D03*
%TO.N,unconnected-(J1-Pad32)*%
X93985000Y-81031000D03*
%TO.N,unconnected-(J1-Pad31)*%
X93985000Y-83571000D03*
%TO.N,GND*%
X91445000Y-81031000D03*
%TO.N,unconnected-(J1-Pad29)*%
X91445000Y-83571000D03*
%TO.N,unconnected-(J1-Pad28)*%
X88905000Y-81031000D03*
%TO.N,unconnected-(J1-Pad27)*%
X88905000Y-83571000D03*
%TO.N,unconnected-(J1-Pad26)*%
X86365000Y-81031000D03*
%TO.N,GND*%
X86365000Y-83571000D03*
%TO.N,unconnected-(J1-Pad24)*%
X83825000Y-81031000D03*
%TO.N,unconnected-(J1-Pad23)*%
X83825000Y-83571000D03*
%TO.N,unconnected-(J1-Pad22)*%
X81285000Y-81031000D03*
%TO.N,unconnected-(J1-Pad21)*%
X81285000Y-83571000D03*
%TO.N,GND*%
X78745000Y-81031000D03*
%TO.N,unconnected-(J1-Pad19)*%
X78745000Y-83571000D03*
%TO.N,unconnected-(J1-Pad18)*%
X76205000Y-81031000D03*
%TO.N,unconnected-(J1-Pad17)*%
X76205000Y-83571000D03*
%TO.N,unconnected-(J1-Pad16)*%
X73665000Y-81031000D03*
%TO.N,unconnected-(J1-Pad15)*%
X73665000Y-83571000D03*
%TO.N,GND*%
X71125000Y-81031000D03*
%TO.N,unconnected-(J1-Pad13)*%
X71125000Y-83571000D03*
%TO.N,unconnected-(J1-Pad12)*%
X68585000Y-81031000D03*
%TO.N,unconnected-(J1-Pad11)*%
X68585000Y-83571000D03*
%TO.N,RXD*%
X66045000Y-81031000D03*
%TO.N,GND*%
X66045000Y-83571000D03*
%TO.N,TXD*%
X63505000Y-81031000D03*
%TO.N,unconnected-(J1-Pad7)*%
X63505000Y-83571000D03*
%TO.N,GND*%
X60965000Y-81031000D03*
%TO.N,unconnected-(J1-Pad5)*%
X60965000Y-83571000D03*
%TO.N,+5V*%
X58425000Y-81031000D03*
%TO.N,unconnected-(J1-Pad3)*%
X58425000Y-83571000D03*
%TO.N,+5V*%
X55885000Y-81031000D03*
D10*
%TO.N,+3V3*%
X55885000Y-83571000D03*
%TD*%
D15*
%TO.N,+5V*%
X55372000Y-100711000D03*
%TO.N,GND*%
X80899000Y-92710000D03*
X80899000Y-91694000D03*
X79883000Y-91186000D03*
X68707000Y-97028000D03*
X67691000Y-98552000D03*
X49276000Y-86995000D03*
X52705000Y-102235000D03*
X52324000Y-86995000D03*
X66802000Y-87757000D03*
X68707000Y-98552000D03*
X51816000Y-87757000D03*
X67310000Y-86995000D03*
X49784000Y-87757000D03*
X50800000Y-87757000D03*
X51308000Y-86995000D03*
X67691000Y-97028000D03*
X68199000Y-97790000D03*
X68326000Y-86995000D03*
X68199000Y-96266000D03*
X79883000Y-92202000D03*
X50927000Y-101600000D03*
X49784000Y-89281000D03*
X67818000Y-87757000D03*
X51943000Y-101600000D03*
X50292000Y-88519000D03*
X68834000Y-87757000D03*
X67183000Y-96266000D03*
X49276000Y-88519000D03*
X50292000Y-86995000D03*
X67183000Y-97790000D03*
%TO.N,14_2VIN*%
X58293000Y-89789000D03*
X59309000Y-89789000D03*
X62357000Y-89789000D03*
X61341000Y-88265000D03*
X59309000Y-88265000D03*
X60325000Y-89789000D03*
X62357000Y-88265000D03*
X58801000Y-89027000D03*
X58801000Y-90551000D03*
X58293000Y-88265000D03*
X60833000Y-89027000D03*
X61341000Y-89789000D03*
X59817000Y-89027000D03*
X61849000Y-89027000D03*
X59817000Y-90551000D03*
X60325000Y-88265000D03*
%TO.N,+3V3*%
X64897000Y-85979000D03*
X57912000Y-85979000D03*
%TD*%
%TA.AperFunction,Conductor*%
%TO.N,+5V*%
G36*
X109493390Y-79041819D02*
G01*
X109504847Y-79043708D01*
X109504849Y-79043708D01*
X109513395Y-79045117D01*
X109521972Y-79043506D01*
X109544736Y-79041907D01*
X109813488Y-79054108D01*
X109824610Y-79055245D01*
X110115782Y-79101746D01*
X110126691Y-79104127D01*
X110313882Y-79156208D01*
X110410760Y-79183162D01*
X110421344Y-79186762D01*
X110586554Y-79253584D01*
X110694694Y-79297323D01*
X110704794Y-79302088D01*
X110837576Y-79374171D01*
X110963929Y-79442764D01*
X110973438Y-79448644D01*
X111215066Y-79617646D01*
X111223840Y-79624553D01*
X111444868Y-79819720D01*
X111452812Y-79827576D01*
X111650422Y-80046416D01*
X111657434Y-80055124D01*
X111829110Y-80294852D01*
X111835094Y-80304292D01*
X111978645Y-80561850D01*
X111983522Y-80571896D01*
X112097122Y-80844009D01*
X112100835Y-80854542D01*
X112151209Y-81028101D01*
X112183022Y-81137711D01*
X112185526Y-81148601D01*
X112231520Y-81417372D01*
X112235261Y-81439231D01*
X112236522Y-81450340D01*
X112251715Y-81719003D01*
X112250369Y-81741781D01*
X112250369Y-81741784D01*
X112248864Y-81750318D01*
X112251956Y-81767853D01*
X112253459Y-81785151D01*
X112236296Y-96309855D01*
X112225280Y-105632665D01*
X112223776Y-105649739D01*
X112222583Y-105656504D01*
X112220603Y-105667735D01*
X112222128Y-105676386D01*
X112223476Y-105699125D01*
X112214862Y-105852491D01*
X112208272Y-105969805D01*
X112207029Y-105980834D01*
X112166398Y-106219960D01*
X112157279Y-106273625D01*
X112154810Y-106284445D01*
X112087701Y-106517381D01*
X112072589Y-106569833D01*
X112068923Y-106580308D01*
X111974904Y-106807288D01*
X111955270Y-106854687D01*
X111950453Y-106864690D01*
X111806789Y-107124624D01*
X111800883Y-107134023D01*
X111726030Y-107239519D01*
X111629023Y-107376236D01*
X111622105Y-107384910D01*
X111424207Y-107606357D01*
X111416357Y-107614207D01*
X111194910Y-107812105D01*
X111186236Y-107819023D01*
X111065127Y-107904955D01*
X110944023Y-107990883D01*
X110934624Y-107996789D01*
X110747542Y-108100188D01*
X110674686Y-108140455D01*
X110664692Y-108145268D01*
X110390308Y-108258923D01*
X110379837Y-108262588D01*
X110094445Y-108344810D01*
X110083628Y-108347278D01*
X109790834Y-108397029D01*
X109779808Y-108398272D01*
X109509125Y-108413476D01*
X109486386Y-108412128D01*
X109477735Y-108410603D01*
X109459995Y-108413731D01*
X109442793Y-108415235D01*
X79792129Y-108411467D01*
X50659964Y-108407765D01*
X50642786Y-108406261D01*
X50633531Y-108404629D01*
X50633529Y-108404629D01*
X50625000Y-108403125D01*
X50616471Y-108404629D01*
X50616146Y-108404629D01*
X50593682Y-108405939D01*
X50317081Y-108389843D01*
X50305669Y-108388511D01*
X50007575Y-108335999D01*
X49996392Y-108333351D01*
X49706390Y-108246616D01*
X49695595Y-108242691D01*
X49417628Y-108122913D01*
X49407357Y-108117762D01*
X49162281Y-107976427D01*
X49145151Y-107966548D01*
X49135538Y-107960233D01*
X48892646Y-107779633D01*
X48883830Y-107772245D01*
X48663521Y-107564689D01*
X48655632Y-107556340D01*
X48460886Y-107324635D01*
X48454010Y-107315416D01*
X48287454Y-107062689D01*
X48281693Y-107052734D01*
X48145570Y-106782390D01*
X48141003Y-106771833D01*
X48116189Y-106703900D01*
X48037158Y-106487534D01*
X48033847Y-106476523D01*
X48027698Y-106450722D01*
X47963675Y-106182086D01*
X47961664Y-106170767D01*
X47926117Y-105870188D01*
X47925432Y-105858707D01*
X47925045Y-105595797D01*
X47925163Y-105590816D01*
X47925264Y-105588760D01*
X47925500Y-105586346D01*
X47925500Y-105579645D01*
X47927433Y-105562998D01*
X47927661Y-105558969D01*
X47929646Y-105550538D01*
X47926187Y-105521330D01*
X47925500Y-105509687D01*
X47925500Y-105283000D01*
X49398396Y-105283000D01*
X49398701Y-105286875D01*
X49417153Y-105521330D01*
X49418779Y-105541994D01*
X49479427Y-105794610D01*
X49578846Y-106034628D01*
X49714588Y-106256140D01*
X49883311Y-106453689D01*
X50080860Y-106622412D01*
X50302372Y-106758154D01*
X50542390Y-106857573D01*
X50546164Y-106858479D01*
X50546167Y-106858480D01*
X50551774Y-106859826D01*
X50795006Y-106918221D01*
X50798871Y-106918525D01*
X50798876Y-106918526D01*
X50935215Y-106929256D01*
X50989147Y-106933500D01*
X51118853Y-106933500D01*
X51172785Y-106929256D01*
X51309124Y-106918526D01*
X51309129Y-106918525D01*
X51312994Y-106918221D01*
X51556226Y-106859826D01*
X51561833Y-106858480D01*
X51561836Y-106858479D01*
X51565610Y-106857573D01*
X51805628Y-106758154D01*
X52027140Y-106622412D01*
X52224689Y-106453689D01*
X52274170Y-106395754D01*
X84823967Y-106395754D01*
X84827570Y-106450722D01*
X84835727Y-106575174D01*
X84837796Y-106606749D01*
X84838912Y-106611142D01*
X84838912Y-106611144D01*
X84875732Y-106756120D01*
X84889845Y-106811690D01*
X84891747Y-106815815D01*
X84891747Y-106815816D01*
X84938539Y-106917315D01*
X84978369Y-107003714D01*
X85100405Y-107176391D01*
X85251865Y-107323937D01*
X85255638Y-107326458D01*
X85423899Y-107438887D01*
X85423902Y-107438889D01*
X85427677Y-107441411D01*
X85524472Y-107482997D01*
X85617774Y-107523083D01*
X85617778Y-107523084D01*
X85621953Y-107524878D01*
X85626387Y-107525881D01*
X85626386Y-107525881D01*
X85823760Y-107570543D01*
X85823765Y-107570544D01*
X85828186Y-107571544D01*
X85933828Y-107575695D01*
X86034937Y-107579668D01*
X86034938Y-107579668D01*
X86039470Y-107579846D01*
X86248730Y-107549504D01*
X86253029Y-107548045D01*
X86253032Y-107548044D01*
X86444654Y-107482997D01*
X86448955Y-107481537D01*
X86633442Y-107378219D01*
X86796012Y-107243012D01*
X86931219Y-107080442D01*
X87013511Y-106933500D01*
X87032319Y-106899916D01*
X87032320Y-106899914D01*
X87034537Y-106895955D01*
X87053901Y-106838910D01*
X87101044Y-106700032D01*
X87101045Y-106700029D01*
X87102504Y-106695730D01*
X87113135Y-106622412D01*
X87132426Y-106489369D01*
X87132426Y-106489363D01*
X87132846Y-106486470D01*
X87133107Y-106476523D01*
X87134353Y-106428914D01*
X87134353Y-106428909D01*
X87134429Y-106426000D01*
X87128814Y-106364887D01*
X87120931Y-106279109D01*
X87115081Y-106215440D01*
X87057686Y-106011931D01*
X86964165Y-105822290D01*
X86849007Y-105668074D01*
X86840367Y-105656504D01*
X86840366Y-105656503D01*
X86837651Y-105652867D01*
X86682381Y-105509337D01*
X86665000Y-105498370D01*
X86507391Y-105398926D01*
X86503554Y-105396505D01*
X86307160Y-105318152D01*
X86130437Y-105283000D01*
X107437396Y-105283000D01*
X107437701Y-105286875D01*
X107456153Y-105521330D01*
X107457779Y-105541994D01*
X107518427Y-105794610D01*
X107617846Y-106034628D01*
X107753588Y-106256140D01*
X107922311Y-106453689D01*
X108119860Y-106622412D01*
X108341372Y-106758154D01*
X108581390Y-106857573D01*
X108585164Y-106858479D01*
X108585167Y-106858480D01*
X108590774Y-106859826D01*
X108834006Y-106918221D01*
X108837871Y-106918525D01*
X108837876Y-106918526D01*
X108974215Y-106929256D01*
X109028147Y-106933500D01*
X109157853Y-106933500D01*
X109211785Y-106929256D01*
X109348124Y-106918526D01*
X109348129Y-106918525D01*
X109351994Y-106918221D01*
X109595226Y-106859826D01*
X109600833Y-106858480D01*
X109600836Y-106858479D01*
X109604610Y-106857573D01*
X109844628Y-106758154D01*
X110066140Y-106622412D01*
X110263689Y-106453689D01*
X110432412Y-106256140D01*
X110568154Y-106034628D01*
X110667573Y-105794610D01*
X110728221Y-105541994D01*
X110729848Y-105521330D01*
X110748299Y-105286875D01*
X110748604Y-105283000D01*
X110729454Y-105039668D01*
X110728526Y-105027876D01*
X110728525Y-105027871D01*
X110728221Y-105024006D01*
X110667573Y-104771390D01*
X110568154Y-104531372D01*
X110432412Y-104309860D01*
X110263689Y-104112311D01*
X110066140Y-103943588D01*
X109844628Y-103807846D01*
X109604610Y-103708427D01*
X109600836Y-103707521D01*
X109600833Y-103707520D01*
X109448999Y-103671068D01*
X109351994Y-103647779D01*
X109348129Y-103647475D01*
X109348124Y-103647474D01*
X109211785Y-103636744D01*
X109157853Y-103632500D01*
X109028147Y-103632500D01*
X108974215Y-103636744D01*
X108837876Y-103647474D01*
X108837871Y-103647475D01*
X108834006Y-103647779D01*
X108737001Y-103671068D01*
X108585167Y-103707520D01*
X108585164Y-103707521D01*
X108581390Y-103708427D01*
X108341372Y-103807846D01*
X108119860Y-103943588D01*
X107922311Y-104112311D01*
X107753588Y-104309860D01*
X107617846Y-104531372D01*
X107518427Y-104771390D01*
X107457779Y-105024006D01*
X107457475Y-105027871D01*
X107457474Y-105027876D01*
X107456546Y-105039668D01*
X107437396Y-105283000D01*
X86130437Y-105283000D01*
X86099775Y-105276901D01*
X85995599Y-105275537D01*
X85892886Y-105274192D01*
X85892881Y-105274192D01*
X85888346Y-105274133D01*
X85883873Y-105274902D01*
X85883868Y-105274902D01*
X85780601Y-105292647D01*
X85679953Y-105309941D01*
X85481575Y-105383127D01*
X85477676Y-105385446D01*
X85477671Y-105385449D01*
X85303762Y-105488914D01*
X85299856Y-105491238D01*
X85296441Y-105494233D01*
X85296438Y-105494235D01*
X85237677Y-105545767D01*
X85140881Y-105630655D01*
X85138073Y-105634217D01*
X85104928Y-105676262D01*
X85009976Y-105796708D01*
X84911523Y-105983836D01*
X84910179Y-105988165D01*
X84851703Y-106176489D01*
X84848820Y-106185773D01*
X84823967Y-106395754D01*
X52274170Y-106395754D01*
X52393412Y-106256140D01*
X52529154Y-106034628D01*
X52628573Y-105794610D01*
X52689221Y-105541994D01*
X52690848Y-105521330D01*
X52709299Y-105286875D01*
X52709604Y-105283000D01*
X52690454Y-105039668D01*
X52689526Y-105027876D01*
X52689525Y-105027871D01*
X52689221Y-105024006D01*
X52628573Y-104771390D01*
X52529154Y-104531372D01*
X52393412Y-104309860D01*
X52224689Y-104112311D01*
X52027140Y-103943588D01*
X51883807Y-103855754D01*
X84823967Y-103855754D01*
X84837796Y-104066749D01*
X84838912Y-104071142D01*
X84838912Y-104071144D01*
X84861487Y-104160032D01*
X84889845Y-104271690D01*
X84891747Y-104275815D01*
X84891747Y-104275816D01*
X84930518Y-104359916D01*
X84978369Y-104463714D01*
X85100405Y-104636391D01*
X85251865Y-104783937D01*
X85255638Y-104786458D01*
X85423899Y-104898887D01*
X85423902Y-104898889D01*
X85427677Y-104901411D01*
X85524472Y-104942997D01*
X85617774Y-104983083D01*
X85617778Y-104983084D01*
X85621953Y-104984878D01*
X85626387Y-104985881D01*
X85626386Y-104985881D01*
X85823760Y-105030543D01*
X85823765Y-105030544D01*
X85828186Y-105031544D01*
X85933828Y-105035695D01*
X86034937Y-105039668D01*
X86034938Y-105039668D01*
X86039470Y-105039846D01*
X86248730Y-105009504D01*
X86253029Y-105008045D01*
X86253032Y-105008044D01*
X86444654Y-104942997D01*
X86448955Y-104941537D01*
X86633442Y-104838219D01*
X86796012Y-104703012D01*
X86931219Y-104540442D01*
X87034537Y-104355955D01*
X87051189Y-104306900D01*
X87101044Y-104160032D01*
X87101045Y-104160029D01*
X87102504Y-104155730D01*
X87132846Y-103946470D01*
X87134429Y-103886000D01*
X87127435Y-103809880D01*
X87115496Y-103679960D01*
X87115081Y-103675440D01*
X87057686Y-103471931D01*
X86964165Y-103282290D01*
X86837651Y-103112867D01*
X86682381Y-102969337D01*
X86626709Y-102934210D01*
X86507391Y-102858926D01*
X86503554Y-102856505D01*
X86307160Y-102778152D01*
X86099775Y-102736901D01*
X85995599Y-102735537D01*
X85892886Y-102734192D01*
X85892881Y-102734192D01*
X85888346Y-102734133D01*
X85883873Y-102734902D01*
X85883868Y-102734902D01*
X85780601Y-102752647D01*
X85679953Y-102769941D01*
X85481575Y-102843127D01*
X85477676Y-102845446D01*
X85477671Y-102845449D01*
X85326398Y-102935447D01*
X85299856Y-102951238D01*
X85296441Y-102954233D01*
X85296438Y-102954235D01*
X85281977Y-102966917D01*
X85140881Y-103090655D01*
X85009976Y-103256708D01*
X84911523Y-103443836D01*
X84848820Y-103645773D01*
X84848286Y-103650283D01*
X84848286Y-103650284D01*
X84829397Y-103809880D01*
X84823967Y-103855754D01*
X51883807Y-103855754D01*
X51805628Y-103807846D01*
X51565610Y-103708427D01*
X51561836Y-103707521D01*
X51561833Y-103707520D01*
X51409999Y-103671068D01*
X51312994Y-103647779D01*
X51309129Y-103647475D01*
X51309124Y-103647474D01*
X51172785Y-103636744D01*
X51118853Y-103632500D01*
X50989147Y-103632500D01*
X50935215Y-103636744D01*
X50798876Y-103647474D01*
X50798871Y-103647475D01*
X50795006Y-103647779D01*
X50698001Y-103671068D01*
X50546167Y-103707520D01*
X50546164Y-103707521D01*
X50542390Y-103708427D01*
X50302372Y-103807846D01*
X50080860Y-103943588D01*
X49883311Y-104112311D01*
X49714588Y-104309860D01*
X49578846Y-104531372D01*
X49479427Y-104771390D01*
X49418779Y-105024006D01*
X49418475Y-105027871D01*
X49418474Y-105027876D01*
X49417546Y-105039668D01*
X49398396Y-105283000D01*
X47925500Y-105283000D01*
X47925500Y-101592611D01*
X50221394Y-101592611D01*
X50222049Y-101598544D01*
X50222049Y-101598548D01*
X50239344Y-101755204D01*
X50239999Y-101761135D01*
X50298266Y-101920356D01*
X50392830Y-102061083D01*
X50518233Y-102175191D01*
X50667235Y-102256092D01*
X50702189Y-102265262D01*
X50825464Y-102297603D01*
X50825468Y-102297604D01*
X50831233Y-102299116D01*
X50837194Y-102299210D01*
X50837197Y-102299210D01*
X50915965Y-102300447D01*
X51000760Y-102301779D01*
X51006575Y-102300447D01*
X51006577Y-102300447D01*
X51160206Y-102265262D01*
X51160209Y-102265261D01*
X51166029Y-102263928D01*
X51174895Y-102259469D01*
X51312172Y-102190426D01*
X51312174Y-102190425D01*
X51317498Y-102187747D01*
X51328862Y-102178041D01*
X51370046Y-102142867D01*
X51426574Y-102119452D01*
X51486069Y-102133736D01*
X51500969Y-102144924D01*
X51529814Y-102171171D01*
X51529819Y-102171174D01*
X51534233Y-102175191D01*
X51539479Y-102178039D01*
X51539480Y-102178040D01*
X51608734Y-102215642D01*
X51683235Y-102256092D01*
X51718189Y-102265262D01*
X51841464Y-102297603D01*
X51841468Y-102297604D01*
X51847233Y-102299116D01*
X51853195Y-102299210D01*
X51853197Y-102299210D01*
X51920297Y-102300264D01*
X51978184Y-102320083D01*
X52013366Y-102370142D01*
X52017143Y-102388383D01*
X52017999Y-102396135D01*
X52076266Y-102555356D01*
X52079591Y-102560305D01*
X52079592Y-102560306D01*
X52092689Y-102579796D01*
X52170830Y-102696083D01*
X52296233Y-102810191D01*
X52445235Y-102891092D01*
X52480189Y-102900262D01*
X52603464Y-102932603D01*
X52603468Y-102932604D01*
X52609233Y-102934116D01*
X52615194Y-102934210D01*
X52615197Y-102934210D01*
X52693965Y-102935447D01*
X52778760Y-102936779D01*
X52784575Y-102935447D01*
X52784577Y-102935447D01*
X52938206Y-102900262D01*
X52938209Y-102900261D01*
X52944029Y-102898928D01*
X52959610Y-102891092D01*
X53090165Y-102825429D01*
X53095498Y-102822747D01*
X53100035Y-102818872D01*
X53100038Y-102818870D01*
X53219888Y-102716508D01*
X53219891Y-102716505D01*
X53224423Y-102712634D01*
X53323361Y-102574947D01*
X53355031Y-102496168D01*
X53384377Y-102423167D01*
X53384378Y-102423165D01*
X53386601Y-102417634D01*
X53393501Y-102369153D01*
X53410034Y-102252985D01*
X53410034Y-102252979D01*
X53410490Y-102249778D01*
X53410586Y-102240646D01*
X84828500Y-102240646D01*
X84831618Y-102266846D01*
X84877061Y-102369153D01*
X84883529Y-102375610D01*
X84883530Y-102375611D01*
X84898155Y-102390210D01*
X84956287Y-102448241D01*
X84964645Y-102451936D01*
X85051864Y-102490496D01*
X85051866Y-102490496D01*
X85058673Y-102493506D01*
X85066067Y-102494368D01*
X85081378Y-102496153D01*
X85084354Y-102496500D01*
X86873646Y-102496500D01*
X86891561Y-102494368D01*
X86892469Y-102494260D01*
X86892470Y-102494260D01*
X86899846Y-102493382D01*
X87002153Y-102447939D01*
X87081241Y-102368713D01*
X87110896Y-102301635D01*
X87123496Y-102273136D01*
X87123496Y-102273134D01*
X87126506Y-102266327D01*
X87129500Y-102240646D01*
X87129500Y-100451354D01*
X87126382Y-100425154D01*
X87080939Y-100322847D01*
X87001713Y-100243759D01*
X86972591Y-100230884D01*
X86906136Y-100201504D01*
X86906134Y-100201504D01*
X86899327Y-100198494D01*
X86885322Y-100196861D01*
X86876494Y-100195832D01*
X86876493Y-100195832D01*
X86873646Y-100195500D01*
X85084354Y-100195500D01*
X85067951Y-100197452D01*
X85065531Y-100197740D01*
X85065530Y-100197740D01*
X85058154Y-100198618D01*
X84955847Y-100244061D01*
X84876759Y-100323287D01*
X84831494Y-100425673D01*
X84828500Y-100451354D01*
X84828500Y-102240646D01*
X53410586Y-102240646D01*
X53410645Y-102235000D01*
X53390276Y-102066680D01*
X53330345Y-101908077D01*
X53234312Y-101768349D01*
X53107721Y-101655560D01*
X52957881Y-101576224D01*
X52875661Y-101555572D01*
X52799231Y-101536373D01*
X52799228Y-101536373D01*
X52793441Y-101534919D01*
X52738106Y-101534629D01*
X52727951Y-101534576D01*
X52669861Y-101515364D01*
X52634156Y-101465676D01*
X52630187Y-101447472D01*
X52628992Y-101437600D01*
X52628276Y-101431680D01*
X52623467Y-101418952D01*
X52570454Y-101278659D01*
X52568345Y-101273077D01*
X52472312Y-101133349D01*
X52345721Y-101020560D01*
X52195881Y-100941224D01*
X52113661Y-100920571D01*
X52037231Y-100901373D01*
X52037228Y-100901373D01*
X52031441Y-100899919D01*
X51945841Y-100899471D01*
X51867861Y-100899062D01*
X51867859Y-100899062D01*
X51861895Y-100899031D01*
X51856099Y-100900423D01*
X51856095Y-100900423D01*
X51748703Y-100926207D01*
X51697032Y-100938612D01*
X51621701Y-100977493D01*
X51551675Y-101013636D01*
X51551673Y-101013638D01*
X51546369Y-101016375D01*
X51541874Y-101020296D01*
X51541870Y-101020299D01*
X51500299Y-101056564D01*
X51444019Y-101080569D01*
X51384378Y-101066909D01*
X51369361Y-101055878D01*
X51363980Y-101051084D01*
X51329721Y-101020560D01*
X51179881Y-100941224D01*
X51097661Y-100920571D01*
X51021231Y-100901373D01*
X51021228Y-100901373D01*
X51015441Y-100899919D01*
X50929841Y-100899471D01*
X50851861Y-100899062D01*
X50851859Y-100899062D01*
X50845895Y-100899031D01*
X50840099Y-100900423D01*
X50840095Y-100900423D01*
X50732703Y-100926207D01*
X50681032Y-100938612D01*
X50605701Y-100977493D01*
X50535675Y-101013636D01*
X50535673Y-101013638D01*
X50530369Y-101016375D01*
X50402604Y-101127831D01*
X50305113Y-101266547D01*
X50243524Y-101424513D01*
X50221394Y-101592611D01*
X47925500Y-101592611D01*
X47925500Y-97782611D01*
X66477394Y-97782611D01*
X66478049Y-97788544D01*
X66478049Y-97788548D01*
X66495344Y-97945204D01*
X66495999Y-97951135D01*
X66554266Y-98110356D01*
X66648830Y-98251083D01*
X66774233Y-98365191D01*
X66923235Y-98446092D01*
X66924896Y-98446528D01*
X66970766Y-98484471D01*
X66986175Y-98538559D01*
X66986174Y-98538689D01*
X66985394Y-98544611D01*
X66986049Y-98550544D01*
X66986049Y-98550548D01*
X66991523Y-98600131D01*
X67003999Y-98713135D01*
X67062266Y-98872356D01*
X67065591Y-98877305D01*
X67065592Y-98877306D01*
X67078689Y-98896796D01*
X67156830Y-99013083D01*
X67282233Y-99127191D01*
X67431235Y-99208092D01*
X67466189Y-99217262D01*
X67589464Y-99249603D01*
X67589468Y-99249604D01*
X67595233Y-99251116D01*
X67601194Y-99251210D01*
X67601197Y-99251210D01*
X67679965Y-99252447D01*
X67764760Y-99253779D01*
X67770575Y-99252447D01*
X67770577Y-99252447D01*
X67924206Y-99217262D01*
X67924209Y-99217261D01*
X67930029Y-99215928D01*
X67942599Y-99209606D01*
X68076172Y-99142426D01*
X68076174Y-99142425D01*
X68081498Y-99139747D01*
X68086034Y-99135873D01*
X68134046Y-99094867D01*
X68190574Y-99071452D01*
X68250069Y-99085736D01*
X68264969Y-99096924D01*
X68293814Y-99123171D01*
X68293819Y-99123174D01*
X68298233Y-99127191D01*
X68303479Y-99130039D01*
X68303480Y-99130040D01*
X68326298Y-99142429D01*
X68447235Y-99208092D01*
X68482189Y-99217262D01*
X68605464Y-99249603D01*
X68605468Y-99249604D01*
X68611233Y-99251116D01*
X68617194Y-99251210D01*
X68617197Y-99251210D01*
X68695965Y-99252447D01*
X68780760Y-99253779D01*
X68786575Y-99252447D01*
X68786577Y-99252447D01*
X68940206Y-99217262D01*
X68940209Y-99217261D01*
X68946029Y-99215928D01*
X68961610Y-99208092D01*
X69092165Y-99142429D01*
X69097498Y-99139747D01*
X69102035Y-99135872D01*
X69102038Y-99135870D01*
X69221888Y-99033508D01*
X69221891Y-99033505D01*
X69226423Y-99029634D01*
X69245599Y-99002948D01*
X69321877Y-98896796D01*
X69321878Y-98896794D01*
X69325361Y-98891947D01*
X69356653Y-98814108D01*
X69386377Y-98740167D01*
X69386378Y-98740165D01*
X69388601Y-98734634D01*
X69392505Y-98707204D01*
X69412034Y-98569985D01*
X69412034Y-98569979D01*
X69412490Y-98566778D01*
X69412645Y-98552000D01*
X69392276Y-98383680D01*
X69332345Y-98225077D01*
X69236312Y-98085349D01*
X69109721Y-97972560D01*
X69079841Y-97956739D01*
X68959881Y-97893224D01*
X68960881Y-97891336D01*
X68920467Y-97858607D01*
X68904502Y-97803654D01*
X68904611Y-97793232D01*
X68904645Y-97790000D01*
X68904192Y-97786255D01*
X68904219Y-97786116D01*
X68904078Y-97783548D01*
X68904730Y-97783512D01*
X68915968Y-97726213D01*
X68957991Y-97685912D01*
X69030776Y-97649305D01*
X69097498Y-97615747D01*
X69102035Y-97611872D01*
X69102038Y-97611870D01*
X69221888Y-97509508D01*
X69221891Y-97509505D01*
X69224615Y-97507178D01*
X89382820Y-97507178D01*
X89388421Y-97608952D01*
X89393641Y-97703795D01*
X89397804Y-97779446D01*
X89451001Y-98046885D01*
X89541350Y-98304161D01*
X89542961Y-98307262D01*
X89542963Y-98307267D01*
X89585733Y-98389602D01*
X89667048Y-98546141D01*
X89669078Y-98548982D01*
X89669080Y-98548985D01*
X89805701Y-98740167D01*
X89825587Y-98767995D01*
X90013805Y-98965297D01*
X90227944Y-99134111D01*
X90230966Y-99135866D01*
X90230967Y-99135867D01*
X90460712Y-99269314D01*
X90460716Y-99269316D01*
X90463734Y-99271069D01*
X90716468Y-99373437D01*
X90719859Y-99374279D01*
X90719861Y-99374280D01*
X90977706Y-99438329D01*
X90977710Y-99438330D01*
X90981105Y-99439173D01*
X91213664Y-99463000D01*
X91382458Y-99463000D01*
X91584998Y-99448659D01*
X91851569Y-99391268D01*
X91854846Y-99390059D01*
X91854853Y-99390057D01*
X92104113Y-99298100D01*
X92104116Y-99298099D01*
X92107395Y-99296889D01*
X92262413Y-99213246D01*
X92344292Y-99169067D01*
X92344294Y-99169066D01*
X92347370Y-99167406D01*
X92350180Y-99165331D01*
X92350184Y-99165328D01*
X92457942Y-99085736D01*
X92566706Y-99005401D01*
X92761028Y-98814108D01*
X92926458Y-98597344D01*
X92950043Y-98555231D01*
X93057981Y-98362491D01*
X93057982Y-98362490D01*
X93059694Y-98359432D01*
X93158080Y-98105121D01*
X93170814Y-98050185D01*
X93218859Y-97842902D01*
X93218860Y-97842899D01*
X93219651Y-97839484D01*
X93243180Y-97567822D01*
X93239843Y-97507178D01*
X100812820Y-97507178D01*
X100818421Y-97608952D01*
X100823641Y-97703795D01*
X100827804Y-97779446D01*
X100881001Y-98046885D01*
X100971350Y-98304161D01*
X100972961Y-98307262D01*
X100972963Y-98307267D01*
X101015733Y-98389602D01*
X101097048Y-98546141D01*
X101099078Y-98548982D01*
X101099080Y-98548985D01*
X101235701Y-98740167D01*
X101255587Y-98767995D01*
X101443805Y-98965297D01*
X101657944Y-99134111D01*
X101660966Y-99135866D01*
X101660967Y-99135867D01*
X101890712Y-99269314D01*
X101890716Y-99269316D01*
X101893734Y-99271069D01*
X102146468Y-99373437D01*
X102149859Y-99374279D01*
X102149861Y-99374280D01*
X102407706Y-99438329D01*
X102407710Y-99438330D01*
X102411105Y-99439173D01*
X102643664Y-99463000D01*
X102812458Y-99463000D01*
X103014998Y-99448659D01*
X103281569Y-99391268D01*
X103284846Y-99390059D01*
X103284853Y-99390057D01*
X103534113Y-99298100D01*
X103534116Y-99298099D01*
X103537395Y-99296889D01*
X103692413Y-99213246D01*
X103774292Y-99169067D01*
X103774294Y-99169066D01*
X103777370Y-99167406D01*
X103780180Y-99165331D01*
X103780184Y-99165328D01*
X103887942Y-99085736D01*
X103996706Y-99005401D01*
X104191028Y-98814108D01*
X104356458Y-98597344D01*
X104380043Y-98555231D01*
X104487981Y-98362491D01*
X104487982Y-98362490D01*
X104489694Y-98359432D01*
X104588080Y-98105121D01*
X104600814Y-98050185D01*
X104648859Y-97842902D01*
X104648860Y-97842899D01*
X104649651Y-97839484D01*
X104673180Y-97567822D01*
X104658196Y-97295554D01*
X104604999Y-97028115D01*
X104514650Y-96770839D01*
X104494008Y-96731100D01*
X104390563Y-96531961D01*
X104388952Y-96528859D01*
X104352362Y-96477656D01*
X104232450Y-96309855D01*
X104232447Y-96309852D01*
X104230413Y-96307005D01*
X104204322Y-96279654D01*
X104044617Y-96112242D01*
X104042195Y-96109703D01*
X103828056Y-95940889D01*
X103825033Y-95939133D01*
X103595288Y-95805686D01*
X103595284Y-95805684D01*
X103592266Y-95803931D01*
X103339532Y-95701563D01*
X103336141Y-95700721D01*
X103336139Y-95700720D01*
X103078294Y-95636671D01*
X103078290Y-95636670D01*
X103074895Y-95635827D01*
X102842336Y-95612000D01*
X102673542Y-95612000D01*
X102471002Y-95626341D01*
X102204431Y-95683732D01*
X102201154Y-95684941D01*
X102201147Y-95684943D01*
X101951887Y-95776900D01*
X101951884Y-95776901D01*
X101948605Y-95778111D01*
X101708630Y-95907594D01*
X101705820Y-95909669D01*
X101705816Y-95909672D01*
X101658448Y-95944659D01*
X101489294Y-96069599D01*
X101486803Y-96072051D01*
X101486802Y-96072052D01*
X101450762Y-96107530D01*
X101294972Y-96260892D01*
X101129542Y-96477656D01*
X101127830Y-96480713D01*
X101127828Y-96480716D01*
X101004421Y-96701077D01*
X100996306Y-96715568D01*
X100897920Y-96969879D01*
X100897131Y-96973285D01*
X100897129Y-96973290D01*
X100869739Y-97091459D01*
X100836349Y-97235516D01*
X100812820Y-97507178D01*
X93239843Y-97507178D01*
X93228196Y-97295554D01*
X93174999Y-97028115D01*
X93084650Y-96770839D01*
X93064008Y-96731100D01*
X92960563Y-96531961D01*
X92958952Y-96528859D01*
X92922362Y-96477656D01*
X92802450Y-96309855D01*
X92802447Y-96309852D01*
X92800413Y-96307005D01*
X92774322Y-96279654D01*
X92614617Y-96112242D01*
X92612195Y-96109703D01*
X92398056Y-95940889D01*
X92395033Y-95939133D01*
X92165288Y-95805686D01*
X92165284Y-95805684D01*
X92162266Y-95803931D01*
X91909532Y-95701563D01*
X91906141Y-95700721D01*
X91906139Y-95700720D01*
X91648294Y-95636671D01*
X91648290Y-95636670D01*
X91644895Y-95635827D01*
X91412336Y-95612000D01*
X91243542Y-95612000D01*
X91041002Y-95626341D01*
X90774431Y-95683732D01*
X90771154Y-95684941D01*
X90771147Y-95684943D01*
X90521887Y-95776900D01*
X90521884Y-95776901D01*
X90518605Y-95778111D01*
X90278630Y-95907594D01*
X90275820Y-95909669D01*
X90275816Y-95909672D01*
X90228448Y-95944659D01*
X90059294Y-96069599D01*
X90056803Y-96072051D01*
X90056802Y-96072052D01*
X90020762Y-96107530D01*
X89864972Y-96260892D01*
X89699542Y-96477656D01*
X89697830Y-96480713D01*
X89697828Y-96480716D01*
X89574421Y-96701077D01*
X89566306Y-96715568D01*
X89467920Y-96969879D01*
X89467131Y-96973285D01*
X89467129Y-96973290D01*
X89439739Y-97091459D01*
X89406349Y-97235516D01*
X89382820Y-97507178D01*
X69224615Y-97507178D01*
X69226423Y-97505634D01*
X69325361Y-97367947D01*
X69353057Y-97299053D01*
X69386377Y-97216167D01*
X69386378Y-97216165D01*
X69388601Y-97210634D01*
X69389597Y-97203636D01*
X69412034Y-97045985D01*
X69412034Y-97045979D01*
X69412490Y-97042778D01*
X69412645Y-97028000D01*
X69392276Y-96859680D01*
X69332345Y-96701077D01*
X69236312Y-96561349D01*
X69109721Y-96448560D01*
X69079841Y-96432739D01*
X68959881Y-96369224D01*
X68960881Y-96367336D01*
X68920467Y-96334607D01*
X68904502Y-96279654D01*
X68904611Y-96269232D01*
X68904645Y-96266000D01*
X68893792Y-96176314D01*
X68884993Y-96103602D01*
X68884992Y-96103599D01*
X68884276Y-96097680D01*
X68824345Y-95939077D01*
X68804136Y-95909672D01*
X68731692Y-95804267D01*
X68728312Y-95799349D01*
X68601721Y-95686560D01*
X68451881Y-95607224D01*
X68369661Y-95586572D01*
X68293231Y-95567373D01*
X68293228Y-95567373D01*
X68287441Y-95565919D01*
X68201841Y-95565471D01*
X68123861Y-95565062D01*
X68123859Y-95565062D01*
X68117895Y-95565031D01*
X68112099Y-95566423D01*
X68112095Y-95566423D01*
X68004703Y-95592207D01*
X67953032Y-95604612D01*
X67910933Y-95626341D01*
X67807675Y-95679636D01*
X67807673Y-95679638D01*
X67802369Y-95682375D01*
X67797874Y-95686296D01*
X67797870Y-95686299D01*
X67756299Y-95722564D01*
X67700019Y-95746569D01*
X67640378Y-95732909D01*
X67625361Y-95721878D01*
X67602560Y-95701563D01*
X67585721Y-95686560D01*
X67435881Y-95607224D01*
X67353661Y-95586572D01*
X67277231Y-95567373D01*
X67277228Y-95567373D01*
X67271441Y-95565919D01*
X67185841Y-95565471D01*
X67107861Y-95565062D01*
X67107859Y-95565062D01*
X67101895Y-95565031D01*
X67096099Y-95566423D01*
X67096095Y-95566423D01*
X66988703Y-95592207D01*
X66937032Y-95604612D01*
X66894933Y-95626341D01*
X66791675Y-95679636D01*
X66791673Y-95679638D01*
X66786369Y-95682375D01*
X66658604Y-95793831D01*
X66655173Y-95798713D01*
X66655172Y-95798714D01*
X66578650Y-95907594D01*
X66561113Y-95932547D01*
X66499524Y-96090513D01*
X66477394Y-96258611D01*
X66478049Y-96264544D01*
X66478049Y-96264548D01*
X66495344Y-96421204D01*
X66495999Y-96427135D01*
X66554266Y-96586356D01*
X66648830Y-96727083D01*
X66774233Y-96841191D01*
X66923235Y-96922092D01*
X66924896Y-96922528D01*
X66970766Y-96960471D01*
X66986175Y-97014559D01*
X66986174Y-97014689D01*
X66985394Y-97020611D01*
X66986049Y-97026544D01*
X66986049Y-97026548D01*
X66986601Y-97031544D01*
X66974193Y-97091459D01*
X66933605Y-97130381D01*
X66791675Y-97203636D01*
X66791673Y-97203638D01*
X66786369Y-97206375D01*
X66658604Y-97317831D01*
X66561113Y-97456547D01*
X66499524Y-97614513D01*
X66477394Y-97782611D01*
X47925500Y-97782611D01*
X47925500Y-94453165D01*
X87723119Y-94453165D01*
X87736376Y-94683080D01*
X87787006Y-94907742D01*
X87873649Y-95121118D01*
X87993979Y-95317478D01*
X88144763Y-95491548D01*
X88321953Y-95638654D01*
X88520790Y-95754845D01*
X88735934Y-95837001D01*
X88739909Y-95837810D01*
X88739910Y-95837810D01*
X88957624Y-95882104D01*
X88957628Y-95882104D01*
X88961607Y-95882914D01*
X88965667Y-95883063D01*
X88965668Y-95883063D01*
X89007459Y-95884595D01*
X89191749Y-95891353D01*
X89195767Y-95890838D01*
X89195773Y-95890838D01*
X89416146Y-95862608D01*
X89416152Y-95862607D01*
X89420178Y-95862091D01*
X89424071Y-95860923D01*
X89424076Y-95860922D01*
X89608186Y-95805686D01*
X89640761Y-95795913D01*
X89847574Y-95694596D01*
X90035062Y-95560863D01*
X90198190Y-95398303D01*
X90332577Y-95211283D01*
X90434615Y-95004825D01*
X90464112Y-94907742D01*
X90500380Y-94788369D01*
X90500380Y-94788368D01*
X90501563Y-94784475D01*
X90531622Y-94556149D01*
X90533300Y-94487500D01*
X90530477Y-94453165D01*
X103523119Y-94453165D01*
X103536376Y-94683080D01*
X103587006Y-94907742D01*
X103673649Y-95121118D01*
X103793979Y-95317478D01*
X103944763Y-95491548D01*
X104121953Y-95638654D01*
X104320790Y-95754845D01*
X104535934Y-95837001D01*
X104539909Y-95837810D01*
X104539910Y-95837810D01*
X104757624Y-95882104D01*
X104757628Y-95882104D01*
X104761607Y-95882914D01*
X104765667Y-95883063D01*
X104765668Y-95883063D01*
X104807459Y-95884595D01*
X104991749Y-95891353D01*
X104995767Y-95890838D01*
X104995773Y-95890838D01*
X105216146Y-95862608D01*
X105216152Y-95862607D01*
X105220178Y-95862091D01*
X105224071Y-95860923D01*
X105224076Y-95860922D01*
X105408186Y-95805686D01*
X105440761Y-95795913D01*
X105647574Y-95694596D01*
X105835062Y-95560863D01*
X105998190Y-95398303D01*
X106132577Y-95211283D01*
X106234615Y-95004825D01*
X106264112Y-94907742D01*
X106300380Y-94788369D01*
X106300380Y-94788368D01*
X106301563Y-94784475D01*
X106331622Y-94556149D01*
X106333300Y-94487500D01*
X106314430Y-94257978D01*
X106258326Y-94034620D01*
X106166496Y-93823424D01*
X106041405Y-93630063D01*
X105886412Y-93459729D01*
X105883226Y-93457213D01*
X105883223Y-93457210D01*
X105708869Y-93319513D01*
X105708863Y-93319509D01*
X105705681Y-93316996D01*
X105671895Y-93298345D01*
X105507623Y-93207662D01*
X105507622Y-93207661D01*
X105504065Y-93205698D01*
X105500234Y-93204341D01*
X105500231Y-93204340D01*
X105290814Y-93130181D01*
X105290809Y-93130180D01*
X105286978Y-93128823D01*
X105060250Y-93088437D01*
X105056204Y-93088388D01*
X105056198Y-93088387D01*
X104929094Y-93086834D01*
X104829971Y-93085623D01*
X104602325Y-93120458D01*
X104484433Y-93158991D01*
X104387281Y-93190745D01*
X104387277Y-93190747D01*
X104383424Y-93192006D01*
X104379824Y-93193880D01*
X104182754Y-93296468D01*
X104182751Y-93296470D01*
X104179149Y-93298345D01*
X103994984Y-93436619D01*
X103835877Y-93603116D01*
X103833585Y-93606476D01*
X103708389Y-93790005D01*
X103708386Y-93790011D01*
X103706099Y-93793363D01*
X103609136Y-94002252D01*
X103547592Y-94224173D01*
X103523119Y-94453165D01*
X90530477Y-94453165D01*
X90514430Y-94257978D01*
X90458326Y-94034620D01*
X90366496Y-93823424D01*
X90241405Y-93630063D01*
X90086412Y-93459729D01*
X90083226Y-93457213D01*
X90083223Y-93457210D01*
X89908869Y-93319513D01*
X89908863Y-93319509D01*
X89905681Y-93316996D01*
X89871895Y-93298345D01*
X89707623Y-93207662D01*
X89707622Y-93207661D01*
X89704065Y-93205698D01*
X89700234Y-93204341D01*
X89700231Y-93204340D01*
X89490814Y-93130181D01*
X89490809Y-93130180D01*
X89486978Y-93128823D01*
X89260250Y-93088437D01*
X89256204Y-93088388D01*
X89256198Y-93088387D01*
X89129094Y-93086834D01*
X89029971Y-93085623D01*
X88802325Y-93120458D01*
X88684433Y-93158991D01*
X88587281Y-93190745D01*
X88587277Y-93190747D01*
X88583424Y-93192006D01*
X88579824Y-93193880D01*
X88382754Y-93296468D01*
X88382751Y-93296470D01*
X88379149Y-93298345D01*
X88194984Y-93436619D01*
X88035877Y-93603116D01*
X88033585Y-93606476D01*
X87908389Y-93790005D01*
X87908386Y-93790011D01*
X87906099Y-93793363D01*
X87809136Y-94002252D01*
X87747592Y-94224173D01*
X87723119Y-94453165D01*
X47925500Y-94453165D01*
X47925500Y-92194611D01*
X79177394Y-92194611D01*
X79178049Y-92200544D01*
X79178049Y-92200548D01*
X79188057Y-92291200D01*
X79195999Y-92363135D01*
X79254266Y-92522356D01*
X79348830Y-92663083D01*
X79474233Y-92777191D01*
X79623235Y-92858092D01*
X79672952Y-92871135D01*
X79781464Y-92899603D01*
X79781468Y-92899604D01*
X79787233Y-92901116D01*
X79793194Y-92901210D01*
X79793197Y-92901210D01*
X79871965Y-92902447D01*
X79956760Y-92903779D01*
X80118208Y-92866803D01*
X80179150Y-92872242D01*
X80225257Y-92912464D01*
X80233278Y-92929282D01*
X80268215Y-93024753D01*
X80268217Y-93024757D01*
X80270266Y-93030356D01*
X80273591Y-93035305D01*
X80273592Y-93035306D01*
X80286689Y-93054796D01*
X80364830Y-93171083D01*
X80490233Y-93285191D01*
X80639235Y-93366092D01*
X80674189Y-93375262D01*
X80797464Y-93407603D01*
X80797468Y-93407604D01*
X80803233Y-93409116D01*
X80809194Y-93409210D01*
X80809197Y-93409210D01*
X80887996Y-93410447D01*
X80972760Y-93411779D01*
X80978575Y-93410447D01*
X80978577Y-93410447D01*
X81132206Y-93375262D01*
X81132209Y-93375261D01*
X81138029Y-93373928D01*
X81153610Y-93366092D01*
X81246221Y-93319513D01*
X81289498Y-93297747D01*
X81294035Y-93293872D01*
X81294038Y-93293870D01*
X81413888Y-93191508D01*
X81413891Y-93191505D01*
X81418423Y-93187634D01*
X81460683Y-93128823D01*
X81513877Y-93054796D01*
X81513878Y-93054794D01*
X81517361Y-93049947D01*
X81565869Y-92929282D01*
X81578377Y-92898167D01*
X81578378Y-92898165D01*
X81580601Y-92892634D01*
X81583661Y-92871135D01*
X81604034Y-92727985D01*
X81604034Y-92727979D01*
X81604490Y-92724778D01*
X81604645Y-92710000D01*
X81584276Y-92541680D01*
X81524345Y-92383077D01*
X81510640Y-92363135D01*
X81437695Y-92257001D01*
X81420317Y-92198336D01*
X81438887Y-92143157D01*
X81513874Y-92038800D01*
X81513875Y-92038799D01*
X81517361Y-92033947D01*
X81520350Y-92026513D01*
X81578377Y-91882167D01*
X81578378Y-91882165D01*
X81580601Y-91876634D01*
X81582446Y-91863669D01*
X81604034Y-91711985D01*
X81604034Y-91711979D01*
X81604490Y-91708778D01*
X81604645Y-91694000D01*
X81584276Y-91525680D01*
X81524345Y-91367077D01*
X81516642Y-91355868D01*
X81431692Y-91232267D01*
X81428312Y-91227349D01*
X81301721Y-91114560D01*
X81151881Y-91035224D01*
X81031365Y-91004952D01*
X80993231Y-90995373D01*
X80993228Y-90995373D01*
X80987441Y-90993919D01*
X80901841Y-90993471D01*
X80823861Y-90993062D01*
X80823859Y-90993062D01*
X80817895Y-90993031D01*
X80812093Y-90994424D01*
X80665367Y-91029650D01*
X80604371Y-91024849D01*
X80557845Y-90985113D01*
X80549647Y-90968379D01*
X80520388Y-90890947D01*
X80508345Y-90859077D01*
X80461850Y-90791426D01*
X80420668Y-90731507D01*
X91482500Y-90731507D01*
X91482501Y-91643492D01*
X91489171Y-91716094D01*
X91518014Y-91808131D01*
X91535419Y-91863669D01*
X91539873Y-91877883D01*
X91627703Y-92022908D01*
X91747592Y-92142797D01*
X91892617Y-92230627D01*
X91898310Y-92232411D01*
X91898312Y-92232412D01*
X91976487Y-92256911D01*
X92054406Y-92281329D01*
X92127007Y-92288000D01*
X92582899Y-92288000D01*
X93038992Y-92287999D01*
X93088638Y-92283438D01*
X93106360Y-92281810D01*
X93106361Y-92281810D01*
X93111594Y-92281329D01*
X93203631Y-92252486D01*
X93267688Y-92232412D01*
X93267690Y-92232411D01*
X93273383Y-92230627D01*
X93418408Y-92142797D01*
X93538297Y-92022908D01*
X93626127Y-91877883D01*
X93630582Y-91863669D01*
X93652411Y-91794013D01*
X93676829Y-91716094D01*
X93683500Y-91643493D01*
X93683499Y-91158569D01*
X94018164Y-91158569D01*
X94018461Y-91163097D01*
X94024333Y-91252685D01*
X94031392Y-91360394D01*
X94032508Y-91364787D01*
X94032508Y-91364789D01*
X94071952Y-91520099D01*
X94081178Y-91556428D01*
X94165856Y-91740107D01*
X94282588Y-91905280D01*
X94427466Y-92046413D01*
X94595637Y-92158782D01*
X94781470Y-92238622D01*
X94978740Y-92283260D01*
X95180842Y-92291200D01*
X95190651Y-92289778D01*
X95376519Y-92262829D01*
X95376522Y-92262828D01*
X95381007Y-92262178D01*
X95483061Y-92227535D01*
X95568234Y-92198623D01*
X95568237Y-92198621D01*
X95572531Y-92197164D01*
X95749001Y-92098337D01*
X95904505Y-91969005D01*
X96033837Y-91813501D01*
X96132664Y-91637031D01*
X96197678Y-91445507D01*
X96211129Y-91352739D01*
X96226283Y-91248217D01*
X96226700Y-91245342D01*
X96227702Y-91207092D01*
X96228139Y-91190413D01*
X96228139Y-91190408D01*
X96228215Y-91187500D01*
X96227399Y-91178611D01*
X96225557Y-91158569D01*
X96558164Y-91158569D01*
X96558461Y-91163097D01*
X96564333Y-91252685D01*
X96571392Y-91360394D01*
X96572508Y-91364787D01*
X96572508Y-91364789D01*
X96611952Y-91520099D01*
X96621178Y-91556428D01*
X96705856Y-91740107D01*
X96822588Y-91905280D01*
X96967466Y-92046413D01*
X97135637Y-92158782D01*
X97321470Y-92238622D01*
X97518740Y-92283260D01*
X97720842Y-92291200D01*
X97730651Y-92289778D01*
X97916519Y-92262829D01*
X97916522Y-92262828D01*
X97921007Y-92262178D01*
X98023061Y-92227535D01*
X98108234Y-92198623D01*
X98108237Y-92198621D01*
X98112531Y-92197164D01*
X98289001Y-92098337D01*
X98444505Y-91969005D01*
X98573837Y-91813501D01*
X98672664Y-91637031D01*
X98737678Y-91445507D01*
X98751129Y-91352739D01*
X98766283Y-91248217D01*
X98766700Y-91245342D01*
X98767702Y-91207092D01*
X98768139Y-91190413D01*
X98768139Y-91190408D01*
X98768215Y-91187500D01*
X98767399Y-91178611D01*
X98765557Y-91158569D01*
X99098164Y-91158569D01*
X99098461Y-91163097D01*
X99104333Y-91252685D01*
X99111392Y-91360394D01*
X99112508Y-91364787D01*
X99112508Y-91364789D01*
X99151952Y-91520099D01*
X99161178Y-91556428D01*
X99245856Y-91740107D01*
X99362588Y-91905280D01*
X99507466Y-92046413D01*
X99675637Y-92158782D01*
X99861470Y-92238622D01*
X100058740Y-92283260D01*
X100260842Y-92291200D01*
X100270651Y-92289778D01*
X100456519Y-92262829D01*
X100456522Y-92262828D01*
X100461007Y-92262178D01*
X100563061Y-92227535D01*
X100648234Y-92198623D01*
X100648237Y-92198621D01*
X100652531Y-92197164D01*
X100829001Y-92098337D01*
X100984505Y-91969005D01*
X101113837Y-91813501D01*
X101212664Y-91637031D01*
X101277678Y-91445507D01*
X101291129Y-91352739D01*
X101306283Y-91248217D01*
X101306700Y-91245342D01*
X101307702Y-91207092D01*
X101308139Y-91190413D01*
X101308139Y-91190408D01*
X101308215Y-91187500D01*
X101307399Y-91178611D01*
X101293973Y-91032508D01*
X101289708Y-90986091D01*
X101234807Y-90791426D01*
X101145351Y-90610027D01*
X101024335Y-90447967D01*
X100875812Y-90310674D01*
X100853125Y-90296359D01*
X100708594Y-90205167D01*
X100704757Y-90202746D01*
X100516898Y-90127798D01*
X100318526Y-90088339D01*
X100218930Y-90087035D01*
X100120826Y-90085751D01*
X100120821Y-90085751D01*
X100116286Y-90085692D01*
X100111813Y-90086461D01*
X100111808Y-90086461D01*
X100013245Y-90103398D01*
X99916949Y-90119944D01*
X99727193Y-90189949D01*
X99553371Y-90293362D01*
X99549956Y-90296357D01*
X99549953Y-90296359D01*
X99491212Y-90347874D01*
X99401305Y-90426720D01*
X99398497Y-90430282D01*
X99306284Y-90547255D01*
X99276089Y-90585557D01*
X99181914Y-90764553D01*
X99180569Y-90768884D01*
X99180568Y-90768887D01*
X99150831Y-90864659D01*
X99121937Y-90957713D01*
X99098164Y-91158569D01*
X98765557Y-91158569D01*
X98753973Y-91032508D01*
X98749708Y-90986091D01*
X98694807Y-90791426D01*
X98605351Y-90610027D01*
X98484335Y-90447967D01*
X98335812Y-90310674D01*
X98313125Y-90296359D01*
X98168594Y-90205167D01*
X98164757Y-90202746D01*
X97976898Y-90127798D01*
X97778526Y-90088339D01*
X97678930Y-90087035D01*
X97580826Y-90085751D01*
X97580821Y-90085751D01*
X97576286Y-90085692D01*
X97571813Y-90086461D01*
X97571808Y-90086461D01*
X97473245Y-90103398D01*
X97376949Y-90119944D01*
X97187193Y-90189949D01*
X97013371Y-90293362D01*
X97009956Y-90296357D01*
X97009953Y-90296359D01*
X96951212Y-90347874D01*
X96861305Y-90426720D01*
X96858497Y-90430282D01*
X96766284Y-90547255D01*
X96736089Y-90585557D01*
X96641914Y-90764553D01*
X96640569Y-90768884D01*
X96640568Y-90768887D01*
X96610831Y-90864659D01*
X96581937Y-90957713D01*
X96558164Y-91158569D01*
X96225557Y-91158569D01*
X96213973Y-91032508D01*
X96209708Y-90986091D01*
X96154807Y-90791426D01*
X96065351Y-90610027D01*
X95944335Y-90447967D01*
X95795812Y-90310674D01*
X95773125Y-90296359D01*
X95628594Y-90205167D01*
X95624757Y-90202746D01*
X95436898Y-90127798D01*
X95238526Y-90088339D01*
X95138930Y-90087035D01*
X95040826Y-90085751D01*
X95040821Y-90085751D01*
X95036286Y-90085692D01*
X95031813Y-90086461D01*
X95031808Y-90086461D01*
X94933245Y-90103398D01*
X94836949Y-90119944D01*
X94647193Y-90189949D01*
X94473371Y-90293362D01*
X94469956Y-90296357D01*
X94469953Y-90296359D01*
X94411212Y-90347874D01*
X94321305Y-90426720D01*
X94318497Y-90430282D01*
X94226284Y-90547255D01*
X94196089Y-90585557D01*
X94101914Y-90764553D01*
X94100569Y-90768884D01*
X94100568Y-90768887D01*
X94070831Y-90864659D01*
X94041937Y-90957713D01*
X94018164Y-91158569D01*
X93683499Y-91158569D01*
X93683499Y-90731508D01*
X93676829Y-90658906D01*
X93642006Y-90547786D01*
X93627912Y-90502812D01*
X93627911Y-90502810D01*
X93626127Y-90497117D01*
X93538297Y-90352092D01*
X93418408Y-90232203D01*
X93273383Y-90144373D01*
X93267690Y-90142589D01*
X93267688Y-90142588D01*
X93177440Y-90114306D01*
X93111594Y-90093671D01*
X93038993Y-90087000D01*
X92583101Y-90087000D01*
X92127008Y-90087001D01*
X92087472Y-90090633D01*
X92059640Y-90093190D01*
X92059639Y-90093190D01*
X92054406Y-90093671D01*
X91965560Y-90121514D01*
X91898312Y-90142588D01*
X91898310Y-90142589D01*
X91892617Y-90144373D01*
X91747592Y-90232203D01*
X91627703Y-90352092D01*
X91539873Y-90497117D01*
X91538089Y-90502810D01*
X91538088Y-90502812D01*
X91523994Y-90547786D01*
X91489171Y-90658906D01*
X91482500Y-90731507D01*
X80420668Y-90731507D01*
X80415692Y-90724267D01*
X80412312Y-90719349D01*
X80285721Y-90606560D01*
X80135881Y-90527224D01*
X80016022Y-90497117D01*
X79977231Y-90487373D01*
X79977228Y-90487373D01*
X79971441Y-90485919D01*
X79885841Y-90485471D01*
X79807861Y-90485062D01*
X79807859Y-90485062D01*
X79801895Y-90485031D01*
X79796099Y-90486423D01*
X79796095Y-90486423D01*
X79727833Y-90502812D01*
X79637032Y-90524612D01*
X79585906Y-90551000D01*
X79491675Y-90599636D01*
X79491673Y-90599638D01*
X79486369Y-90602375D01*
X79358604Y-90713831D01*
X79355173Y-90718713D01*
X79355172Y-90718714D01*
X79325777Y-90760539D01*
X79261113Y-90852547D01*
X79258945Y-90858108D01*
X79215952Y-90968379D01*
X79199524Y-91010513D01*
X79177394Y-91178611D01*
X79178049Y-91184544D01*
X79178049Y-91184548D01*
X79185582Y-91252779D01*
X79195999Y-91347135D01*
X79254266Y-91506356D01*
X79257591Y-91511305D01*
X79257592Y-91511306D01*
X79344084Y-91640020D01*
X79360847Y-91698865D01*
X79342911Y-91752160D01*
X79261113Y-91868547D01*
X79258945Y-91874108D01*
X79202920Y-92017804D01*
X79199524Y-92026513D01*
X79177394Y-92194611D01*
X47925500Y-92194611D01*
X47925500Y-88511611D01*
X48570394Y-88511611D01*
X48571049Y-88517544D01*
X48571049Y-88517548D01*
X48588344Y-88674204D01*
X48588999Y-88680135D01*
X48647266Y-88839356D01*
X48650591Y-88844305D01*
X48650592Y-88844306D01*
X48663689Y-88863796D01*
X48741830Y-88980083D01*
X48867233Y-89094191D01*
X49016235Y-89175092D01*
X49017896Y-89175528D01*
X49063766Y-89213471D01*
X49079175Y-89267559D01*
X49079174Y-89267689D01*
X49078394Y-89273611D01*
X49079049Y-89279544D01*
X49079049Y-89279548D01*
X49095549Y-89429005D01*
X49096999Y-89442135D01*
X49155266Y-89601356D01*
X49158591Y-89606305D01*
X49158592Y-89606306D01*
X49171689Y-89625796D01*
X49249830Y-89742083D01*
X49375233Y-89856191D01*
X49524235Y-89937092D01*
X49559189Y-89946262D01*
X49682464Y-89978603D01*
X49682468Y-89978604D01*
X49688233Y-89980116D01*
X49694194Y-89980210D01*
X49694197Y-89980210D01*
X49772996Y-89981447D01*
X49857760Y-89982779D01*
X49863575Y-89981447D01*
X49863577Y-89981447D01*
X50017206Y-89946262D01*
X50017209Y-89946261D01*
X50023029Y-89944928D01*
X50038610Y-89937092D01*
X50161586Y-89875241D01*
X50174498Y-89868747D01*
X50179035Y-89864872D01*
X50179038Y-89864870D01*
X50276521Y-89781611D01*
X57587394Y-89781611D01*
X57588049Y-89787544D01*
X57588049Y-89787548D01*
X57604559Y-89937092D01*
X57605999Y-89950135D01*
X57664266Y-90109356D01*
X57667591Y-90114305D01*
X57667592Y-90114306D01*
X57677788Y-90129479D01*
X57758830Y-90250083D01*
X57884233Y-90364191D01*
X57889482Y-90367041D01*
X57912293Y-90379426D01*
X58033235Y-90445092D01*
X58034896Y-90445528D01*
X58080766Y-90483471D01*
X58096175Y-90537559D01*
X58096174Y-90537689D01*
X58095394Y-90543611D01*
X58096049Y-90549544D01*
X58096049Y-90549548D01*
X58108699Y-90664132D01*
X58113999Y-90712135D01*
X58172266Y-90871356D01*
X58175591Y-90876305D01*
X58175592Y-90876306D01*
X58188689Y-90895796D01*
X58266830Y-91012083D01*
X58392233Y-91126191D01*
X58541235Y-91207092D01*
X58576189Y-91216262D01*
X58699464Y-91248603D01*
X58699468Y-91248604D01*
X58705233Y-91250116D01*
X58711194Y-91250210D01*
X58711197Y-91250210D01*
X58789996Y-91251447D01*
X58874760Y-91252779D01*
X58880575Y-91251447D01*
X58880577Y-91251447D01*
X59034206Y-91216262D01*
X59034209Y-91216261D01*
X59040029Y-91214928D01*
X59052599Y-91208606D01*
X59186172Y-91141426D01*
X59186174Y-91141425D01*
X59191498Y-91138747D01*
X59196034Y-91134873D01*
X59244046Y-91093867D01*
X59300574Y-91070452D01*
X59360069Y-91084736D01*
X59374969Y-91095924D01*
X59403814Y-91122171D01*
X59403819Y-91122174D01*
X59408233Y-91126191D01*
X59413479Y-91129039D01*
X59413480Y-91129040D01*
X59436298Y-91141429D01*
X59557235Y-91207092D01*
X59592189Y-91216262D01*
X59715464Y-91248603D01*
X59715468Y-91248604D01*
X59721233Y-91250116D01*
X59727194Y-91250210D01*
X59727197Y-91250210D01*
X59805996Y-91251447D01*
X59890760Y-91252779D01*
X59896575Y-91251447D01*
X59896577Y-91251447D01*
X60050206Y-91216262D01*
X60050209Y-91216261D01*
X60056029Y-91214928D01*
X60071610Y-91207092D01*
X60168086Y-91158569D01*
X60207498Y-91138747D01*
X60212035Y-91134872D01*
X60212038Y-91134870D01*
X60331888Y-91032508D01*
X60331891Y-91032505D01*
X60336423Y-91028634D01*
X60353440Y-91004952D01*
X60431877Y-90895796D01*
X60431878Y-90895794D01*
X60435361Y-90890947D01*
X60448563Y-90858108D01*
X60496377Y-90739167D01*
X60496378Y-90739165D01*
X60498601Y-90733634D01*
X60500634Y-90719349D01*
X60522034Y-90568985D01*
X60522034Y-90568979D01*
X60522490Y-90565778D01*
X60522645Y-90551000D01*
X60522192Y-90547255D01*
X60522219Y-90547116D01*
X60522078Y-90544548D01*
X60522730Y-90544512D01*
X60533968Y-90487213D01*
X60575991Y-90446912D01*
X60710172Y-90379426D01*
X60710174Y-90379425D01*
X60715498Y-90376747D01*
X60720034Y-90372873D01*
X60768046Y-90331867D01*
X60824574Y-90308452D01*
X60884069Y-90322736D01*
X60898969Y-90333924D01*
X60927814Y-90360171D01*
X60927819Y-90360174D01*
X60932233Y-90364191D01*
X60937479Y-90367039D01*
X60937480Y-90367040D01*
X60960298Y-90379429D01*
X61081235Y-90445092D01*
X61116189Y-90454262D01*
X61239464Y-90486603D01*
X61239468Y-90486604D01*
X61245233Y-90488116D01*
X61251194Y-90488210D01*
X61251197Y-90488210D01*
X61329996Y-90489447D01*
X61414760Y-90490779D01*
X61420575Y-90489447D01*
X61420577Y-90489447D01*
X61574206Y-90454262D01*
X61574209Y-90454261D01*
X61580029Y-90452928D01*
X61589893Y-90447967D01*
X61726172Y-90379426D01*
X61726174Y-90379425D01*
X61731498Y-90376747D01*
X61736034Y-90372873D01*
X61784046Y-90331867D01*
X61840574Y-90308452D01*
X61900069Y-90322736D01*
X61914969Y-90333924D01*
X61943814Y-90360171D01*
X61943819Y-90360174D01*
X61948233Y-90364191D01*
X61953479Y-90367039D01*
X61953480Y-90367040D01*
X61976298Y-90379429D01*
X62097235Y-90445092D01*
X62132189Y-90454262D01*
X62255464Y-90486603D01*
X62255468Y-90486604D01*
X62261233Y-90488116D01*
X62267194Y-90488210D01*
X62267197Y-90488210D01*
X62345996Y-90489447D01*
X62430760Y-90490779D01*
X62436575Y-90489447D01*
X62436577Y-90489447D01*
X62590206Y-90454262D01*
X62590209Y-90454261D01*
X62596029Y-90452928D01*
X62607991Y-90446912D01*
X62742165Y-90379429D01*
X62747498Y-90376747D01*
X62752035Y-90372872D01*
X62752038Y-90372870D01*
X62871888Y-90270508D01*
X62871891Y-90270505D01*
X62876423Y-90266634D01*
X62901164Y-90232203D01*
X62971877Y-90133796D01*
X62971878Y-90133794D01*
X62975361Y-90128947D01*
X62978981Y-90119944D01*
X63036377Y-89977167D01*
X63036378Y-89977165D01*
X63038601Y-89971634D01*
X63042505Y-89944204D01*
X63062034Y-89806985D01*
X63062034Y-89806979D01*
X63062490Y-89803778D01*
X63062645Y-89789000D01*
X63050237Y-89686469D01*
X63042993Y-89626602D01*
X63042992Y-89626599D01*
X63042276Y-89620680D01*
X62982345Y-89462077D01*
X62968640Y-89442135D01*
X62889692Y-89327267D01*
X62886312Y-89322349D01*
X62842720Y-89283510D01*
X73268938Y-89283510D01*
X73297904Y-89346341D01*
X73302422Y-89354167D01*
X73419171Y-89519363D01*
X73425035Y-89526229D01*
X73569931Y-89667381D01*
X73576954Y-89673068D01*
X73745139Y-89785446D01*
X73753087Y-89789762D01*
X73785594Y-89803728D01*
X73796938Y-89804770D01*
X73800000Y-89797642D01*
X73800000Y-89795458D01*
X74800000Y-89795458D01*
X74803521Y-89806293D01*
X74808651Y-89806293D01*
X74950194Y-89727026D01*
X74957652Y-89721900D01*
X75022885Y-89667646D01*
X75689500Y-89667646D01*
X75692618Y-89693846D01*
X75738061Y-89796153D01*
X75744529Y-89802610D01*
X75744530Y-89802611D01*
X75748912Y-89806985D01*
X75817287Y-89875241D01*
X75825645Y-89878936D01*
X75912864Y-89917496D01*
X75912866Y-89917496D01*
X75919673Y-89920506D01*
X75927067Y-89921368D01*
X75942378Y-89923153D01*
X75945354Y-89923500D01*
X77734646Y-89923500D01*
X77752561Y-89921368D01*
X77753469Y-89921260D01*
X77753470Y-89921260D01*
X77760846Y-89920382D01*
X77863153Y-89874939D01*
X77873205Y-89864870D01*
X77903024Y-89834998D01*
X77942241Y-89795713D01*
X77987506Y-89693327D01*
X77990500Y-89667646D01*
X77990500Y-88618569D01*
X92748164Y-88618569D01*
X92761392Y-88820394D01*
X92762508Y-88824787D01*
X92762508Y-88824789D01*
X92781868Y-88901019D01*
X92811178Y-89016428D01*
X92895856Y-89200107D01*
X93012588Y-89365280D01*
X93157466Y-89506413D01*
X93325637Y-89618782D01*
X93511470Y-89698622D01*
X93708740Y-89743260D01*
X93910842Y-89751200D01*
X93964377Y-89743438D01*
X94106519Y-89722829D01*
X94106522Y-89722828D01*
X94111007Y-89722178D01*
X94263074Y-89670558D01*
X94298234Y-89658623D01*
X94298237Y-89658621D01*
X94302531Y-89657164D01*
X94479001Y-89558337D01*
X94634505Y-89429005D01*
X94763837Y-89273501D01*
X94862664Y-89097031D01*
X94885234Y-89030544D01*
X94908089Y-88963213D01*
X94927678Y-88905507D01*
X94956700Y-88705342D01*
X94958215Y-88647500D01*
X94955557Y-88618569D01*
X95288164Y-88618569D01*
X95301392Y-88820394D01*
X95302508Y-88824787D01*
X95302508Y-88824789D01*
X95321868Y-88901019D01*
X95351178Y-89016428D01*
X95435856Y-89200107D01*
X95552588Y-89365280D01*
X95697466Y-89506413D01*
X95865637Y-89618782D01*
X96051470Y-89698622D01*
X96248740Y-89743260D01*
X96450842Y-89751200D01*
X96504377Y-89743438D01*
X96646519Y-89722829D01*
X96646522Y-89722828D01*
X96651007Y-89722178D01*
X96803074Y-89670558D01*
X96838234Y-89658623D01*
X96838237Y-89658621D01*
X96842531Y-89657164D01*
X97019001Y-89558337D01*
X97174505Y-89429005D01*
X97303837Y-89273501D01*
X97402664Y-89097031D01*
X97425234Y-89030544D01*
X97448089Y-88963213D01*
X97467678Y-88905507D01*
X97496700Y-88705342D01*
X97498215Y-88647500D01*
X97495557Y-88618569D01*
X97828164Y-88618569D01*
X97841392Y-88820394D01*
X97842508Y-88824787D01*
X97842508Y-88824789D01*
X97861868Y-88901019D01*
X97891178Y-89016428D01*
X97975856Y-89200107D01*
X98092588Y-89365280D01*
X98237466Y-89506413D01*
X98405637Y-89618782D01*
X98591470Y-89698622D01*
X98788740Y-89743260D01*
X98990842Y-89751200D01*
X99044377Y-89743438D01*
X99186519Y-89722829D01*
X99186522Y-89722828D01*
X99191007Y-89722178D01*
X99343074Y-89670558D01*
X99378234Y-89658623D01*
X99378237Y-89658621D01*
X99382531Y-89657164D01*
X99559001Y-89558337D01*
X99714505Y-89429005D01*
X99843837Y-89273501D01*
X99942664Y-89097031D01*
X99965234Y-89030544D01*
X99988089Y-88963213D01*
X100007678Y-88905507D01*
X100036700Y-88705342D01*
X100038215Y-88647500D01*
X100035557Y-88618569D01*
X100368164Y-88618569D01*
X100381392Y-88820394D01*
X100382508Y-88824787D01*
X100382508Y-88824789D01*
X100401868Y-88901019D01*
X100431178Y-89016428D01*
X100515856Y-89200107D01*
X100632588Y-89365280D01*
X100777466Y-89506413D01*
X100945637Y-89618782D01*
X101131470Y-89698622D01*
X101328740Y-89743260D01*
X101530842Y-89751200D01*
X101584377Y-89743438D01*
X101726519Y-89722829D01*
X101726522Y-89722828D01*
X101731007Y-89722178D01*
X101883074Y-89670558D01*
X101918234Y-89658623D01*
X101918237Y-89658621D01*
X101922531Y-89657164D01*
X102099001Y-89558337D01*
X102254505Y-89429005D01*
X102383837Y-89273501D01*
X102482664Y-89097031D01*
X102505234Y-89030544D01*
X102528089Y-88963213D01*
X102547678Y-88905507D01*
X102576700Y-88705342D01*
X102578215Y-88647500D01*
X102574751Y-88609796D01*
X102560123Y-88450609D01*
X102559708Y-88446091D01*
X102504807Y-88251426D01*
X102475062Y-88191108D01*
X102425895Y-88091408D01*
X102415351Y-88070027D01*
X102322114Y-87945167D01*
X102297051Y-87911604D01*
X102297050Y-87911603D01*
X102294335Y-87907967D01*
X102145812Y-87770674D01*
X102126748Y-87758645D01*
X101978594Y-87665167D01*
X101974757Y-87662746D01*
X101786898Y-87587798D01*
X101588526Y-87548339D01*
X101488930Y-87547035D01*
X101390826Y-87545751D01*
X101390821Y-87545751D01*
X101386286Y-87545692D01*
X101381813Y-87546461D01*
X101381808Y-87546461D01*
X101283245Y-87563398D01*
X101186949Y-87579944D01*
X100997193Y-87649949D01*
X100823371Y-87753362D01*
X100819956Y-87756357D01*
X100819953Y-87756359D01*
X100772797Y-87797714D01*
X100671305Y-87886720D01*
X100668497Y-87890282D01*
X100578976Y-88003840D01*
X100546089Y-88045557D01*
X100451914Y-88224553D01*
X100450569Y-88228884D01*
X100450568Y-88228887D01*
X100393372Y-88413092D01*
X100391937Y-88417713D01*
X100368164Y-88618569D01*
X100035557Y-88618569D01*
X100034751Y-88609796D01*
X100020123Y-88450609D01*
X100019708Y-88446091D01*
X99964807Y-88251426D01*
X99935062Y-88191108D01*
X99885895Y-88091408D01*
X99875351Y-88070027D01*
X99782114Y-87945167D01*
X99757051Y-87911604D01*
X99757050Y-87911603D01*
X99754335Y-87907967D01*
X99605812Y-87770674D01*
X99586748Y-87758645D01*
X99438594Y-87665167D01*
X99434757Y-87662746D01*
X99246898Y-87587798D01*
X99048526Y-87548339D01*
X98948930Y-87547035D01*
X98850826Y-87545751D01*
X98850821Y-87545751D01*
X98846286Y-87545692D01*
X98841813Y-87546461D01*
X98841808Y-87546461D01*
X98743245Y-87563398D01*
X98646949Y-87579944D01*
X98457193Y-87649949D01*
X98283371Y-87753362D01*
X98279956Y-87756357D01*
X98279953Y-87756359D01*
X98232797Y-87797714D01*
X98131305Y-87886720D01*
X98128497Y-87890282D01*
X98038976Y-88003840D01*
X98006089Y-88045557D01*
X97911914Y-88224553D01*
X97910569Y-88228884D01*
X97910568Y-88228887D01*
X97853372Y-88413092D01*
X97851937Y-88417713D01*
X97828164Y-88618569D01*
X97495557Y-88618569D01*
X97494751Y-88609796D01*
X97480123Y-88450609D01*
X97479708Y-88446091D01*
X97424807Y-88251426D01*
X97395062Y-88191108D01*
X97345895Y-88091408D01*
X97335351Y-88070027D01*
X97242114Y-87945167D01*
X97217051Y-87911604D01*
X97217050Y-87911603D01*
X97214335Y-87907967D01*
X97065812Y-87770674D01*
X97046748Y-87758645D01*
X96898594Y-87665167D01*
X96894757Y-87662746D01*
X96706898Y-87587798D01*
X96508526Y-87548339D01*
X96408930Y-87547035D01*
X96310826Y-87545751D01*
X96310821Y-87545751D01*
X96306286Y-87545692D01*
X96301813Y-87546461D01*
X96301808Y-87546461D01*
X96203245Y-87563398D01*
X96106949Y-87579944D01*
X95917193Y-87649949D01*
X95743371Y-87753362D01*
X95739956Y-87756357D01*
X95739953Y-87756359D01*
X95692797Y-87797714D01*
X95591305Y-87886720D01*
X95588497Y-87890282D01*
X95498976Y-88003840D01*
X95466089Y-88045557D01*
X95371914Y-88224553D01*
X95370569Y-88228884D01*
X95370568Y-88228887D01*
X95313372Y-88413092D01*
X95311937Y-88417713D01*
X95288164Y-88618569D01*
X94955557Y-88618569D01*
X94954751Y-88609796D01*
X94940123Y-88450609D01*
X94939708Y-88446091D01*
X94884807Y-88251426D01*
X94855062Y-88191108D01*
X94805895Y-88091408D01*
X94795351Y-88070027D01*
X94702114Y-87945167D01*
X94677051Y-87911604D01*
X94677050Y-87911603D01*
X94674335Y-87907967D01*
X94525812Y-87770674D01*
X94506748Y-87758645D01*
X94358594Y-87665167D01*
X94354757Y-87662746D01*
X94166898Y-87587798D01*
X93968526Y-87548339D01*
X93868930Y-87547035D01*
X93770826Y-87545751D01*
X93770821Y-87545751D01*
X93766286Y-87545692D01*
X93761813Y-87546461D01*
X93761808Y-87546461D01*
X93663245Y-87563398D01*
X93566949Y-87579944D01*
X93377193Y-87649949D01*
X93203371Y-87753362D01*
X93199956Y-87756357D01*
X93199953Y-87756359D01*
X93152797Y-87797714D01*
X93051305Y-87886720D01*
X93048497Y-87890282D01*
X92958976Y-88003840D01*
X92926089Y-88045557D01*
X92831914Y-88224553D01*
X92830569Y-88228884D01*
X92830568Y-88228887D01*
X92773372Y-88413092D01*
X92771937Y-88417713D01*
X92748164Y-88618569D01*
X77990500Y-88618569D01*
X77990500Y-87878354D01*
X77987382Y-87852154D01*
X77941939Y-87749847D01*
X77912920Y-87720878D01*
X77881515Y-87689528D01*
X77862713Y-87670759D01*
X77833591Y-87657884D01*
X77767136Y-87628504D01*
X77767134Y-87628504D01*
X77760327Y-87625494D01*
X77746322Y-87623861D01*
X77737494Y-87622832D01*
X77737493Y-87622832D01*
X77734646Y-87622500D01*
X75945354Y-87622500D01*
X75928951Y-87624452D01*
X75926531Y-87624740D01*
X75926530Y-87624740D01*
X75919154Y-87625618D01*
X75816847Y-87671061D01*
X75810390Y-87677529D01*
X75810389Y-87677530D01*
X75776976Y-87711002D01*
X75737759Y-87750287D01*
X75734064Y-87758645D01*
X75697376Y-87841631D01*
X75692494Y-87852673D01*
X75689500Y-87878354D01*
X75689500Y-89667646D01*
X75022885Y-89667646D01*
X75113157Y-89592568D01*
X75119568Y-89586157D01*
X75248900Y-89430652D01*
X75254026Y-89423194D01*
X75330476Y-89286682D01*
X75332699Y-89275507D01*
X75328221Y-89273000D01*
X74815680Y-89273000D01*
X74802995Y-89277122D01*
X74800000Y-89281243D01*
X74800000Y-89795458D01*
X73800000Y-89795458D01*
X73800000Y-89288680D01*
X73795878Y-89275995D01*
X73791757Y-89273000D01*
X73279773Y-89273000D01*
X73268938Y-89276521D01*
X73268938Y-89283510D01*
X62842720Y-89283510D01*
X62759721Y-89209560D01*
X62741868Y-89200107D01*
X62609881Y-89130224D01*
X62610881Y-89128336D01*
X62570467Y-89095607D01*
X62554502Y-89040654D01*
X62554611Y-89030232D01*
X62554645Y-89027000D01*
X62554192Y-89023255D01*
X62554219Y-89023116D01*
X62554078Y-89020548D01*
X62554730Y-89020512D01*
X62565968Y-88963213D01*
X62607991Y-88922912D01*
X62680776Y-88886305D01*
X62747498Y-88852747D01*
X62752035Y-88848872D01*
X62752038Y-88848870D01*
X62871888Y-88746508D01*
X62871891Y-88746505D01*
X62876423Y-88742634D01*
X62903220Y-88705342D01*
X62971877Y-88609796D01*
X62971878Y-88609794D01*
X62975361Y-88604947D01*
X63010496Y-88517548D01*
X63036377Y-88453167D01*
X63036378Y-88453165D01*
X63038601Y-88447634D01*
X63039442Y-88441727D01*
X63062034Y-88282985D01*
X63062034Y-88282979D01*
X63062490Y-88279778D01*
X63062645Y-88265000D01*
X63042276Y-88096680D01*
X62982345Y-87938077D01*
X62978606Y-87932636D01*
X62889692Y-87803267D01*
X62886312Y-87798349D01*
X62831610Y-87749611D01*
X66096394Y-87749611D01*
X66097049Y-87755544D01*
X66097049Y-87755548D01*
X66111200Y-87883728D01*
X66114999Y-87918135D01*
X66173266Y-88077356D01*
X66176591Y-88082305D01*
X66176592Y-88082306D01*
X66189689Y-88101796D01*
X66267830Y-88218083D01*
X66393233Y-88332191D01*
X66398482Y-88335041D01*
X66409218Y-88340870D01*
X66542235Y-88413092D01*
X66577189Y-88422262D01*
X66700464Y-88454603D01*
X66700468Y-88454604D01*
X66706233Y-88456116D01*
X66712194Y-88456210D01*
X66712197Y-88456210D01*
X66790965Y-88457447D01*
X66875760Y-88458779D01*
X66881575Y-88457447D01*
X66881577Y-88457447D01*
X67035206Y-88422262D01*
X67035209Y-88422261D01*
X67041029Y-88420928D01*
X67046362Y-88418246D01*
X67187172Y-88347426D01*
X67187174Y-88347425D01*
X67192498Y-88344747D01*
X67197034Y-88340873D01*
X67245046Y-88299867D01*
X67301574Y-88276452D01*
X67361069Y-88290736D01*
X67375969Y-88301924D01*
X67404814Y-88328171D01*
X67404819Y-88328174D01*
X67409233Y-88332191D01*
X67414479Y-88335039D01*
X67414480Y-88335040D01*
X67483734Y-88372642D01*
X67558235Y-88413092D01*
X67593189Y-88422262D01*
X67716464Y-88454603D01*
X67716468Y-88454604D01*
X67722233Y-88456116D01*
X67728194Y-88456210D01*
X67728197Y-88456210D01*
X67806965Y-88457447D01*
X67891760Y-88458779D01*
X67897575Y-88457447D01*
X67897577Y-88457447D01*
X68051206Y-88422262D01*
X68051209Y-88422261D01*
X68057029Y-88420928D01*
X68062362Y-88418246D01*
X68203172Y-88347426D01*
X68203174Y-88347425D01*
X68208498Y-88344747D01*
X68213034Y-88340873D01*
X68261046Y-88299867D01*
X68317574Y-88276452D01*
X68377069Y-88290736D01*
X68391969Y-88301924D01*
X68420814Y-88328171D01*
X68420819Y-88328174D01*
X68425233Y-88332191D01*
X68430479Y-88335039D01*
X68430480Y-88335040D01*
X68499734Y-88372642D01*
X68574235Y-88413092D01*
X68609189Y-88422262D01*
X68732464Y-88454603D01*
X68732468Y-88454604D01*
X68738233Y-88456116D01*
X68744194Y-88456210D01*
X68744197Y-88456210D01*
X68822965Y-88457447D01*
X68907760Y-88458779D01*
X68913575Y-88457447D01*
X68913577Y-88457447D01*
X69067206Y-88422262D01*
X69067209Y-88422261D01*
X69073029Y-88420928D01*
X69079422Y-88417713D01*
X69148764Y-88382837D01*
X69224498Y-88344747D01*
X69229035Y-88340872D01*
X69229038Y-88340870D01*
X69311605Y-88270351D01*
X73268888Y-88270351D01*
X73273924Y-88273000D01*
X73784320Y-88273000D01*
X73797005Y-88268878D01*
X73800000Y-88264757D01*
X73800000Y-88257320D01*
X74800000Y-88257320D01*
X74804122Y-88270005D01*
X74808243Y-88273000D01*
X75320072Y-88273000D01*
X75330907Y-88269479D01*
X75330907Y-88263175D01*
X75286745Y-88173624D01*
X75282020Y-88165914D01*
X75160994Y-88003840D01*
X75154945Y-87997122D01*
X75006405Y-87859814D01*
X74999240Y-87854315D01*
X74828163Y-87746374D01*
X74820111Y-87742271D01*
X74814564Y-87740058D01*
X74803196Y-87739313D01*
X74800000Y-87747323D01*
X74800000Y-88257320D01*
X73800000Y-88257320D01*
X73800000Y-87747920D01*
X73796479Y-87737085D01*
X73791856Y-87737085D01*
X73625047Y-87836326D01*
X73617745Y-87841631D01*
X73465657Y-87975010D01*
X73459434Y-87981568D01*
X73334209Y-88140415D01*
X73329284Y-88147998D01*
X73270817Y-88259124D01*
X73268888Y-88270351D01*
X69311605Y-88270351D01*
X69348888Y-88238508D01*
X69348891Y-88238505D01*
X69353423Y-88234634D01*
X69362430Y-88222100D01*
X69448877Y-88101796D01*
X69448878Y-88101794D01*
X69452361Y-88096947D01*
X69455350Y-88089513D01*
X69513377Y-87945167D01*
X69513378Y-87945165D01*
X69515601Y-87939634D01*
X69519505Y-87912204D01*
X69539034Y-87774985D01*
X69539034Y-87774979D01*
X69539490Y-87771778D01*
X69539645Y-87757000D01*
X69521737Y-87609017D01*
X69519993Y-87594602D01*
X69519992Y-87594599D01*
X69519276Y-87588680D01*
X69459345Y-87430077D01*
X69363312Y-87290349D01*
X69236721Y-87177560D01*
X69225705Y-87171727D01*
X69086881Y-87098224D01*
X69087881Y-87096336D01*
X69047467Y-87063607D01*
X69031502Y-87008654D01*
X69031611Y-86998232D01*
X69031611Y-86998231D01*
X69031645Y-86995000D01*
X69011276Y-86826680D01*
X68951345Y-86668077D01*
X68934978Y-86644262D01*
X68858692Y-86533267D01*
X68855312Y-86528349D01*
X68728721Y-86415560D01*
X68578881Y-86336224D01*
X68488048Y-86313408D01*
X68420231Y-86296373D01*
X68420228Y-86296373D01*
X68414441Y-86294919D01*
X68328841Y-86294471D01*
X68250861Y-86294062D01*
X68250859Y-86294062D01*
X68244895Y-86294031D01*
X68239099Y-86295423D01*
X68239095Y-86295423D01*
X68141115Y-86318947D01*
X68080032Y-86333612D01*
X68004700Y-86372494D01*
X67934675Y-86408636D01*
X67934673Y-86408638D01*
X67929369Y-86411375D01*
X67924874Y-86415296D01*
X67924870Y-86415299D01*
X67883299Y-86451564D01*
X67827019Y-86475569D01*
X67767378Y-86461909D01*
X67752361Y-86450878D01*
X67734686Y-86435130D01*
X67712721Y-86415560D01*
X67562881Y-86336224D01*
X67472048Y-86313408D01*
X67404231Y-86296373D01*
X67404228Y-86296373D01*
X67398441Y-86294919D01*
X67312841Y-86294471D01*
X67234861Y-86294062D01*
X67234859Y-86294062D01*
X67228895Y-86294031D01*
X67223099Y-86295423D01*
X67223095Y-86295423D01*
X67125115Y-86318947D01*
X67064032Y-86333612D01*
X66988700Y-86372494D01*
X66918675Y-86408636D01*
X66918673Y-86408638D01*
X66913369Y-86411375D01*
X66785604Y-86522831D01*
X66782173Y-86527713D01*
X66782172Y-86527714D01*
X66700261Y-86644262D01*
X66688113Y-86661547D01*
X66626524Y-86819513D01*
X66604394Y-86987611D01*
X66605049Y-86993544D01*
X66605049Y-86993548D01*
X66605601Y-86998544D01*
X66593193Y-87058459D01*
X66552605Y-87097381D01*
X66503832Y-87122554D01*
X66410675Y-87170636D01*
X66410673Y-87170638D01*
X66405369Y-87173375D01*
X66277604Y-87284831D01*
X66180113Y-87423547D01*
X66118524Y-87581513D01*
X66117745Y-87587428D01*
X66117745Y-87587429D01*
X66117580Y-87588680D01*
X66096394Y-87749611D01*
X62831610Y-87749611D01*
X62759721Y-87685560D01*
X62609881Y-87606224D01*
X62517818Y-87583099D01*
X62451231Y-87566373D01*
X62451228Y-87566373D01*
X62445441Y-87564919D01*
X62359841Y-87564471D01*
X62281861Y-87564062D01*
X62281859Y-87564062D01*
X62275895Y-87564031D01*
X62270099Y-87565423D01*
X62270095Y-87565423D01*
X62173227Y-87588680D01*
X62111032Y-87603612D01*
X62062805Y-87628504D01*
X61965675Y-87678636D01*
X61965673Y-87678638D01*
X61960369Y-87681375D01*
X61955874Y-87685296D01*
X61955870Y-87685299D01*
X61914299Y-87721564D01*
X61858019Y-87745569D01*
X61798378Y-87731909D01*
X61783361Y-87720878D01*
X61777980Y-87716084D01*
X61743721Y-87685560D01*
X61593881Y-87606224D01*
X61501818Y-87583099D01*
X61435231Y-87566373D01*
X61435228Y-87566373D01*
X61429441Y-87564919D01*
X61343841Y-87564471D01*
X61265861Y-87564062D01*
X61265859Y-87564062D01*
X61259895Y-87564031D01*
X61254099Y-87565423D01*
X61254095Y-87565423D01*
X61157227Y-87588680D01*
X61095032Y-87603612D01*
X61046805Y-87628504D01*
X60949675Y-87678636D01*
X60949673Y-87678638D01*
X60944369Y-87681375D01*
X60939874Y-87685296D01*
X60939870Y-87685299D01*
X60898299Y-87721564D01*
X60842019Y-87745569D01*
X60782378Y-87731909D01*
X60767361Y-87720878D01*
X60761980Y-87716084D01*
X60727721Y-87685560D01*
X60577881Y-87606224D01*
X60485818Y-87583099D01*
X60419231Y-87566373D01*
X60419228Y-87566373D01*
X60413441Y-87564919D01*
X60327841Y-87564471D01*
X60249861Y-87564062D01*
X60249859Y-87564062D01*
X60243895Y-87564031D01*
X60238099Y-87565423D01*
X60238095Y-87565423D01*
X60141227Y-87588680D01*
X60079032Y-87603612D01*
X60030805Y-87628504D01*
X59933675Y-87678636D01*
X59933673Y-87678638D01*
X59928369Y-87681375D01*
X59923874Y-87685296D01*
X59923870Y-87685299D01*
X59882299Y-87721564D01*
X59826019Y-87745569D01*
X59766378Y-87731909D01*
X59751361Y-87720878D01*
X59745980Y-87716084D01*
X59711721Y-87685560D01*
X59561881Y-87606224D01*
X59469818Y-87583099D01*
X59403231Y-87566373D01*
X59403228Y-87566373D01*
X59397441Y-87564919D01*
X59311841Y-87564471D01*
X59233861Y-87564062D01*
X59233859Y-87564062D01*
X59227895Y-87564031D01*
X59222099Y-87565423D01*
X59222095Y-87565423D01*
X59125227Y-87588680D01*
X59063032Y-87603612D01*
X59014805Y-87628504D01*
X58917675Y-87678636D01*
X58917673Y-87678638D01*
X58912369Y-87681375D01*
X58907874Y-87685296D01*
X58907870Y-87685299D01*
X58866299Y-87721564D01*
X58810019Y-87745569D01*
X58750378Y-87731909D01*
X58735361Y-87720878D01*
X58729980Y-87716084D01*
X58695721Y-87685560D01*
X58545881Y-87606224D01*
X58453818Y-87583099D01*
X58387231Y-87566373D01*
X58387228Y-87566373D01*
X58381441Y-87564919D01*
X58295841Y-87564471D01*
X58217861Y-87564062D01*
X58217859Y-87564062D01*
X58211895Y-87564031D01*
X58206099Y-87565423D01*
X58206095Y-87565423D01*
X58109227Y-87588680D01*
X58047032Y-87603612D01*
X57998805Y-87628504D01*
X57901675Y-87678636D01*
X57901673Y-87678638D01*
X57896369Y-87681375D01*
X57768604Y-87792831D01*
X57765173Y-87797713D01*
X57765172Y-87797714D01*
X57674544Y-87926665D01*
X57671113Y-87931547D01*
X57609524Y-88089513D01*
X57587394Y-88257611D01*
X57588049Y-88263544D01*
X57588049Y-88263548D01*
X57604559Y-88413092D01*
X57605999Y-88426135D01*
X57664266Y-88585356D01*
X57667591Y-88590305D01*
X57667592Y-88590306D01*
X57686584Y-88618569D01*
X57758830Y-88726083D01*
X57884233Y-88840191D01*
X58033235Y-88921092D01*
X58034896Y-88921528D01*
X58080766Y-88959471D01*
X58096175Y-89013559D01*
X58096174Y-89013689D01*
X58095394Y-89019611D01*
X58096049Y-89025544D01*
X58096049Y-89025548D01*
X58096601Y-89030544D01*
X58084193Y-89090459D01*
X58043605Y-89129381D01*
X57994832Y-89154554D01*
X57901675Y-89202636D01*
X57901673Y-89202638D01*
X57896369Y-89205375D01*
X57768604Y-89316831D01*
X57765173Y-89321713D01*
X57765172Y-89321714D01*
X57674544Y-89450665D01*
X57671113Y-89455547D01*
X57609524Y-89613513D01*
X57608745Y-89619428D01*
X57608745Y-89619429D01*
X57603777Y-89657164D01*
X57587394Y-89781611D01*
X50276521Y-89781611D01*
X50298888Y-89762508D01*
X50298891Y-89762505D01*
X50303423Y-89758634D01*
X50312430Y-89746100D01*
X50398877Y-89625796D01*
X50398878Y-89625794D01*
X50402361Y-89620947D01*
X50405350Y-89613513D01*
X50463377Y-89469167D01*
X50463378Y-89469165D01*
X50465601Y-89463634D01*
X50470295Y-89430652D01*
X50489034Y-89298985D01*
X50489034Y-89298979D01*
X50489490Y-89295778D01*
X50489645Y-89281000D01*
X50489192Y-89277255D01*
X50489219Y-89277116D01*
X50489078Y-89274548D01*
X50489730Y-89274512D01*
X50500968Y-89217213D01*
X50542991Y-89176912D01*
X50639573Y-89128336D01*
X50682498Y-89106747D01*
X50687035Y-89102872D01*
X50687038Y-89102870D01*
X50806888Y-89000508D01*
X50806891Y-89000505D01*
X50811423Y-88996634D01*
X50826875Y-88975130D01*
X50906877Y-88863796D01*
X50906878Y-88863794D01*
X50910361Y-88858947D01*
X50912854Y-88852747D01*
X50971377Y-88707167D01*
X50971378Y-88707165D01*
X50973601Y-88701634D01*
X50980891Y-88650413D01*
X50997034Y-88536985D01*
X50997034Y-88536979D01*
X50997490Y-88533778D01*
X50997645Y-88519000D01*
X50997192Y-88515255D01*
X50997219Y-88515116D01*
X50997078Y-88512548D01*
X50997730Y-88512512D01*
X51008968Y-88455213D01*
X51050991Y-88414912D01*
X51185172Y-88347426D01*
X51185174Y-88347425D01*
X51190498Y-88344747D01*
X51195034Y-88340873D01*
X51243046Y-88299867D01*
X51299574Y-88276452D01*
X51359069Y-88290736D01*
X51373969Y-88301924D01*
X51402814Y-88328171D01*
X51402819Y-88328174D01*
X51407233Y-88332191D01*
X51412479Y-88335039D01*
X51412480Y-88335040D01*
X51481734Y-88372642D01*
X51556235Y-88413092D01*
X51591189Y-88422262D01*
X51714464Y-88454603D01*
X51714468Y-88454604D01*
X51720233Y-88456116D01*
X51726194Y-88456210D01*
X51726197Y-88456210D01*
X51804965Y-88457447D01*
X51889760Y-88458779D01*
X51895575Y-88457447D01*
X51895577Y-88457447D01*
X52049206Y-88422262D01*
X52049209Y-88422261D01*
X52055029Y-88420928D01*
X52061422Y-88417713D01*
X52130764Y-88382837D01*
X52206498Y-88344747D01*
X52211035Y-88340872D01*
X52211038Y-88340870D01*
X52330888Y-88238508D01*
X52330891Y-88238505D01*
X52335423Y-88234634D01*
X52344430Y-88222100D01*
X52430877Y-88101796D01*
X52430878Y-88101794D01*
X52434361Y-88096947D01*
X52437350Y-88089513D01*
X52495377Y-87945167D01*
X52495378Y-87945165D01*
X52497601Y-87939634D01*
X52501505Y-87912204D01*
X52521034Y-87774985D01*
X52521034Y-87774979D01*
X52521490Y-87771778D01*
X52521645Y-87757000D01*
X52521192Y-87753255D01*
X52521219Y-87753116D01*
X52521078Y-87750548D01*
X52521730Y-87750512D01*
X52532968Y-87693213D01*
X52574991Y-87652912D01*
X52670710Y-87604770D01*
X52714498Y-87582747D01*
X52719035Y-87578872D01*
X52719038Y-87578870D01*
X52838888Y-87476508D01*
X52838891Y-87476505D01*
X52843423Y-87472634D01*
X52869992Y-87435659D01*
X52938877Y-87339796D01*
X52938878Y-87339794D01*
X52942361Y-87334947D01*
X52958313Y-87295267D01*
X53003377Y-87183167D01*
X53003378Y-87183165D01*
X53005601Y-87177634D01*
X53016903Y-87098224D01*
X53029034Y-87012985D01*
X53029034Y-87012979D01*
X53029490Y-87009778D01*
X53029645Y-86995000D01*
X53009276Y-86826680D01*
X52949345Y-86668077D01*
X52932978Y-86644262D01*
X52856692Y-86533267D01*
X52853312Y-86528349D01*
X52726721Y-86415560D01*
X52576881Y-86336224D01*
X52486048Y-86313408D01*
X52418231Y-86296373D01*
X52418228Y-86296373D01*
X52412441Y-86294919D01*
X52326841Y-86294471D01*
X52248861Y-86294062D01*
X52248859Y-86294062D01*
X52242895Y-86294031D01*
X52237099Y-86295423D01*
X52237095Y-86295423D01*
X52139115Y-86318947D01*
X52078032Y-86333612D01*
X52002700Y-86372494D01*
X51932675Y-86408636D01*
X51932673Y-86408638D01*
X51927369Y-86411375D01*
X51922874Y-86415296D01*
X51922870Y-86415299D01*
X51881299Y-86451564D01*
X51825019Y-86475569D01*
X51765378Y-86461909D01*
X51750361Y-86450878D01*
X51732686Y-86435130D01*
X51710721Y-86415560D01*
X51560881Y-86336224D01*
X51470048Y-86313408D01*
X51402231Y-86296373D01*
X51402228Y-86296373D01*
X51396441Y-86294919D01*
X51310841Y-86294471D01*
X51232861Y-86294062D01*
X51232859Y-86294062D01*
X51226895Y-86294031D01*
X51221099Y-86295423D01*
X51221095Y-86295423D01*
X51123115Y-86318947D01*
X51062032Y-86333612D01*
X50986700Y-86372494D01*
X50916675Y-86408636D01*
X50916673Y-86408638D01*
X50911369Y-86411375D01*
X50906874Y-86415296D01*
X50906870Y-86415299D01*
X50865299Y-86451564D01*
X50809019Y-86475569D01*
X50749378Y-86461909D01*
X50734361Y-86450878D01*
X50716686Y-86435130D01*
X50694721Y-86415560D01*
X50544881Y-86336224D01*
X50454048Y-86313408D01*
X50386231Y-86296373D01*
X50386228Y-86296373D01*
X50380441Y-86294919D01*
X50294841Y-86294471D01*
X50216861Y-86294062D01*
X50216859Y-86294062D01*
X50210895Y-86294031D01*
X50205099Y-86295423D01*
X50205095Y-86295423D01*
X50107115Y-86318947D01*
X50046032Y-86333612D01*
X49970700Y-86372494D01*
X49900675Y-86408636D01*
X49900673Y-86408638D01*
X49895369Y-86411375D01*
X49890874Y-86415296D01*
X49890870Y-86415299D01*
X49849299Y-86451564D01*
X49793019Y-86475569D01*
X49733378Y-86461909D01*
X49718361Y-86450878D01*
X49700686Y-86435130D01*
X49678721Y-86415560D01*
X49528881Y-86336224D01*
X49438048Y-86313408D01*
X49370231Y-86296373D01*
X49370228Y-86296373D01*
X49364441Y-86294919D01*
X49278841Y-86294471D01*
X49200861Y-86294062D01*
X49200859Y-86294062D01*
X49194895Y-86294031D01*
X49189099Y-86295423D01*
X49189095Y-86295423D01*
X49091115Y-86318947D01*
X49030032Y-86333612D01*
X48954700Y-86372494D01*
X48884675Y-86408636D01*
X48884673Y-86408638D01*
X48879369Y-86411375D01*
X48751604Y-86522831D01*
X48748173Y-86527713D01*
X48748172Y-86527714D01*
X48666261Y-86644262D01*
X48654113Y-86661547D01*
X48592524Y-86819513D01*
X48570394Y-86987611D01*
X48571049Y-86993544D01*
X48571049Y-86993548D01*
X48588344Y-87150204D01*
X48588999Y-87156135D01*
X48647266Y-87315356D01*
X48650591Y-87320305D01*
X48650592Y-87320306D01*
X48663689Y-87339796D01*
X48741830Y-87456083D01*
X48867233Y-87570191D01*
X48872482Y-87573041D01*
X48877844Y-87575952D01*
X49016235Y-87651092D01*
X49017896Y-87651528D01*
X49063766Y-87689471D01*
X49079175Y-87743559D01*
X49079174Y-87743689D01*
X49078394Y-87749611D01*
X49079049Y-87755544D01*
X49079049Y-87755548D01*
X49079601Y-87760544D01*
X49067193Y-87820459D01*
X49026605Y-87859381D01*
X48884675Y-87932636D01*
X48884673Y-87932638D01*
X48879369Y-87935375D01*
X48751604Y-88046831D01*
X48748173Y-88051713D01*
X48748172Y-88051714D01*
X48657544Y-88180665D01*
X48654113Y-88185547D01*
X48638905Y-88224553D01*
X48595828Y-88335040D01*
X48592524Y-88343513D01*
X48570394Y-88511611D01*
X47925500Y-88511611D01*
X47925500Y-85971611D01*
X57206394Y-85971611D01*
X57207049Y-85977544D01*
X57207049Y-85977548D01*
X57207566Y-85982231D01*
X57224999Y-86140135D01*
X57283266Y-86299356D01*
X57286591Y-86304305D01*
X57286592Y-86304306D01*
X57299689Y-86323796D01*
X57377830Y-86440083D01*
X57503233Y-86554191D01*
X57652235Y-86635092D01*
X57687189Y-86644262D01*
X57810464Y-86676603D01*
X57810468Y-86676604D01*
X57816233Y-86678116D01*
X57822194Y-86678210D01*
X57822197Y-86678210D01*
X57900965Y-86679447D01*
X57985760Y-86680779D01*
X57991575Y-86679447D01*
X57991577Y-86679447D01*
X58145206Y-86644262D01*
X58145209Y-86644261D01*
X58151029Y-86642928D01*
X58166610Y-86635092D01*
X58297165Y-86569429D01*
X58302498Y-86566747D01*
X58307035Y-86562872D01*
X58307038Y-86562870D01*
X58426888Y-86460508D01*
X58426891Y-86460505D01*
X58431423Y-86456634D01*
X58446875Y-86435130D01*
X58526877Y-86323796D01*
X58526878Y-86323794D01*
X58530361Y-86318947D01*
X58540021Y-86294919D01*
X58591377Y-86167167D01*
X58591378Y-86167165D01*
X58593601Y-86161634D01*
X58617490Y-85993778D01*
X58617645Y-85979000D01*
X58616751Y-85971611D01*
X64191394Y-85971611D01*
X64192049Y-85977544D01*
X64192049Y-85977548D01*
X64192566Y-85982231D01*
X64209999Y-86140135D01*
X64268266Y-86299356D01*
X64271591Y-86304305D01*
X64271592Y-86304306D01*
X64284689Y-86323796D01*
X64362830Y-86440083D01*
X64488233Y-86554191D01*
X64637235Y-86635092D01*
X64672189Y-86644262D01*
X64795464Y-86676603D01*
X64795468Y-86676604D01*
X64801233Y-86678116D01*
X64807194Y-86678210D01*
X64807197Y-86678210D01*
X64885965Y-86679447D01*
X64970760Y-86680779D01*
X64976575Y-86679447D01*
X64976577Y-86679447D01*
X65130206Y-86644262D01*
X65130209Y-86644261D01*
X65136029Y-86642928D01*
X65151610Y-86635092D01*
X65282165Y-86569429D01*
X65287498Y-86566747D01*
X65292035Y-86562872D01*
X65292038Y-86562870D01*
X65411888Y-86460508D01*
X65411891Y-86460505D01*
X65416423Y-86456634D01*
X65431875Y-86435130D01*
X65511877Y-86323796D01*
X65511878Y-86323794D01*
X65515361Y-86318947D01*
X65525021Y-86294919D01*
X65576377Y-86167167D01*
X65576378Y-86167165D01*
X65578601Y-86161634D01*
X65602490Y-85993778D01*
X65602645Y-85979000D01*
X65582276Y-85810680D01*
X65522345Y-85652077D01*
X65426312Y-85512349D01*
X65299721Y-85399560D01*
X65149881Y-85320224D01*
X65067661Y-85299571D01*
X64991231Y-85280373D01*
X64991228Y-85280373D01*
X64985441Y-85278919D01*
X64899841Y-85278471D01*
X64821861Y-85278062D01*
X64821859Y-85278062D01*
X64815895Y-85278031D01*
X64810099Y-85279423D01*
X64810095Y-85279423D01*
X64702703Y-85305207D01*
X64651032Y-85317612D01*
X64575701Y-85356493D01*
X64505675Y-85392636D01*
X64505673Y-85392638D01*
X64500369Y-85395375D01*
X64372604Y-85506831D01*
X64275113Y-85645547D01*
X64213524Y-85803513D01*
X64191394Y-85971611D01*
X58616751Y-85971611D01*
X58597276Y-85810680D01*
X58537345Y-85652077D01*
X58441312Y-85512349D01*
X58314721Y-85399560D01*
X58164881Y-85320224D01*
X58082661Y-85299571D01*
X58006231Y-85280373D01*
X58006228Y-85280373D01*
X58000441Y-85278919D01*
X57914841Y-85278471D01*
X57836861Y-85278062D01*
X57836859Y-85278062D01*
X57830895Y-85278031D01*
X57825099Y-85279423D01*
X57825095Y-85279423D01*
X57717703Y-85305207D01*
X57666032Y-85317612D01*
X57590701Y-85356493D01*
X57520675Y-85392636D01*
X57520673Y-85392638D01*
X57515369Y-85395375D01*
X57387604Y-85506831D01*
X57290113Y-85645547D01*
X57228524Y-85803513D01*
X57206394Y-85971611D01*
X47925500Y-85971611D01*
X47925500Y-84465646D01*
X54734500Y-84465646D01*
X54737618Y-84491846D01*
X54783061Y-84594153D01*
X54789529Y-84600610D01*
X54789530Y-84600611D01*
X54816964Y-84627997D01*
X54862287Y-84673241D01*
X54870645Y-84676936D01*
X54957864Y-84715496D01*
X54957866Y-84715496D01*
X54964673Y-84718506D01*
X54972067Y-84719368D01*
X54987378Y-84721153D01*
X54990354Y-84721500D01*
X56779646Y-84721500D01*
X56797561Y-84719368D01*
X56798469Y-84719260D01*
X56798470Y-84719260D01*
X56805846Y-84718382D01*
X56908153Y-84672939D01*
X56987241Y-84593713D01*
X57032506Y-84491327D01*
X57035500Y-84465646D01*
X57035500Y-83540754D01*
X57269967Y-83540754D01*
X57275397Y-83623597D01*
X57283320Y-83744480D01*
X57283796Y-83751749D01*
X57284912Y-83756142D01*
X57284912Y-83756144D01*
X57307487Y-83845032D01*
X57335845Y-83956690D01*
X57337747Y-83960815D01*
X57337747Y-83960816D01*
X57376518Y-84044916D01*
X57424369Y-84148714D01*
X57546405Y-84321391D01*
X57697865Y-84468937D01*
X57701638Y-84471458D01*
X57869899Y-84583887D01*
X57869902Y-84583889D01*
X57873677Y-84586411D01*
X57970472Y-84627997D01*
X58063774Y-84668083D01*
X58063778Y-84668084D01*
X58067953Y-84669878D01*
X58097881Y-84676650D01*
X58269760Y-84715543D01*
X58269765Y-84715544D01*
X58274186Y-84716544D01*
X58379828Y-84720695D01*
X58480937Y-84724668D01*
X58480938Y-84724668D01*
X58485470Y-84724846D01*
X58694730Y-84694504D01*
X58699029Y-84693045D01*
X58699032Y-84693044D01*
X58890654Y-84627997D01*
X58894955Y-84626537D01*
X58942021Y-84600179D01*
X59075481Y-84525437D01*
X59079442Y-84523219D01*
X59242012Y-84388012D01*
X59377219Y-84225442D01*
X59480537Y-84040955D01*
X59481997Y-84036654D01*
X59547044Y-83845032D01*
X59547045Y-83845029D01*
X59548504Y-83840730D01*
X59562460Y-83744480D01*
X59578426Y-83634369D01*
X59578426Y-83634363D01*
X59578846Y-83631470D01*
X59580429Y-83571000D01*
X59577650Y-83540754D01*
X59809967Y-83540754D01*
X59815397Y-83623597D01*
X59823320Y-83744480D01*
X59823796Y-83751749D01*
X59824912Y-83756142D01*
X59824912Y-83756144D01*
X59847487Y-83845032D01*
X59875845Y-83956690D01*
X59877747Y-83960815D01*
X59877747Y-83960816D01*
X59916518Y-84044916D01*
X59964369Y-84148714D01*
X60086405Y-84321391D01*
X60237865Y-84468937D01*
X60241638Y-84471458D01*
X60409899Y-84583887D01*
X60409902Y-84583889D01*
X60413677Y-84586411D01*
X60510472Y-84627997D01*
X60603774Y-84668083D01*
X60603778Y-84668084D01*
X60607953Y-84669878D01*
X60637881Y-84676650D01*
X60809760Y-84715543D01*
X60809765Y-84715544D01*
X60814186Y-84716544D01*
X60919828Y-84720695D01*
X61020937Y-84724668D01*
X61020938Y-84724668D01*
X61025470Y-84724846D01*
X61234730Y-84694504D01*
X61239029Y-84693045D01*
X61239032Y-84693044D01*
X61430654Y-84627997D01*
X61434955Y-84626537D01*
X61482021Y-84600179D01*
X61615481Y-84525437D01*
X61619442Y-84523219D01*
X61782012Y-84388012D01*
X61917219Y-84225442D01*
X62020537Y-84040955D01*
X62021997Y-84036654D01*
X62087044Y-83845032D01*
X62087045Y-83845029D01*
X62088504Y-83840730D01*
X62102460Y-83744480D01*
X62118426Y-83634369D01*
X62118426Y-83634363D01*
X62118846Y-83631470D01*
X62120429Y-83571000D01*
X62117650Y-83540754D01*
X62349967Y-83540754D01*
X62355397Y-83623597D01*
X62363320Y-83744480D01*
X62363796Y-83751749D01*
X62364912Y-83756142D01*
X62364912Y-83756144D01*
X62387487Y-83845032D01*
X62415845Y-83956690D01*
X62417747Y-83960815D01*
X62417747Y-83960816D01*
X62456518Y-84044916D01*
X62504369Y-84148714D01*
X62626405Y-84321391D01*
X62777865Y-84468937D01*
X62781638Y-84471458D01*
X62949899Y-84583887D01*
X62949902Y-84583889D01*
X62953677Y-84586411D01*
X63050472Y-84627997D01*
X63143774Y-84668083D01*
X63143778Y-84668084D01*
X63147953Y-84669878D01*
X63177881Y-84676650D01*
X63349760Y-84715543D01*
X63349765Y-84715544D01*
X63354186Y-84716544D01*
X63459828Y-84720695D01*
X63560937Y-84724668D01*
X63560938Y-84724668D01*
X63565470Y-84724846D01*
X63774730Y-84694504D01*
X63779029Y-84693045D01*
X63779032Y-84693044D01*
X63970654Y-84627997D01*
X63974955Y-84626537D01*
X64022021Y-84600179D01*
X64155481Y-84525437D01*
X64159442Y-84523219D01*
X64322012Y-84388012D01*
X64457219Y-84225442D01*
X64560537Y-84040955D01*
X64561997Y-84036654D01*
X64627044Y-83845032D01*
X64627045Y-83845029D01*
X64628504Y-83840730D01*
X64642460Y-83744480D01*
X64658426Y-83634369D01*
X64658426Y-83634363D01*
X64658846Y-83631470D01*
X64660429Y-83571000D01*
X64657650Y-83540754D01*
X64889967Y-83540754D01*
X64895397Y-83623597D01*
X64903320Y-83744480D01*
X64903796Y-83751749D01*
X64904912Y-83756142D01*
X64904912Y-83756144D01*
X64927487Y-83845032D01*
X64955845Y-83956690D01*
X64957747Y-83960815D01*
X64957747Y-83960816D01*
X64996518Y-84044916D01*
X65044369Y-84148714D01*
X65166405Y-84321391D01*
X65317865Y-84468937D01*
X65321638Y-84471458D01*
X65489899Y-84583887D01*
X65489902Y-84583889D01*
X65493677Y-84586411D01*
X65590472Y-84627997D01*
X65683774Y-84668083D01*
X65683778Y-84668084D01*
X65687953Y-84669878D01*
X65717881Y-84676650D01*
X65889760Y-84715543D01*
X65889765Y-84715544D01*
X65894186Y-84716544D01*
X65999828Y-84720695D01*
X66100937Y-84724668D01*
X66100938Y-84724668D01*
X66105470Y-84724846D01*
X66314730Y-84694504D01*
X66319029Y-84693045D01*
X66319032Y-84693044D01*
X66510654Y-84627997D01*
X66514955Y-84626537D01*
X66562021Y-84600179D01*
X66695481Y-84525437D01*
X66699442Y-84523219D01*
X66862012Y-84388012D01*
X66997219Y-84225442D01*
X67100537Y-84040955D01*
X67101997Y-84036654D01*
X67167044Y-83845032D01*
X67167045Y-83845029D01*
X67168504Y-83840730D01*
X67182460Y-83744480D01*
X67198426Y-83634369D01*
X67198426Y-83634363D01*
X67198846Y-83631470D01*
X67200429Y-83571000D01*
X67197650Y-83540754D01*
X67429967Y-83540754D01*
X67435397Y-83623597D01*
X67443320Y-83744480D01*
X67443796Y-83751749D01*
X67444912Y-83756142D01*
X67444912Y-83756144D01*
X67467487Y-83845032D01*
X67495845Y-83956690D01*
X67497747Y-83960815D01*
X67497747Y-83960816D01*
X67536518Y-84044916D01*
X67584369Y-84148714D01*
X67706405Y-84321391D01*
X67857865Y-84468937D01*
X67861638Y-84471458D01*
X68029899Y-84583887D01*
X68029902Y-84583889D01*
X68033677Y-84586411D01*
X68130472Y-84627997D01*
X68223774Y-84668083D01*
X68223778Y-84668084D01*
X68227953Y-84669878D01*
X68257881Y-84676650D01*
X68429760Y-84715543D01*
X68429765Y-84715544D01*
X68434186Y-84716544D01*
X68539828Y-84720695D01*
X68640937Y-84724668D01*
X68640938Y-84724668D01*
X68645470Y-84724846D01*
X68854730Y-84694504D01*
X68859029Y-84693045D01*
X68859032Y-84693044D01*
X69050654Y-84627997D01*
X69054955Y-84626537D01*
X69102021Y-84600179D01*
X69235481Y-84525437D01*
X69239442Y-84523219D01*
X69402012Y-84388012D01*
X69537219Y-84225442D01*
X69640537Y-84040955D01*
X69641997Y-84036654D01*
X69707044Y-83845032D01*
X69707045Y-83845029D01*
X69708504Y-83840730D01*
X69722460Y-83744480D01*
X69738426Y-83634369D01*
X69738426Y-83634363D01*
X69738846Y-83631470D01*
X69740429Y-83571000D01*
X69737650Y-83540754D01*
X69969967Y-83540754D01*
X69975397Y-83623597D01*
X69983320Y-83744480D01*
X69983796Y-83751749D01*
X69984912Y-83756142D01*
X69984912Y-83756144D01*
X70007487Y-83845032D01*
X70035845Y-83956690D01*
X70037747Y-83960815D01*
X70037747Y-83960816D01*
X70076518Y-84044916D01*
X70124369Y-84148714D01*
X70246405Y-84321391D01*
X70397865Y-84468937D01*
X70401638Y-84471458D01*
X70569899Y-84583887D01*
X70569902Y-84583889D01*
X70573677Y-84586411D01*
X70670472Y-84627997D01*
X70763774Y-84668083D01*
X70763778Y-84668084D01*
X70767953Y-84669878D01*
X70797881Y-84676650D01*
X70969760Y-84715543D01*
X70969765Y-84715544D01*
X70974186Y-84716544D01*
X71079828Y-84720695D01*
X71180937Y-84724668D01*
X71180938Y-84724668D01*
X71185470Y-84724846D01*
X71394730Y-84694504D01*
X71399029Y-84693045D01*
X71399032Y-84693044D01*
X71590654Y-84627997D01*
X71594955Y-84626537D01*
X71642021Y-84600179D01*
X71775481Y-84525437D01*
X71779442Y-84523219D01*
X71942012Y-84388012D01*
X72077219Y-84225442D01*
X72180537Y-84040955D01*
X72181997Y-84036654D01*
X72247044Y-83845032D01*
X72247045Y-83845029D01*
X72248504Y-83840730D01*
X72262460Y-83744480D01*
X72278426Y-83634369D01*
X72278426Y-83634363D01*
X72278846Y-83631470D01*
X72280429Y-83571000D01*
X72277650Y-83540754D01*
X72509967Y-83540754D01*
X72515397Y-83623597D01*
X72523320Y-83744480D01*
X72523796Y-83751749D01*
X72524912Y-83756142D01*
X72524912Y-83756144D01*
X72547487Y-83845032D01*
X72575845Y-83956690D01*
X72577747Y-83960815D01*
X72577747Y-83960816D01*
X72616518Y-84044916D01*
X72664369Y-84148714D01*
X72786405Y-84321391D01*
X72937865Y-84468937D01*
X72941638Y-84471458D01*
X73109899Y-84583887D01*
X73109902Y-84583889D01*
X73113677Y-84586411D01*
X73210472Y-84627997D01*
X73303774Y-84668083D01*
X73303778Y-84668084D01*
X73307953Y-84669878D01*
X73337881Y-84676650D01*
X73509760Y-84715543D01*
X73509765Y-84715544D01*
X73514186Y-84716544D01*
X73619828Y-84720695D01*
X73720937Y-84724668D01*
X73720938Y-84724668D01*
X73725470Y-84724846D01*
X73934730Y-84694504D01*
X73939029Y-84693045D01*
X73939032Y-84693044D01*
X74130654Y-84627997D01*
X74134955Y-84626537D01*
X74182021Y-84600179D01*
X74315481Y-84525437D01*
X74319442Y-84523219D01*
X74482012Y-84388012D01*
X74617219Y-84225442D01*
X74720537Y-84040955D01*
X74721997Y-84036654D01*
X74787044Y-83845032D01*
X74787045Y-83845029D01*
X74788504Y-83840730D01*
X74802460Y-83744480D01*
X74818426Y-83634369D01*
X74818426Y-83634363D01*
X74818846Y-83631470D01*
X74820429Y-83571000D01*
X74817650Y-83540754D01*
X75049967Y-83540754D01*
X75055397Y-83623597D01*
X75063320Y-83744480D01*
X75063796Y-83751749D01*
X75064912Y-83756142D01*
X75064912Y-83756144D01*
X75087487Y-83845032D01*
X75115845Y-83956690D01*
X75117747Y-83960815D01*
X75117747Y-83960816D01*
X75156518Y-84044916D01*
X75204369Y-84148714D01*
X75326405Y-84321391D01*
X75477865Y-84468937D01*
X75481638Y-84471458D01*
X75649899Y-84583887D01*
X75649902Y-84583889D01*
X75653677Y-84586411D01*
X75750472Y-84627997D01*
X75843774Y-84668083D01*
X75843778Y-84668084D01*
X75847953Y-84669878D01*
X75877881Y-84676650D01*
X76049760Y-84715543D01*
X76049765Y-84715544D01*
X76054186Y-84716544D01*
X76159828Y-84720695D01*
X76260937Y-84724668D01*
X76260938Y-84724668D01*
X76265470Y-84724846D01*
X76474730Y-84694504D01*
X76479029Y-84693045D01*
X76479032Y-84693044D01*
X76670654Y-84627997D01*
X76674955Y-84626537D01*
X76722021Y-84600179D01*
X76855481Y-84525437D01*
X76859442Y-84523219D01*
X77022012Y-84388012D01*
X77157219Y-84225442D01*
X77260537Y-84040955D01*
X77261997Y-84036654D01*
X77327044Y-83845032D01*
X77327045Y-83845029D01*
X77328504Y-83840730D01*
X77342460Y-83744480D01*
X77358426Y-83634369D01*
X77358426Y-83634363D01*
X77358846Y-83631470D01*
X77360429Y-83571000D01*
X77357650Y-83540754D01*
X77589967Y-83540754D01*
X77595397Y-83623597D01*
X77603320Y-83744480D01*
X77603796Y-83751749D01*
X77604912Y-83756142D01*
X77604912Y-83756144D01*
X77627487Y-83845032D01*
X77655845Y-83956690D01*
X77657747Y-83960815D01*
X77657747Y-83960816D01*
X77696518Y-84044916D01*
X77744369Y-84148714D01*
X77866405Y-84321391D01*
X78017865Y-84468937D01*
X78021638Y-84471458D01*
X78189899Y-84583887D01*
X78189902Y-84583889D01*
X78193677Y-84586411D01*
X78290472Y-84627997D01*
X78383774Y-84668083D01*
X78383778Y-84668084D01*
X78387953Y-84669878D01*
X78417881Y-84676650D01*
X78589760Y-84715543D01*
X78589765Y-84715544D01*
X78594186Y-84716544D01*
X78699828Y-84720695D01*
X78800937Y-84724668D01*
X78800938Y-84724668D01*
X78805470Y-84724846D01*
X79014730Y-84694504D01*
X79019029Y-84693045D01*
X79019032Y-84693044D01*
X79210654Y-84627997D01*
X79214955Y-84626537D01*
X79262021Y-84600179D01*
X79395481Y-84525437D01*
X79399442Y-84523219D01*
X79562012Y-84388012D01*
X79697219Y-84225442D01*
X79800537Y-84040955D01*
X79801997Y-84036654D01*
X79867044Y-83845032D01*
X79867045Y-83845029D01*
X79868504Y-83840730D01*
X79882460Y-83744480D01*
X79898426Y-83634369D01*
X79898426Y-83634363D01*
X79898846Y-83631470D01*
X79900429Y-83571000D01*
X79897650Y-83540754D01*
X80129967Y-83540754D01*
X80135397Y-83623597D01*
X80143320Y-83744480D01*
X80143796Y-83751749D01*
X80144912Y-83756142D01*
X80144912Y-83756144D01*
X80167487Y-83845032D01*
X80195845Y-83956690D01*
X80197747Y-83960815D01*
X80197747Y-83960816D01*
X80236518Y-84044916D01*
X80284369Y-84148714D01*
X80406405Y-84321391D01*
X80557865Y-84468937D01*
X80561638Y-84471458D01*
X80729899Y-84583887D01*
X80729902Y-84583889D01*
X80733677Y-84586411D01*
X80830472Y-84627997D01*
X80923774Y-84668083D01*
X80923778Y-84668084D01*
X80927953Y-84669878D01*
X80957881Y-84676650D01*
X81129760Y-84715543D01*
X81129765Y-84715544D01*
X81134186Y-84716544D01*
X81239828Y-84720695D01*
X81340937Y-84724668D01*
X81340938Y-84724668D01*
X81345470Y-84724846D01*
X81554730Y-84694504D01*
X81559029Y-84693045D01*
X81559032Y-84693044D01*
X81750654Y-84627997D01*
X81754955Y-84626537D01*
X81802021Y-84600179D01*
X81935481Y-84525437D01*
X81939442Y-84523219D01*
X82102012Y-84388012D01*
X82237219Y-84225442D01*
X82340537Y-84040955D01*
X82341997Y-84036654D01*
X82407044Y-83845032D01*
X82407045Y-83845029D01*
X82408504Y-83840730D01*
X82422460Y-83744480D01*
X82438426Y-83634369D01*
X82438426Y-83634363D01*
X82438846Y-83631470D01*
X82440429Y-83571000D01*
X82437650Y-83540754D01*
X82669967Y-83540754D01*
X82675397Y-83623597D01*
X82683320Y-83744480D01*
X82683796Y-83751749D01*
X82684912Y-83756142D01*
X82684912Y-83756144D01*
X82707487Y-83845032D01*
X82735845Y-83956690D01*
X82737747Y-83960815D01*
X82737747Y-83960816D01*
X82776518Y-84044916D01*
X82824369Y-84148714D01*
X82946405Y-84321391D01*
X83097865Y-84468937D01*
X83101638Y-84471458D01*
X83269899Y-84583887D01*
X83269902Y-84583889D01*
X83273677Y-84586411D01*
X83370472Y-84627997D01*
X83463774Y-84668083D01*
X83463778Y-84668084D01*
X83467953Y-84669878D01*
X83497881Y-84676650D01*
X83669760Y-84715543D01*
X83669765Y-84715544D01*
X83674186Y-84716544D01*
X83779828Y-84720695D01*
X83880937Y-84724668D01*
X83880938Y-84724668D01*
X83885470Y-84724846D01*
X84094730Y-84694504D01*
X84099029Y-84693045D01*
X84099032Y-84693044D01*
X84290654Y-84627997D01*
X84294955Y-84626537D01*
X84342021Y-84600179D01*
X84475481Y-84525437D01*
X84479442Y-84523219D01*
X84642012Y-84388012D01*
X84777219Y-84225442D01*
X84880537Y-84040955D01*
X84881997Y-84036654D01*
X84947044Y-83845032D01*
X84947045Y-83845029D01*
X84948504Y-83840730D01*
X84962460Y-83744480D01*
X84978426Y-83634369D01*
X84978426Y-83634363D01*
X84978846Y-83631470D01*
X84980429Y-83571000D01*
X84977650Y-83540754D01*
X85209967Y-83540754D01*
X85215397Y-83623597D01*
X85223320Y-83744480D01*
X85223796Y-83751749D01*
X85224912Y-83756142D01*
X85224912Y-83756144D01*
X85247487Y-83845032D01*
X85275845Y-83956690D01*
X85277747Y-83960815D01*
X85277747Y-83960816D01*
X85316518Y-84044916D01*
X85364369Y-84148714D01*
X85486405Y-84321391D01*
X85637865Y-84468937D01*
X85641638Y-84471458D01*
X85809899Y-84583887D01*
X85809902Y-84583889D01*
X85813677Y-84586411D01*
X85910472Y-84627997D01*
X86003774Y-84668083D01*
X86003778Y-84668084D01*
X86007953Y-84669878D01*
X86037881Y-84676650D01*
X86209760Y-84715543D01*
X86209765Y-84715544D01*
X86214186Y-84716544D01*
X86319828Y-84720695D01*
X86420937Y-84724668D01*
X86420938Y-84724668D01*
X86425470Y-84724846D01*
X86634730Y-84694504D01*
X86639029Y-84693045D01*
X86639032Y-84693044D01*
X86830654Y-84627997D01*
X86834955Y-84626537D01*
X86882021Y-84600179D01*
X87015481Y-84525437D01*
X87019442Y-84523219D01*
X87182012Y-84388012D01*
X87317219Y-84225442D01*
X87420537Y-84040955D01*
X87421997Y-84036654D01*
X87487044Y-83845032D01*
X87487045Y-83845029D01*
X87488504Y-83840730D01*
X87502460Y-83744480D01*
X87518426Y-83634369D01*
X87518426Y-83634363D01*
X87518846Y-83631470D01*
X87520429Y-83571000D01*
X87517650Y-83540754D01*
X87749967Y-83540754D01*
X87755397Y-83623597D01*
X87763320Y-83744480D01*
X87763796Y-83751749D01*
X87764912Y-83756142D01*
X87764912Y-83756144D01*
X87787487Y-83845032D01*
X87815845Y-83956690D01*
X87817747Y-83960815D01*
X87817747Y-83960816D01*
X87856518Y-84044916D01*
X87904369Y-84148714D01*
X88026405Y-84321391D01*
X88177865Y-84468937D01*
X88181638Y-84471458D01*
X88349899Y-84583887D01*
X88349902Y-84583889D01*
X88353677Y-84586411D01*
X88450472Y-84627997D01*
X88543774Y-84668083D01*
X88543778Y-84668084D01*
X88547953Y-84669878D01*
X88577881Y-84676650D01*
X88749760Y-84715543D01*
X88749765Y-84715544D01*
X88754186Y-84716544D01*
X88859828Y-84720695D01*
X88960937Y-84724668D01*
X88960938Y-84724668D01*
X88965470Y-84724846D01*
X89174730Y-84694504D01*
X89179029Y-84693045D01*
X89179032Y-84693044D01*
X89370654Y-84627997D01*
X89374955Y-84626537D01*
X89422021Y-84600179D01*
X89555481Y-84525437D01*
X89559442Y-84523219D01*
X89722012Y-84388012D01*
X89857219Y-84225442D01*
X89960537Y-84040955D01*
X89961997Y-84036654D01*
X90027044Y-83845032D01*
X90027045Y-83845029D01*
X90028504Y-83840730D01*
X90042460Y-83744480D01*
X90058426Y-83634369D01*
X90058426Y-83634363D01*
X90058846Y-83631470D01*
X90060429Y-83571000D01*
X90057650Y-83540754D01*
X90289967Y-83540754D01*
X90295397Y-83623597D01*
X90303320Y-83744480D01*
X90303796Y-83751749D01*
X90304912Y-83756142D01*
X90304912Y-83756144D01*
X90327487Y-83845032D01*
X90355845Y-83956690D01*
X90357747Y-83960815D01*
X90357747Y-83960816D01*
X90396518Y-84044916D01*
X90444369Y-84148714D01*
X90566405Y-84321391D01*
X90717865Y-84468937D01*
X90721638Y-84471458D01*
X90889899Y-84583887D01*
X90889902Y-84583889D01*
X90893677Y-84586411D01*
X90990472Y-84627997D01*
X91083774Y-84668083D01*
X91083778Y-84668084D01*
X91087953Y-84669878D01*
X91117881Y-84676650D01*
X91289760Y-84715543D01*
X91289765Y-84715544D01*
X91294186Y-84716544D01*
X91399828Y-84720695D01*
X91500937Y-84724668D01*
X91500938Y-84724668D01*
X91505470Y-84724846D01*
X91714730Y-84694504D01*
X91719029Y-84693045D01*
X91719032Y-84693044D01*
X91910654Y-84627997D01*
X91914955Y-84626537D01*
X91962021Y-84600179D01*
X92095481Y-84525437D01*
X92099442Y-84523219D01*
X92262012Y-84388012D01*
X92397219Y-84225442D01*
X92500537Y-84040955D01*
X92501997Y-84036654D01*
X92567044Y-83845032D01*
X92567045Y-83845029D01*
X92568504Y-83840730D01*
X92582460Y-83744480D01*
X92598426Y-83634369D01*
X92598426Y-83634363D01*
X92598846Y-83631470D01*
X92600429Y-83571000D01*
X92597650Y-83540754D01*
X92829967Y-83540754D01*
X92835397Y-83623597D01*
X92843320Y-83744480D01*
X92843796Y-83751749D01*
X92844912Y-83756142D01*
X92844912Y-83756144D01*
X92867487Y-83845032D01*
X92895845Y-83956690D01*
X92897747Y-83960815D01*
X92897747Y-83960816D01*
X92936518Y-84044916D01*
X92984369Y-84148714D01*
X93106405Y-84321391D01*
X93257865Y-84468937D01*
X93261638Y-84471458D01*
X93429899Y-84583887D01*
X93429902Y-84583889D01*
X93433677Y-84586411D01*
X93530472Y-84627997D01*
X93623774Y-84668083D01*
X93623778Y-84668084D01*
X93627953Y-84669878D01*
X93657881Y-84676650D01*
X93829760Y-84715543D01*
X93829765Y-84715544D01*
X93834186Y-84716544D01*
X93939828Y-84720695D01*
X94040937Y-84724668D01*
X94040938Y-84724668D01*
X94045470Y-84724846D01*
X94254730Y-84694504D01*
X94259029Y-84693045D01*
X94259032Y-84693044D01*
X94450654Y-84627997D01*
X94454955Y-84626537D01*
X94502021Y-84600179D01*
X94635481Y-84525437D01*
X94639442Y-84523219D01*
X94802012Y-84388012D01*
X94937219Y-84225442D01*
X95040537Y-84040955D01*
X95041997Y-84036654D01*
X95107044Y-83845032D01*
X95107045Y-83845029D01*
X95108504Y-83840730D01*
X95122460Y-83744480D01*
X95138426Y-83634369D01*
X95138426Y-83634363D01*
X95138846Y-83631470D01*
X95140429Y-83571000D01*
X95137650Y-83540754D01*
X95369967Y-83540754D01*
X95375397Y-83623597D01*
X95383320Y-83744480D01*
X95383796Y-83751749D01*
X95384912Y-83756142D01*
X95384912Y-83756144D01*
X95407487Y-83845032D01*
X95435845Y-83956690D01*
X95437747Y-83960815D01*
X95437747Y-83960816D01*
X95476518Y-84044916D01*
X95524369Y-84148714D01*
X95646405Y-84321391D01*
X95797865Y-84468937D01*
X95801638Y-84471458D01*
X95969899Y-84583887D01*
X95969902Y-84583889D01*
X95973677Y-84586411D01*
X96070472Y-84627997D01*
X96163774Y-84668083D01*
X96163778Y-84668084D01*
X96167953Y-84669878D01*
X96197881Y-84676650D01*
X96369760Y-84715543D01*
X96369765Y-84715544D01*
X96374186Y-84716544D01*
X96479828Y-84720695D01*
X96580937Y-84724668D01*
X96580938Y-84724668D01*
X96585470Y-84724846D01*
X96794730Y-84694504D01*
X96799029Y-84693045D01*
X96799032Y-84693044D01*
X96990654Y-84627997D01*
X96994955Y-84626537D01*
X97042021Y-84600179D01*
X97175481Y-84525437D01*
X97179442Y-84523219D01*
X97342012Y-84388012D01*
X97477219Y-84225442D01*
X97580537Y-84040955D01*
X97581997Y-84036654D01*
X97647044Y-83845032D01*
X97647045Y-83845029D01*
X97648504Y-83840730D01*
X97662460Y-83744480D01*
X97678426Y-83634369D01*
X97678426Y-83634363D01*
X97678846Y-83631470D01*
X97680429Y-83571000D01*
X97677650Y-83540754D01*
X97909967Y-83540754D01*
X97915397Y-83623597D01*
X97923320Y-83744480D01*
X97923796Y-83751749D01*
X97924912Y-83756142D01*
X97924912Y-83756144D01*
X97947487Y-83845032D01*
X97975845Y-83956690D01*
X97977747Y-83960815D01*
X97977747Y-83960816D01*
X98016518Y-84044916D01*
X98064369Y-84148714D01*
X98186405Y-84321391D01*
X98337865Y-84468937D01*
X98341638Y-84471458D01*
X98509899Y-84583887D01*
X98509902Y-84583889D01*
X98513677Y-84586411D01*
X98610472Y-84627997D01*
X98703774Y-84668083D01*
X98703778Y-84668084D01*
X98707953Y-84669878D01*
X98737881Y-84676650D01*
X98909760Y-84715543D01*
X98909765Y-84715544D01*
X98914186Y-84716544D01*
X99019828Y-84720695D01*
X99120937Y-84724668D01*
X99120938Y-84724668D01*
X99125470Y-84724846D01*
X99334730Y-84694504D01*
X99339029Y-84693045D01*
X99339032Y-84693044D01*
X99530654Y-84627997D01*
X99534955Y-84626537D01*
X99582021Y-84600179D01*
X99715481Y-84525437D01*
X99719442Y-84523219D01*
X99882012Y-84388012D01*
X100017219Y-84225442D01*
X100120537Y-84040955D01*
X100121997Y-84036654D01*
X100187044Y-83845032D01*
X100187045Y-83845029D01*
X100188504Y-83840730D01*
X100202460Y-83744480D01*
X100218426Y-83634369D01*
X100218426Y-83634363D01*
X100218846Y-83631470D01*
X100220429Y-83571000D01*
X100217650Y-83540754D01*
X100449967Y-83540754D01*
X100455397Y-83623597D01*
X100463320Y-83744480D01*
X100463796Y-83751749D01*
X100464912Y-83756142D01*
X100464912Y-83756144D01*
X100487487Y-83845032D01*
X100515845Y-83956690D01*
X100517747Y-83960815D01*
X100517747Y-83960816D01*
X100556518Y-84044916D01*
X100604369Y-84148714D01*
X100726405Y-84321391D01*
X100877865Y-84468937D01*
X100881638Y-84471458D01*
X101049899Y-84583887D01*
X101049902Y-84583889D01*
X101053677Y-84586411D01*
X101150472Y-84627997D01*
X101243774Y-84668083D01*
X101243778Y-84668084D01*
X101247953Y-84669878D01*
X101277881Y-84676650D01*
X101449760Y-84715543D01*
X101449765Y-84715544D01*
X101454186Y-84716544D01*
X101559828Y-84720695D01*
X101660937Y-84724668D01*
X101660938Y-84724668D01*
X101665470Y-84724846D01*
X101874730Y-84694504D01*
X101879029Y-84693045D01*
X101879032Y-84693044D01*
X102070654Y-84627997D01*
X102074955Y-84626537D01*
X102122021Y-84600179D01*
X102255481Y-84525437D01*
X102259442Y-84523219D01*
X102422012Y-84388012D01*
X102557219Y-84225442D01*
X102660537Y-84040955D01*
X102661997Y-84036654D01*
X102727044Y-83845032D01*
X102727045Y-83845029D01*
X102728504Y-83840730D01*
X102742460Y-83744480D01*
X102758426Y-83634369D01*
X102758426Y-83634363D01*
X102758846Y-83631470D01*
X102760429Y-83571000D01*
X102757650Y-83540754D01*
X102989967Y-83540754D01*
X102995397Y-83623597D01*
X103003320Y-83744480D01*
X103003796Y-83751749D01*
X103004912Y-83756142D01*
X103004912Y-83756144D01*
X103027487Y-83845032D01*
X103055845Y-83956690D01*
X103057747Y-83960815D01*
X103057747Y-83960816D01*
X103096518Y-84044916D01*
X103144369Y-84148714D01*
X103266405Y-84321391D01*
X103417865Y-84468937D01*
X103421638Y-84471458D01*
X103589899Y-84583887D01*
X103589902Y-84583889D01*
X103593677Y-84586411D01*
X103690472Y-84627997D01*
X103783774Y-84668083D01*
X103783778Y-84668084D01*
X103787953Y-84669878D01*
X103817881Y-84676650D01*
X103989760Y-84715543D01*
X103989765Y-84715544D01*
X103994186Y-84716544D01*
X104099828Y-84720695D01*
X104200937Y-84724668D01*
X104200938Y-84724668D01*
X104205470Y-84724846D01*
X104414730Y-84694504D01*
X104419029Y-84693045D01*
X104419032Y-84693044D01*
X104610654Y-84627997D01*
X104614955Y-84626537D01*
X104662021Y-84600179D01*
X104795481Y-84525437D01*
X104799442Y-84523219D01*
X104962012Y-84388012D01*
X105097219Y-84225442D01*
X105200537Y-84040955D01*
X105201997Y-84036654D01*
X105267044Y-83845032D01*
X105267045Y-83845029D01*
X105268504Y-83840730D01*
X105282460Y-83744480D01*
X105298426Y-83634369D01*
X105298426Y-83634363D01*
X105298846Y-83631470D01*
X105300429Y-83571000D01*
X105281081Y-83360440D01*
X105223686Y-83156931D01*
X105130165Y-82967290D01*
X105003651Y-82797867D01*
X104848381Y-82654337D01*
X104841752Y-82650154D01*
X104673391Y-82543926D01*
X104669554Y-82541505D01*
X104473160Y-82463152D01*
X104265775Y-82421901D01*
X104161599Y-82420537D01*
X104058886Y-82419192D01*
X104058881Y-82419192D01*
X104054346Y-82419133D01*
X104049873Y-82419902D01*
X104049868Y-82419902D01*
X103980819Y-82431767D01*
X103845953Y-82454941D01*
X103647575Y-82528127D01*
X103643676Y-82530446D01*
X103643671Y-82530449D01*
X103469762Y-82633914D01*
X103465856Y-82636238D01*
X103462441Y-82639233D01*
X103462438Y-82639235D01*
X103359262Y-82729718D01*
X103306881Y-82775655D01*
X103304073Y-82779217D01*
X103189978Y-82923947D01*
X103175976Y-82941708D01*
X103077523Y-83128836D01*
X103014820Y-83330773D01*
X102989967Y-83540754D01*
X102757650Y-83540754D01*
X102741081Y-83360440D01*
X102683686Y-83156931D01*
X102590165Y-82967290D01*
X102463651Y-82797867D01*
X102308381Y-82654337D01*
X102301752Y-82650154D01*
X102133391Y-82543926D01*
X102129554Y-82541505D01*
X101933160Y-82463152D01*
X101725775Y-82421901D01*
X101621599Y-82420537D01*
X101518886Y-82419192D01*
X101518881Y-82419192D01*
X101514346Y-82419133D01*
X101509873Y-82419902D01*
X101509868Y-82419902D01*
X101440819Y-82431767D01*
X101305953Y-82454941D01*
X101107575Y-82528127D01*
X101103676Y-82530446D01*
X101103671Y-82530449D01*
X100929762Y-82633914D01*
X100925856Y-82636238D01*
X100922441Y-82639233D01*
X100922438Y-82639235D01*
X100819262Y-82729718D01*
X100766881Y-82775655D01*
X100764073Y-82779217D01*
X100649978Y-82923947D01*
X100635976Y-82941708D01*
X100537523Y-83128836D01*
X100474820Y-83330773D01*
X100449967Y-83540754D01*
X100217650Y-83540754D01*
X100201081Y-83360440D01*
X100143686Y-83156931D01*
X100050165Y-82967290D01*
X99923651Y-82797867D01*
X99768381Y-82654337D01*
X99761752Y-82650154D01*
X99593391Y-82543926D01*
X99589554Y-82541505D01*
X99393160Y-82463152D01*
X99185775Y-82421901D01*
X99081599Y-82420537D01*
X98978886Y-82419192D01*
X98978881Y-82419192D01*
X98974346Y-82419133D01*
X98969873Y-82419902D01*
X98969868Y-82419902D01*
X98900819Y-82431767D01*
X98765953Y-82454941D01*
X98567575Y-82528127D01*
X98563676Y-82530446D01*
X98563671Y-82530449D01*
X98389762Y-82633914D01*
X98385856Y-82636238D01*
X98382441Y-82639233D01*
X98382438Y-82639235D01*
X98279262Y-82729718D01*
X98226881Y-82775655D01*
X98224073Y-82779217D01*
X98109978Y-82923947D01*
X98095976Y-82941708D01*
X97997523Y-83128836D01*
X97934820Y-83330773D01*
X97909967Y-83540754D01*
X97677650Y-83540754D01*
X97661081Y-83360440D01*
X97603686Y-83156931D01*
X97510165Y-82967290D01*
X97383651Y-82797867D01*
X97228381Y-82654337D01*
X97221752Y-82650154D01*
X97053391Y-82543926D01*
X97049554Y-82541505D01*
X96853160Y-82463152D01*
X96645775Y-82421901D01*
X96541599Y-82420537D01*
X96438886Y-82419192D01*
X96438881Y-82419192D01*
X96434346Y-82419133D01*
X96429873Y-82419902D01*
X96429868Y-82419902D01*
X96360819Y-82431767D01*
X96225953Y-82454941D01*
X96027575Y-82528127D01*
X96023676Y-82530446D01*
X96023671Y-82530449D01*
X95849762Y-82633914D01*
X95845856Y-82636238D01*
X95842441Y-82639233D01*
X95842438Y-82639235D01*
X95739262Y-82729718D01*
X95686881Y-82775655D01*
X95684073Y-82779217D01*
X95569978Y-82923947D01*
X95555976Y-82941708D01*
X95457523Y-83128836D01*
X95394820Y-83330773D01*
X95369967Y-83540754D01*
X95137650Y-83540754D01*
X95121081Y-83360440D01*
X95063686Y-83156931D01*
X94970165Y-82967290D01*
X94843651Y-82797867D01*
X94688381Y-82654337D01*
X94681752Y-82650154D01*
X94513391Y-82543926D01*
X94509554Y-82541505D01*
X94313160Y-82463152D01*
X94105775Y-82421901D01*
X94001599Y-82420537D01*
X93898886Y-82419192D01*
X93898881Y-82419192D01*
X93894346Y-82419133D01*
X93889873Y-82419902D01*
X93889868Y-82419902D01*
X93820819Y-82431767D01*
X93685953Y-82454941D01*
X93487575Y-82528127D01*
X93483676Y-82530446D01*
X93483671Y-82530449D01*
X93309762Y-82633914D01*
X93305856Y-82636238D01*
X93302441Y-82639233D01*
X93302438Y-82639235D01*
X93199262Y-82729718D01*
X93146881Y-82775655D01*
X93144073Y-82779217D01*
X93029978Y-82923947D01*
X93015976Y-82941708D01*
X92917523Y-83128836D01*
X92854820Y-83330773D01*
X92829967Y-83540754D01*
X92597650Y-83540754D01*
X92581081Y-83360440D01*
X92523686Y-83156931D01*
X92430165Y-82967290D01*
X92303651Y-82797867D01*
X92148381Y-82654337D01*
X92141752Y-82650154D01*
X91973391Y-82543926D01*
X91969554Y-82541505D01*
X91773160Y-82463152D01*
X91565775Y-82421901D01*
X91461599Y-82420537D01*
X91358886Y-82419192D01*
X91358881Y-82419192D01*
X91354346Y-82419133D01*
X91349873Y-82419902D01*
X91349868Y-82419902D01*
X91280819Y-82431767D01*
X91145953Y-82454941D01*
X90947575Y-82528127D01*
X90943676Y-82530446D01*
X90943671Y-82530449D01*
X90769762Y-82633914D01*
X90765856Y-82636238D01*
X90762441Y-82639233D01*
X90762438Y-82639235D01*
X90659262Y-82729718D01*
X90606881Y-82775655D01*
X90604073Y-82779217D01*
X90489978Y-82923947D01*
X90475976Y-82941708D01*
X90377523Y-83128836D01*
X90314820Y-83330773D01*
X90289967Y-83540754D01*
X90057650Y-83540754D01*
X90041081Y-83360440D01*
X89983686Y-83156931D01*
X89890165Y-82967290D01*
X89763651Y-82797867D01*
X89608381Y-82654337D01*
X89601752Y-82650154D01*
X89433391Y-82543926D01*
X89429554Y-82541505D01*
X89233160Y-82463152D01*
X89025775Y-82421901D01*
X88921599Y-82420537D01*
X88818886Y-82419192D01*
X88818881Y-82419192D01*
X88814346Y-82419133D01*
X88809873Y-82419902D01*
X88809868Y-82419902D01*
X88740819Y-82431767D01*
X88605953Y-82454941D01*
X88407575Y-82528127D01*
X88403676Y-82530446D01*
X88403671Y-82530449D01*
X88229762Y-82633914D01*
X88225856Y-82636238D01*
X88222441Y-82639233D01*
X88222438Y-82639235D01*
X88119262Y-82729718D01*
X88066881Y-82775655D01*
X88064073Y-82779217D01*
X87949978Y-82923947D01*
X87935976Y-82941708D01*
X87837523Y-83128836D01*
X87774820Y-83330773D01*
X87749967Y-83540754D01*
X87517650Y-83540754D01*
X87501081Y-83360440D01*
X87443686Y-83156931D01*
X87350165Y-82967290D01*
X87223651Y-82797867D01*
X87068381Y-82654337D01*
X87061752Y-82650154D01*
X86893391Y-82543926D01*
X86889554Y-82541505D01*
X86693160Y-82463152D01*
X86485775Y-82421901D01*
X86381599Y-82420537D01*
X86278886Y-82419192D01*
X86278881Y-82419192D01*
X86274346Y-82419133D01*
X86269873Y-82419902D01*
X86269868Y-82419902D01*
X86200819Y-82431767D01*
X86065953Y-82454941D01*
X85867575Y-82528127D01*
X85863676Y-82530446D01*
X85863671Y-82530449D01*
X85689762Y-82633914D01*
X85685856Y-82636238D01*
X85682441Y-82639233D01*
X85682438Y-82639235D01*
X85579262Y-82729718D01*
X85526881Y-82775655D01*
X85524073Y-82779217D01*
X85409978Y-82923947D01*
X85395976Y-82941708D01*
X85297523Y-83128836D01*
X85234820Y-83330773D01*
X85209967Y-83540754D01*
X84977650Y-83540754D01*
X84961081Y-83360440D01*
X84903686Y-83156931D01*
X84810165Y-82967290D01*
X84683651Y-82797867D01*
X84528381Y-82654337D01*
X84521752Y-82650154D01*
X84353391Y-82543926D01*
X84349554Y-82541505D01*
X84153160Y-82463152D01*
X83945775Y-82421901D01*
X83841599Y-82420537D01*
X83738886Y-82419192D01*
X83738881Y-82419192D01*
X83734346Y-82419133D01*
X83729873Y-82419902D01*
X83729868Y-82419902D01*
X83660819Y-82431767D01*
X83525953Y-82454941D01*
X83327575Y-82528127D01*
X83323676Y-82530446D01*
X83323671Y-82530449D01*
X83149762Y-82633914D01*
X83145856Y-82636238D01*
X83142441Y-82639233D01*
X83142438Y-82639235D01*
X83039262Y-82729718D01*
X82986881Y-82775655D01*
X82984073Y-82779217D01*
X82869978Y-82923947D01*
X82855976Y-82941708D01*
X82757523Y-83128836D01*
X82694820Y-83330773D01*
X82669967Y-83540754D01*
X82437650Y-83540754D01*
X82421081Y-83360440D01*
X82363686Y-83156931D01*
X82270165Y-82967290D01*
X82143651Y-82797867D01*
X81988381Y-82654337D01*
X81981752Y-82650154D01*
X81813391Y-82543926D01*
X81809554Y-82541505D01*
X81613160Y-82463152D01*
X81405775Y-82421901D01*
X81301599Y-82420537D01*
X81198886Y-82419192D01*
X81198881Y-82419192D01*
X81194346Y-82419133D01*
X81189873Y-82419902D01*
X81189868Y-82419902D01*
X81120819Y-82431767D01*
X80985953Y-82454941D01*
X80787575Y-82528127D01*
X80783676Y-82530446D01*
X80783671Y-82530449D01*
X80609762Y-82633914D01*
X80605856Y-82636238D01*
X80602441Y-82639233D01*
X80602438Y-82639235D01*
X80499262Y-82729718D01*
X80446881Y-82775655D01*
X80444073Y-82779217D01*
X80329978Y-82923947D01*
X80315976Y-82941708D01*
X80217523Y-83128836D01*
X80154820Y-83330773D01*
X80129967Y-83540754D01*
X79897650Y-83540754D01*
X79881081Y-83360440D01*
X79823686Y-83156931D01*
X79730165Y-82967290D01*
X79603651Y-82797867D01*
X79448381Y-82654337D01*
X79441752Y-82650154D01*
X79273391Y-82543926D01*
X79269554Y-82541505D01*
X79073160Y-82463152D01*
X78865775Y-82421901D01*
X78761599Y-82420537D01*
X78658886Y-82419192D01*
X78658881Y-82419192D01*
X78654346Y-82419133D01*
X78649873Y-82419902D01*
X78649868Y-82419902D01*
X78580819Y-82431767D01*
X78445953Y-82454941D01*
X78247575Y-82528127D01*
X78243676Y-82530446D01*
X78243671Y-82530449D01*
X78069762Y-82633914D01*
X78065856Y-82636238D01*
X78062441Y-82639233D01*
X78062438Y-82639235D01*
X77959262Y-82729718D01*
X77906881Y-82775655D01*
X77904073Y-82779217D01*
X77789978Y-82923947D01*
X77775976Y-82941708D01*
X77677523Y-83128836D01*
X77614820Y-83330773D01*
X77589967Y-83540754D01*
X77357650Y-83540754D01*
X77341081Y-83360440D01*
X77283686Y-83156931D01*
X77190165Y-82967290D01*
X77063651Y-82797867D01*
X76908381Y-82654337D01*
X76901752Y-82650154D01*
X76733391Y-82543926D01*
X76729554Y-82541505D01*
X76533160Y-82463152D01*
X76325775Y-82421901D01*
X76221599Y-82420537D01*
X76118886Y-82419192D01*
X76118881Y-82419192D01*
X76114346Y-82419133D01*
X76109873Y-82419902D01*
X76109868Y-82419902D01*
X76040819Y-82431767D01*
X75905953Y-82454941D01*
X75707575Y-82528127D01*
X75703676Y-82530446D01*
X75703671Y-82530449D01*
X75529762Y-82633914D01*
X75525856Y-82636238D01*
X75522441Y-82639233D01*
X75522438Y-82639235D01*
X75419262Y-82729718D01*
X75366881Y-82775655D01*
X75364073Y-82779217D01*
X75249978Y-82923947D01*
X75235976Y-82941708D01*
X75137523Y-83128836D01*
X75074820Y-83330773D01*
X75049967Y-83540754D01*
X74817650Y-83540754D01*
X74801081Y-83360440D01*
X74743686Y-83156931D01*
X74650165Y-82967290D01*
X74523651Y-82797867D01*
X74368381Y-82654337D01*
X74361752Y-82650154D01*
X74193391Y-82543926D01*
X74189554Y-82541505D01*
X73993160Y-82463152D01*
X73785775Y-82421901D01*
X73681599Y-82420537D01*
X73578886Y-82419192D01*
X73578881Y-82419192D01*
X73574346Y-82419133D01*
X73569873Y-82419902D01*
X73569868Y-82419902D01*
X73500819Y-82431767D01*
X73365953Y-82454941D01*
X73167575Y-82528127D01*
X73163676Y-82530446D01*
X73163671Y-82530449D01*
X72989762Y-82633914D01*
X72985856Y-82636238D01*
X72982441Y-82639233D01*
X72982438Y-82639235D01*
X72879262Y-82729718D01*
X72826881Y-82775655D01*
X72824073Y-82779217D01*
X72709978Y-82923947D01*
X72695976Y-82941708D01*
X72597523Y-83128836D01*
X72534820Y-83330773D01*
X72509967Y-83540754D01*
X72277650Y-83540754D01*
X72261081Y-83360440D01*
X72203686Y-83156931D01*
X72110165Y-82967290D01*
X71983651Y-82797867D01*
X71828381Y-82654337D01*
X71821752Y-82650154D01*
X71653391Y-82543926D01*
X71649554Y-82541505D01*
X71453160Y-82463152D01*
X71245775Y-82421901D01*
X71141599Y-82420537D01*
X71038886Y-82419192D01*
X71038881Y-82419192D01*
X71034346Y-82419133D01*
X71029873Y-82419902D01*
X71029868Y-82419902D01*
X70960819Y-82431767D01*
X70825953Y-82454941D01*
X70627575Y-82528127D01*
X70623676Y-82530446D01*
X70623671Y-82530449D01*
X70449762Y-82633914D01*
X70445856Y-82636238D01*
X70442441Y-82639233D01*
X70442438Y-82639235D01*
X70339262Y-82729718D01*
X70286881Y-82775655D01*
X70284073Y-82779217D01*
X70169978Y-82923947D01*
X70155976Y-82941708D01*
X70057523Y-83128836D01*
X69994820Y-83330773D01*
X69969967Y-83540754D01*
X69737650Y-83540754D01*
X69721081Y-83360440D01*
X69663686Y-83156931D01*
X69570165Y-82967290D01*
X69443651Y-82797867D01*
X69288381Y-82654337D01*
X69281752Y-82650154D01*
X69113391Y-82543926D01*
X69109554Y-82541505D01*
X68913160Y-82463152D01*
X68705775Y-82421901D01*
X68601599Y-82420537D01*
X68498886Y-82419192D01*
X68498881Y-82419192D01*
X68494346Y-82419133D01*
X68489873Y-82419902D01*
X68489868Y-82419902D01*
X68420819Y-82431767D01*
X68285953Y-82454941D01*
X68087575Y-82528127D01*
X68083676Y-82530446D01*
X68083671Y-82530449D01*
X67909762Y-82633914D01*
X67905856Y-82636238D01*
X67902441Y-82639233D01*
X67902438Y-82639235D01*
X67799262Y-82729718D01*
X67746881Y-82775655D01*
X67744073Y-82779217D01*
X67629978Y-82923947D01*
X67615976Y-82941708D01*
X67517523Y-83128836D01*
X67454820Y-83330773D01*
X67429967Y-83540754D01*
X67197650Y-83540754D01*
X67181081Y-83360440D01*
X67123686Y-83156931D01*
X67030165Y-82967290D01*
X66903651Y-82797867D01*
X66748381Y-82654337D01*
X66741752Y-82650154D01*
X66573391Y-82543926D01*
X66569554Y-82541505D01*
X66373160Y-82463152D01*
X66165775Y-82421901D01*
X66061599Y-82420537D01*
X65958886Y-82419192D01*
X65958881Y-82419192D01*
X65954346Y-82419133D01*
X65949873Y-82419902D01*
X65949868Y-82419902D01*
X65880819Y-82431767D01*
X65745953Y-82454941D01*
X65547575Y-82528127D01*
X65543676Y-82530446D01*
X65543671Y-82530449D01*
X65369762Y-82633914D01*
X65365856Y-82636238D01*
X65362441Y-82639233D01*
X65362438Y-82639235D01*
X65259262Y-82729718D01*
X65206881Y-82775655D01*
X65204073Y-82779217D01*
X65089978Y-82923947D01*
X65075976Y-82941708D01*
X64977523Y-83128836D01*
X64914820Y-83330773D01*
X64889967Y-83540754D01*
X64657650Y-83540754D01*
X64641081Y-83360440D01*
X64583686Y-83156931D01*
X64490165Y-82967290D01*
X64363651Y-82797867D01*
X64208381Y-82654337D01*
X64201752Y-82650154D01*
X64033391Y-82543926D01*
X64029554Y-82541505D01*
X63833160Y-82463152D01*
X63625775Y-82421901D01*
X63521599Y-82420537D01*
X63418886Y-82419192D01*
X63418881Y-82419192D01*
X63414346Y-82419133D01*
X63409873Y-82419902D01*
X63409868Y-82419902D01*
X63340819Y-82431767D01*
X63205953Y-82454941D01*
X63007575Y-82528127D01*
X63003676Y-82530446D01*
X63003671Y-82530449D01*
X62829762Y-82633914D01*
X62825856Y-82636238D01*
X62822441Y-82639233D01*
X62822438Y-82639235D01*
X62719262Y-82729718D01*
X62666881Y-82775655D01*
X62664073Y-82779217D01*
X62549978Y-82923947D01*
X62535976Y-82941708D01*
X62437523Y-83128836D01*
X62374820Y-83330773D01*
X62349967Y-83540754D01*
X62117650Y-83540754D01*
X62101081Y-83360440D01*
X62043686Y-83156931D01*
X61950165Y-82967290D01*
X61823651Y-82797867D01*
X61668381Y-82654337D01*
X61661752Y-82650154D01*
X61493391Y-82543926D01*
X61489554Y-82541505D01*
X61293160Y-82463152D01*
X61085775Y-82421901D01*
X60981599Y-82420537D01*
X60878886Y-82419192D01*
X60878881Y-82419192D01*
X60874346Y-82419133D01*
X60869873Y-82419902D01*
X60869868Y-82419902D01*
X60800819Y-82431767D01*
X60665953Y-82454941D01*
X60467575Y-82528127D01*
X60463676Y-82530446D01*
X60463671Y-82530449D01*
X60289762Y-82633914D01*
X60285856Y-82636238D01*
X60282441Y-82639233D01*
X60282438Y-82639235D01*
X60179262Y-82729718D01*
X60126881Y-82775655D01*
X60124073Y-82779217D01*
X60009978Y-82923947D01*
X59995976Y-82941708D01*
X59897523Y-83128836D01*
X59834820Y-83330773D01*
X59809967Y-83540754D01*
X59577650Y-83540754D01*
X59561081Y-83360440D01*
X59503686Y-83156931D01*
X59410165Y-82967290D01*
X59283651Y-82797867D01*
X59128381Y-82654337D01*
X59121752Y-82650154D01*
X58953391Y-82543926D01*
X58949554Y-82541505D01*
X58753160Y-82463152D01*
X58545775Y-82421901D01*
X58441599Y-82420537D01*
X58338886Y-82419192D01*
X58338881Y-82419192D01*
X58334346Y-82419133D01*
X58329873Y-82419902D01*
X58329868Y-82419902D01*
X58260819Y-82431767D01*
X58125953Y-82454941D01*
X57927575Y-82528127D01*
X57923676Y-82530446D01*
X57923671Y-82530449D01*
X57749762Y-82633914D01*
X57745856Y-82636238D01*
X57742441Y-82639233D01*
X57742438Y-82639235D01*
X57639262Y-82729718D01*
X57586881Y-82775655D01*
X57584073Y-82779217D01*
X57469978Y-82923947D01*
X57455976Y-82941708D01*
X57357523Y-83128836D01*
X57294820Y-83330773D01*
X57269967Y-83540754D01*
X57035500Y-83540754D01*
X57035500Y-82676354D01*
X57032382Y-82650154D01*
X56986939Y-82547847D01*
X56907713Y-82468759D01*
X56815506Y-82427994D01*
X56812136Y-82426504D01*
X56812134Y-82426504D01*
X56805327Y-82423494D01*
X56791157Y-82421842D01*
X56782494Y-82420832D01*
X56782493Y-82420832D01*
X56779646Y-82420500D01*
X54990354Y-82420500D01*
X54973951Y-82422452D01*
X54971531Y-82422740D01*
X54971530Y-82422740D01*
X54964154Y-82423618D01*
X54861847Y-82469061D01*
X54782759Y-82548287D01*
X54779064Y-82556645D01*
X54743876Y-82636238D01*
X54737494Y-82650673D01*
X54734500Y-82676354D01*
X54734500Y-84465646D01*
X47925500Y-84465646D01*
X47925500Y-82169000D01*
X49398396Y-82169000D01*
X49398701Y-82172875D01*
X49418435Y-82423618D01*
X49418779Y-82427994D01*
X49442442Y-82526556D01*
X49473859Y-82657416D01*
X49479427Y-82680610D01*
X49578846Y-82920628D01*
X49714588Y-83142140D01*
X49883311Y-83339689D01*
X50080860Y-83508412D01*
X50302372Y-83644154D01*
X50542390Y-83743573D01*
X50546164Y-83744479D01*
X50546167Y-83744480D01*
X50680933Y-83776834D01*
X50795006Y-83804221D01*
X50798871Y-83804525D01*
X50798876Y-83804526D01*
X50935215Y-83815256D01*
X50989147Y-83819500D01*
X51118853Y-83819500D01*
X51172785Y-83815256D01*
X51309124Y-83804526D01*
X51309129Y-83804525D01*
X51312994Y-83804221D01*
X51427067Y-83776834D01*
X51561833Y-83744480D01*
X51561836Y-83744479D01*
X51565610Y-83743573D01*
X51805628Y-83644154D01*
X52027140Y-83508412D01*
X52224689Y-83339689D01*
X52393412Y-83142140D01*
X52529154Y-82920628D01*
X52628573Y-82680610D01*
X52634142Y-82657416D01*
X52665558Y-82526556D01*
X52689221Y-82427994D01*
X52689566Y-82423618D01*
X52709299Y-82172875D01*
X52709604Y-82169000D01*
X52702940Y-82084319D01*
X52689526Y-81913876D01*
X52689525Y-81913871D01*
X52689221Y-81910006D01*
X52659103Y-81784555D01*
X52629480Y-81661167D01*
X52629479Y-81661164D01*
X52628573Y-81657390D01*
X52580574Y-81541510D01*
X54853938Y-81541510D01*
X54882904Y-81604341D01*
X54887422Y-81612167D01*
X55004171Y-81777363D01*
X55010035Y-81784229D01*
X55154931Y-81925381D01*
X55161954Y-81931068D01*
X55330139Y-82043446D01*
X55338087Y-82047762D01*
X55370594Y-82061728D01*
X55381938Y-82062770D01*
X55385000Y-82055642D01*
X55385000Y-82053458D01*
X56385000Y-82053458D01*
X56388521Y-82064293D01*
X56393651Y-82064293D01*
X56535194Y-81985026D01*
X56542652Y-81979900D01*
X56698157Y-81850568D01*
X56704568Y-81844157D01*
X56833900Y-81688652D01*
X56839026Y-81681194D01*
X56915476Y-81544682D01*
X56916107Y-81541510D01*
X57393938Y-81541510D01*
X57422904Y-81604341D01*
X57427422Y-81612167D01*
X57544171Y-81777363D01*
X57550035Y-81784229D01*
X57694931Y-81925381D01*
X57701954Y-81931068D01*
X57870139Y-82043446D01*
X57878087Y-82047762D01*
X57910594Y-82061728D01*
X57921938Y-82062770D01*
X57925000Y-82055642D01*
X57925000Y-82053458D01*
X58925000Y-82053458D01*
X58928521Y-82064293D01*
X58933651Y-82064293D01*
X59075194Y-81985026D01*
X59082652Y-81979900D01*
X59238157Y-81850568D01*
X59244568Y-81844157D01*
X59373900Y-81688652D01*
X59379026Y-81681194D01*
X59455476Y-81544682D01*
X59457699Y-81533507D01*
X59453221Y-81531000D01*
X58940680Y-81531000D01*
X58927995Y-81535122D01*
X58925000Y-81539243D01*
X58925000Y-82053458D01*
X57925000Y-82053458D01*
X57925000Y-81546680D01*
X57920878Y-81533995D01*
X57916757Y-81531000D01*
X57404773Y-81531000D01*
X57393938Y-81534521D01*
X57393938Y-81541510D01*
X56916107Y-81541510D01*
X56917699Y-81533507D01*
X56913221Y-81531000D01*
X56400680Y-81531000D01*
X56387995Y-81535122D01*
X56385000Y-81539243D01*
X56385000Y-82053458D01*
X55385000Y-82053458D01*
X55385000Y-81546680D01*
X55380878Y-81533995D01*
X55376757Y-81531000D01*
X54864773Y-81531000D01*
X54853938Y-81534521D01*
X54853938Y-81541510D01*
X52580574Y-81541510D01*
X52529154Y-81417372D01*
X52393412Y-81195860D01*
X52226776Y-81000754D01*
X59809967Y-81000754D01*
X59813599Y-81056170D01*
X59822755Y-81195860D01*
X59823796Y-81211749D01*
X59824912Y-81216142D01*
X59824912Y-81216144D01*
X59847487Y-81305032D01*
X59875845Y-81416690D01*
X59877747Y-81420815D01*
X59877747Y-81420816D01*
X59954994Y-81588377D01*
X59964369Y-81608714D01*
X60086405Y-81781391D01*
X60237865Y-81928937D01*
X60241638Y-81931458D01*
X60409899Y-82043887D01*
X60409902Y-82043889D01*
X60413677Y-82046411D01*
X60510472Y-82087997D01*
X60603774Y-82128083D01*
X60603778Y-82128084D01*
X60607953Y-82129878D01*
X60612387Y-82130881D01*
X60612386Y-82130881D01*
X60809760Y-82175543D01*
X60809765Y-82175544D01*
X60814186Y-82176544D01*
X60919828Y-82180695D01*
X61020937Y-82184668D01*
X61020938Y-82184668D01*
X61025470Y-82184846D01*
X61234730Y-82154504D01*
X61239029Y-82153045D01*
X61239032Y-82153044D01*
X61430654Y-82087997D01*
X61434955Y-82086537D01*
X61474675Y-82064293D01*
X61615481Y-81985437D01*
X61619442Y-81983219D01*
X61782012Y-81848012D01*
X61917219Y-81685442D01*
X62020537Y-81500955D01*
X62021997Y-81496654D01*
X62087044Y-81305032D01*
X62087045Y-81305029D01*
X62088504Y-81300730D01*
X62092855Y-81270719D01*
X62118426Y-81094369D01*
X62118426Y-81094363D01*
X62118846Y-81091470D01*
X62120429Y-81031000D01*
X62117650Y-81000754D01*
X62349967Y-81000754D01*
X62353599Y-81056170D01*
X62362755Y-81195860D01*
X62363796Y-81211749D01*
X62364912Y-81216142D01*
X62364912Y-81216144D01*
X62387487Y-81305032D01*
X62415845Y-81416690D01*
X62417747Y-81420815D01*
X62417747Y-81420816D01*
X62494994Y-81588377D01*
X62504369Y-81608714D01*
X62626405Y-81781391D01*
X62777865Y-81928937D01*
X62781638Y-81931458D01*
X62949899Y-82043887D01*
X62949902Y-82043889D01*
X62953677Y-82046411D01*
X63050472Y-82087997D01*
X63143774Y-82128083D01*
X63143778Y-82128084D01*
X63147953Y-82129878D01*
X63152387Y-82130881D01*
X63152386Y-82130881D01*
X63349760Y-82175543D01*
X63349765Y-82175544D01*
X63354186Y-82176544D01*
X63459828Y-82180695D01*
X63560937Y-82184668D01*
X63560938Y-82184668D01*
X63565470Y-82184846D01*
X63774730Y-82154504D01*
X63779029Y-82153045D01*
X63779032Y-82153044D01*
X63970654Y-82087997D01*
X63974955Y-82086537D01*
X64014675Y-82064293D01*
X64155481Y-81985437D01*
X64159442Y-81983219D01*
X64322012Y-81848012D01*
X64457219Y-81685442D01*
X64560537Y-81500955D01*
X64561997Y-81496654D01*
X64627044Y-81305032D01*
X64627045Y-81305029D01*
X64628504Y-81300730D01*
X64632855Y-81270719D01*
X64658426Y-81094369D01*
X64658426Y-81094363D01*
X64658846Y-81091470D01*
X64660429Y-81031000D01*
X64657650Y-81000754D01*
X64889967Y-81000754D01*
X64893599Y-81056170D01*
X64902755Y-81195860D01*
X64903796Y-81211749D01*
X64904912Y-81216142D01*
X64904912Y-81216144D01*
X64927487Y-81305032D01*
X64955845Y-81416690D01*
X64957747Y-81420815D01*
X64957747Y-81420816D01*
X65034994Y-81588377D01*
X65044369Y-81608714D01*
X65166405Y-81781391D01*
X65317865Y-81928937D01*
X65321638Y-81931458D01*
X65489899Y-82043887D01*
X65489902Y-82043889D01*
X65493677Y-82046411D01*
X65590472Y-82087997D01*
X65683774Y-82128083D01*
X65683778Y-82128084D01*
X65687953Y-82129878D01*
X65692387Y-82130881D01*
X65692386Y-82130881D01*
X65889760Y-82175543D01*
X65889765Y-82175544D01*
X65894186Y-82176544D01*
X65999828Y-82180695D01*
X66100937Y-82184668D01*
X66100938Y-82184668D01*
X66105470Y-82184846D01*
X66314730Y-82154504D01*
X66319029Y-82153045D01*
X66319032Y-82153044D01*
X66510654Y-82087997D01*
X66514955Y-82086537D01*
X66554675Y-82064293D01*
X66695481Y-81985437D01*
X66699442Y-81983219D01*
X66862012Y-81848012D01*
X66997219Y-81685442D01*
X67100537Y-81500955D01*
X67101997Y-81496654D01*
X67167044Y-81305032D01*
X67167045Y-81305029D01*
X67168504Y-81300730D01*
X67172855Y-81270719D01*
X67198426Y-81094369D01*
X67198426Y-81094363D01*
X67198846Y-81091470D01*
X67200429Y-81031000D01*
X67197650Y-81000754D01*
X67429967Y-81000754D01*
X67433599Y-81056170D01*
X67442755Y-81195860D01*
X67443796Y-81211749D01*
X67444912Y-81216142D01*
X67444912Y-81216144D01*
X67467487Y-81305032D01*
X67495845Y-81416690D01*
X67497747Y-81420815D01*
X67497747Y-81420816D01*
X67574994Y-81588377D01*
X67584369Y-81608714D01*
X67706405Y-81781391D01*
X67857865Y-81928937D01*
X67861638Y-81931458D01*
X68029899Y-82043887D01*
X68029902Y-82043889D01*
X68033677Y-82046411D01*
X68130472Y-82087997D01*
X68223774Y-82128083D01*
X68223778Y-82128084D01*
X68227953Y-82129878D01*
X68232387Y-82130881D01*
X68232386Y-82130881D01*
X68429760Y-82175543D01*
X68429765Y-82175544D01*
X68434186Y-82176544D01*
X68539828Y-82180695D01*
X68640937Y-82184668D01*
X68640938Y-82184668D01*
X68645470Y-82184846D01*
X68854730Y-82154504D01*
X68859029Y-82153045D01*
X68859032Y-82153044D01*
X69050654Y-82087997D01*
X69054955Y-82086537D01*
X69094675Y-82064293D01*
X69235481Y-81985437D01*
X69239442Y-81983219D01*
X69402012Y-81848012D01*
X69537219Y-81685442D01*
X69640537Y-81500955D01*
X69641997Y-81496654D01*
X69707044Y-81305032D01*
X69707045Y-81305029D01*
X69708504Y-81300730D01*
X69712855Y-81270719D01*
X69738426Y-81094369D01*
X69738426Y-81094363D01*
X69738846Y-81091470D01*
X69740429Y-81031000D01*
X69737650Y-81000754D01*
X69969967Y-81000754D01*
X69973599Y-81056170D01*
X69982755Y-81195860D01*
X69983796Y-81211749D01*
X69984912Y-81216142D01*
X69984912Y-81216144D01*
X70007487Y-81305032D01*
X70035845Y-81416690D01*
X70037747Y-81420815D01*
X70037747Y-81420816D01*
X70114994Y-81588377D01*
X70124369Y-81608714D01*
X70246405Y-81781391D01*
X70397865Y-81928937D01*
X70401638Y-81931458D01*
X70569899Y-82043887D01*
X70569902Y-82043889D01*
X70573677Y-82046411D01*
X70670472Y-82087997D01*
X70763774Y-82128083D01*
X70763778Y-82128084D01*
X70767953Y-82129878D01*
X70772387Y-82130881D01*
X70772386Y-82130881D01*
X70969760Y-82175543D01*
X70969765Y-82175544D01*
X70974186Y-82176544D01*
X71079828Y-82180695D01*
X71180937Y-82184668D01*
X71180938Y-82184668D01*
X71185470Y-82184846D01*
X71394730Y-82154504D01*
X71399029Y-82153045D01*
X71399032Y-82153044D01*
X71590654Y-82087997D01*
X71594955Y-82086537D01*
X71634675Y-82064293D01*
X71775481Y-81985437D01*
X71779442Y-81983219D01*
X71942012Y-81848012D01*
X72077219Y-81685442D01*
X72180537Y-81500955D01*
X72181997Y-81496654D01*
X72247044Y-81305032D01*
X72247045Y-81305029D01*
X72248504Y-81300730D01*
X72252855Y-81270719D01*
X72278426Y-81094369D01*
X72278426Y-81094363D01*
X72278846Y-81091470D01*
X72280429Y-81031000D01*
X72277650Y-81000754D01*
X72509967Y-81000754D01*
X72513599Y-81056170D01*
X72522755Y-81195860D01*
X72523796Y-81211749D01*
X72524912Y-81216142D01*
X72524912Y-81216144D01*
X72547487Y-81305032D01*
X72575845Y-81416690D01*
X72577747Y-81420815D01*
X72577747Y-81420816D01*
X72654994Y-81588377D01*
X72664369Y-81608714D01*
X72786405Y-81781391D01*
X72937865Y-81928937D01*
X72941638Y-81931458D01*
X73109899Y-82043887D01*
X73109902Y-82043889D01*
X73113677Y-82046411D01*
X73210472Y-82087997D01*
X73303774Y-82128083D01*
X73303778Y-82128084D01*
X73307953Y-82129878D01*
X73312387Y-82130881D01*
X73312386Y-82130881D01*
X73509760Y-82175543D01*
X73509765Y-82175544D01*
X73514186Y-82176544D01*
X73619828Y-82180695D01*
X73720937Y-82184668D01*
X73720938Y-82184668D01*
X73725470Y-82184846D01*
X73934730Y-82154504D01*
X73939029Y-82153045D01*
X73939032Y-82153044D01*
X74130654Y-82087997D01*
X74134955Y-82086537D01*
X74174675Y-82064293D01*
X74315481Y-81985437D01*
X74319442Y-81983219D01*
X74482012Y-81848012D01*
X74617219Y-81685442D01*
X74720537Y-81500955D01*
X74721997Y-81496654D01*
X74787044Y-81305032D01*
X74787045Y-81305029D01*
X74788504Y-81300730D01*
X74792855Y-81270719D01*
X74818426Y-81094369D01*
X74818426Y-81094363D01*
X74818846Y-81091470D01*
X74820429Y-81031000D01*
X74817650Y-81000754D01*
X75049967Y-81000754D01*
X75053599Y-81056170D01*
X75062755Y-81195860D01*
X75063796Y-81211749D01*
X75064912Y-81216142D01*
X75064912Y-81216144D01*
X75087487Y-81305032D01*
X75115845Y-81416690D01*
X75117747Y-81420815D01*
X75117747Y-81420816D01*
X75194994Y-81588377D01*
X75204369Y-81608714D01*
X75326405Y-81781391D01*
X75477865Y-81928937D01*
X75481638Y-81931458D01*
X75649899Y-82043887D01*
X75649902Y-82043889D01*
X75653677Y-82046411D01*
X75750472Y-82087997D01*
X75843774Y-82128083D01*
X75843778Y-82128084D01*
X75847953Y-82129878D01*
X75852387Y-82130881D01*
X75852386Y-82130881D01*
X76049760Y-82175543D01*
X76049765Y-82175544D01*
X76054186Y-82176544D01*
X76159828Y-82180695D01*
X76260937Y-82184668D01*
X76260938Y-82184668D01*
X76265470Y-82184846D01*
X76474730Y-82154504D01*
X76479029Y-82153045D01*
X76479032Y-82153044D01*
X76670654Y-82087997D01*
X76674955Y-82086537D01*
X76714675Y-82064293D01*
X76855481Y-81985437D01*
X76859442Y-81983219D01*
X77022012Y-81848012D01*
X77157219Y-81685442D01*
X77260537Y-81500955D01*
X77261997Y-81496654D01*
X77327044Y-81305032D01*
X77327045Y-81305029D01*
X77328504Y-81300730D01*
X77332855Y-81270719D01*
X77358426Y-81094369D01*
X77358426Y-81094363D01*
X77358846Y-81091470D01*
X77360429Y-81031000D01*
X77357650Y-81000754D01*
X77589967Y-81000754D01*
X77593599Y-81056170D01*
X77602755Y-81195860D01*
X77603796Y-81211749D01*
X77604912Y-81216142D01*
X77604912Y-81216144D01*
X77627487Y-81305032D01*
X77655845Y-81416690D01*
X77657747Y-81420815D01*
X77657747Y-81420816D01*
X77734994Y-81588377D01*
X77744369Y-81608714D01*
X77866405Y-81781391D01*
X78017865Y-81928937D01*
X78021638Y-81931458D01*
X78189899Y-82043887D01*
X78189902Y-82043889D01*
X78193677Y-82046411D01*
X78290472Y-82087997D01*
X78383774Y-82128083D01*
X78383778Y-82128084D01*
X78387953Y-82129878D01*
X78392387Y-82130881D01*
X78392386Y-82130881D01*
X78589760Y-82175543D01*
X78589765Y-82175544D01*
X78594186Y-82176544D01*
X78699828Y-82180695D01*
X78800937Y-82184668D01*
X78800938Y-82184668D01*
X78805470Y-82184846D01*
X79014730Y-82154504D01*
X79019029Y-82153045D01*
X79019032Y-82153044D01*
X79210654Y-82087997D01*
X79214955Y-82086537D01*
X79254675Y-82064293D01*
X79395481Y-81985437D01*
X79399442Y-81983219D01*
X79562012Y-81848012D01*
X79697219Y-81685442D01*
X79800537Y-81500955D01*
X79801997Y-81496654D01*
X79867044Y-81305032D01*
X79867045Y-81305029D01*
X79868504Y-81300730D01*
X79872855Y-81270719D01*
X79898426Y-81094369D01*
X79898426Y-81094363D01*
X79898846Y-81091470D01*
X79900429Y-81031000D01*
X79897650Y-81000754D01*
X80129967Y-81000754D01*
X80133599Y-81056170D01*
X80142755Y-81195860D01*
X80143796Y-81211749D01*
X80144912Y-81216142D01*
X80144912Y-81216144D01*
X80167487Y-81305032D01*
X80195845Y-81416690D01*
X80197747Y-81420815D01*
X80197747Y-81420816D01*
X80274994Y-81588377D01*
X80284369Y-81608714D01*
X80406405Y-81781391D01*
X80557865Y-81928937D01*
X80561638Y-81931458D01*
X80729899Y-82043887D01*
X80729902Y-82043889D01*
X80733677Y-82046411D01*
X80830472Y-82087997D01*
X80923774Y-82128083D01*
X80923778Y-82128084D01*
X80927953Y-82129878D01*
X80932387Y-82130881D01*
X80932386Y-82130881D01*
X81129760Y-82175543D01*
X81129765Y-82175544D01*
X81134186Y-82176544D01*
X81239828Y-82180695D01*
X81340937Y-82184668D01*
X81340938Y-82184668D01*
X81345470Y-82184846D01*
X81554730Y-82154504D01*
X81559029Y-82153045D01*
X81559032Y-82153044D01*
X81750654Y-82087997D01*
X81754955Y-82086537D01*
X81794675Y-82064293D01*
X81935481Y-81985437D01*
X81939442Y-81983219D01*
X82102012Y-81848012D01*
X82237219Y-81685442D01*
X82340537Y-81500955D01*
X82341997Y-81496654D01*
X82407044Y-81305032D01*
X82407045Y-81305029D01*
X82408504Y-81300730D01*
X82412855Y-81270719D01*
X82438426Y-81094369D01*
X82438426Y-81094363D01*
X82438846Y-81091470D01*
X82440429Y-81031000D01*
X82437650Y-81000754D01*
X82669967Y-81000754D01*
X82673599Y-81056170D01*
X82682755Y-81195860D01*
X82683796Y-81211749D01*
X82684912Y-81216142D01*
X82684912Y-81216144D01*
X82707487Y-81305032D01*
X82735845Y-81416690D01*
X82737747Y-81420815D01*
X82737747Y-81420816D01*
X82814994Y-81588377D01*
X82824369Y-81608714D01*
X82946405Y-81781391D01*
X83097865Y-81928937D01*
X83101638Y-81931458D01*
X83269899Y-82043887D01*
X83269902Y-82043889D01*
X83273677Y-82046411D01*
X83370472Y-82087997D01*
X83463774Y-82128083D01*
X83463778Y-82128084D01*
X83467953Y-82129878D01*
X83472387Y-82130881D01*
X83472386Y-82130881D01*
X83669760Y-82175543D01*
X83669765Y-82175544D01*
X83674186Y-82176544D01*
X83779828Y-82180695D01*
X83880937Y-82184668D01*
X83880938Y-82184668D01*
X83885470Y-82184846D01*
X84094730Y-82154504D01*
X84099029Y-82153045D01*
X84099032Y-82153044D01*
X84290654Y-82087997D01*
X84294955Y-82086537D01*
X84334675Y-82064293D01*
X84475481Y-81985437D01*
X84479442Y-81983219D01*
X84642012Y-81848012D01*
X84777219Y-81685442D01*
X84880537Y-81500955D01*
X84881997Y-81496654D01*
X84947044Y-81305032D01*
X84947045Y-81305029D01*
X84948504Y-81300730D01*
X84952855Y-81270719D01*
X84978426Y-81094369D01*
X84978426Y-81094363D01*
X84978846Y-81091470D01*
X84980429Y-81031000D01*
X84977650Y-81000754D01*
X85209967Y-81000754D01*
X85213599Y-81056170D01*
X85222755Y-81195860D01*
X85223796Y-81211749D01*
X85224912Y-81216142D01*
X85224912Y-81216144D01*
X85247487Y-81305032D01*
X85275845Y-81416690D01*
X85277747Y-81420815D01*
X85277747Y-81420816D01*
X85354994Y-81588377D01*
X85364369Y-81608714D01*
X85486405Y-81781391D01*
X85637865Y-81928937D01*
X85641638Y-81931458D01*
X85809899Y-82043887D01*
X85809902Y-82043889D01*
X85813677Y-82046411D01*
X85910472Y-82087997D01*
X86003774Y-82128083D01*
X86003778Y-82128084D01*
X86007953Y-82129878D01*
X86012387Y-82130881D01*
X86012386Y-82130881D01*
X86209760Y-82175543D01*
X86209765Y-82175544D01*
X86214186Y-82176544D01*
X86319828Y-82180695D01*
X86420937Y-82184668D01*
X86420938Y-82184668D01*
X86425470Y-82184846D01*
X86634730Y-82154504D01*
X86639029Y-82153045D01*
X86639032Y-82153044D01*
X86830654Y-82087997D01*
X86834955Y-82086537D01*
X86874675Y-82064293D01*
X87015481Y-81985437D01*
X87019442Y-81983219D01*
X87182012Y-81848012D01*
X87317219Y-81685442D01*
X87420537Y-81500955D01*
X87421997Y-81496654D01*
X87487044Y-81305032D01*
X87487045Y-81305029D01*
X87488504Y-81300730D01*
X87492855Y-81270719D01*
X87518426Y-81094369D01*
X87518426Y-81094363D01*
X87518846Y-81091470D01*
X87520429Y-81031000D01*
X87517650Y-81000754D01*
X87749967Y-81000754D01*
X87753599Y-81056170D01*
X87762755Y-81195860D01*
X87763796Y-81211749D01*
X87764912Y-81216142D01*
X87764912Y-81216144D01*
X87787487Y-81305032D01*
X87815845Y-81416690D01*
X87817747Y-81420815D01*
X87817747Y-81420816D01*
X87894994Y-81588377D01*
X87904369Y-81608714D01*
X88026405Y-81781391D01*
X88177865Y-81928937D01*
X88181638Y-81931458D01*
X88349899Y-82043887D01*
X88349902Y-82043889D01*
X88353677Y-82046411D01*
X88450472Y-82087997D01*
X88543774Y-82128083D01*
X88543778Y-82128084D01*
X88547953Y-82129878D01*
X88552387Y-82130881D01*
X88552386Y-82130881D01*
X88749760Y-82175543D01*
X88749765Y-82175544D01*
X88754186Y-82176544D01*
X88859828Y-82180695D01*
X88960937Y-82184668D01*
X88960938Y-82184668D01*
X88965470Y-82184846D01*
X89174730Y-82154504D01*
X89179029Y-82153045D01*
X89179032Y-82153044D01*
X89370654Y-82087997D01*
X89374955Y-82086537D01*
X89414675Y-82064293D01*
X89555481Y-81985437D01*
X89559442Y-81983219D01*
X89722012Y-81848012D01*
X89857219Y-81685442D01*
X89960537Y-81500955D01*
X89961997Y-81496654D01*
X90027044Y-81305032D01*
X90027045Y-81305029D01*
X90028504Y-81300730D01*
X90032855Y-81270719D01*
X90058426Y-81094369D01*
X90058426Y-81094363D01*
X90058846Y-81091470D01*
X90060429Y-81031000D01*
X90057650Y-81000754D01*
X90289967Y-81000754D01*
X90293599Y-81056170D01*
X90302755Y-81195860D01*
X90303796Y-81211749D01*
X90304912Y-81216142D01*
X90304912Y-81216144D01*
X90327487Y-81305032D01*
X90355845Y-81416690D01*
X90357747Y-81420815D01*
X90357747Y-81420816D01*
X90434994Y-81588377D01*
X90444369Y-81608714D01*
X90566405Y-81781391D01*
X90717865Y-81928937D01*
X90721638Y-81931458D01*
X90889899Y-82043887D01*
X90889902Y-82043889D01*
X90893677Y-82046411D01*
X90990472Y-82087997D01*
X91083774Y-82128083D01*
X91083778Y-82128084D01*
X91087953Y-82129878D01*
X91092387Y-82130881D01*
X91092386Y-82130881D01*
X91289760Y-82175543D01*
X91289765Y-82175544D01*
X91294186Y-82176544D01*
X91399828Y-82180695D01*
X91500937Y-82184668D01*
X91500938Y-82184668D01*
X91505470Y-82184846D01*
X91714730Y-82154504D01*
X91719029Y-82153045D01*
X91719032Y-82153044D01*
X91910654Y-82087997D01*
X91914955Y-82086537D01*
X91954675Y-82064293D01*
X92095481Y-81985437D01*
X92099442Y-81983219D01*
X92262012Y-81848012D01*
X92397219Y-81685442D01*
X92500537Y-81500955D01*
X92501997Y-81496654D01*
X92567044Y-81305032D01*
X92567045Y-81305029D01*
X92568504Y-81300730D01*
X92572855Y-81270719D01*
X92598426Y-81094369D01*
X92598426Y-81094363D01*
X92598846Y-81091470D01*
X92600429Y-81031000D01*
X92597650Y-81000754D01*
X92829967Y-81000754D01*
X92833599Y-81056170D01*
X92842755Y-81195860D01*
X92843796Y-81211749D01*
X92844912Y-81216142D01*
X92844912Y-81216144D01*
X92867487Y-81305032D01*
X92895845Y-81416690D01*
X92897747Y-81420815D01*
X92897747Y-81420816D01*
X92974994Y-81588377D01*
X92984369Y-81608714D01*
X93106405Y-81781391D01*
X93257865Y-81928937D01*
X93261638Y-81931458D01*
X93429899Y-82043887D01*
X93429902Y-82043889D01*
X93433677Y-82046411D01*
X93530472Y-82087997D01*
X93623774Y-82128083D01*
X93623778Y-82128084D01*
X93627953Y-82129878D01*
X93632387Y-82130881D01*
X93632386Y-82130881D01*
X93829760Y-82175543D01*
X93829765Y-82175544D01*
X93834186Y-82176544D01*
X93939828Y-82180695D01*
X94040937Y-82184668D01*
X94040938Y-82184668D01*
X94045470Y-82184846D01*
X94254730Y-82154504D01*
X94259029Y-82153045D01*
X94259032Y-82153044D01*
X94450654Y-82087997D01*
X94454955Y-82086537D01*
X94494675Y-82064293D01*
X94635481Y-81985437D01*
X94639442Y-81983219D01*
X94802012Y-81848012D01*
X94937219Y-81685442D01*
X95040537Y-81500955D01*
X95041997Y-81496654D01*
X95107044Y-81305032D01*
X95107045Y-81305029D01*
X95108504Y-81300730D01*
X95112855Y-81270719D01*
X95138426Y-81094369D01*
X95138426Y-81094363D01*
X95138846Y-81091470D01*
X95140429Y-81031000D01*
X95137650Y-81000754D01*
X95369967Y-81000754D01*
X95373599Y-81056170D01*
X95382755Y-81195860D01*
X95383796Y-81211749D01*
X95384912Y-81216142D01*
X95384912Y-81216144D01*
X95407487Y-81305032D01*
X95435845Y-81416690D01*
X95437747Y-81420815D01*
X95437747Y-81420816D01*
X95514994Y-81588377D01*
X95524369Y-81608714D01*
X95646405Y-81781391D01*
X95797865Y-81928937D01*
X95801638Y-81931458D01*
X95969899Y-82043887D01*
X95969902Y-82043889D01*
X95973677Y-82046411D01*
X96070472Y-82087997D01*
X96163774Y-82128083D01*
X96163778Y-82128084D01*
X96167953Y-82129878D01*
X96172387Y-82130881D01*
X96172386Y-82130881D01*
X96369760Y-82175543D01*
X96369765Y-82175544D01*
X96374186Y-82176544D01*
X96479828Y-82180695D01*
X96580937Y-82184668D01*
X96580938Y-82184668D01*
X96585470Y-82184846D01*
X96794730Y-82154504D01*
X96799029Y-82153045D01*
X96799032Y-82153044D01*
X96990654Y-82087997D01*
X96994955Y-82086537D01*
X97034675Y-82064293D01*
X97175481Y-81985437D01*
X97179442Y-81983219D01*
X97342012Y-81848012D01*
X97477219Y-81685442D01*
X97580537Y-81500955D01*
X97581997Y-81496654D01*
X97647044Y-81305032D01*
X97647045Y-81305029D01*
X97648504Y-81300730D01*
X97652855Y-81270719D01*
X97678426Y-81094369D01*
X97678426Y-81094363D01*
X97678846Y-81091470D01*
X97680429Y-81031000D01*
X97677650Y-81000754D01*
X97909967Y-81000754D01*
X97913599Y-81056170D01*
X97922755Y-81195860D01*
X97923796Y-81211749D01*
X97924912Y-81216142D01*
X97924912Y-81216144D01*
X97947487Y-81305032D01*
X97975845Y-81416690D01*
X97977747Y-81420815D01*
X97977747Y-81420816D01*
X98054994Y-81588377D01*
X98064369Y-81608714D01*
X98186405Y-81781391D01*
X98337865Y-81928937D01*
X98341638Y-81931458D01*
X98509899Y-82043887D01*
X98509902Y-82043889D01*
X98513677Y-82046411D01*
X98610472Y-82087997D01*
X98703774Y-82128083D01*
X98703778Y-82128084D01*
X98707953Y-82129878D01*
X98712387Y-82130881D01*
X98712386Y-82130881D01*
X98909760Y-82175543D01*
X98909765Y-82175544D01*
X98914186Y-82176544D01*
X99019828Y-82180695D01*
X99120937Y-82184668D01*
X99120938Y-82184668D01*
X99125470Y-82184846D01*
X99334730Y-82154504D01*
X99339029Y-82153045D01*
X99339032Y-82153044D01*
X99530654Y-82087997D01*
X99534955Y-82086537D01*
X99574675Y-82064293D01*
X99715481Y-81985437D01*
X99719442Y-81983219D01*
X99882012Y-81848012D01*
X100017219Y-81685442D01*
X100120537Y-81500955D01*
X100121997Y-81496654D01*
X100187044Y-81305032D01*
X100187045Y-81305029D01*
X100188504Y-81300730D01*
X100192855Y-81270719D01*
X100218426Y-81094369D01*
X100218426Y-81094363D01*
X100218846Y-81091470D01*
X100220429Y-81031000D01*
X100217650Y-81000754D01*
X100449967Y-81000754D01*
X100453599Y-81056170D01*
X100462755Y-81195860D01*
X100463796Y-81211749D01*
X100464912Y-81216142D01*
X100464912Y-81216144D01*
X100487487Y-81305032D01*
X100515845Y-81416690D01*
X100517747Y-81420815D01*
X100517747Y-81420816D01*
X100594994Y-81588377D01*
X100604369Y-81608714D01*
X100726405Y-81781391D01*
X100877865Y-81928937D01*
X100881638Y-81931458D01*
X101049899Y-82043887D01*
X101049902Y-82043889D01*
X101053677Y-82046411D01*
X101150472Y-82087997D01*
X101243774Y-82128083D01*
X101243778Y-82128084D01*
X101247953Y-82129878D01*
X101252387Y-82130881D01*
X101252386Y-82130881D01*
X101449760Y-82175543D01*
X101449765Y-82175544D01*
X101454186Y-82176544D01*
X101559828Y-82180695D01*
X101660937Y-82184668D01*
X101660938Y-82184668D01*
X101665470Y-82184846D01*
X101874730Y-82154504D01*
X101879029Y-82153045D01*
X101879032Y-82153044D01*
X102070654Y-82087997D01*
X102074955Y-82086537D01*
X102114675Y-82064293D01*
X102255481Y-81985437D01*
X102259442Y-81983219D01*
X102422012Y-81848012D01*
X102557219Y-81685442D01*
X102660537Y-81500955D01*
X102661997Y-81496654D01*
X102727044Y-81305032D01*
X102727045Y-81305029D01*
X102728504Y-81300730D01*
X102732855Y-81270719D01*
X102758426Y-81094369D01*
X102758426Y-81094363D01*
X102758846Y-81091470D01*
X102760429Y-81031000D01*
X102757650Y-81000754D01*
X102989967Y-81000754D01*
X102993599Y-81056170D01*
X103002755Y-81195860D01*
X103003796Y-81211749D01*
X103004912Y-81216142D01*
X103004912Y-81216144D01*
X103027487Y-81305032D01*
X103055845Y-81416690D01*
X103057747Y-81420815D01*
X103057747Y-81420816D01*
X103134994Y-81588377D01*
X103144369Y-81608714D01*
X103266405Y-81781391D01*
X103417865Y-81928937D01*
X103421638Y-81931458D01*
X103589899Y-82043887D01*
X103589902Y-82043889D01*
X103593677Y-82046411D01*
X103690472Y-82087997D01*
X103783774Y-82128083D01*
X103783778Y-82128084D01*
X103787953Y-82129878D01*
X103792387Y-82130881D01*
X103792386Y-82130881D01*
X103989760Y-82175543D01*
X103989765Y-82175544D01*
X103994186Y-82176544D01*
X104099828Y-82180695D01*
X104200937Y-82184668D01*
X104200938Y-82184668D01*
X104205470Y-82184846D01*
X104314755Y-82169000D01*
X107437396Y-82169000D01*
X107437701Y-82172875D01*
X107457435Y-82423618D01*
X107457779Y-82427994D01*
X107481442Y-82526556D01*
X107512859Y-82657416D01*
X107518427Y-82680610D01*
X107617846Y-82920628D01*
X107753588Y-83142140D01*
X107922311Y-83339689D01*
X108119860Y-83508412D01*
X108341372Y-83644154D01*
X108581390Y-83743573D01*
X108585164Y-83744479D01*
X108585167Y-83744480D01*
X108719933Y-83776834D01*
X108834006Y-83804221D01*
X108837871Y-83804525D01*
X108837876Y-83804526D01*
X108974215Y-83815256D01*
X109028147Y-83819500D01*
X109157853Y-83819500D01*
X109211785Y-83815256D01*
X109348124Y-83804526D01*
X109348129Y-83804525D01*
X109351994Y-83804221D01*
X109466067Y-83776834D01*
X109600833Y-83744480D01*
X109600836Y-83744479D01*
X109604610Y-83743573D01*
X109844628Y-83644154D01*
X110066140Y-83508412D01*
X110263689Y-83339689D01*
X110432412Y-83142140D01*
X110568154Y-82920628D01*
X110667573Y-82680610D01*
X110673142Y-82657416D01*
X110704558Y-82526556D01*
X110728221Y-82427994D01*
X110728566Y-82423618D01*
X110748299Y-82172875D01*
X110748604Y-82169000D01*
X110741940Y-82084319D01*
X110728526Y-81913876D01*
X110728525Y-81913871D01*
X110728221Y-81910006D01*
X110698103Y-81784555D01*
X110668480Y-81661167D01*
X110668479Y-81661164D01*
X110667573Y-81657390D01*
X110568154Y-81417372D01*
X110432412Y-81195860D01*
X110263689Y-80998311D01*
X110066140Y-80829588D01*
X109844628Y-80693846D01*
X109604610Y-80594427D01*
X109600836Y-80593521D01*
X109600833Y-80593520D01*
X109466067Y-80561166D01*
X109351994Y-80533779D01*
X109348129Y-80533475D01*
X109348124Y-80533474D01*
X109211785Y-80522744D01*
X109157853Y-80518500D01*
X109028147Y-80518500D01*
X108974215Y-80522744D01*
X108837876Y-80533474D01*
X108837871Y-80533475D01*
X108834006Y-80533779D01*
X108719933Y-80561166D01*
X108585167Y-80593520D01*
X108585164Y-80593521D01*
X108581390Y-80594427D01*
X108341372Y-80693846D01*
X108119860Y-80829588D01*
X107922311Y-80998311D01*
X107753588Y-81195860D01*
X107617846Y-81417372D01*
X107518427Y-81657390D01*
X107517521Y-81661164D01*
X107517520Y-81661167D01*
X107487897Y-81784555D01*
X107457779Y-81910006D01*
X107457475Y-81913871D01*
X107457474Y-81913876D01*
X107444060Y-82084319D01*
X107437396Y-82169000D01*
X104314755Y-82169000D01*
X104414730Y-82154504D01*
X104419029Y-82153045D01*
X104419032Y-82153044D01*
X104610654Y-82087997D01*
X104614955Y-82086537D01*
X104654675Y-82064293D01*
X104795481Y-81985437D01*
X104799442Y-81983219D01*
X104962012Y-81848012D01*
X105097219Y-81685442D01*
X105200537Y-81500955D01*
X105201997Y-81496654D01*
X105267044Y-81305032D01*
X105267045Y-81305029D01*
X105268504Y-81300730D01*
X105272855Y-81270719D01*
X105298426Y-81094369D01*
X105298426Y-81094363D01*
X105298846Y-81091470D01*
X105300429Y-81031000D01*
X105297426Y-80998311D01*
X105285938Y-80873298D01*
X105281081Y-80820440D01*
X105245378Y-80693846D01*
X105224920Y-80621306D01*
X105224920Y-80621305D01*
X105223686Y-80616931D01*
X105130165Y-80427290D01*
X105003651Y-80257867D01*
X104848381Y-80114337D01*
X104796985Y-80081908D01*
X104673391Y-80003926D01*
X104669554Y-80001505D01*
X104473160Y-79923152D01*
X104265775Y-79881901D01*
X104161599Y-79880537D01*
X104058886Y-79879192D01*
X104058881Y-79879192D01*
X104054346Y-79879133D01*
X104049873Y-79879902D01*
X104049868Y-79879902D01*
X103946601Y-79897647D01*
X103845953Y-79914941D01*
X103647575Y-79988127D01*
X103643676Y-79990446D01*
X103643671Y-79990449D01*
X103469762Y-80093914D01*
X103465856Y-80096238D01*
X103462441Y-80099233D01*
X103462438Y-80099235D01*
X103359262Y-80189718D01*
X103306881Y-80235655D01*
X103304073Y-80239217D01*
X103286239Y-80261840D01*
X103175976Y-80401708D01*
X103173862Y-80405726D01*
X103109805Y-80527479D01*
X103077523Y-80588836D01*
X103076179Y-80593165D01*
X103044160Y-80696284D01*
X103014820Y-80790773D01*
X102989967Y-81000754D01*
X102757650Y-81000754D01*
X102757426Y-80998311D01*
X102745938Y-80873298D01*
X102741081Y-80820440D01*
X102705378Y-80693846D01*
X102684920Y-80621306D01*
X102684920Y-80621305D01*
X102683686Y-80616931D01*
X102590165Y-80427290D01*
X102463651Y-80257867D01*
X102308381Y-80114337D01*
X102256985Y-80081908D01*
X102133391Y-80003926D01*
X102129554Y-80001505D01*
X101933160Y-79923152D01*
X101725775Y-79881901D01*
X101621599Y-79880537D01*
X101518886Y-79879192D01*
X101518881Y-79879192D01*
X101514346Y-79879133D01*
X101509873Y-79879902D01*
X101509868Y-79879902D01*
X101406601Y-79897647D01*
X101305953Y-79914941D01*
X101107575Y-79988127D01*
X101103676Y-79990446D01*
X101103671Y-79990449D01*
X100929762Y-80093914D01*
X100925856Y-80096238D01*
X100922441Y-80099233D01*
X100922438Y-80099235D01*
X100819262Y-80189718D01*
X100766881Y-80235655D01*
X100764073Y-80239217D01*
X100746239Y-80261840D01*
X100635976Y-80401708D01*
X100633862Y-80405726D01*
X100569805Y-80527479D01*
X100537523Y-80588836D01*
X100536179Y-80593165D01*
X100504160Y-80696284D01*
X100474820Y-80790773D01*
X100449967Y-81000754D01*
X100217650Y-81000754D01*
X100217426Y-80998311D01*
X100205938Y-80873298D01*
X100201081Y-80820440D01*
X100165378Y-80693846D01*
X100144920Y-80621306D01*
X100144920Y-80621305D01*
X100143686Y-80616931D01*
X100050165Y-80427290D01*
X99923651Y-80257867D01*
X99768381Y-80114337D01*
X99716985Y-80081908D01*
X99593391Y-80003926D01*
X99589554Y-80001505D01*
X99393160Y-79923152D01*
X99185775Y-79881901D01*
X99081599Y-79880537D01*
X98978886Y-79879192D01*
X98978881Y-79879192D01*
X98974346Y-79879133D01*
X98969873Y-79879902D01*
X98969868Y-79879902D01*
X98866601Y-79897647D01*
X98765953Y-79914941D01*
X98567575Y-79988127D01*
X98563676Y-79990446D01*
X98563671Y-79990449D01*
X98389762Y-80093914D01*
X98385856Y-80096238D01*
X98382441Y-80099233D01*
X98382438Y-80099235D01*
X98279262Y-80189718D01*
X98226881Y-80235655D01*
X98224073Y-80239217D01*
X98206239Y-80261840D01*
X98095976Y-80401708D01*
X98093862Y-80405726D01*
X98029805Y-80527479D01*
X97997523Y-80588836D01*
X97996179Y-80593165D01*
X97964160Y-80696284D01*
X97934820Y-80790773D01*
X97909967Y-81000754D01*
X97677650Y-81000754D01*
X97677426Y-80998311D01*
X97665938Y-80873298D01*
X97661081Y-80820440D01*
X97625378Y-80693846D01*
X97604920Y-80621306D01*
X97604920Y-80621305D01*
X97603686Y-80616931D01*
X97510165Y-80427290D01*
X97383651Y-80257867D01*
X97228381Y-80114337D01*
X97176985Y-80081908D01*
X97053391Y-80003926D01*
X97049554Y-80001505D01*
X96853160Y-79923152D01*
X96645775Y-79881901D01*
X96541599Y-79880537D01*
X96438886Y-79879192D01*
X96438881Y-79879192D01*
X96434346Y-79879133D01*
X96429873Y-79879902D01*
X96429868Y-79879902D01*
X96326601Y-79897647D01*
X96225953Y-79914941D01*
X96027575Y-79988127D01*
X96023676Y-79990446D01*
X96023671Y-79990449D01*
X95849762Y-80093914D01*
X95845856Y-80096238D01*
X95842441Y-80099233D01*
X95842438Y-80099235D01*
X95739262Y-80189718D01*
X95686881Y-80235655D01*
X95684073Y-80239217D01*
X95666239Y-80261840D01*
X95555976Y-80401708D01*
X95553862Y-80405726D01*
X95489805Y-80527479D01*
X95457523Y-80588836D01*
X95456179Y-80593165D01*
X95424160Y-80696284D01*
X95394820Y-80790773D01*
X95369967Y-81000754D01*
X95137650Y-81000754D01*
X95137426Y-80998311D01*
X95125938Y-80873298D01*
X95121081Y-80820440D01*
X95085378Y-80693846D01*
X95064920Y-80621306D01*
X95064920Y-80621305D01*
X95063686Y-80616931D01*
X94970165Y-80427290D01*
X94843651Y-80257867D01*
X94688381Y-80114337D01*
X94636985Y-80081908D01*
X94513391Y-80003926D01*
X94509554Y-80001505D01*
X94313160Y-79923152D01*
X94105775Y-79881901D01*
X94001599Y-79880537D01*
X93898886Y-79879192D01*
X93898881Y-79879192D01*
X93894346Y-79879133D01*
X93889873Y-79879902D01*
X93889868Y-79879902D01*
X93786601Y-79897647D01*
X93685953Y-79914941D01*
X93487575Y-79988127D01*
X93483676Y-79990446D01*
X93483671Y-79990449D01*
X93309762Y-80093914D01*
X93305856Y-80096238D01*
X93302441Y-80099233D01*
X93302438Y-80099235D01*
X93199262Y-80189718D01*
X93146881Y-80235655D01*
X93144073Y-80239217D01*
X93126239Y-80261840D01*
X93015976Y-80401708D01*
X93013862Y-80405726D01*
X92949805Y-80527479D01*
X92917523Y-80588836D01*
X92916179Y-80593165D01*
X92884160Y-80696284D01*
X92854820Y-80790773D01*
X92829967Y-81000754D01*
X92597650Y-81000754D01*
X92597426Y-80998311D01*
X92585938Y-80873298D01*
X92581081Y-80820440D01*
X92545378Y-80693846D01*
X92524920Y-80621306D01*
X92524920Y-80621305D01*
X92523686Y-80616931D01*
X92430165Y-80427290D01*
X92303651Y-80257867D01*
X92148381Y-80114337D01*
X92096985Y-80081908D01*
X91973391Y-80003926D01*
X91969554Y-80001505D01*
X91773160Y-79923152D01*
X91565775Y-79881901D01*
X91461599Y-79880537D01*
X91358886Y-79879192D01*
X91358881Y-79879192D01*
X91354346Y-79879133D01*
X91349873Y-79879902D01*
X91349868Y-79879902D01*
X91246601Y-79897647D01*
X91145953Y-79914941D01*
X90947575Y-79988127D01*
X90943676Y-79990446D01*
X90943671Y-79990449D01*
X90769762Y-80093914D01*
X90765856Y-80096238D01*
X90762441Y-80099233D01*
X90762438Y-80099235D01*
X90659262Y-80189718D01*
X90606881Y-80235655D01*
X90604073Y-80239217D01*
X90586239Y-80261840D01*
X90475976Y-80401708D01*
X90473862Y-80405726D01*
X90409805Y-80527479D01*
X90377523Y-80588836D01*
X90376179Y-80593165D01*
X90344160Y-80696284D01*
X90314820Y-80790773D01*
X90289967Y-81000754D01*
X90057650Y-81000754D01*
X90057426Y-80998311D01*
X90045938Y-80873298D01*
X90041081Y-80820440D01*
X90005378Y-80693846D01*
X89984920Y-80621306D01*
X89984920Y-80621305D01*
X89983686Y-80616931D01*
X89890165Y-80427290D01*
X89763651Y-80257867D01*
X89608381Y-80114337D01*
X89556985Y-80081908D01*
X89433391Y-80003926D01*
X89429554Y-80001505D01*
X89233160Y-79923152D01*
X89025775Y-79881901D01*
X88921599Y-79880537D01*
X88818886Y-79879192D01*
X88818881Y-79879192D01*
X88814346Y-79879133D01*
X88809873Y-79879902D01*
X88809868Y-79879902D01*
X88706601Y-79897647D01*
X88605953Y-79914941D01*
X88407575Y-79988127D01*
X88403676Y-79990446D01*
X88403671Y-79990449D01*
X88229762Y-80093914D01*
X88225856Y-80096238D01*
X88222441Y-80099233D01*
X88222438Y-80099235D01*
X88119262Y-80189718D01*
X88066881Y-80235655D01*
X88064073Y-80239217D01*
X88046239Y-80261840D01*
X87935976Y-80401708D01*
X87933862Y-80405726D01*
X87869805Y-80527479D01*
X87837523Y-80588836D01*
X87836179Y-80593165D01*
X87804160Y-80696284D01*
X87774820Y-80790773D01*
X87749967Y-81000754D01*
X87517650Y-81000754D01*
X87517426Y-80998311D01*
X87505938Y-80873298D01*
X87501081Y-80820440D01*
X87465378Y-80693846D01*
X87444920Y-80621306D01*
X87444920Y-80621305D01*
X87443686Y-80616931D01*
X87350165Y-80427290D01*
X87223651Y-80257867D01*
X87068381Y-80114337D01*
X87016985Y-80081908D01*
X86893391Y-80003926D01*
X86889554Y-80001505D01*
X86693160Y-79923152D01*
X86485775Y-79881901D01*
X86381599Y-79880537D01*
X86278886Y-79879192D01*
X86278881Y-79879192D01*
X86274346Y-79879133D01*
X86269873Y-79879902D01*
X86269868Y-79879902D01*
X86166601Y-79897647D01*
X86065953Y-79914941D01*
X85867575Y-79988127D01*
X85863676Y-79990446D01*
X85863671Y-79990449D01*
X85689762Y-80093914D01*
X85685856Y-80096238D01*
X85682441Y-80099233D01*
X85682438Y-80099235D01*
X85579262Y-80189718D01*
X85526881Y-80235655D01*
X85524073Y-80239217D01*
X85506239Y-80261840D01*
X85395976Y-80401708D01*
X85393862Y-80405726D01*
X85329805Y-80527479D01*
X85297523Y-80588836D01*
X85296179Y-80593165D01*
X85264160Y-80696284D01*
X85234820Y-80790773D01*
X85209967Y-81000754D01*
X84977650Y-81000754D01*
X84977426Y-80998311D01*
X84965938Y-80873298D01*
X84961081Y-80820440D01*
X84925378Y-80693846D01*
X84904920Y-80621306D01*
X84904920Y-80621305D01*
X84903686Y-80616931D01*
X84810165Y-80427290D01*
X84683651Y-80257867D01*
X84528381Y-80114337D01*
X84476985Y-80081908D01*
X84353391Y-80003926D01*
X84349554Y-80001505D01*
X84153160Y-79923152D01*
X83945775Y-79881901D01*
X83841599Y-79880537D01*
X83738886Y-79879192D01*
X83738881Y-79879192D01*
X83734346Y-79879133D01*
X83729873Y-79879902D01*
X83729868Y-79879902D01*
X83626601Y-79897647D01*
X83525953Y-79914941D01*
X83327575Y-79988127D01*
X83323676Y-79990446D01*
X83323671Y-79990449D01*
X83149762Y-80093914D01*
X83145856Y-80096238D01*
X83142441Y-80099233D01*
X83142438Y-80099235D01*
X83039262Y-80189718D01*
X82986881Y-80235655D01*
X82984073Y-80239217D01*
X82966239Y-80261840D01*
X82855976Y-80401708D01*
X82853862Y-80405726D01*
X82789805Y-80527479D01*
X82757523Y-80588836D01*
X82756179Y-80593165D01*
X82724160Y-80696284D01*
X82694820Y-80790773D01*
X82669967Y-81000754D01*
X82437650Y-81000754D01*
X82437426Y-80998311D01*
X82425938Y-80873298D01*
X82421081Y-80820440D01*
X82385378Y-80693846D01*
X82364920Y-80621306D01*
X82364920Y-80621305D01*
X82363686Y-80616931D01*
X82270165Y-80427290D01*
X82143651Y-80257867D01*
X81988381Y-80114337D01*
X81936985Y-80081908D01*
X81813391Y-80003926D01*
X81809554Y-80001505D01*
X81613160Y-79923152D01*
X81405775Y-79881901D01*
X81301599Y-79880537D01*
X81198886Y-79879192D01*
X81198881Y-79879192D01*
X81194346Y-79879133D01*
X81189873Y-79879902D01*
X81189868Y-79879902D01*
X81086601Y-79897647D01*
X80985953Y-79914941D01*
X80787575Y-79988127D01*
X80783676Y-79990446D01*
X80783671Y-79990449D01*
X80609762Y-80093914D01*
X80605856Y-80096238D01*
X80602441Y-80099233D01*
X80602438Y-80099235D01*
X80499262Y-80189718D01*
X80446881Y-80235655D01*
X80444073Y-80239217D01*
X80426239Y-80261840D01*
X80315976Y-80401708D01*
X80313862Y-80405726D01*
X80249805Y-80527479D01*
X80217523Y-80588836D01*
X80216179Y-80593165D01*
X80184160Y-80696284D01*
X80154820Y-80790773D01*
X80129967Y-81000754D01*
X79897650Y-81000754D01*
X79897426Y-80998311D01*
X79885938Y-80873298D01*
X79881081Y-80820440D01*
X79845378Y-80693846D01*
X79824920Y-80621306D01*
X79824920Y-80621305D01*
X79823686Y-80616931D01*
X79730165Y-80427290D01*
X79603651Y-80257867D01*
X79448381Y-80114337D01*
X79396985Y-80081908D01*
X79273391Y-80003926D01*
X79269554Y-80001505D01*
X79073160Y-79923152D01*
X78865775Y-79881901D01*
X78761599Y-79880537D01*
X78658886Y-79879192D01*
X78658881Y-79879192D01*
X78654346Y-79879133D01*
X78649873Y-79879902D01*
X78649868Y-79879902D01*
X78546601Y-79897647D01*
X78445953Y-79914941D01*
X78247575Y-79988127D01*
X78243676Y-79990446D01*
X78243671Y-79990449D01*
X78069762Y-80093914D01*
X78065856Y-80096238D01*
X78062441Y-80099233D01*
X78062438Y-80099235D01*
X77959262Y-80189718D01*
X77906881Y-80235655D01*
X77904073Y-80239217D01*
X77886239Y-80261840D01*
X77775976Y-80401708D01*
X77773862Y-80405726D01*
X77709805Y-80527479D01*
X77677523Y-80588836D01*
X77676179Y-80593165D01*
X77644160Y-80696284D01*
X77614820Y-80790773D01*
X77589967Y-81000754D01*
X77357650Y-81000754D01*
X77357426Y-80998311D01*
X77345938Y-80873298D01*
X77341081Y-80820440D01*
X77305378Y-80693846D01*
X77284920Y-80621306D01*
X77284920Y-80621305D01*
X77283686Y-80616931D01*
X77190165Y-80427290D01*
X77063651Y-80257867D01*
X76908381Y-80114337D01*
X76856985Y-80081908D01*
X76733391Y-80003926D01*
X76729554Y-80001505D01*
X76533160Y-79923152D01*
X76325775Y-79881901D01*
X76221599Y-79880537D01*
X76118886Y-79879192D01*
X76118881Y-79879192D01*
X76114346Y-79879133D01*
X76109873Y-79879902D01*
X76109868Y-79879902D01*
X76006601Y-79897647D01*
X75905953Y-79914941D01*
X75707575Y-79988127D01*
X75703676Y-79990446D01*
X75703671Y-79990449D01*
X75529762Y-80093914D01*
X75525856Y-80096238D01*
X75522441Y-80099233D01*
X75522438Y-80099235D01*
X75419262Y-80189718D01*
X75366881Y-80235655D01*
X75364073Y-80239217D01*
X75346239Y-80261840D01*
X75235976Y-80401708D01*
X75233862Y-80405726D01*
X75169805Y-80527479D01*
X75137523Y-80588836D01*
X75136179Y-80593165D01*
X75104160Y-80696284D01*
X75074820Y-80790773D01*
X75049967Y-81000754D01*
X74817650Y-81000754D01*
X74817426Y-80998311D01*
X74805938Y-80873298D01*
X74801081Y-80820440D01*
X74765378Y-80693846D01*
X74744920Y-80621306D01*
X74744920Y-80621305D01*
X74743686Y-80616931D01*
X74650165Y-80427290D01*
X74523651Y-80257867D01*
X74368381Y-80114337D01*
X74316985Y-80081908D01*
X74193391Y-80003926D01*
X74189554Y-80001505D01*
X73993160Y-79923152D01*
X73785775Y-79881901D01*
X73681599Y-79880537D01*
X73578886Y-79879192D01*
X73578881Y-79879192D01*
X73574346Y-79879133D01*
X73569873Y-79879902D01*
X73569868Y-79879902D01*
X73466601Y-79897647D01*
X73365953Y-79914941D01*
X73167575Y-79988127D01*
X73163676Y-79990446D01*
X73163671Y-79990449D01*
X72989762Y-80093914D01*
X72985856Y-80096238D01*
X72982441Y-80099233D01*
X72982438Y-80099235D01*
X72879262Y-80189718D01*
X72826881Y-80235655D01*
X72824073Y-80239217D01*
X72806239Y-80261840D01*
X72695976Y-80401708D01*
X72693862Y-80405726D01*
X72629805Y-80527479D01*
X72597523Y-80588836D01*
X72596179Y-80593165D01*
X72564160Y-80696284D01*
X72534820Y-80790773D01*
X72509967Y-81000754D01*
X72277650Y-81000754D01*
X72277426Y-80998311D01*
X72265938Y-80873298D01*
X72261081Y-80820440D01*
X72225378Y-80693846D01*
X72204920Y-80621306D01*
X72204920Y-80621305D01*
X72203686Y-80616931D01*
X72110165Y-80427290D01*
X71983651Y-80257867D01*
X71828381Y-80114337D01*
X71776985Y-80081908D01*
X71653391Y-80003926D01*
X71649554Y-80001505D01*
X71453160Y-79923152D01*
X71245775Y-79881901D01*
X71141599Y-79880537D01*
X71038886Y-79879192D01*
X71038881Y-79879192D01*
X71034346Y-79879133D01*
X71029873Y-79879902D01*
X71029868Y-79879902D01*
X70926601Y-79897647D01*
X70825953Y-79914941D01*
X70627575Y-79988127D01*
X70623676Y-79990446D01*
X70623671Y-79990449D01*
X70449762Y-80093914D01*
X70445856Y-80096238D01*
X70442441Y-80099233D01*
X70442438Y-80099235D01*
X70339262Y-80189718D01*
X70286881Y-80235655D01*
X70284073Y-80239217D01*
X70266239Y-80261840D01*
X70155976Y-80401708D01*
X70153862Y-80405726D01*
X70089805Y-80527479D01*
X70057523Y-80588836D01*
X70056179Y-80593165D01*
X70024160Y-80696284D01*
X69994820Y-80790773D01*
X69969967Y-81000754D01*
X69737650Y-81000754D01*
X69737426Y-80998311D01*
X69725938Y-80873298D01*
X69721081Y-80820440D01*
X69685378Y-80693846D01*
X69664920Y-80621306D01*
X69664920Y-80621305D01*
X69663686Y-80616931D01*
X69570165Y-80427290D01*
X69443651Y-80257867D01*
X69288381Y-80114337D01*
X69236985Y-80081908D01*
X69113391Y-80003926D01*
X69109554Y-80001505D01*
X68913160Y-79923152D01*
X68705775Y-79881901D01*
X68601599Y-79880537D01*
X68498886Y-79879192D01*
X68498881Y-79879192D01*
X68494346Y-79879133D01*
X68489873Y-79879902D01*
X68489868Y-79879902D01*
X68386601Y-79897647D01*
X68285953Y-79914941D01*
X68087575Y-79988127D01*
X68083676Y-79990446D01*
X68083671Y-79990449D01*
X67909762Y-80093914D01*
X67905856Y-80096238D01*
X67902441Y-80099233D01*
X67902438Y-80099235D01*
X67799262Y-80189718D01*
X67746881Y-80235655D01*
X67744073Y-80239217D01*
X67726239Y-80261840D01*
X67615976Y-80401708D01*
X67613862Y-80405726D01*
X67549805Y-80527479D01*
X67517523Y-80588836D01*
X67516179Y-80593165D01*
X67484160Y-80696284D01*
X67454820Y-80790773D01*
X67429967Y-81000754D01*
X67197650Y-81000754D01*
X67197426Y-80998311D01*
X67185938Y-80873298D01*
X67181081Y-80820440D01*
X67145378Y-80693846D01*
X67124920Y-80621306D01*
X67124920Y-80621305D01*
X67123686Y-80616931D01*
X67030165Y-80427290D01*
X66903651Y-80257867D01*
X66748381Y-80114337D01*
X66696985Y-80081908D01*
X66573391Y-80003926D01*
X66569554Y-80001505D01*
X66373160Y-79923152D01*
X66165775Y-79881901D01*
X66061599Y-79880537D01*
X65958886Y-79879192D01*
X65958881Y-79879192D01*
X65954346Y-79879133D01*
X65949873Y-79879902D01*
X65949868Y-79879902D01*
X65846601Y-79897647D01*
X65745953Y-79914941D01*
X65547575Y-79988127D01*
X65543676Y-79990446D01*
X65543671Y-79990449D01*
X65369762Y-80093914D01*
X65365856Y-80096238D01*
X65362441Y-80099233D01*
X65362438Y-80099235D01*
X65259262Y-80189718D01*
X65206881Y-80235655D01*
X65204073Y-80239217D01*
X65186239Y-80261840D01*
X65075976Y-80401708D01*
X65073862Y-80405726D01*
X65009805Y-80527479D01*
X64977523Y-80588836D01*
X64976179Y-80593165D01*
X64944160Y-80696284D01*
X64914820Y-80790773D01*
X64889967Y-81000754D01*
X64657650Y-81000754D01*
X64657426Y-80998311D01*
X64645938Y-80873298D01*
X64641081Y-80820440D01*
X64605378Y-80693846D01*
X64584920Y-80621306D01*
X64584920Y-80621305D01*
X64583686Y-80616931D01*
X64490165Y-80427290D01*
X64363651Y-80257867D01*
X64208381Y-80114337D01*
X64156985Y-80081908D01*
X64033391Y-80003926D01*
X64029554Y-80001505D01*
X63833160Y-79923152D01*
X63625775Y-79881901D01*
X63521599Y-79880537D01*
X63418886Y-79879192D01*
X63418881Y-79879192D01*
X63414346Y-79879133D01*
X63409873Y-79879902D01*
X63409868Y-79879902D01*
X63306601Y-79897647D01*
X63205953Y-79914941D01*
X63007575Y-79988127D01*
X63003676Y-79990446D01*
X63003671Y-79990449D01*
X62829762Y-80093914D01*
X62825856Y-80096238D01*
X62822441Y-80099233D01*
X62822438Y-80099235D01*
X62719262Y-80189718D01*
X62666881Y-80235655D01*
X62664073Y-80239217D01*
X62646239Y-80261840D01*
X62535976Y-80401708D01*
X62533862Y-80405726D01*
X62469805Y-80527479D01*
X62437523Y-80588836D01*
X62436179Y-80593165D01*
X62404160Y-80696284D01*
X62374820Y-80790773D01*
X62349967Y-81000754D01*
X62117650Y-81000754D01*
X62117426Y-80998311D01*
X62105938Y-80873298D01*
X62101081Y-80820440D01*
X62065378Y-80693846D01*
X62044920Y-80621306D01*
X62044920Y-80621305D01*
X62043686Y-80616931D01*
X61950165Y-80427290D01*
X61823651Y-80257867D01*
X61668381Y-80114337D01*
X61616985Y-80081908D01*
X61493391Y-80003926D01*
X61489554Y-80001505D01*
X61293160Y-79923152D01*
X61085775Y-79881901D01*
X60981599Y-79880537D01*
X60878886Y-79879192D01*
X60878881Y-79879192D01*
X60874346Y-79879133D01*
X60869873Y-79879902D01*
X60869868Y-79879902D01*
X60766601Y-79897647D01*
X60665953Y-79914941D01*
X60467575Y-79988127D01*
X60463676Y-79990446D01*
X60463671Y-79990449D01*
X60289762Y-80093914D01*
X60285856Y-80096238D01*
X60282441Y-80099233D01*
X60282438Y-80099235D01*
X60179262Y-80189718D01*
X60126881Y-80235655D01*
X60124073Y-80239217D01*
X60106239Y-80261840D01*
X59995976Y-80401708D01*
X59993862Y-80405726D01*
X59929805Y-80527479D01*
X59897523Y-80588836D01*
X59896179Y-80593165D01*
X59864160Y-80696284D01*
X59834820Y-80790773D01*
X59809967Y-81000754D01*
X52226776Y-81000754D01*
X52224689Y-80998311D01*
X52027140Y-80829588D01*
X51805628Y-80693846D01*
X51565610Y-80594427D01*
X51561836Y-80593521D01*
X51561833Y-80593520D01*
X51427067Y-80561166D01*
X51312994Y-80533779D01*
X51309129Y-80533475D01*
X51309124Y-80533474D01*
X51244029Y-80528351D01*
X54853888Y-80528351D01*
X54858924Y-80531000D01*
X55369320Y-80531000D01*
X55382005Y-80526878D01*
X55385000Y-80522757D01*
X55385000Y-80515320D01*
X56385000Y-80515320D01*
X56389122Y-80528005D01*
X56393243Y-80531000D01*
X56905072Y-80531000D01*
X56913224Y-80528351D01*
X57393888Y-80528351D01*
X57398924Y-80531000D01*
X57909320Y-80531000D01*
X57922005Y-80526878D01*
X57925000Y-80522757D01*
X57925000Y-80515320D01*
X58925000Y-80515320D01*
X58929122Y-80528005D01*
X58933243Y-80531000D01*
X59445072Y-80531000D01*
X59455907Y-80527479D01*
X59455907Y-80521175D01*
X59411745Y-80431624D01*
X59407020Y-80423914D01*
X59285994Y-80261840D01*
X59279945Y-80255122D01*
X59131405Y-80117814D01*
X59124240Y-80112315D01*
X58953163Y-80004374D01*
X58945111Y-80000271D01*
X58939564Y-79998058D01*
X58928196Y-79997313D01*
X58925000Y-80005323D01*
X58925000Y-80515320D01*
X57925000Y-80515320D01*
X57925000Y-80005920D01*
X57921479Y-79995085D01*
X57916856Y-79995085D01*
X57750047Y-80094326D01*
X57742745Y-80099631D01*
X57590657Y-80233010D01*
X57584434Y-80239568D01*
X57459209Y-80398415D01*
X57454284Y-80405998D01*
X57395817Y-80517124D01*
X57393888Y-80528351D01*
X56913224Y-80528351D01*
X56915907Y-80527479D01*
X56915907Y-80521175D01*
X56871745Y-80431624D01*
X56867020Y-80423914D01*
X56745994Y-80261840D01*
X56739945Y-80255122D01*
X56591405Y-80117814D01*
X56584240Y-80112315D01*
X56413163Y-80004374D01*
X56405111Y-80000271D01*
X56399564Y-79998058D01*
X56388196Y-79997313D01*
X56385000Y-80005323D01*
X56385000Y-80515320D01*
X55385000Y-80515320D01*
X55385000Y-80005920D01*
X55381479Y-79995085D01*
X55376856Y-79995085D01*
X55210047Y-80094326D01*
X55202745Y-80099631D01*
X55050657Y-80233010D01*
X55044434Y-80239568D01*
X54919209Y-80398415D01*
X54914284Y-80405998D01*
X54855817Y-80517124D01*
X54853888Y-80528351D01*
X51244029Y-80528351D01*
X51172785Y-80522744D01*
X51118853Y-80518500D01*
X50989147Y-80518500D01*
X50935215Y-80522744D01*
X50798876Y-80533474D01*
X50798871Y-80533475D01*
X50795006Y-80533779D01*
X50680933Y-80561166D01*
X50546167Y-80593520D01*
X50546164Y-80593521D01*
X50542390Y-80594427D01*
X50302372Y-80693846D01*
X50080860Y-80829588D01*
X49883311Y-80998311D01*
X49714588Y-81195860D01*
X49578846Y-81417372D01*
X49479427Y-81657390D01*
X49478521Y-81661164D01*
X49478520Y-81661167D01*
X49448897Y-81784555D01*
X49418779Y-81910006D01*
X49418475Y-81913871D01*
X49418474Y-81913876D01*
X49405060Y-82084319D01*
X49398396Y-82169000D01*
X47925500Y-82169000D01*
X47925500Y-81943689D01*
X47926516Y-81929543D01*
X47929988Y-81905494D01*
X47928195Y-81896901D01*
X47926138Y-81874204D01*
X47926720Y-81850917D01*
X47932998Y-81599444D01*
X47933897Y-81588377D01*
X47975028Y-81290466D01*
X47977162Y-81279567D01*
X48051399Y-80988145D01*
X48054740Y-80977554D01*
X48125401Y-80790773D01*
X48161149Y-80696280D01*
X48165653Y-80686133D01*
X48198903Y-80621306D01*
X48302900Y-80418541D01*
X48308512Y-80408963D01*
X48310662Y-80405726D01*
X48474864Y-80158428D01*
X48481516Y-80149536D01*
X48674875Y-79919217D01*
X48682480Y-79911126D01*
X48900432Y-79703901D01*
X48908897Y-79696713D01*
X49013350Y-79617646D01*
X49148678Y-79515208D01*
X49157879Y-79509022D01*
X49416498Y-79355506D01*
X49426340Y-79350388D01*
X49700503Y-79226813D01*
X49710868Y-79222824D01*
X49829497Y-79184663D01*
X49997168Y-79130726D01*
X50007903Y-79127928D01*
X50155301Y-79098203D01*
X50302692Y-79068481D01*
X50313684Y-79066899D01*
X50587511Y-79043083D01*
X50610282Y-79043734D01*
X50610394Y-79043750D01*
X50610395Y-79043750D01*
X50618972Y-79044993D01*
X50628151Y-79043083D01*
X50630587Y-79042576D01*
X50650756Y-79040500D01*
X109477286Y-79040500D01*
X109493390Y-79041819D01*
G37*
%TD.AperFunction*%
%TD*%
M02*
