%TF.GenerationSoftware,KiCad,Pcbnew,(6.0.5-0)*%
%TF.CreationDate,2024-08-31T12:48:39+10:00*%
%TF.ProjectId,AAPiHat,41415069-4861-4742-9e6b-696361645f70,rev?*%
%TF.SameCoordinates,Original*%
%TF.FileFunction,Copper,L4,Bot*%
%TF.FilePolarity,Positive*%
%FSLAX46Y46*%
G04 Gerber Fmt 4.6, Leading zero omitted, Abs format (unit mm)*
G04 Created by KiCad (PCBNEW (6.0.5-0)) date 2024-08-31 12:48:39*
%MOMM*%
%LPD*%
G01*
G04 APERTURE LIST*
G04 Aperture macros list*
%AMRoundRect*
0 Rectangle with rounded corners*
0 $1 Rounding radius*
0 $2 $3 $4 $5 $6 $7 $8 $9 X,Y pos of 4 corners*
0 Add a 4 corners polygon primitive as box body*
4,1,4,$2,$3,$4,$5,$6,$7,$8,$9,$2,$3,0*
0 Add four circle primitives for the rounded corners*
1,1,$1+$1,$2,$3*
1,1,$1+$1,$4,$5*
1,1,$1+$1,$6,$7*
1,1,$1+$1,$8,$9*
0 Add four rect primitives between the rounded corners*
20,1,$1+$1,$2,$3,$4,$5,0*
20,1,$1+$1,$4,$5,$6,$7,0*
20,1,$1+$1,$6,$7,$8,$9,0*
20,1,$1+$1,$8,$9,$2,$3,0*%
G04 Aperture macros list end*
%TA.AperFunction,ComponentPad*%
%ADD10R,1.700000X1.700000*%
%TD*%
%TA.AperFunction,ComponentPad*%
%ADD11O,1.700000X1.700000*%
%TD*%
%TA.AperFunction,ComponentPad*%
%ADD12RoundRect,0.400000X-0.400000X-0.400000X0.400000X-0.400000X0.400000X0.400000X-0.400000X0.400000X0*%
%TD*%
%TA.AperFunction,ComponentPad*%
%ADD13C,1.600000*%
%TD*%
%TA.AperFunction,ComponentPad*%
%ADD14C,2.200000*%
%TD*%
%TA.AperFunction,SMDPad,CuDef*%
%ADD15RoundRect,0.250000X-0.412500X-1.100000X0.412500X-1.100000X0.412500X1.100000X-0.412500X1.100000X0*%
%TD*%
%TA.AperFunction,SMDPad,CuDef*%
%ADD16RoundRect,0.250000X-1.075000X0.400000X-1.075000X-0.400000X1.075000X-0.400000X1.075000X0.400000X0*%
%TD*%
%TA.AperFunction,SMDPad,CuDef*%
%ADD17R,0.640000X2.000000*%
%TD*%
%TA.AperFunction,SMDPad,CuDef*%
%ADD18RoundRect,0.250000X0.412500X1.100000X-0.412500X1.100000X-0.412500X-1.100000X0.412500X-1.100000X0*%
%TD*%
%TA.AperFunction,SMDPad,CuDef*%
%ADD19RoundRect,0.250000X0.400000X1.075000X-0.400000X1.075000X-0.400000X-1.075000X0.400000X-1.075000X0*%
%TD*%
%TA.AperFunction,SMDPad,CuDef*%
%ADD20RoundRect,0.150000X-0.725000X-0.150000X0.725000X-0.150000X0.725000X0.150000X-0.725000X0.150000X0*%
%TD*%
%TA.AperFunction,SMDPad,CuDef*%
%ADD21RoundRect,0.250000X-0.400000X-1.075000X0.400000X-1.075000X0.400000X1.075000X-0.400000X1.075000X0*%
%TD*%
%TA.AperFunction,SMDPad,CuDef*%
%ADD22RoundRect,0.250000X-1.100000X0.412500X-1.100000X-0.412500X1.100000X-0.412500X1.100000X0.412500X0*%
%TD*%
%TA.AperFunction,ViaPad*%
%ADD23C,0.800000*%
%TD*%
%TA.AperFunction,Conductor*%
%ADD24C,0.600000*%
%TD*%
%TA.AperFunction,Conductor*%
%ADD25C,0.200000*%
%TD*%
G04 APERTURE END LIST*
D10*
%TO.P,JP1,1,A*%
%TO.N,Net-(J2-Pad5)*%
X85979000Y-101346000D03*
D11*
%TO.P,JP1,2,C*%
%TO.N,14_2VIN*%
X85979000Y-103886000D03*
%TO.P,JP1,3,B*%
%TO.N,GND*%
X85979000Y-106426000D03*
%TD*%
D10*
%TO.P,JP2,1,A*%
%TO.N,Net-(C6-Pad1)*%
X76840000Y-88773000D03*
D11*
%TO.P,JP2,2,B*%
%TO.N,+5V*%
X74300000Y-88773000D03*
%TD*%
D12*
%TO.P,J2,1*%
%TO.N,/CB_RS485_B*%
X92583000Y-91187500D03*
D13*
%TO.P,J2,2*%
%TO.N,/CB_RS485_A*%
X93853000Y-88647500D03*
%TO.P,J2,3*%
%TO.N,unconnected-(J2-Pad3)*%
X95123000Y-91187500D03*
%TO.P,J2,4*%
%TO.N,unconnected-(J2-Pad4)*%
X96393000Y-88647500D03*
%TO.P,J2,5*%
%TO.N,Net-(J2-Pad5)*%
X97663000Y-91187500D03*
%TO.P,J2,6*%
%TO.N,GND*%
X98933000Y-88647500D03*
%TO.P,J2,7*%
%TO.N,unconnected-(J2-Pad7)*%
X100203000Y-91187500D03*
%TO.P,J2,8*%
%TO.N,unconnected-(J2-Pad8)*%
X101473000Y-88647500D03*
D14*
%TO.P,J2,SH*%
%TO.N,unconnected-(J2-PadSH)*%
X89128000Y-94487500D03*
X104928000Y-94487500D03*
%TD*%
D11*
%TO.P,J1,40,GPIO21/SCLK1*%
%TO.N,unconnected-(J1-Pad40)*%
X104145000Y-81031000D03*
%TO.P,J1,39,GND*%
%TO.N,GND*%
X104145000Y-83571000D03*
%TO.P,J1,38,GPIO20/MOSI1*%
%TO.N,unconnected-(J1-Pad38)*%
X101605000Y-81031000D03*
%TO.P,J1,37,GPIO26*%
%TO.N,unconnected-(J1-Pad37)*%
X101605000Y-83571000D03*
%TO.P,J1,36,GPIO16*%
%TO.N,unconnected-(J1-Pad36)*%
X99065000Y-81031000D03*
%TO.P,J1,35,GPIO19/MISO1*%
%TO.N,unconnected-(J1-Pad35)*%
X99065000Y-83571000D03*
%TO.P,J1,34,GND*%
%TO.N,GND*%
X96525000Y-81031000D03*
%TO.P,J1,33,PWM1/GPIO13*%
%TO.N,unconnected-(J1-Pad33)*%
X96525000Y-83571000D03*
%TO.P,J1,32,PWM0/GPIO12*%
%TO.N,unconnected-(J1-Pad32)*%
X93985000Y-81031000D03*
%TO.P,J1,31,GCLK2/GPIO6*%
%TO.N,unconnected-(J1-Pad31)*%
X93985000Y-83571000D03*
%TO.P,J1,30,GND*%
%TO.N,GND*%
X91445000Y-81031000D03*
%TO.P,J1,29,GCLK1/GPIO5*%
%TO.N,unconnected-(J1-Pad29)*%
X91445000Y-83571000D03*
%TO.P,J1,28,ID_SC/GPIO1*%
%TO.N,unconnected-(J1-Pad28)*%
X88905000Y-81031000D03*
%TO.P,J1,27,ID_SD/GPIO0*%
%TO.N,unconnected-(J1-Pad27)*%
X88905000Y-83571000D03*
%TO.P,J1,26,~{CE1}/GPIO7*%
%TO.N,unconnected-(J1-Pad26)*%
X86365000Y-81031000D03*
%TO.P,J1,25,GND*%
%TO.N,GND*%
X86365000Y-83571000D03*
%TO.P,J1,24,~{CE0}/GPIO8*%
%TO.N,unconnected-(J1-Pad24)*%
X83825000Y-81031000D03*
%TO.P,J1,23,SCLK0/GPIO11*%
%TO.N,unconnected-(J1-Pad23)*%
X83825000Y-83571000D03*
%TO.P,J1,22,GPIO25*%
%TO.N,unconnected-(J1-Pad22)*%
X81285000Y-81031000D03*
%TO.P,J1,21,MISO0/GPIO9*%
%TO.N,unconnected-(J1-Pad21)*%
X81285000Y-83571000D03*
%TO.P,J1,20,GND*%
%TO.N,GND*%
X78745000Y-81031000D03*
%TO.P,J1,19,MOSI0/GPIO10*%
%TO.N,unconnected-(J1-Pad19)*%
X78745000Y-83571000D03*
%TO.P,J1,18,GPIO24*%
%TO.N,unconnected-(J1-Pad18)*%
X76205000Y-81031000D03*
%TO.P,J1,17,3V3*%
%TO.N,unconnected-(J1-Pad17)*%
X76205000Y-83571000D03*
%TO.P,J1,16,GPIO23*%
%TO.N,unconnected-(J1-Pad16)*%
X73665000Y-81031000D03*
%TO.P,J1,15,GPIO22*%
%TO.N,unconnected-(J1-Pad15)*%
X73665000Y-83571000D03*
%TO.P,J1,14,GND*%
%TO.N,GND*%
X71125000Y-81031000D03*
%TO.P,J1,13,GPIO27*%
%TO.N,unconnected-(J1-Pad13)*%
X71125000Y-83571000D03*
%TO.P,J1,12,GPIO18/PWM0*%
%TO.N,unconnected-(J1-Pad12)*%
X68585000Y-81031000D03*
%TO.P,J1,11,GPIO17*%
%TO.N,unconnected-(J1-Pad11)*%
X68585000Y-83571000D03*
%TO.P,J1,10,GPIO15/RXD*%
%TO.N,RXD*%
X66045000Y-81031000D03*
%TO.P,J1,9,GND*%
%TO.N,GND*%
X66045000Y-83571000D03*
%TO.P,J1,8,GPIO14/TXD*%
%TO.N,TXD*%
X63505000Y-81031000D03*
%TO.P,J1,7,GCLK0/GPIO4*%
%TO.N,unconnected-(J1-Pad7)*%
X63505000Y-83571000D03*
%TO.P,J1,6,GND*%
%TO.N,GND*%
X60965000Y-81031000D03*
%TO.P,J1,5,SCL/GPIO3*%
%TO.N,unconnected-(J1-Pad5)*%
X60965000Y-83571000D03*
%TO.P,J1,4,5V*%
%TO.N,+5V*%
X58425000Y-81031000D03*
%TO.P,J1,3,SDA/GPIO2*%
%TO.N,unconnected-(J1-Pad3)*%
X58425000Y-83571000D03*
%TO.P,J1,2,5V*%
%TO.N,+5V*%
X55885000Y-81031000D03*
D10*
%TO.P,J1,1,3V3*%
%TO.N,+3V3*%
X55885000Y-83571000D03*
%TD*%
D15*
%TO.P,C2,1*%
%TO.N,+5V*%
X56095500Y-105283000D03*
%TO.P,C2,2*%
%TO.N,GND*%
X59220500Y-105283000D03*
%TD*%
D16*
%TO.P,R2,1*%
%TO.N,+5V*%
X68326000Y-89890000D03*
%TO.P,R2,2*%
%TO.N,Net-(R2-Pad2)*%
X68326000Y-92990000D03*
%TD*%
D17*
%TO.P,U1,1,Anode*%
%TO.N,Net-(R2-Pad2)*%
X64008000Y-104369000D03*
%TO.P,U1,3,Cathode*%
%TO.N,Net-(U1-Pad3)*%
X61468000Y-104369000D03*
%TO.P,U1,4,GND*%
%TO.N,GND*%
X61468000Y-98069000D03*
%TO.P,U1,5,Vo*%
%TO.N,RXD*%
X62738000Y-98069000D03*
%TO.P,U1,6,VDD*%
%TO.N,+3V3*%
X64008000Y-98069000D03*
%TD*%
D16*
%TO.P,R1,1*%
%TO.N,+3V3*%
X52578000Y-90779000D03*
%TO.P,R1,2*%
%TO.N,Net-(R1-Pad2)*%
X52578000Y-93879000D03*
%TD*%
D18*
%TO.P,C1,1*%
%TO.N,+3V3*%
X64046500Y-94234000D03*
%TO.P,C1,2*%
%TO.N,GND*%
X60921500Y-94234000D03*
%TD*%
D17*
%TO.P,U2,1,Anode*%
%TO.N,Net-(R1-Pad2)*%
X56515000Y-94132000D03*
%TO.P,U2,3,Cathode*%
%TO.N,TXD*%
X59055000Y-94132000D03*
%TO.P,U2,4,GND*%
%TO.N,GND*%
X59055000Y-100432000D03*
%TO.P,U2,5,Vo*%
%TO.N,Net-(U2-Pad5)*%
X57785000Y-100432000D03*
%TO.P,U2,6,VDD*%
%TO.N,+5V*%
X56515000Y-100432000D03*
%TD*%
D19*
%TO.P,R3,1*%
%TO.N,/CB_RS485_A*%
X86005000Y-88138000D03*
%TO.P,R3,2*%
%TO.N,+5V*%
X82905000Y-88138000D03*
%TD*%
D20*
%TO.P,U3,1,RO*%
%TO.N,Net-(U1-Pad3)*%
X73752000Y-98298000D03*
%TO.P,U3,2,REn*%
%TO.N,+5V*%
X73752000Y-97028000D03*
%TO.P,U3,3,SHDNn*%
X73752000Y-95758000D03*
%TO.P,U3,4,DI*%
%TO.N,Net-(U2-Pad5)*%
X73752000Y-94488000D03*
%TO.P,U3,5,GND*%
%TO.N,GND*%
X78902000Y-94488000D03*
%TO.P,U3,6,A*%
%TO.N,/CB_RS485_A*%
X78902000Y-95758000D03*
%TO.P,U3,7,B*%
%TO.N,/CB_RS485_B*%
X78902000Y-97028000D03*
%TO.P,U3,8,VCC*%
%TO.N,+5V*%
X78902000Y-98298000D03*
%TD*%
D21*
%TO.P,R4,1*%
%TO.N,GND*%
X82905000Y-92075000D03*
%TO.P,R4,2*%
%TO.N,/CB_RS485_B*%
X86005000Y-92075000D03*
%TD*%
D22*
%TO.P,C3,1*%
%TO.N,+5V*%
X81153000Y-102704500D03*
%TO.P,C3,2*%
%TO.N,GND*%
X81153000Y-105829500D03*
%TD*%
D23*
%TO.N,+5V*%
X55372000Y-100711000D03*
%TO.N,GND*%
X80899000Y-92710000D03*
X80899000Y-91694000D03*
X79883000Y-91186000D03*
X68707000Y-97028000D03*
X67691000Y-98552000D03*
X49276000Y-86995000D03*
X52705000Y-102235000D03*
X52324000Y-86995000D03*
X66802000Y-87757000D03*
X68707000Y-98552000D03*
X51816000Y-87757000D03*
X67310000Y-86995000D03*
X49784000Y-87757000D03*
X50800000Y-87757000D03*
X51308000Y-86995000D03*
X67691000Y-97028000D03*
X68199000Y-97790000D03*
X68326000Y-86995000D03*
X68199000Y-96266000D03*
X79883000Y-92202000D03*
X50927000Y-101600000D03*
X49784000Y-89281000D03*
X67818000Y-87757000D03*
X51943000Y-101600000D03*
X50292000Y-88519000D03*
X68834000Y-87757000D03*
X67183000Y-96266000D03*
X49276000Y-88519000D03*
X50292000Y-86995000D03*
X67183000Y-97790000D03*
%TO.N,14_2VIN*%
X58293000Y-89789000D03*
X59309000Y-89789000D03*
X62357000Y-89789000D03*
X61341000Y-88265000D03*
X59309000Y-88265000D03*
X60325000Y-89789000D03*
X62357000Y-88265000D03*
X58801000Y-89027000D03*
X58801000Y-90551000D03*
X58293000Y-88265000D03*
X60833000Y-89027000D03*
X61341000Y-89789000D03*
X59817000Y-89027000D03*
X61849000Y-89027000D03*
X59817000Y-90551000D03*
X60325000Y-88265000D03*
%TO.N,+3V3*%
X64897000Y-85979000D03*
X57912000Y-85979000D03*
%TD*%
D24*
%TO.N,+5V*%
X56515000Y-102362000D02*
X56095500Y-102781500D01*
X74295000Y-91440000D02*
X74300000Y-91435000D01*
X68352000Y-89916000D02*
X68326000Y-89890000D01*
X80391000Y-98298000D02*
X78902000Y-98298000D01*
X71120000Y-89916000D02*
X68352000Y-89916000D01*
X74300000Y-88773000D02*
X72263000Y-88773000D01*
X75819000Y-95758000D02*
X75819000Y-92964000D01*
X74300000Y-91435000D02*
X74300000Y-88773000D01*
X76200000Y-97028000D02*
X73752000Y-97028000D01*
X74300000Y-87371000D02*
X74300000Y-88773000D01*
X78902000Y-98298000D02*
X77470000Y-98298000D01*
X56095500Y-102781500D02*
X56095500Y-105283000D01*
X72263000Y-88773000D02*
X71120000Y-89916000D01*
X82905000Y-88138000D02*
X80518000Y-88138000D01*
X56236000Y-100711000D02*
X56515000Y-100432000D01*
X75819000Y-92964000D02*
X74295000Y-91440000D01*
X76200000Y-96139000D02*
X75819000Y-95758000D01*
X75819000Y-95758000D02*
X73752000Y-95758000D01*
X78994000Y-86614000D02*
X75057000Y-86614000D01*
X77470000Y-98298000D02*
X76200000Y-97028000D01*
X81153000Y-102704500D02*
X81153000Y-99060000D01*
X81153000Y-99060000D02*
X80391000Y-98298000D01*
X76200000Y-97028000D02*
X76200000Y-96139000D01*
X55372000Y-100711000D02*
X56236000Y-100711000D01*
X56515000Y-100432000D02*
X56515000Y-102362000D01*
X75057000Y-86614000D02*
X74300000Y-87371000D01*
X80518000Y-88138000D02*
X78994000Y-86614000D01*
%TO.N,GND*%
X54483000Y-102108000D02*
X54165500Y-101790500D01*
X58293000Y-107442000D02*
X55118000Y-107442000D01*
X59220500Y-103035500D02*
X59220500Y-105283000D01*
X59220500Y-106514500D02*
X58293000Y-107442000D01*
X53848000Y-99822000D02*
X54610000Y-99060000D01*
X54472489Y-102118511D02*
X54483000Y-102108000D01*
X82969500Y-105829500D02*
X83566000Y-106426000D01*
X76708000Y-107823000D02*
X78701500Y-105829500D01*
X62357000Y-107823000D02*
X76708000Y-107823000D01*
X54610000Y-97155000D02*
X55410500Y-96354500D01*
X53721000Y-102235000D02*
X54165500Y-101790500D01*
X83566000Y-106426000D02*
X85979000Y-106426000D01*
X55118000Y-107442000D02*
X54472489Y-106796489D01*
X59220500Y-105283000D02*
X59220500Y-106514500D01*
X61468000Y-98069000D02*
X61468000Y-96901000D01*
X55410500Y-96354500D02*
X60921500Y-96354500D01*
X58293000Y-107442000D02*
X61976000Y-107442000D01*
X54165500Y-101790500D02*
X53848000Y-101473000D01*
X81153000Y-105829500D02*
X82969500Y-105829500D01*
X59055000Y-102870000D02*
X59220500Y-103035500D01*
X52070000Y-101600000D02*
X52705000Y-102235000D01*
X50927000Y-101600000D02*
X51943000Y-101600000D01*
X61976000Y-107442000D02*
X62357000Y-107823000D01*
X60921500Y-96354500D02*
X60921500Y-94234000D01*
X59055000Y-100432000D02*
X59055000Y-102870000D01*
X78902000Y-94488000D02*
X82169000Y-94488000D01*
X54610000Y-99060000D02*
X54610000Y-97155000D01*
X54472489Y-106796489D02*
X54472489Y-102118511D01*
X78701500Y-105829500D02*
X81153000Y-105829500D01*
X53848000Y-101473000D02*
X53848000Y-99822000D01*
X82905000Y-93752000D02*
X82905000Y-92075000D01*
X52705000Y-102235000D02*
X53721000Y-102235000D01*
X82169000Y-94488000D02*
X82905000Y-93752000D01*
X51943000Y-101600000D02*
X52070000Y-101600000D01*
X61468000Y-96901000D02*
X60921500Y-96354500D01*
%TO.N,+3V3*%
X64008000Y-98069000D02*
X64008000Y-94272500D01*
X55885000Y-86355000D02*
X55885000Y-87244000D01*
X54356000Y-88773000D02*
X53340000Y-88773000D01*
X55181500Y-87947500D02*
X54356000Y-88773000D01*
X52578000Y-89535000D02*
X52578000Y-90779000D01*
X53340000Y-88773000D02*
X52578000Y-89535000D01*
X64046500Y-93306500D02*
X64046500Y-94234000D01*
X55885000Y-83571000D02*
X55885000Y-86355000D01*
X55885000Y-87244000D02*
X55181500Y-87947500D01*
X64897000Y-92456000D02*
X64046500Y-93306500D01*
X64008000Y-94272500D02*
X64046500Y-94234000D01*
X64897000Y-85979000D02*
X64897000Y-92456000D01*
X55885000Y-86355000D02*
X57536000Y-86355000D01*
X57536000Y-86355000D02*
X57912000Y-85979000D01*
D25*
%TO.N,TXD*%
X63373000Y-86233000D02*
X63373000Y-91440000D01*
X63373000Y-91440000D02*
X62738000Y-92075000D01*
X59055000Y-92583000D02*
X59055000Y-94132000D01*
X62230000Y-82306000D02*
X62230000Y-85090000D01*
X62738000Y-92075000D02*
X59563000Y-92075000D01*
X62230000Y-85090000D02*
X63373000Y-86233000D01*
X59563000Y-92075000D02*
X59055000Y-92583000D01*
X63505000Y-81031000D02*
X62230000Y-82306000D01*
%TO.N,RXD*%
X64770000Y-82306000D02*
X66045000Y-81031000D01*
X64008000Y-85344000D02*
X64770000Y-84582000D01*
X62738000Y-92837000D02*
X63373000Y-92202000D01*
X63754000Y-92202000D02*
X64008000Y-91948000D01*
X62738000Y-98069000D02*
X62738000Y-92837000D01*
X64770000Y-84582000D02*
X64770000Y-82306000D01*
X64008000Y-91948000D02*
X64008000Y-85344000D01*
X63373000Y-92202000D02*
X63754000Y-92202000D01*
D24*
%TO.N,Net-(R1-Pad2)*%
X54889000Y-94132000D02*
X56515000Y-94132000D01*
X52578000Y-93879000D02*
X54636000Y-93879000D01*
X54636000Y-93879000D02*
X54889000Y-94132000D01*
%TO.N,Net-(R2-Pad2)*%
X70485000Y-99187000D02*
X67945000Y-101727000D01*
X67945000Y-103505000D02*
X67081000Y-104369000D01*
X68326000Y-92990000D02*
X68326000Y-94361000D01*
X67081000Y-104369000D02*
X64008000Y-104369000D01*
X68707000Y-94742000D02*
X69342000Y-94742000D01*
X68326000Y-94361000D02*
X68707000Y-94742000D01*
X67945000Y-101727000D02*
X67945000Y-103505000D01*
X69342000Y-94742000D02*
X70485000Y-95885000D01*
X70485000Y-95885000D02*
X70485000Y-99187000D01*
%TO.N,Net-(U1-Pad3)*%
X70231000Y-104140000D02*
X70231000Y-101473000D01*
X62738000Y-106807000D02*
X67564000Y-106807000D01*
X67564000Y-106807000D02*
X70231000Y-104140000D01*
X61468000Y-104369000D02*
X61468000Y-105537000D01*
X61468000Y-105537000D02*
X62738000Y-106807000D01*
X70231000Y-101473000D02*
X71882000Y-99822000D01*
X71882000Y-99822000D02*
X71882000Y-98933000D01*
X72517000Y-98298000D02*
X73752000Y-98298000D01*
X71882000Y-98933000D02*
X72517000Y-98298000D01*
D25*
%TO.N,Net-(U2-Pad5)*%
X66294000Y-92769862D02*
X67023382Y-92040480D01*
X67023382Y-92040480D02*
X71304480Y-92040480D01*
X59944000Y-98806000D02*
X59944000Y-99949000D01*
X60579000Y-100584000D02*
X66294000Y-100584000D01*
X59944000Y-99949000D02*
X60579000Y-100584000D01*
X57785000Y-100432000D02*
X57785000Y-98806000D01*
X57785000Y-98806000D02*
X59944000Y-98806000D01*
X66294000Y-100584000D02*
X66294000Y-92769862D01*
X71304480Y-92040480D02*
X73752000Y-94488000D01*
D24*
%TO.N,/CB_RS485_B*%
X86005000Y-95605000D02*
X84582000Y-97028000D01*
X89281000Y-92075000D02*
X86005000Y-92075000D01*
X92583000Y-91187500D02*
X90168500Y-91187500D01*
X84582000Y-97028000D02*
X78902000Y-97028000D01*
X86005000Y-92075000D02*
X86005000Y-95605000D01*
X90168500Y-91187500D02*
X89281000Y-92075000D01*
%TO.N,/CB_RS485_A*%
X89662000Y-88138000D02*
X86005000Y-88138000D01*
X83947000Y-95758000D02*
X78902000Y-95758000D01*
X86005000Y-88138000D02*
X85598000Y-88138000D01*
X84455000Y-89281000D02*
X84455000Y-95250000D01*
X93853000Y-88647500D02*
X90171500Y-88647500D01*
X90171500Y-88647500D02*
X89662000Y-88138000D01*
X84455000Y-95250000D02*
X83947000Y-95758000D01*
X85598000Y-88138000D02*
X84455000Y-89281000D01*
%TD*%
%TA.AperFunction,Conductor*%
%TO.N,GND*%
G36*
X80415077Y-90566048D02*
G01*
X81407000Y-91186000D01*
X82324000Y-91186000D01*
X82382191Y-91204907D01*
X82418155Y-91254407D01*
X82423000Y-91285000D01*
X82423000Y-92738000D01*
X82404093Y-92796191D01*
X82354593Y-92832155D01*
X82324000Y-92837000D01*
X81661000Y-92837000D01*
X81309700Y-93305400D01*
X81259660Y-93340608D01*
X81230500Y-93345000D01*
X80292393Y-93345000D01*
X80239923Y-93329952D01*
X79294530Y-92739081D01*
X79255205Y-92692206D01*
X79248000Y-92655129D01*
X79248000Y-90650000D01*
X79266907Y-90591809D01*
X79316407Y-90555845D01*
X79347000Y-90551000D01*
X80362607Y-90551000D01*
X80415077Y-90566048D01*
G37*
%TD.AperFunction*%
%TD*%
M02*
