<?xml version="1.0" standalone="no"?>
 <!DOCTYPE svg PUBLIC "-//W3C//DTD SVG 1.1//EN" 
 "http://www.w3.org/Graphics/SVG/1.1/DTD/svg11.dtd"> 
<svg
  xmlns:svg="http://www.w3.org/2000/svg"
  xmlns="http://www.w3.org/2000/svg"
  xmlns:xlink="http://www.w3.org/1999/xlink"
  version="1.1"
  width="29.700220cm" height="21.000720cm" viewBox="0 0 297002200 210007200">
<title>SVG Picture created as AAPiHat-F_Silkscreen.svg date 2024/08/31 12:50:21 </title>
  <desc>Picture generated by PCBNEW </desc>
<g style="fill:#000000; fill-opacity:1.000000;stroke:#000000; stroke-opacity:1.000000;
stroke-linecap:round; stroke-linejoin:round;"
 transform="translate(0 0) scale(1 1)">
</g>
<g style="fill:#000000; fill-opacity:0.0; 
stroke:#000000; stroke-width:0.000000; stroke-opacity:1; 
stroke-linecap:round; stroke-linejoin:round;">
</g>
<g style="fill:#000000; fill-opacity:0.0; 
stroke:#000000; stroke-width:21200.000000; stroke-opacity:1; 
stroke-linecap:round; stroke-linejoin:round;">
</g>
<g style="fill:#000000; fill-opacity:0.0; 
stroke:#000000; stroke-width:150000.000000; stroke-opacity:1; 
stroke-linecap:round; stroke-linejoin:round;">
<rect x="177002200.000000" y="166007200.000000" width="108000000.000000" height="32000000.000000" rx="0.000000" />
</g>
<g style="fill:#000000; fill-opacity:0.0; 
stroke:#000000; stroke-width:21200.000000; stroke-opacity:1; 
stroke-linecap:round; stroke-linejoin:round;">
</g>
<g style="fill:#000000; fill-opacity:0.0; 
stroke:#000000; stroke-width:150000.000000; stroke-opacity:1; 
stroke-linecap:round; stroke-linejoin:round;">
<rect x="10000000.000000" y="10000000.000000" width="277002200.000000" height="190007200.000000" rx="0.000000" />
</g>
<g style="fill:#000000; fill-opacity:0.0; 
stroke:#000000; stroke-width:21200.000000; stroke-opacity:1; 
stroke-linecap:round; stroke-linejoin:round;">
</g>
<g style="fill:#000000; fill-opacity:0.0; 
stroke:#000000; stroke-width:150000.000000; stroke-opacity:1; 
stroke-linecap:round; stroke-linejoin:round;">
<rect x="12000000.000000" y="12000000.000000" width="273002200.000000" height="186007200.000000" rx="0.000000" />
</g>
<g style="fill:#000000; fill-opacity:0.0; 
stroke:#000000; stroke-width:21200.000000; stroke-opacity:1; 
stroke-linecap:round; stroke-linejoin:round;">
</g>
<g style="fill:#000000; fill-opacity:0.0; 
stroke:#000000; stroke-width:150000.000000; stroke-opacity:1; 
stroke-linecap:round; stroke-linejoin:round;">
<path d="M60000000 12000000
L60000000 10000000
" />
</g>
<g style="fill:#000000; fill-opacity:0.0; 
stroke:#000000; stroke-width:21200.000000; stroke-opacity:1; 
stroke-linecap:round; stroke-linejoin:round;">
</g>
<g style="fill:#000000; fill-opacity:0.0; 
stroke:#000000; stroke-width:150000.000000; stroke-opacity:1; 
stroke-linecap:round; stroke-linejoin:round;">
<path d="M110000000 12000000
L110000000 10000000
" />
</g>
<g style="fill:#000000; fill-opacity:0.0; 
stroke:#000000; stroke-width:21200.000000; stroke-opacity:1; 
stroke-linecap:round; stroke-linejoin:round;">
</g>
<g style="fill:#000000; fill-opacity:0.0; 
stroke:#000000; stroke-width:150000.000000; stroke-opacity:1; 
stroke-linecap:round; stroke-linejoin:round;">
<path d="M160000000 12000000
L160000000 10000000
" />
</g>
<g style="fill:#000000; fill-opacity:0.0; 
stroke:#000000; stroke-width:21200.000000; stroke-opacity:1; 
stroke-linecap:round; stroke-linejoin:round;">
</g>
<g style="fill:#000000; fill-opacity:0.0; 
stroke:#000000; stroke-width:150000.000000; stroke-opacity:1; 
stroke-linecap:round; stroke-linejoin:round;">
<path d="M210000000 12000000
L210000000 10000000
" />
</g>
<g style="fill:#000000; fill-opacity:0.0; 
stroke:#000000; stroke-width:21200.000000; stroke-opacity:1; 
stroke-linecap:round; stroke-linejoin:round;">
</g>
<g style="fill:#000000; fill-opacity:0.0; 
stroke:#000000; stroke-width:150000.000000; stroke-opacity:1; 
stroke-linecap:round; stroke-linejoin:round;">
<path d="M260000000 12000000
L260000000 10000000
" />
</g>
<g style="fill:#000000; fill-opacity:0.0; 
stroke:#000000; stroke-width:21200.000000; stroke-opacity:1; 
stroke-linecap:round; stroke-linejoin:round;">
</g>
<g style="fill:#000000; fill-opacity:0.0; 
stroke:#000000; stroke-width:150000.000000; stroke-opacity:1; 
stroke-linecap:round; stroke-linejoin:round;">
<text x="35000000.000000" y="11650000.000000"
textLength="1433095.000000" font-size="1733333.000000" lengthAdjust="spacingAndGlyphs"
text-anchor="start" opacity="0">1</text>
<g class="stroked-text"><desc>1</desc>
<path d="M36065476 11588095
L35322619 11588095
" />
<path d="M35694047 11588095
L35694047 10288095
L35570238 10473809
L35446428 10597619
L35322619 10659523
" />
</g></g>
<g style="fill:#000000; fill-opacity:0.0; 
stroke:#000000; stroke-width:21200.000000; stroke-opacity:1; 
stroke-linecap:round; stroke-linejoin:round;">
</g>
<g style="fill:#000000; fill-opacity:0.0; 
stroke:#000000; stroke-width:150000.000000; stroke-opacity:1; 
stroke-linecap:round; stroke-linejoin:round;">
<text x="85000000.000000" y="11650000.000000"
textLength="1388095.000000" font-size="1733333.000000" lengthAdjust="spacingAndGlyphs"
text-anchor="start" opacity="0">2</text>
<g class="stroked-text"><desc>2</desc>
<path d="M85322619 10411904
L85384523 10350000
L85508333 10288095
L85817857 10288095
L85941666 10350000
L86003571 10411904
L86065476 10535714
L86065476 10659523
L86003571 10845238
L85260714 11588095
L86065476 11588095
" />
</g></g>
<g style="fill:#000000; fill-opacity:0.0; 
stroke:#000000; stroke-width:21200.000000; stroke-opacity:1; 
stroke-linecap:round; stroke-linejoin:round;">
</g>
<g style="fill:#000000; fill-opacity:0.0; 
stroke:#000000; stroke-width:150000.000000; stroke-opacity:1; 
stroke-linecap:round; stroke-linejoin:round;">
<text x="135000000.000000" y="11650000.000000"
textLength="1388095.000000" font-size="1733333.000000" lengthAdjust="spacingAndGlyphs"
text-anchor="start" opacity="0">3</text>
<g class="stroked-text"><desc>3</desc>
<path d="M135260714 10288095
L136065476 10288095
L135632142 10783333
L135817857 10783333
L135941666 10845238
L136003571 10907142
L136065476 11030952
L136065476 11340476
L136003571 11464285
L135941666 11526190
L135817857 11588095
L135446428 11588095
L135322619 11526190
L135260714 11464285
" />
</g></g>
<g style="fill:#000000; fill-opacity:0.0; 
stroke:#000000; stroke-width:21200.000000; stroke-opacity:1; 
stroke-linecap:round; stroke-linejoin:round;">
</g>
<g style="fill:#000000; fill-opacity:0.0; 
stroke:#000000; stroke-width:150000.000000; stroke-opacity:1; 
stroke-linecap:round; stroke-linejoin:round;">
<text x="185000000.000000" y="11650000.000000"
textLength="1388095.000000" font-size="1733333.000000" lengthAdjust="spacingAndGlyphs"
text-anchor="start" opacity="0">4</text>
<g class="stroked-text"><desc>4</desc>
<path d="M185941666 10721428
L185941666 11588095
" />
<path d="M185632142 10226190
L185322619 11154761
L186127380 11154761
" />
</g></g>
<g style="fill:#000000; fill-opacity:0.0; 
stroke:#000000; stroke-width:21200.000000; stroke-opacity:1; 
stroke-linecap:round; stroke-linejoin:round;">
</g>
<g style="fill:#000000; fill-opacity:0.0; 
stroke:#000000; stroke-width:150000.000000; stroke-opacity:1; 
stroke-linecap:round; stroke-linejoin:round;">
<text x="235000000.000000" y="11650000.000000"
textLength="1388095.000000" font-size="1733333.000000" lengthAdjust="spacingAndGlyphs"
text-anchor="start" opacity="0">5</text>
<g class="stroked-text"><desc>5</desc>
<path d="M236003571 10288095
L235384523 10288095
L235322619 10907142
L235384523 10845238
L235508333 10783333
L235817857 10783333
L235941666 10845238
L236003571 10907142
L236065476 11030952
L236065476 11340476
L236003571 11464285
L235941666 11526190
L235817857 11588095
L235508333 11588095
L235384523 11526190
L235322619 11464285
" />
</g></g>
<g style="fill:#000000; fill-opacity:0.0; 
stroke:#000000; stroke-width:21200.000000; stroke-opacity:1; 
stroke-linecap:round; stroke-linejoin:round;">
</g>
<g style="fill:#000000; fill-opacity:0.0; 
stroke:#000000; stroke-width:150000.000000; stroke-opacity:1; 
stroke-linecap:round; stroke-linejoin:round;">
<text x="285000000.000000" y="11650000.000000"
textLength="1388095.000000" font-size="1733333.000000" lengthAdjust="spacingAndGlyphs"
text-anchor="start" opacity="0">6</text>
<g class="stroked-text"><desc>6</desc>
<path d="M285941666 10288095
L285694047 10288095
L285570238 10350000
L285508333 10411904
L285384523 10597619
L285322619 10845238
L285322619 11340476
L285384523 11464285
L285446428 11526190
L285570238 11588095
L285817857 11588095
L285941666 11526190
L286003571 11464285
L286065476 11340476
L286065476 11030952
L286003571 10907142
L285941666 10845238
L285817857 10783333
L285570238 10783333
L285446428 10845238
L285384523 10907142
L285322619 11030952
" />
</g></g>
<g style="fill:#000000; fill-opacity:0.0; 
stroke:#000000; stroke-width:21200.000000; stroke-opacity:1; 
stroke-linecap:round; stroke-linejoin:round;">
</g>
<g style="fill:#000000; fill-opacity:0.0; 
stroke:#000000; stroke-width:150000.000000; stroke-opacity:1; 
stroke-linecap:round; stroke-linejoin:round;">
<path d="M60000000 198007200
L60000000 200007200
" />
</g>
<g style="fill:#000000; fill-opacity:0.0; 
stroke:#000000; stroke-width:21200.000000; stroke-opacity:1; 
stroke-linecap:round; stroke-linejoin:round;">
</g>
<g style="fill:#000000; fill-opacity:0.0; 
stroke:#000000; stroke-width:150000.000000; stroke-opacity:1; 
stroke-linecap:round; stroke-linejoin:round;">
<path d="M110000000 198007200
L110000000 200007200
" />
</g>
<g style="fill:#000000; fill-opacity:0.0; 
stroke:#000000; stroke-width:21200.000000; stroke-opacity:1; 
stroke-linecap:round; stroke-linejoin:round;">
</g>
<g style="fill:#000000; fill-opacity:0.0; 
stroke:#000000; stroke-width:150000.000000; stroke-opacity:1; 
stroke-linecap:round; stroke-linejoin:round;">
<path d="M160000000 198007200
L160000000 200007200
" />
</g>
<g style="fill:#000000; fill-opacity:0.0; 
stroke:#000000; stroke-width:21200.000000; stroke-opacity:1; 
stroke-linecap:round; stroke-linejoin:round;">
</g>
<g style="fill:#000000; fill-opacity:0.0; 
stroke:#000000; stroke-width:150000.000000; stroke-opacity:1; 
stroke-linecap:round; stroke-linejoin:round;">
<path d="M210000000 198007200
L210000000 200007200
" />
</g>
<g style="fill:#000000; fill-opacity:0.0; 
stroke:#000000; stroke-width:21200.000000; stroke-opacity:1; 
stroke-linecap:round; stroke-linejoin:round;">
</g>
<g style="fill:#000000; fill-opacity:0.0; 
stroke:#000000; stroke-width:150000.000000; stroke-opacity:1; 
stroke-linecap:round; stroke-linejoin:round;">
<path d="M260000000 198007200
L260000000 200007200
" />
</g>
<g style="fill:#000000; fill-opacity:0.0; 
stroke:#000000; stroke-width:21200.000000; stroke-opacity:1; 
stroke-linecap:round; stroke-linejoin:round;">
</g>
<g style="fill:#000000; fill-opacity:0.0; 
stroke:#000000; stroke-width:150000.000000; stroke-opacity:1; 
stroke-linecap:round; stroke-linejoin:round;">
<text x="35000000.000000" y="199657200.000000"
textLength="1388095.000000" font-size="1733333.000000" lengthAdjust="spacingAndGlyphs"
text-anchor="start" opacity="0">1</text>
<g class="stroked-text"><desc>1</desc>
<path d="M36065476 199595295
L35322619 199595295
" />
<path d="M35694047 199595295
L35694047 198295295
L35570238 198481009
L35446428 198604819
L35322619 198666723
" />
</g></g>
<g style="fill:#000000; fill-opacity:0.0; 
stroke:#000000; stroke-width:21200.000000; stroke-opacity:1; 
stroke-linecap:round; stroke-linejoin:round;">
</g>
<g style="fill:#000000; fill-opacity:0.0; 
stroke:#000000; stroke-width:150000.000000; stroke-opacity:1; 
stroke-linecap:round; stroke-linejoin:round;">
<text x="85000000.000000" y="199657200.000000"
textLength="1388095.000000" font-size="1733333.000000" lengthAdjust="spacingAndGlyphs"
text-anchor="start" opacity="0">2</text>
<g class="stroked-text"><desc>2</desc>
<path d="M85322619 198419104
L85384523 198357200
L85508333 198295295
L85817857 198295295
L85941666 198357200
L86003571 198419104
L86065476 198542914
L86065476 198666723
L86003571 198852438
L85260714 199595295
L86065476 199595295
" />
</g></g>
<g style="fill:#000000; fill-opacity:0.0; 
stroke:#000000; stroke-width:21200.000000; stroke-opacity:1; 
stroke-linecap:round; stroke-linejoin:round;">
</g>
<g style="fill:#000000; fill-opacity:0.0; 
stroke:#000000; stroke-width:150000.000000; stroke-opacity:1; 
stroke-linecap:round; stroke-linejoin:round;">
<text x="135000000.000000" y="199657200.000000"
textLength="1388095.000000" font-size="1733333.000000" lengthAdjust="spacingAndGlyphs"
text-anchor="start" opacity="0">3</text>
<g class="stroked-text"><desc>3</desc>
<path d="M135260714 198295295
L136065476 198295295
L135632142 198790533
L135817857 198790533
L135941666 198852438
L136003571 198914342
L136065476 199038152
L136065476 199347676
L136003571 199471485
L135941666 199533390
L135817857 199595295
L135446428 199595295
L135322619 199533390
L135260714 199471485
" />
</g></g>
<g style="fill:#000000; fill-opacity:0.0; 
stroke:#000000; stroke-width:21200.000000; stroke-opacity:1; 
stroke-linecap:round; stroke-linejoin:round;">
</g>
<g style="fill:#000000; fill-opacity:0.0; 
stroke:#000000; stroke-width:150000.000000; stroke-opacity:1; 
stroke-linecap:round; stroke-linejoin:round;">
<text x="185000000.000000" y="199657200.000000"
textLength="1388095.000000" font-size="1733333.000000" lengthAdjust="spacingAndGlyphs"
text-anchor="start" opacity="0">4</text>
<g class="stroked-text"><desc>4</desc>
<path d="M185941666 198728628
L185941666 199595295
" />
<path d="M185632142 198233390
L185322619 199161961
L186127380 199161961
" />
</g></g>
<g style="fill:#000000; fill-opacity:0.0; 
stroke:#000000; stroke-width:21200.000000; stroke-opacity:1; 
stroke-linecap:round; stroke-linejoin:round;">
</g>
<g style="fill:#000000; fill-opacity:0.0; 
stroke:#000000; stroke-width:150000.000000; stroke-opacity:1; 
stroke-linecap:round; stroke-linejoin:round;">
<text x="235000000.000000" y="199657200.000000"
textLength="1388095.000000" font-size="1733333.000000" lengthAdjust="spacingAndGlyphs"
text-anchor="start" opacity="0">5</text>
<g class="stroked-text"><desc>5</desc>
<path d="M236003571 198295295
L235384523 198295295
L235322619 198914342
L235384523 198852438
L235508333 198790533
L235817857 198790533
L235941666 198852438
L236003571 198914342
L236065476 199038152
L236065476 199347676
L236003571 199471485
L235941666 199533390
L235817857 199595295
L235508333 199595295
L235384523 199533390
L235322619 199471485
" />
</g></g>
<g style="fill:#000000; fill-opacity:0.0; 
stroke:#000000; stroke-width:21200.000000; stroke-opacity:1; 
stroke-linecap:round; stroke-linejoin:round;">
</g>
<g style="fill:#000000; fill-opacity:0.0; 
stroke:#000000; stroke-width:150000.000000; stroke-opacity:1; 
stroke-linecap:round; stroke-linejoin:round;">
<text x="285000000.000000" y="199657200.000000"
textLength="1388095.000000" font-size="1733333.000000" lengthAdjust="spacingAndGlyphs"
text-anchor="start" opacity="0">6</text>
<g class="stroked-text"><desc>6</desc>
<path d="M285941666 198295295
L285694047 198295295
L285570238 198357200
L285508333 198419104
L285384523 198604819
L285322619 198852438
L285322619 199347676
L285384523 199471485
L285446428 199533390
L285570238 199595295
L285817857 199595295
L285941666 199533390
L286003571 199471485
L286065476 199347676
L286065476 199038152
L286003571 198914342
L285941666 198852438
L285817857 198790533
L285570238 198790533
L285446428 198852438
L285384523 198914342
L285322619 199038152
" />
</g></g>
<g style="fill:#000000; fill-opacity:0.0; 
stroke:#000000; stroke-width:21200.000000; stroke-opacity:1; 
stroke-linecap:round; stroke-linejoin:round;">
</g>
<g style="fill:#000000; fill-opacity:0.0; 
stroke:#000000; stroke-width:150000.000000; stroke-opacity:1; 
stroke-linecap:round; stroke-linejoin:round;">
<path d="M10000000 60000000
L12000000 60000000
" />
</g>
<g style="fill:#000000; fill-opacity:0.0; 
stroke:#000000; stroke-width:21200.000000; stroke-opacity:1; 
stroke-linecap:round; stroke-linejoin:round;">
</g>
<g style="fill:#000000; fill-opacity:0.0; 
stroke:#000000; stroke-width:150000.000000; stroke-opacity:1; 
stroke-linecap:round; stroke-linejoin:round;">
<path d="M10000000 110000000
L12000000 110000000
" />
</g>
<g style="fill:#000000; fill-opacity:0.0; 
stroke:#000000; stroke-width:21200.000000; stroke-opacity:1; 
stroke-linecap:round; stroke-linejoin:round;">
</g>
<g style="fill:#000000; fill-opacity:0.0; 
stroke:#000000; stroke-width:150000.000000; stroke-opacity:1; 
stroke-linecap:round; stroke-linejoin:round;">
<path d="M10000000 160000000
L12000000 160000000
" />
</g>
<g style="fill:#000000; fill-opacity:0.0; 
stroke:#000000; stroke-width:21200.000000; stroke-opacity:1; 
stroke-linecap:round; stroke-linejoin:round;">
</g>
<g style="fill:#000000; fill-opacity:0.0; 
stroke:#000000; stroke-width:150000.000000; stroke-opacity:1; 
stroke-linecap:round; stroke-linejoin:round;">
<text x="11000000.000000" y="35650000.000000"
textLength="1264286.000000" font-size="1733333.000000" lengthAdjust="spacingAndGlyphs"
text-anchor="middle" opacity="0">A</text>
<g class="stroked-text"><desc>A</desc>
<path d="M10690476 35216666
L11309523 35216666
" />
<path d="M10566666 35588095
L11000000 34288095
L11433333 35588095
" />
</g></g>
<g style="fill:#000000; fill-opacity:0.0; 
stroke:#000000; stroke-width:21200.000000; stroke-opacity:1; 
stroke-linecap:round; stroke-linejoin:round;">
</g>
<g style="fill:#000000; fill-opacity:0.0; 
stroke:#000000; stroke-width:150000.000000; stroke-opacity:1; 
stroke-linecap:round; stroke-linejoin:round;">
<text x="11000000.000000" y="85650000.000000"
textLength="1450000.000000" font-size="1733333.000000" lengthAdjust="spacingAndGlyphs"
text-anchor="middle" opacity="0">B</text>
<g class="stroked-text"><desc>B</desc>
<path d="M11092857 84907142
L11278571 84969047
L11340476 85030952
L11402380 85154761
L11402380 85340476
L11340476 85464285
L11278571 85526190
L11154761 85588095
L10659523 85588095
L10659523 84288095
L11092857 84288095
L11216666 84350000
L11278571 84411904
L11340476 84535714
L11340476 84659523
L11278571 84783333
L11216666 84845238
L11092857 84907142
L10659523 84907142
" />
</g></g>
<g style="fill:#000000; fill-opacity:0.0; 
stroke:#000000; stroke-width:21200.000000; stroke-opacity:1; 
stroke-linecap:round; stroke-linejoin:round;">
</g>
<g style="fill:#000000; fill-opacity:0.0; 
stroke:#000000; stroke-width:150000.000000; stroke-opacity:1; 
stroke-linecap:round; stroke-linejoin:round;">
<text x="11000000.000000" y="135650000.000000"
textLength="1450000.000000" font-size="1733333.000000" lengthAdjust="spacingAndGlyphs"
text-anchor="middle" opacity="0">C</text>
<g class="stroked-text"><desc>C</desc>
<path d="M11402380 135464285
L11340476 135526190
L11154761 135588095
L11030952 135588095
L10845238 135526190
L10721428 135402380
L10659523 135278571
L10597619 135030952
L10597619 134845238
L10659523 134597619
L10721428 134473809
L10845238 134350000
L11030952 134288095
L11154761 134288095
L11340476 134350000
L11402380 134411904
" />
</g></g>
<g style="fill:#000000; fill-opacity:0.0; 
stroke:#000000; stroke-width:21200.000000; stroke-opacity:1; 
stroke-linecap:round; stroke-linejoin:round;">
</g>
<g style="fill:#000000; fill-opacity:0.0; 
stroke:#000000; stroke-width:150000.000000; stroke-opacity:1; 
stroke-linecap:round; stroke-linejoin:round;">
<text x="11000000.000000" y="185650000.000000"
textLength="1450000.000000" font-size="1733333.000000" lengthAdjust="spacingAndGlyphs"
text-anchor="middle" opacity="0">D</text>
<g class="stroked-text"><desc>D</desc>
<path d="M10659523 185588095
L10659523 184288095
L10969047 184288095
L11154761 184350000
L11278571 184473809
L11340476 184597619
L11402380 184845238
L11402380 185030952
L11340476 185278571
L11278571 185402380
L11154761 185526190
L10969047 185588095
L10659523 185588095
" />
</g></g>
<g style="fill:#000000; fill-opacity:0.0; 
stroke:#000000; stroke-width:21200.000000; stroke-opacity:1; 
stroke-linecap:round; stroke-linejoin:round;">
</g>
<g style="fill:#000000; fill-opacity:0.0; 
stroke:#000000; stroke-width:150000.000000; stroke-opacity:1; 
stroke-linecap:round; stroke-linejoin:round;">
<path d="M287002200 60000000
L285002200 60000000
" />
</g>
<g style="fill:#000000; fill-opacity:0.0; 
stroke:#000000; stroke-width:21200.000000; stroke-opacity:1; 
stroke-linecap:round; stroke-linejoin:round;">
</g>
<g style="fill:#000000; fill-opacity:0.0; 
stroke:#000000; stroke-width:150000.000000; stroke-opacity:1; 
stroke-linecap:round; stroke-linejoin:round;">
<path d="M287002200 110000000
L285002200 110000000
" />
</g>
<g style="fill:#000000; fill-opacity:0.0; 
stroke:#000000; stroke-width:21200.000000; stroke-opacity:1; 
stroke-linecap:round; stroke-linejoin:round;">
</g>
<g style="fill:#000000; fill-opacity:0.0; 
stroke:#000000; stroke-width:150000.000000; stroke-opacity:1; 
stroke-linecap:round; stroke-linejoin:round;">
<path d="M287002200 160000000
L285002200 160000000
" />
</g>
<g style="fill:#000000; fill-opacity:0.0; 
stroke:#000000; stroke-width:21200.000000; stroke-opacity:1; 
stroke-linecap:round; stroke-linejoin:round;">
</g>
<g style="fill:#000000; fill-opacity:0.0; 
stroke:#000000; stroke-width:150000.000000; stroke-opacity:1; 
stroke-linecap:round; stroke-linejoin:round;">
<text x="286002200.000000" y="35650000.000000"
textLength="1264286.000000" font-size="1733333.000000" lengthAdjust="spacingAndGlyphs"
text-anchor="middle" opacity="0">A</text>
<g class="stroked-text"><desc>A</desc>
<path d="M285692676 35216666
L286311723 35216666
" />
<path d="M285568866 35588095
L286002200 34288095
L286435533 35588095
" />
</g></g>
<g style="fill:#000000; fill-opacity:0.0; 
stroke:#000000; stroke-width:21200.000000; stroke-opacity:1; 
stroke-linecap:round; stroke-linejoin:round;">
</g>
<g style="fill:#000000; fill-opacity:0.0; 
stroke:#000000; stroke-width:150000.000000; stroke-opacity:1; 
stroke-linecap:round; stroke-linejoin:round;">
<text x="286002200.000000" y="85650000.000000"
textLength="1450000.000000" font-size="1733333.000000" lengthAdjust="spacingAndGlyphs"
text-anchor="middle" opacity="0">B</text>
<g class="stroked-text"><desc>B</desc>
<path d="M286095057 84907142
L286280771 84969047
L286342676 85030952
L286404580 85154761
L286404580 85340476
L286342676 85464285
L286280771 85526190
L286156961 85588095
L285661723 85588095
L285661723 84288095
L286095057 84288095
L286218866 84350000
L286280771 84411904
L286342676 84535714
L286342676 84659523
L286280771 84783333
L286218866 84845238
L286095057 84907142
L285661723 84907142
" />
</g></g>
<g style="fill:#000000; fill-opacity:0.0; 
stroke:#000000; stroke-width:21200.000000; stroke-opacity:1; 
stroke-linecap:round; stroke-linejoin:round;">
</g>
<g style="fill:#000000; fill-opacity:0.0; 
stroke:#000000; stroke-width:150000.000000; stroke-opacity:1; 
stroke-linecap:round; stroke-linejoin:round;">
<text x="286002200.000000" y="135650000.000000"
textLength="1450000.000000" font-size="1733333.000000" lengthAdjust="spacingAndGlyphs"
text-anchor="middle" opacity="0">C</text>
<g class="stroked-text"><desc>C</desc>
<path d="M286404580 135464285
L286342676 135526190
L286156961 135588095
L286033152 135588095
L285847438 135526190
L285723628 135402380
L285661723 135278571
L285599819 135030952
L285599819 134845238
L285661723 134597619
L285723628 134473809
L285847438 134350000
L286033152 134288095
L286156961 134288095
L286342676 134350000
L286404580 134411904
" />
</g></g>
<g style="fill:#000000; fill-opacity:0.0; 
stroke:#000000; stroke-width:21200.000000; stroke-opacity:1; 
stroke-linecap:round; stroke-linejoin:round;">
</g>
<g style="fill:#000000; fill-opacity:0.0; 
stroke:#000000; stroke-width:150000.000000; stroke-opacity:1; 
stroke-linecap:round; stroke-linejoin:round;">
<text x="286002200.000000" y="185650000.000000"
textLength="1450000.000000" font-size="1733333.000000" lengthAdjust="spacingAndGlyphs"
text-anchor="middle" opacity="0">D</text>
<g class="stroked-text"><desc>D</desc>
<path d="M285661723 185588095
L285661723 184288095
L285971247 184288095
L286156961 184350000
L286280771 184473809
L286342676 184597619
L286404580 184845238
L286404580 185030952
L286342676 185278571
L286280771 185402380
L286156961 185526190
L285971247 185588095
L285661723 185588095
" />
</g></g>
<g style="fill:#000000; fill-opacity:0.0; 
stroke:#000000; stroke-width:21200.000000; stroke-opacity:1; 
stroke-linecap:round; stroke-linejoin:round;">
</g>
<g style="fill:#000000; fill-opacity:0.0; 
stroke:#000000; stroke-width:150000.000000; stroke-opacity:1; 
stroke-linecap:round; stroke-linejoin:round;">
<text x="200002200.000000" y="193857200.000000"
textLength="7007143.000000" font-size="2000000.000000" lengthAdjust="spacingAndGlyphs"
text-anchor="start" opacity="0">Date: </text>
<g class="stroked-text"><desc>Date: </desc>
<path d="M200434342 193785771
L200434342 192285771
L200791485 192285771
L201005771 192357200
L201148628 192500057
L201220057 192642914
L201291485 192928628
L201291485 193142914
L201220057 193428628
L201148628 193571485
L201005771 193714342
L200791485 193785771
L200434342 193785771
" />
<path d="M202577200 193785771
L202577200 193000057
L202505771 192857200
L202362914 192785771
L202077200 192785771
L201934342 192857200
" />
<path d="M202577200 193714342
L202434342 193785771
L202077200 193785771
L201934342 193714342
L201862914 193571485
L201862914 193428628
L201934342 193285771
L202077200 193214342
L202434342 193214342
L202577200 193142914
" />
<path d="M203077200 192785771
L203648628 192785771
" />
<path d="M203291485 192285771
L203291485 193571485
L203362914 193714342
L203505771 193785771
L203648628 193785771
" />
<path d="M204720057 193714342
L204577200 193785771
L204291485 193785771
L204148628 193714342
L204077200 193571485
L204077200 193000057
L204148628 192857200
L204291485 192785771
L204577200 192785771
L204720057 192857200
L204791485 193000057
L204791485 193142914
L204077200 193285771
" />
<path d="M205434342 193642914
L205505771 193714342
L205434342 193785771
L205362914 193714342
L205434342 193642914
L205434342 193785771
" />
<path d="M205434342 192857200
L205505771 192928628
L205434342 193000057
L205362914 192928628
L205434342 192857200
L205434342 193000057
" />
</g></g>
<g style="fill:#000000; fill-opacity:0.0; 
stroke:#000000; stroke-width:21200.000000; stroke-opacity:1; 
stroke-linecap:round; stroke-linejoin:round;">
</g>
<g style="fill:#000000; fill-opacity:0.0; 
stroke:#000000; stroke-width:150000.000000; stroke-opacity:1; 
stroke-linecap:round; stroke-linejoin:round;">
<path d="M177002200 194507200
L285002200 194507200
" />
</g>
<g style="fill:#000000; fill-opacity:0.0; 
stroke:#000000; stroke-width:21200.000000; stroke-opacity:1; 
stroke-linecap:round; stroke-linejoin:round;">
</g>
<g style="fill:#000000; fill-opacity:0.0; 
stroke:#000000; stroke-width:150000.000000; stroke-opacity:1; 
stroke-linecap:round; stroke-linejoin:round;">
<text x="178002200.000000" y="196657200.000000"
textLength="34364286.000000" font-size="2000000.000000" lengthAdjust="spacingAndGlyphs"
text-anchor="start" opacity="0">KiCad E.D.A.  kicad (6.0.5-0)</text>
<g class="stroked-text"><desc>KiCad E.D.A.  kicad (6.0.5-0)</desc>
<path d="M178434342 196585771
L178434342 195085771
" />
<path d="M179291485 196585771
L178648628 195728628
" />
<path d="M179291485 195085771
L178434342 195942914
" />
<path d="M179934342 196585771
L179934342 195585771
" />
<path d="M179934342 195085771
L179862914 195157200
L179934342 195228628
L180005771 195157200
L179934342 195085771
L179934342 195228628
" />
<path d="M181505771 196442914
L181434342 196514342
L181220057 196585771
L181077200 196585771
L180862914 196514342
L180720057 196371485
L180648628 196228628
L180577200 195942914
L180577200 195728628
L180648628 195442914
L180720057 195300057
L180862914 195157200
L181077200 195085771
L181220057 195085771
L181434342 195157200
L181505771 195228628
" />
<path d="M182791485 196585771
L182791485 195800057
L182720057 195657200
L182577200 195585771
L182291485 195585771
L182148628 195657200
" />
<path d="M182791485 196514342
L182648628 196585771
L182291485 196585771
L182148628 196514342
L182077200 196371485
L182077200 196228628
L182148628 196085771
L182291485 196014342
L182648628 196014342
L182791485 195942914
" />
<path d="M184148628 196585771
L184148628 195085771
" />
<path d="M184148628 196514342
L184005771 196585771
L183720057 196585771
L183577200 196514342
L183505771 196442914
L183434342 196300057
L183434342 195871485
L183505771 195728628
L183577200 195657200
L183720057 195585771
L184005771 195585771
L184148628 195657200
" />
<path d="M186005771 195800057
L186505771 195800057
" />
<path d="M186720057 196585771
L186005771 196585771
L186005771 195085771
L186720057 195085771
" />
<path d="M187362914 196442914
L187434342 196514342
L187362914 196585771
L187291485 196514342
L187362914 196442914
L187362914 196585771
" />
<path d="M188077200 196585771
L188077200 195085771
L188434342 195085771
L188648628 195157200
L188791485 195300057
L188862914 195442914
L188934342 195728628
L188934342 195942914
L188862914 196228628
L188791485 196371485
L188648628 196514342
L188434342 196585771
L188077200 196585771
" />
<path d="M189577200 196442914
L189648628 196514342
L189577200 196585771
L189505771 196514342
L189577200 196442914
L189577200 196585771
" />
<path d="M190220057 196157200
L190934342 196157200
" />
<path d="M190077200 196585771
L190577200 195085771
L191077200 196585771
" />
<path d="M191577200 196442914
L191648628 196514342
L191577200 196585771
L191505771 196514342
L191577200 196442914
L191577200 196585771
" />
<path d="M194577200 196585771
L194577200 195085771
" />
<path d="M194720057 196014342
L195148628 196585771
" />
<path d="M195148628 195585771
L194577200 196157200
" />
<path d="M195791485 196585771
L195791485 195585771
" />
<path d="M195791485 195085771
L195720057 195157200
L195791485 195228628
L195862914 195157200
L195791485 195085771
L195791485 195228628
" />
<path d="M197148628 196514342
L197005771 196585771
L196720057 196585771
L196577200 196514342
L196505771 196442914
L196434342 196300057
L196434342 195871485
L196505771 195728628
L196577200 195657200
L196720057 195585771
L197005771 195585771
L197148628 195657200
" />
<path d="M198434342 196585771
L198434342 195800057
L198362914 195657200
L198220057 195585771
L197934342 195585771
L197791485 195657200
" />
<path d="M198434342 196514342
L198291485 196585771
L197934342 196585771
L197791485 196514342
L197720057 196371485
L197720057 196228628
L197791485 196085771
L197934342 196014342
L198291485 196014342
L198434342 195942914
" />
<path d="M199791485 196585771
L199791485 195085771
" />
<path d="M199791485 196514342
L199648628 196585771
L199362914 196585771
L199220057 196514342
L199148628 196442914
L199077200 196300057
L199077200 195871485
L199148628 195728628
L199220057 195657200
L199362914 195585771
L199648628 195585771
L199791485 195657200
" />
<path d="M202077200 197157200
L202005771 197085771
L201862914 196871485
L201791485 196728628
L201720057 196514342
L201648628 196157200
L201648628 195871485
L201720057 195514342
L201791485 195300057
L201862914 195157200
L202005771 194942914
L202077200 194871485
" />
<path d="M203291485 195085771
L203005771 195085771
L202862914 195157200
L202791485 195228628
L202648628 195442914
L202577200 195728628
L202577200 196300057
L202648628 196442914
L202720057 196514342
L202862914 196585771
L203148628 196585771
L203291485 196514342
L203362914 196442914
L203434342 196300057
L203434342 195942914
L203362914 195800057
L203291485 195728628
L203148628 195657200
L202862914 195657200
L202720057 195728628
L202648628 195800057
L202577200 195942914
" />
<path d="M204077200 196442914
L204148628 196514342
L204077200 196585771
L204005771 196514342
L204077200 196442914
L204077200 196585771
" />
<path d="M205077200 195085771
L205220057 195085771
L205362914 195157200
L205434342 195228628
L205505771 195371485
L205577200 195657200
L205577200 196014342
L205505771 196300057
L205434342 196442914
L205362914 196514342
L205220057 196585771
L205077200 196585771
L204934342 196514342
L204862914 196442914
L204791485 196300057
L204720057 196014342
L204720057 195657200
L204791485 195371485
L204862914 195228628
L204934342 195157200
L205077200 195085771
" />
<path d="M206220057 196442914
L206291485 196514342
L206220057 196585771
L206148628 196514342
L206220057 196442914
L206220057 196585771
" />
<path d="M207648628 195085771
L206934342 195085771
L206862914 195800057
L206934342 195728628
L207077200 195657200
L207434342 195657200
L207577200 195728628
L207648628 195800057
L207720057 195942914
L207720057 196300057
L207648628 196442914
L207577200 196514342
L207434342 196585771
L207077200 196585771
L206934342 196514342
L206862914 196442914
" />
<path d="M208362914 196014342
L209505771 196014342
" />
<path d="M210505771 195085771
L210648628 195085771
L210791485 195157200
L210862914 195228628
L210934342 195371485
L211005771 195657200
L211005771 196014342
L210934342 196300057
L210862914 196442914
L210791485 196514342
L210648628 196585771
L210505771 196585771
L210362914 196514342
L210291485 196442914
L210220057 196300057
L210148628 196014342
L210148628 195657200
L210220057 195371485
L210291485 195228628
L210362914 195157200
L210505771 195085771
" />
<path d="M211505771 197157200
L211577200 197085771
L211720057 196871485
L211791485 196728628
L211862914 196514342
L211934342 196157200
L211934342 195871485
L211862914 195514342
L211791485 195300057
L211720057 195157200
L211577200 194942914
L211505771 194871485
" />
</g></g>
<g style="fill:#000000; fill-opacity:0.0; 
stroke:#000000; stroke-width:21200.000000; stroke-opacity:1; 
stroke-linecap:round; stroke-linejoin:round;">
</g>
<g style="fill:#000000; fill-opacity:0.0; 
stroke:#000000; stroke-width:150000.000000; stroke-opacity:1; 
stroke-linecap:round; stroke-linejoin:round;">
<path d="M177002200 191507200
L285002200 191507200
" />
</g>
<g style="fill:#000000; fill-opacity:0.0; 
stroke:#000000; stroke-width:21200.000000; stroke-opacity:1; 
stroke-linecap:round; stroke-linejoin:round;">
</g>
<g style="fill:#000000; fill-opacity:0.0; 
stroke:#000000; stroke-width:300000.000000; stroke-opacity:1; 
stroke-linecap:round; stroke-linejoin:round;">
<text x="263002200.000000" y="193857200.000000"
textLength="5935714.000000" font-size="2000000.000000" lengthAdjust="spacingAndGlyphs"
text-anchor="start" opacity="0">Rev: </text>
<g class="stroked-text"><desc>Rev: </desc>
<path d="M264411485 193785771
L263911485 193071485
" />
<path d="M263554342 193785771
L263554342 192285771
L264125771 192285771
L264268628 192357200
L264340057 192428628
L264411485 192571485
L264411485 192785771
L264340057 192928628
L264268628 193000057
L264125771 193071485
L263554342 193071485
" />
<path d="M265625771 193714342
L265482914 193785771
L265197200 193785771
L265054342 193714342
L264982914 193571485
L264982914 193000057
L265054342 192857200
L265197200 192785771
L265482914 192785771
L265625771 192857200
L265697200 193000057
L265697200 193142914
L264982914 193285771
" />
<path d="M266197200 192785771
L266554342 193785771
L266911485 192785771
" />
<path d="M267482914 193642914
L267554342 193714342
L267482914 193785771
L267411485 193714342
L267482914 193642914
L267482914 193785771
" />
<path d="M267482914 192857200
L267554342 192928628
L267482914 193000057
L267411485 192928628
L267482914 192857200
L267482914 193000057
" />
</g></g>
<g style="fill:#000000; fill-opacity:0.0; 
stroke:#000000; stroke-width:21200.000000; stroke-opacity:1; 
stroke-linecap:round; stroke-linejoin:round;">
</g>
<g style="fill:#000000; fill-opacity:0.0; 
stroke:#000000; stroke-width:150000.000000; stroke-opacity:1; 
stroke-linecap:round; stroke-linejoin:round;">
<text x="178002200.000000" y="193857200.000000"
textLength="9604286.000000" font-size="2000000.000000" lengthAdjust="spacingAndGlyphs"
text-anchor="start" opacity="0">Size: A4</text>
<g class="stroked-text"><desc>Size: A4</desc>
<path d="M178362914 193714342
L178577200 193785771
L178934342 193785771
L179077200 193714342
L179148628 193642914
L179220057 193500057
L179220057 193357200
L179148628 193214342
L179077200 193142914
L178934342 193071485
L178648628 193000057
L178505771 192928628
L178434342 192857200
L178362914 192714342
L178362914 192571485
L178434342 192428628
L178505771 192357200
L178648628 192285771
L179005771 192285771
L179220057 192357200
" />
<path d="M179862914 193785771
L179862914 192785771
" />
<path d="M179862914 192285771
L179791485 192357200
L179862914 192428628
L179934342 192357200
L179862914 192285771
L179862914 192428628
" />
<path d="M180434342 192785771
L181220057 192785771
L180434342 193785771
L181220057 193785771
" />
<path d="M182362914 193714342
L182220057 193785771
L181934342 193785771
L181791485 193714342
L181720057 193571485
L181720057 193000057
L181791485 192857200
L181934342 192785771
L182220057 192785771
L182362914 192857200
L182434342 193000057
L182434342 193142914
L181720057 193285771
" />
<path d="M183077200 193642914
L183148628 193714342
L183077200 193785771
L183005771 193714342
L183077200 193642914
L183077200 193785771
" />
<path d="M183077200 192857200
L183148628 192928628
L183077200 193000057
L183005771 192928628
L183077200 192857200
L183077200 193000057
" />
<path d="M184862914 193357200
L185577200 193357200
" />
<path d="M184720057 193785771
L185220057 192285771
L185720057 193785771
" />
<path d="M186862914 192785771
L186862914 193785771
" />
<path d="M186505771 192214342
L186148628 193285771
L187077200 193285771
" />
</g></g>
<g style="fill:#000000; fill-opacity:0.0; 
stroke:#000000; stroke-width:21200.000000; stroke-opacity:1; 
stroke-linecap:round; stroke-linejoin:round;">
</g>
<g style="fill:#000000; fill-opacity:0.0; 
stroke:#000000; stroke-width:150000.000000; stroke-opacity:1; 
stroke-linecap:round; stroke-linejoin:round;">
<text x="263002200.000000" y="196657200.000000"
textLength="8507143.000000" font-size="2000000.000000" lengthAdjust="spacingAndGlyphs"
text-anchor="start" opacity="0">Id: 1/1</text>
<g class="stroked-text"><desc>Id: 1/1</desc>
<path d="M263434342 196585771
L263434342 195085771
" />
<path d="M264791485 196585771
L264791485 195085771
" />
<path d="M264791485 196514342
L264648628 196585771
L264362914 196585771
L264220057 196514342
L264148628 196442914
L264077200 196300057
L264077200 195871485
L264148628 195728628
L264220057 195657200
L264362914 195585771
L264648628 195585771
L264791485 195657200
" />
<path d="M265505771 196442914
L265577200 196514342
L265505771 196585771
L265434342 196514342
L265505771 196442914
L265505771 196585771
" />
<path d="M265505771 195657200
L265577200 195728628
L265505771 195800057
L265434342 195728628
L265505771 195657200
L265505771 195800057
" />
<path d="M268148628 196585771
L267291485 196585771
" />
<path d="M267720057 196585771
L267720057 195085771
L267577200 195300057
L267434342 195442914
L267291485 195514342
" />
<path d="M269862914 195014342
L268577200 196942914
" />
<path d="M271148628 196585771
L270291485 196585771
" />
<path d="M270720057 196585771
L270720057 195085771
L270577200 195300057
L270434342 195442914
L270291485 195514342
" />
</g></g>
<g style="fill:#000000; fill-opacity:0.0; 
stroke:#000000; stroke-width:21200.000000; stroke-opacity:1; 
stroke-linecap:round; stroke-linejoin:round;">
</g>
<g style="fill:#000000; fill-opacity:0.0; 
stroke:#000000; stroke-width:150000.000000; stroke-opacity:1; 
stroke-linecap:round; stroke-linejoin:round;">
<path d="M177002200 187507200
L285002200 187507200
" />
</g>
<g style="fill:#000000; fill-opacity:0.0; 
stroke:#000000; stroke-width:21200.000000; stroke-opacity:1; 
stroke-linecap:round; stroke-linejoin:round;">
</g>
<g style="fill:#000000; fill-opacity:0.0; 
stroke:#000000; stroke-width:400000.000000; stroke-opacity:1; 
stroke-linecap:round; stroke-linejoin:round;">
<text x="178002200.000000" y="190307200.000000"
textLength="9409643.000000" font-size="2666666.000000" lengthAdjust="spacingAndGlyphs"
text-anchor="start" opacity="0">Title: </text>
<g class="stroked-text"><desc>Title: </desc>
<path d="M178714580 188211961
L179857438 188211961
" />
<path d="M179036009 190211961
L179286009 188211961
" />
<path d="M180274104 190211961
L180440771 188878628
" />
<path d="M180524104 188211961
L180416961 188307200
L180500295 188402438
L180607438 188307200
L180524104 188211961
L180500295 188402438
" />
<path d="M181107438 188878628
L181869342 188878628
" />
<path d="M181476485 188211961
L181262200 189926247
L181333628 190116723
L181512200 190211961
L181702676 190211961
" />
<path d="M182655057 190211961
L182476485 190116723
L182405057 189926247
L182619342 188211961
" />
<path d="M184190771 190116723
L183988390 190211961
L183607438 190211961
L183428866 190116723
L183357438 189926247
L183452676 189164342
L183571723 188973866
L183774104 188878628
L184155057 188878628
L184333628 188973866
L184405057 189164342
L184381247 189354819
L183405057 189545295
" />
<path d="M185155057 190021485
L185238390 190116723
L185131247 190211961
L185047914 190116723
L185155057 190021485
L185131247 190211961
" />
<path d="M185286009 188973866
L185369342 189069104
L185262200 189164342
L185178866 189069104
L185286009 188973866
L185262200 189164342
" />
</g></g>
<g style="fill:#000000; fill-opacity:0.0; 
stroke:#000000; stroke-width:21200.000000; stroke-opacity:1; 
stroke-linecap:round; stroke-linejoin:round;">
</g>
<g style="fill:#000000; fill-opacity:0.0; 
stroke:#000000; stroke-width:150000.000000; stroke-opacity:1; 
stroke-linecap:round; stroke-linejoin:round;">
<text x="178002200.000000" y="186457200.000000"
textLength="26805714.000000" font-size="2000000.000000" lengthAdjust="spacingAndGlyphs"
text-anchor="start" opacity="0">File: AAPiHat.kicad_pcb</text>
<g class="stroked-text"><desc>File: AAPiHat.kicad_pcb</desc>
<path d="M178934342 185600057
L178434342 185600057
" />
<path d="M178434342 186385771
L178434342 184885771
L179148628 184885771
" />
<path d="M179720057 186385771
L179720057 185385771
" />
<path d="M179720057 184885771
L179648628 184957200
L179720057 185028628
L179791485 184957200
L179720057 184885771
L179720057 185028628
" />
<path d="M180648628 186385771
L180505771 186314342
L180434342 186171485
L180434342 184885771
" />
<path d="M181791485 186314342
L181648628 186385771
L181362914 186385771
L181220057 186314342
L181148628 186171485
L181148628 185600057
L181220057 185457200
L181362914 185385771
L181648628 185385771
L181791485 185457200
L181862914 185600057
L181862914 185742914
L181148628 185885771
" />
<path d="M182505771 186242914
L182577200 186314342
L182505771 186385771
L182434342 186314342
L182505771 186242914
L182505771 186385771
" />
<path d="M182505771 185457200
L182577200 185528628
L182505771 185600057
L182434342 185528628
L182505771 185457200
L182505771 185600057
" />
<path d="M184291485 185957200
L185005771 185957200
" />
<path d="M184148628 186385771
L184648628 184885771
L185148628 186385771
" />
<path d="M185577200 185957200
L186291485 185957200
" />
<path d="M185434342 186385771
L185934342 184885771
L186434342 186385771
" />
<path d="M186934342 186385771
L186934342 184885771
L187505771 184885771
L187648628 184957200
L187720057 185028628
L187791485 185171485
L187791485 185385771
L187720057 185528628
L187648628 185600057
L187505771 185671485
L186934342 185671485
" />
<path d="M188434342 186385771
L188434342 185385771
" />
<path d="M188434342 184885771
L188362914 184957200
L188434342 185028628
L188505771 184957200
L188434342 184885771
L188434342 185028628
" />
<path d="M189148628 186385771
L189148628 184885771
" />
<path d="M189148628 185600057
L190005771 185600057
" />
<path d="M190005771 186385771
L190005771 184885771
" />
<path d="M191362914 186385771
L191362914 185600057
L191291485 185457200
L191148628 185385771
L190862914 185385771
L190720057 185457200
" />
<path d="M191362914 186314342
L191220057 186385771
L190862914 186385771
L190720057 186314342
L190648628 186171485
L190648628 186028628
L190720057 185885771
L190862914 185814342
L191220057 185814342
L191362914 185742914
" />
<path d="M191862914 185385771
L192434342 185385771
" />
<path d="M192077200 184885771
L192077200 186171485
L192148628 186314342
L192291485 186385771
L192434342 186385771
" />
<path d="M192934342 186242914
L193005771 186314342
L192934342 186385771
L192862914 186314342
L192934342 186242914
L192934342 186385771
" />
<path d="M193648628 186385771
L193648628 184885771
" />
<path d="M193791485 185814342
L194220057 186385771
" />
<path d="M194220057 185385771
L193648628 185957200
" />
<path d="M194862914 186385771
L194862914 185385771
" />
<path d="M194862914 184885771
L194791485 184957200
L194862914 185028628
L194934342 184957200
L194862914 184885771
L194862914 185028628
" />
<path d="M196220057 186314342
L196077200 186385771
L195791485 186385771
L195648628 186314342
L195577200 186242914
L195505771 186100057
L195505771 185671485
L195577200 185528628
L195648628 185457200
L195791485 185385771
L196077200 185385771
L196220057 185457200
" />
<path d="M197505771 186385771
L197505771 185600057
L197434342 185457200
L197291485 185385771
L197005771 185385771
L196862914 185457200
" />
<path d="M197505771 186314342
L197362914 186385771
L197005771 186385771
L196862914 186314342
L196791485 186171485
L196791485 186028628
L196862914 185885771
L197005771 185814342
L197362914 185814342
L197505771 185742914
" />
<path d="M198862914 186385771
L198862914 184885771
" />
<path d="M198862914 186314342
L198720057 186385771
L198434342 186385771
L198291485 186314342
L198220057 186242914
L198148628 186100057
L198148628 185671485
L198220057 185528628
L198291485 185457200
L198434342 185385771
L198720057 185385771
L198862914 185457200
" />
<path d="M199220057 186528628
L200362914 186528628
" />
<path d="M200720057 185385771
L200720057 186885771
" />
<path d="M200720057 185457200
L200862914 185385771
L201148628 185385771
L201291485 185457200
L201362914 185528628
L201434342 185671485
L201434342 186100057
L201362914 186242914
L201291485 186314342
L201148628 186385771
L200862914 186385771
L200720057 186314342
" />
<path d="M202720057 186314342
L202577200 186385771
L202291485 186385771
L202148628 186314342
L202077200 186242914
L202005771 186100057
L202005771 185671485
L202077200 185528628
L202148628 185457200
L202291485 185385771
L202577200 185385771
L202720057 185457200
" />
<path d="M203362914 186385771
L203362914 184885771
" />
<path d="M203362914 185457200
L203505771 185385771
L203791485 185385771
L203934342 185457200
L204005771 185528628
L204077200 185671485
L204077200 186100057
L204005771 186242914
L203934342 186314342
L203791485 186385771
L203505771 186385771
L203362914 186314342
" />
</g></g>
<g style="fill:#000000; fill-opacity:0.0; 
stroke:#000000; stroke-width:21200.000000; stroke-opacity:1; 
stroke-linecap:round; stroke-linejoin:round;">
</g>
<g style="fill:#000000; fill-opacity:0.0; 
stroke:#000000; stroke-width:150000.000000; stroke-opacity:1; 
stroke-linecap:round; stroke-linejoin:round;">
<path d="M177002200 181507200
L285002200 181507200
" />
</g>
<g style="fill:#000000; fill-opacity:0.0; 
stroke:#000000; stroke-width:21200.000000; stroke-opacity:1; 
stroke-linecap:round; stroke-linejoin:round;">
</g>
<g style="fill:#000000; fill-opacity:0.0; 
stroke:#000000; stroke-width:150000.000000; stroke-opacity:1; 
stroke-linecap:round; stroke-linejoin:round;">
<text x="178002200.000000" y="183757200.000000"
textLength="8221429.000000" font-size="2000000.000000" lengthAdjust="spacingAndGlyphs"
text-anchor="start" opacity="0">Sheet: </text>
<g class="stroked-text"><desc>Sheet: </desc>
<path d="M178362914 183614342
L178577200 183685771
L178934342 183685771
L179077200 183614342
L179148628 183542914
L179220057 183400057
L179220057 183257200
L179148628 183114342
L179077200 183042914
L178934342 182971485
L178648628 182900057
L178505771 182828628
L178434342 182757200
L178362914 182614342
L178362914 182471485
L178434342 182328628
L178505771 182257200
L178648628 182185771
L179005771 182185771
L179220057 182257200
" />
<path d="M179862914 183685771
L179862914 182185771
" />
<path d="M180505771 183685771
L180505771 182900057
L180434342 182757200
L180291485 182685771
L180077200 182685771
L179934342 182757200
L179862914 182828628
" />
<path d="M181791485 183614342
L181648628 183685771
L181362914 183685771
L181220057 183614342
L181148628 183471485
L181148628 182900057
L181220057 182757200
L181362914 182685771
L181648628 182685771
L181791485 182757200
L181862914 182900057
L181862914 183042914
L181148628 183185771
" />
<path d="M183077200 183614342
L182934342 183685771
L182648628 183685771
L182505771 183614342
L182434342 183471485
L182434342 182900057
L182505771 182757200
L182648628 182685771
L182934342 182685771
L183077200 182757200
L183148628 182900057
L183148628 183042914
L182434342 183185771
" />
<path d="M183577200 182685771
L184148628 182685771
" />
<path d="M183791485 182185771
L183791485 183471485
L183862914 183614342
L184005771 183685771
L184148628 183685771
" />
<path d="M184648628 183542914
L184720057 183614342
L184648628 183685771
L184577200 183614342
L184648628 183542914
L184648628 183685771
" />
<path d="M184648628 182757200
L184720057 182828628
L184648628 182900057
L184577200 182828628
L184648628 182757200
L184648628 182900057
" />
</g></g>
<g style="fill:#000000; fill-opacity:0.0; 
stroke:#000000; stroke-width:21200.000000; stroke-opacity:1; 
stroke-linecap:round; stroke-linejoin:round;">
</g>
<g style="fill:#000000; fill-opacity:0.0; 
stroke:#000000; stroke-width:300000.000000; stroke-opacity:1; 
stroke-linecap:round; stroke-linejoin:round;">
<text x="178002200.000000" y="180757200.000000"
textLength="150000.000000" font-size="2000000.000000" lengthAdjust="spacingAndGlyphs"
text-anchor="start" opacity="0"></text>
<g class="stroked-text"><desc></desc>
</g></g>
<g style="fill:#000000; fill-opacity:0.0; 
stroke:#000000; stroke-width:21200.000000; stroke-opacity:1; 
stroke-linecap:round; stroke-linejoin:round;">
</g>
<g style="fill:#000000; fill-opacity:0.0; 
stroke:#000000; stroke-width:150000.000000; stroke-opacity:1; 
stroke-linecap:round; stroke-linejoin:round;">
<text x="178002200.000000" y="177757200.000000"
textLength="300000.000000" font-size="2000000.000000" lengthAdjust="spacingAndGlyphs"
text-anchor="start" opacity="0"></text>
<g class="stroked-text"><desc></desc>
</g></g>
<g style="fill:#000000; fill-opacity:0.0; 
stroke:#000000; stroke-width:21200.000000; stroke-opacity:1; 
stroke-linecap:round; stroke-linejoin:round;">
</g>
<g style="fill:#000000; fill-opacity:0.0; 
stroke:#000000; stroke-width:150000.000000; stroke-opacity:1; 
stroke-linecap:round; stroke-linejoin:round;">
<text x="178002200.000000" y="174757200.000000"
textLength="150000.000000" font-size="2000000.000000" lengthAdjust="spacingAndGlyphs"
text-anchor="start" opacity="0"></text>
<g class="stroked-text"><desc></desc>
</g></g>
<g style="fill:#000000; fill-opacity:0.0; 
stroke:#000000; stroke-width:21200.000000; stroke-opacity:1; 
stroke-linecap:round; stroke-linejoin:round;">
</g>
<g style="fill:#000000; fill-opacity:0.0; 
stroke:#000000; stroke-width:150000.000000; stroke-opacity:1; 
stroke-linecap:round; stroke-linejoin:round;">
<text x="178002200.000000" y="171757200.000000"
textLength="150000.000000" font-size="2000000.000000" lengthAdjust="spacingAndGlyphs"
text-anchor="start" opacity="0"></text>
<g class="stroked-text"><desc></desc>
</g></g>
<g style="fill:#000000; fill-opacity:0.0; 
stroke:#000000; stroke-width:21200.000000; stroke-opacity:1; 
stroke-linecap:round; stroke-linejoin:round;">
</g>
<g style="fill:#000000; fill-opacity:0.0; 
stroke:#000000; stroke-width:150000.000000; stroke-opacity:1; 
stroke-linecap:round; stroke-linejoin:round;">
<text x="178002200.000000" y="168757200.000000"
textLength="150000.000000" font-size="2000000.000000" lengthAdjust="spacingAndGlyphs"
text-anchor="start" opacity="0"></text>
<g class="stroked-text"><desc></desc>
</g></g>
<g style="fill:#000000; fill-opacity:0.0; 
stroke:#000000; stroke-width:21200.000000; stroke-opacity:1; 
stroke-linecap:round; stroke-linejoin:round;">
</g>
<g style="fill:#000000; fill-opacity:0.0; 
stroke:#000000; stroke-width:150000.000000; stroke-opacity:1; 
stroke-linecap:round; stroke-linejoin:round;">
<path d="M197002200 191507200
L197002200 194507200
" />
</g>
<g style="fill:#000000; fill-opacity:0.0; 
stroke:#000000; stroke-width:21200.000000; stroke-opacity:1; 
stroke-linecap:round; stroke-linejoin:round;">
</g>
<g style="fill:#000000; fill-opacity:0.0; 
stroke:#000000; stroke-width:150000.000000; stroke-opacity:1; 
stroke-linecap:round; stroke-linejoin:round;">
<path d="M261002200 191507200
L261002200 198007200
" />
</g>
<g style="fill:#F2EDA1; fill-opacity:0.0; 
stroke:#F2EDA1; stroke-width:150000.000000; stroke-opacity:1; 
stroke-linecap:round; stroke-linejoin:round;">
</g>
<g style="fill:#F2EDA1; fill-opacity:0.0; 
stroke:#F2EDA1; stroke-width:100000.000000; stroke-opacity:1; 
stroke-linecap:round; stroke-linejoin:round;">
<text x="83693000.000000" y="94165500.000000"
textLength="3959524.000000" font-size="666666.000000" lengthAdjust="spacingAndGlyphs"
text-anchor="start" opacity="0">1-2 P_EN</text>
<g class="stroked-text"><desc>1-2 P_EN</desc>
<path d="M84138952 94141690
L83853238 94141690
" />
<path d="M83996095 94141690
L83996095 93641690
L83948476 93713119
L83900857 93760738
L83853238 93784547
" />
<path d="M84353238 93951214
L84734190 93951214
" />
<path d="M84948476 93689309
L84972285 93665500
L85019904 93641690
L85138952 93641690
L85186571 93665500
L85210380 93689309
L85234190 93736928
L85234190 93784547
L85210380 93855976
L84924666 94141690
L85234190 94141690
" />
<path d="M85829428 94141690
L85829428 93641690
L86019904 93641690
L86067523 93665500
L86091333 93689309
L86115142 93736928
L86115142 93808357
L86091333 93855976
L86067523 93879785
L86019904 93903595
L85829428 93903595
" />
<path d="M86210380 94189309
L86591333 94189309
" />
<path d="M86710380 93879785
L86877047 93879785
" />
<path d="M86948476 94141690
L86710380 94141690
L86710380 93641690
L86948476 93641690
" />
<path d="M87162761 94141690
L87162761 93641690
L87448476 94141690
L87448476 93641690
" />
</g><text x="83693000.000000" y="94970500.000000"
textLength="1844286.000000" font-size="666666.000000" lengthAdjust="spacingAndGlyphs"
text-anchor="start" opacity="0">..or..</text>
<g class="stroked-text"><desc>..or..</desc>
<path d="M83877047 94899071
L83900857 94922880
L83877047 94946690
L83853238 94922880
L83877047 94899071
L83877047 94946690
" />
<path d="M84115142 94899071
L84138952 94922880
L84115142 94946690
L84091333 94922880
L84115142 94899071
L84115142 94946690
" />
<path d="M84424666 94946690
L84377047 94922880
L84353238 94899071
L84329428 94851452
L84329428 94708595
L84353238 94660976
L84377047 94637166
L84424666 94613357
L84496095 94613357
L84543714 94637166
L84567523 94660976
L84591333 94708595
L84591333 94851452
L84567523 94899071
L84543714 94922880
L84496095 94946690
L84424666 94946690
" />
<path d="M84805619 94946690
L84805619 94613357
" />
<path d="M84805619 94708595
L84829428 94660976
L84853238 94637166
L84900857 94613357
L84948476 94613357
" />
<path d="M85115142 94899071
L85138952 94922880
L85115142 94946690
L85091333 94922880
L85115142 94899071
L85115142 94946690
" />
<path d="M85353238 94899071
L85377047 94922880
L85353238 94946690
L85329428 94922880
L85353238 94899071
L85353238 94946690
" />
</g><text x="83693000.000000" y="95775500.000000"
textLength="4249048.000000" font-size="666666.000000" lengthAdjust="spacingAndGlyphs"
text-anchor="start" opacity="0">2=12v EXT</text>
<g class="stroked-text"><desc>2=12v EXT</desc>
<path d="M83853238 95299309
L83877047 95275500
L83924666 95251690
L84043714 95251690
L84091333 95275500
L84115142 95299309
L84138952 95346928
L84138952 95394547
L84115142 95465976
L83829428 95751690
L84138952 95751690
" />
<path d="M84353238 95489785
L84734190 95489785
" />
<path d="M84734190 95632642
L84353238 95632642
" />
<path d="M85234190 95751690
L84948476 95751690
" />
<path d="M85091333 95751690
L85091333 95251690
L85043714 95323119
L84996095 95370738
L84948476 95394547
" />
<path d="M85424666 95299309
L85448476 95275500
L85496095 95251690
L85615142 95251690
L85662761 95275500
L85686571 95299309
L85710380 95346928
L85710380 95394547
L85686571 95465976
L85400857 95751690
L85710380 95751690
" />
<path d="M85877047 95418357
L85996095 95751690
L86115142 95418357
" />
<path d="M86686571 95489785
L86853238 95489785
" />
<path d="M86924666 95751690
L86686571 95751690
L86686571 95251690
L86924666 95251690
" />
<path d="M87091333 95251690
L87424666 95751690
" />
<path d="M87424666 95251690
L87091333 95751690
" />
<path d="M87543714 95251690
L87829428 95251690
" />
<path d="M87686571 95751690
L87686571 95251690
" />
</g><text x="83693000.000000" y="96580500.000000"
textLength="2749048.000000" font-size="666666.000000" lengthAdjust="spacingAndGlyphs"
text-anchor="start" opacity="0">3=GND</text>
<g class="stroked-text"><desc>3=GND</desc>
<path d="M83829428 96056690
L84138952 96056690
L83972285 96247166
L84043714 96247166
L84091333 96270976
L84115142 96294785
L84138952 96342404
L84138952 96461452
L84115142 96509071
L84091333 96532880
L84043714 96556690
L83900857 96556690
L83853238 96532880
L83829428 96509071
" />
<path d="M84353238 96294785
L84734190 96294785
" />
<path d="M84734190 96437642
L84353238 96437642
" />
<path d="M85234190 96080500
L85186571 96056690
L85115142 96056690
L85043714 96080500
L84996095 96128119
L84972285 96175738
L84948476 96270976
L84948476 96342404
L84972285 96437642
L84996095 96485261
L85043714 96532880
L85115142 96556690
L85162761 96556690
L85234190 96532880
L85258000 96509071
L85258000 96342404
L85162761 96342404
" />
<path d="M85472285 96556690
L85472285 96056690
L85758000 96556690
L85758000 96056690
" />
<path d="M85996095 96556690
L85996095 96056690
L86115142 96056690
L86186571 96080500
L86234190 96128119
L86258000 96175738
L86281809 96270976
L86281809 96342404
L86258000 96437642
L86234190 96485261
L86186571 96532880
L86115142 96556690
L85996095 96556690
" />
</g><text x="73279000.000000" y="91012000.000000"
textLength="2868095.000000" font-size="666666.000000" lengthAdjust="spacingAndGlyphs"
text-anchor="start" opacity="0">Closed:</text>
<g class="stroked-text"><desc>Closed:</desc>
<path d="M73748761 90940571
L73724952 90964380
L73653523 90988190
L73605904 90988190
L73534476 90964380
L73486857 90916761
L73463047 90869142
L73439238 90773904
L73439238 90702476
L73463047 90607238
L73486857 90559619
L73534476 90512000
L73605904 90488190
L73653523 90488190
L73724952 90512000
L73748761 90535809
" />
<path d="M74034476 90988190
L73986857 90964380
L73963047 90916761
L73963047 90488190
" />
<path d="M74296380 90988190
L74248761 90964380
L74224952 90940571
L74201142 90892952
L74201142 90750095
L74224952 90702476
L74248761 90678666
L74296380 90654857
L74367809 90654857
L74415428 90678666
L74439238 90702476
L74463047 90750095
L74463047 90892952
L74439238 90940571
L74415428 90964380
L74367809 90988190
L74296380 90988190
" />
<path d="M74653523 90964380
L74701142 90988190
L74796380 90988190
L74844000 90964380
L74867809 90916761
L74867809 90892952
L74844000 90845333
L74796380 90821523
L74724952 90821523
L74677333 90797714
L74653523 90750095
L74653523 90726285
L74677333 90678666
L74724952 90654857
L74796380 90654857
L74844000 90678666
" />
<path d="M75272571 90964380
L75224952 90988190
L75129714 90988190
L75082095 90964380
L75058285 90916761
L75058285 90726285
L75082095 90678666
L75129714 90654857
L75224952 90654857
L75272571 90678666
L75296380 90726285
L75296380 90773904
L75058285 90821523
" />
<path d="M75724952 90988190
L75724952 90488190
" />
<path d="M75724952 90964380
L75677333 90988190
L75582095 90988190
L75534476 90964380
L75510666 90940571
L75486857 90892952
L75486857 90750095
L75510666 90702476
L75534476 90678666
L75582095 90654857
L75677333 90654857
L75724952 90678666
" />
<path d="M75963047 90940571
L75986857 90964380
L75963047 90988190
L75939238 90964380
L75963047 90940571
L75963047 90988190
" />
<path d="M75963047 90678666
L75986857 90702476
L75963047 90726285
L75939238 90702476
L75963047 90678666
L75963047 90726285
" />
</g><text x="73279000.000000" y="91817000.000000"
textLength="5296667.000000" font-size="666666.000000" lengthAdjust="spacingAndGlyphs"
text-anchor="start" opacity="0"> Enable +5V </text>
<g class="stroked-text"><desc> Enable +5V </desc>
<path d="M73844000 91531285
L74010666 91531285
" />
<path d="M74082095 91793190
L73844000 91793190
L73844000 91293190
L74082095 91293190
" />
<path d="M74296380 91459857
L74296380 91793190
" />
<path d="M74296380 91507476
L74320190 91483666
L74367809 91459857
L74439238 91459857
L74486857 91483666
L74510666 91531285
L74510666 91793190
" />
<path d="M74963047 91793190
L74963047 91531285
L74939238 91483666
L74891619 91459857
L74796380 91459857
L74748761 91483666
" />
<path d="M74963047 91769380
L74915428 91793190
L74796380 91793190
L74748761 91769380
L74724952 91721761
L74724952 91674142
L74748761 91626523
L74796380 91602714
L74915428 91602714
L74963047 91578904
" />
<path d="M75201142 91793190
L75201142 91293190
" />
<path d="M75201142 91483666
L75248761 91459857
L75344000 91459857
L75391619 91483666
L75415428 91507476
L75439238 91555095
L75439238 91697952
L75415428 91745571
L75391619 91769380
L75344000 91793190
L75248761 91793190
L75201142 91769380
" />
<path d="M75724952 91793190
L75677333 91769380
L75653523 91721761
L75653523 91293190
" />
<path d="M76105904 91769380
L76058285 91793190
L75963047 91793190
L75915428 91769380
L75891619 91721761
L75891619 91531285
L75915428 91483666
L75963047 91459857
L76058285 91459857
L76105904 91483666
L76129714 91531285
L76129714 91578904
L75891619 91626523
" />
<path d="M76724952 91602714
L77105904 91602714
" />
<path d="M76915428 91793190
L76915428 91412238
" />
<path d="M77582095 91293190
L77344000 91293190
L77320190 91531285
L77344000 91507476
L77391619 91483666
L77510666 91483666
L77558285 91507476
L77582095 91531285
L77605904 91578904
L77605904 91697952
L77582095 91745571
L77558285 91769380
L77510666 91793190
L77391619 91793190
L77344000 91769380
L77320190 91745571
" />
<path d="M77748761 91293190
L77915428 91793190
L78082095 91293190
" />
</g><text x="73279000.000000" y="92622000.000000"
textLength="5153810.000000" font-size="666666.000000" lengthAdjust="spacingAndGlyphs"
text-anchor="start" opacity="0"> supply to Pi</text>
<g class="stroked-text"><desc> supply to Pi</desc>
<path d="M73820190 92574380
L73867809 92598190
L73963047 92598190
L74010666 92574380
L74034476 92526761
L74034476 92502952
L74010666 92455333
L73963047 92431523
L73891619 92431523
L73844000 92407714
L73820190 92360095
L73820190 92336285
L73844000 92288666
L73891619 92264857
L73963047 92264857
L74010666 92288666
" />
<path d="M74463047 92264857
L74463047 92598190
" />
<path d="M74248761 92264857
L74248761 92526761
L74272571 92574380
L74320190 92598190
L74391619 92598190
L74439238 92574380
L74463047 92550571
" />
<path d="M74701142 92264857
L74701142 92764857
" />
<path d="M74701142 92288666
L74748761 92264857
L74844000 92264857
L74891619 92288666
L74915428 92312476
L74939238 92360095
L74939238 92502952
L74915428 92550571
L74891619 92574380
L74844000 92598190
L74748761 92598190
L74701142 92574380
" />
<path d="M75153523 92264857
L75153523 92764857
" />
<path d="M75153523 92288666
L75201142 92264857
L75296380 92264857
L75344000 92288666
L75367809 92312476
L75391619 92360095
L75391619 92502952
L75367809 92550571
L75344000 92574380
L75296380 92598190
L75201142 92598190
L75153523 92574380
" />
<path d="M75677333 92598190
L75629714 92574380
L75605904 92526761
L75605904 92098190
" />
<path d="M75820190 92264857
L75939238 92598190
" />
<path d="M76058285 92264857
L75939238 92598190
L75891619 92717238
L75867809 92741047
L75820190 92764857
" />
<path d="M76558285 92264857
L76748761 92264857
" />
<path d="M76629714 92098190
L76629714 92526761
L76653523 92574380
L76701142 92598190
L76748761 92598190
" />
<path d="M76986857 92598190
L76939238 92574380
L76915428 92550571
L76891619 92502952
L76891619 92360095
L76915428 92312476
L76939238 92288666
L76986857 92264857
L77058285 92264857
L77105904 92288666
L77129714 92312476
L77153523 92360095
L77153523 92502952
L77129714 92550571
L77105904 92574380
L77058285 92598190
L76986857 92598190
" />
<path d="M77748761 92598190
L77748761 92098190
L77939238 92098190
L77986857 92122000
L78010666 92145809
L78034476 92193428
L78034476 92264857
L78010666 92312476
L77986857 92336285
L77939238 92360095
L77748761 92360095
" />
<path d="M78248761 92598190
L78248761 92264857
" />
<path d="M78248761 92098190
L78224952 92122000
L78248761 92145809
L78272571 92122000
L78248761 92098190
L78248761 92145809
" />
</g><g transform="rotate(-90.000000 107712000.000000 94361000.000000)">
<text x="107712000.000000" y="94711000.000000"
textLength="8563333.000000" font-size="933333.000000" lengthAdjust="spacingAndGlyphs"
text-anchor="middle" opacity="0">AA Pi Hat revA0</text>
</g>
<g class="stroked-text"><desc>AA Pi Hat revA0</desc>
<path d="M107828666 98444333
L107828666 98111000
" />
<path d="M108028666 98511000
L107328666 98277666
L108028666 98044333
" />
<path d="M107828666 97844333
L107828666 97511000
" />
<path d="M108028666 97911000
L107328666 97677666
L108028666 97444333
" />
<path d="M108028666 96677666
L107328666 96677666
L107328666 96411000
L107362000 96344333
L107395333 96311000
L107462000 96277666
L107562000 96277666
L107628666 96311000
L107662000 96344333
L107695333 96411000
L107695333 96677666
" />
<path d="M108028666 95977666
L107562000 95977666
" />
<path d="M107328666 95977666
L107362000 96011000
L107395333 95977666
L107362000 95944333
L107328666 95977666
L107395333 95977666
" />
<path d="M108028666 95111000
L107328666 95111000
" />
<path d="M107662000 95111000
L107662000 94711000
" />
<path d="M108028666 94711000
L107328666 94711000
" />
<path d="M108028666 94077666
L107662000 94077666
L107595333 94111000
L107562000 94177666
L107562000 94311000
L107595333 94377666
" />
<path d="M107995333 94077666
L108028666 94144333
L108028666 94311000
L107995333 94377666
L107928666 94411000
L107862000 94411000
L107795333 94377666
L107762000 94311000
L107762000 94144333
L107728666 94077666
" />
<path d="M107562000 93844333
L107562000 93577666
" />
<path d="M107328666 93744333
L107928666 93744333
L107995333 93711000
L108028666 93644333
L108028666 93577666
" />
<path d="M108028666 92811000
L107562000 92811000
" />
<path d="M107695333 92811000
L107628666 92777666
L107595333 92744333
L107562000 92677666
L107562000 92611000
" />
<path d="M107995333 92111000
L108028666 92177666
L108028666 92311000
L107995333 92377666
L107928666 92411000
L107662000 92411000
L107595333 92377666
L107562000 92311000
L107562000 92177666
L107595333 92111000
L107662000 92077666
L107728666 92077666
L107795333 92411000
" />
<path d="M107562000 91844333
L108028666 91677666
L107562000 91511000
" />
<path d="M107828666 91277666
L107828666 90944333
" />
<path d="M108028666 91344333
L107328666 91111000
L108028666 90877666
" />
<path d="M107328666 90511000
L107328666 90444333
L107362000 90377666
L107395333 90344333
L107462000 90311000
L107595333 90277666
L107762000 90277666
L107895333 90311000
L107962000 90344333
L107995333 90377666
L108028666 90444333
L108028666 90511000
L107995333 90577666
L107962000 90611000
L107895333 90644333
L107762000 90677666
L107595333 90677666
L107462000 90644333
L107395333 90611000
L107362000 90577666
L107328666 90511000
" />
</g><g transform="rotate(-90.000000 108839000.000000 94361000.000000)">
<text x="108839000.000000" y="94711000.000000"
textLength="11563333.000000" font-size="933333.000000" lengthAdjust="spacingAndGlyphs"
text-anchor="middle" opacity="0">(c) 2022-24 @gundy</text>
</g>
<g class="stroked-text"><desc>(c) 2022-24 @gundy</desc>
<path d="M109422333 99711000
L109389000 99744333
L109289000 99811000
L109222333 99844333
L109122333 99877666
L108955666 99911000
L108822333 99911000
L108655666 99877666
L108555666 99844333
L108489000 99811000
L108389000 99744333
L108355666 99711000
" />
<path d="M109122333 99144333
L109155666 99211000
L109155666 99344333
L109122333 99411000
L109089000 99444333
L109022333 99477666
L108822333 99477666
L108755666 99444333
L108722333 99411000
L108689000 99344333
L108689000 99211000
L108722333 99144333
" />
<path d="M109422333 98911000
L109389000 98877666
L109289000 98811000
L109222333 98777666
L109122333 98744333
L108955666 98711000
L108822333 98711000
L108655666 98744333
L108555666 98777666
L108489000 98811000
L108389000 98877666
L108355666 98911000
" />
<path d="M108522333 97877666
L108489000 97844333
L108455666 97777666
L108455666 97611000
L108489000 97544333
L108522333 97511000
L108589000 97477666
L108655666 97477666
L108755666 97511000
L109155666 97911000
L109155666 97477666
" />
<path d="M108455666 97044333
L108455666 96977666
L108489000 96911000
L108522333 96877666
L108589000 96844333
L108722333 96811000
L108889000 96811000
L109022333 96844333
L109089000 96877666
L109122333 96911000
L109155666 96977666
L109155666 97044333
L109122333 97111000
L109089000 97144333
L109022333 97177666
L108889000 97211000
L108722333 97211000
L108589000 97177666
L108522333 97144333
L108489000 97111000
L108455666 97044333
" />
<path d="M108522333 96544333
L108489000 96511000
L108455666 96444333
L108455666 96277666
L108489000 96211000
L108522333 96177666
L108589000 96144333
L108655666 96144333
L108755666 96177666
L109155666 96577666
L109155666 96144333
" />
<path d="M108522333 95877666
L108489000 95844333
L108455666 95777666
L108455666 95611000
L108489000 95544333
L108522333 95511000
L108589000 95477666
L108655666 95477666
L108755666 95511000
L109155666 95911000
L109155666 95477666
" />
<path d="M108889000 95177666
L108889000 94644333
" />
<path d="M108522333 94344333
L108489000 94311000
L108455666 94244333
L108455666 94077666
L108489000 94011000
L108522333 93977666
L108589000 93944333
L108655666 93944333
L108755666 93977666
L109155666 94377666
L109155666 93944333
" />
<path d="M108689000 93344333
L109155666 93344333
" />
<path d="M108422333 93511000
L108922333 93677666
L108922333 93244333
" />
<path d="M108822333 92011000
L108789000 92044333
L108755666 92111000
L108755666 92177666
L108789000 92244333
L108822333 92277666
L108889000 92311000
L108955666 92311000
L109022333 92277666
L109055666 92244333
L109089000 92177666
L109089000 92111000
L109055666 92044333
L109022333 92011000
" />
<path d="M108755666 92011000
L109022333 92011000
L109055666 91977666
L109055666 91944333
L109022333 91877666
L108955666 91844333
L108789000 91844333
L108689000 91911000
L108622333 92011000
L108589000 92144333
L108622333 92277666
L108689000 92377666
L108789000 92444333
L108922333 92477666
L109055666 92444333
L109155666 92377666
L109222333 92277666
L109255666 92144333
L109222333 92011000
L109155666 91911000
" />
<path d="M108689000 91244333
L109255666 91244333
L109322333 91277666
L109355666 91311000
L109389000 91377666
L109389000 91477666
L109355666 91544333
" />
<path d="M109122333 91244333
L109155666 91311000
L109155666 91444333
L109122333 91511000
L109089000 91544333
L109022333 91577666
L108822333 91577666
L108755666 91544333
L108722333 91511000
L108689000 91444333
L108689000 91311000
L108722333 91244333
" />
<path d="M108689000 90611000
L109155666 90611000
" />
<path d="M108689000 90911000
L109055666 90911000
L109122333 90877666
L109155666 90811000
L109155666 90711000
L109122333 90644333
L109089000 90611000
" />
<path d="M108689000 90277666
L109155666 90277666
" />
<path d="M108755666 90277666
L108722333 90244333
L108689000 90177666
L108689000 90077666
L108722333 90011000
L108789000 89977666
L109155666 89977666
" />
<path d="M109155666 89344333
L108455666 89344333
" />
<path d="M109122333 89344333
L109155666 89411000
L109155666 89544333
L109122333 89611000
L109089000 89644333
L109022333 89677666
L108822333 89677666
L108755666 89644333
L108722333 89611000
L108689000 89544333
L108689000 89411000
L108722333 89344333
" />
<path d="M108689000 89077666
L109155666 88911000
" />
<path d="M108689000 88744333
L109155666 88911000
L109322333 88977666
L109355666 89011000
L109389000 89077666
" />
</g><g transform="rotate(-90.000000 109966000.000000 94361000.000000)">
<text x="109966000.000000" y="94711000.000000"
textLength="9696667.000000" font-size="933333.000000" lengthAdjust="spacingAndGlyphs"
text-anchor="middle" opacity="0">github.com/gundy</text>
</g>
<g class="stroked-text"><desc>github.com/gundy</desc>
<path d="M109816000 98677666
L110382666 98677666
L110449333 98711000
L110482666 98744333
L110516000 98811000
L110516000 98911000
L110482666 98977666
" />
<path d="M110249333 98677666
L110282666 98744333
L110282666 98877666
L110249333 98944333
L110216000 98977666
L110149333 99011000
L109949333 99011000
L109882666 98977666
L109849333 98944333
L109816000 98877666
L109816000 98744333
L109849333 98677666
" />
<path d="M110282666 98344333
L109816000 98344333
" />
<path d="M109582666 98344333
L109616000 98377666
L109649333 98344333
L109616000 98311000
L109582666 98344333
L109649333 98344333
" />
<path d="M109816000 98111000
L109816000 97844333
" />
<path d="M109582666 98011000
L110182666 98011000
L110249333 97977666
L110282666 97911000
L110282666 97844333
" />
<path d="M110282666 97611000
L109582666 97611000
" />
<path d="M110282666 97311000
L109916000 97311000
L109849333 97344333
L109816000 97411000
L109816000 97511000
L109849333 97577666
L109882666 97611000
" />
<path d="M109816000 96677666
L110282666 96677666
" />
<path d="M109816000 96977666
L110182666 96977666
L110249333 96944333
L110282666 96877666
L110282666 96777666
L110249333 96711000
L110216000 96677666
" />
<path d="M110282666 96344333
L109582666 96344333
" />
<path d="M109849333 96344333
L109816000 96277666
L109816000 96144333
L109849333 96077666
L109882666 96044333
L109949333 96011000
L110149333 96011000
L110216000 96044333
L110249333 96077666
L110282666 96144333
L110282666 96277666
L110249333 96344333
" />
<path d="M110216000 95711000
L110249333 95677666
L110282666 95711000
L110249333 95744333
L110216000 95711000
L110282666 95711000
" />
<path d="M110249333 95077666
L110282666 95144333
L110282666 95277666
L110249333 95344333
L110216000 95377666
L110149333 95411000
L109949333 95411000
L109882666 95377666
L109849333 95344333
L109816000 95277666
L109816000 95144333
L109849333 95077666
" />
<path d="M110282666 94677666
L110249333 94744333
L110216000 94777666
L110149333 94811000
L109949333 94811000
L109882666 94777666
L109849333 94744333
L109816000 94677666
L109816000 94577666
L109849333 94511000
L109882666 94477666
L109949333 94444333
L110149333 94444333
L110216000 94477666
L110249333 94511000
L110282666 94577666
L110282666 94677666
" />
<path d="M110282666 94144333
L109816000 94144333
" />
<path d="M109882666 94144333
L109849333 94111000
L109816000 94044333
L109816000 93944333
L109849333 93877666
L109916000 93844333
L110282666 93844333
" />
<path d="M109916000 93844333
L109849333 93811000
L109816000 93744333
L109816000 93644333
L109849333 93577666
L109916000 93544333
L110282666 93544333
" />
<path d="M109549333 92711000
L110449333 93311000
" />
<path d="M109816000 92177666
L110382666 92177666
L110449333 92211000
L110482666 92244333
L110516000 92311000
L110516000 92411000
L110482666 92477666
" />
<path d="M110249333 92177666
L110282666 92244333
L110282666 92377666
L110249333 92444333
L110216000 92477666
L110149333 92511000
L109949333 92511000
L109882666 92477666
L109849333 92444333
L109816000 92377666
L109816000 92244333
L109849333 92177666
" />
<path d="M109816000 91544333
L110282666 91544333
" />
<path d="M109816000 91844333
L110182666 91844333
L110249333 91811000
L110282666 91744333
L110282666 91644333
L110249333 91577666
L110216000 91544333
" />
<path d="M109816000 91211000
L110282666 91211000
" />
<path d="M109882666 91211000
L109849333 91177666
L109816000 91111000
L109816000 91011000
L109849333 90944333
L109916000 90911000
L110282666 90911000
" />
<path d="M110282666 90277666
L109582666 90277666
" />
<path d="M110249333 90277666
L110282666 90344333
L110282666 90477666
L110249333 90544333
L110216000 90577666
L110149333 90611000
L109949333 90611000
L109882666 90577666
L109849333 90544333
L109816000 90477666
L109816000 90344333
L109849333 90277666
" />
<path d="M109816000 90011000
L110282666 89844333
" />
<path d="M109816000 89677666
L110282666 89844333
L110449333 89911000
L110482666 89944333
L110516000 90011000
" />
</g></g>
<g style="fill:#F2EDA1; fill-opacity:0.0; 
stroke:#F2EDA1; stroke-width:150000.000000; stroke-opacity:1; 
stroke-linecap:round; stroke-linejoin:round;">
<text x="84836000.000000" y="99516000.000000"
textLength="2844286.000000" font-size="1333333.000000" lengthAdjust="spacingAndGlyphs"
text-anchor="middle" opacity="0">JP1</text>
<g class="stroked-text"><desc>JP1</desc>
<path d="M84002666 98468380
L84002666 99182666
L83955047 99325523
L83859809 99420761
L83716952 99468380
L83621714 99468380
" />
<path d="M84478857 99468380
L84478857 98468380
L84859809 98468380
L84955047 98516000
L85002666 98563619
L85050285 98658857
L85050285 98801714
L85002666 98896952
L84955047 98944571
L84859809 98992190
L84478857 98992190
" />
<path d="M86002666 99468380
L85431238 99468380
" />
<path d="M85716952 99468380
L85716952 98468380
L85621714 98611238
L85526476 98706476
L85431238 98754095
" />
</g><text x="65151000.000000" y="106291000.000000"
textLength="2147381.000000" font-size="1333333.000000" lengthAdjust="spacingAndGlyphs"
text-anchor="middle" opacity="0">D1</text>
<g class="stroked-text"><desc>D1</desc>
<path d="M64412904 106243380
L64412904 105243380
L64651000 105243380
L64793857 105291000
L64889095 105386238
L64936714 105481476
L64984333 105671952
L64984333 105814809
L64936714 106005285
L64889095 106100523
L64793857 106195761
L64651000 106243380
L64412904 106243380
" />
<path d="M65936714 106243380
L65365285 106243380
" />
<path d="M65651000 106243380
L65651000 105243380
L65555761 105386238
L65460523 105481476
L65365285 105529095
" />
</g><text x="59690000.000000" y="94099000.000000"
textLength="2147381.000000" font-size="1333333.000000" lengthAdjust="spacingAndGlyphs"
text-anchor="middle" opacity="0">C5</text>
<g class="stroked-text"><desc>C5</desc>
<path d="M59523333 93956142
L59475714 94003761
L59332857 94051380
L59237619 94051380
L59094761 94003761
L58999523 93908523
L58951904 93813285
L58904285 93622809
L58904285 93479952
L58951904 93289476
L58999523 93194238
L59094761 93099000
L59237619 93051380
L59332857 93051380
L59475714 93099000
L59523333 93146619
" />
<path d="M60428095 93051380
L59951904 93051380
L59904285 93527571
L59951904 93479952
L60047142 93432333
L60285238 93432333
L60380476 93479952
L60428095 93527571
L60475714 93622809
L60475714 93860904
L60428095 93956142
L60380476 94003761
L60285238 94051380
L60047142 94051380
L59951904 94003761
L59904285 93956142
" />
</g><text x="50038000.000000" y="90543000.000000"
textLength="2147381.000000" font-size="1333333.000000" lengthAdjust="spacingAndGlyphs"
text-anchor="middle" opacity="0">C4</text>
<g class="stroked-text"><desc>C4</desc>
<path d="M49871333 90400142
L49823714 90447761
L49680857 90495380
L49585619 90495380
L49442761 90447761
L49347523 90352523
L49299904 90257285
L49252285 90066809
L49252285 89923952
L49299904 89733476
L49347523 89638238
L49442761 89543000
L49585619 89495380
L49680857 89495380
L49823714 89543000
L49871333 89590619
" />
<path d="M50728476 89828714
L50728476 90495380
" />
<path d="M50490380 89447761
L50252285 90162047
L50871333 90162047
" />
</g><text x="65913000.000000" y="88130000.000000"
textLength="2147381.000000" font-size="1333333.000000" lengthAdjust="spacingAndGlyphs"
text-anchor="middle" opacity="0">C7</text>
<g class="stroked-text"><desc>C7</desc>
<path d="M65746333 87987142
L65698714 88034761
L65555857 88082380
L65460619 88082380
L65317761 88034761
L65222523 87939523
L65174904 87844285
L65127285 87653809
L65127285 87510952
L65174904 87320476
L65222523 87225238
L65317761 87130000
L65460619 87082380
L65555857 87082380
L65698714 87130000
L65746333 87177619
" />
<path d="M66079666 87082380
L66746333 87082380
L66317761 88082380
" />
</g><g transform="rotate(-90.000000 87122000.000000 88011000.000000)">
<text x="87122000.000000" y="88511000.000000"
textLength="2147381.000000" font-size="1333333.000000" lengthAdjust="spacingAndGlyphs"
text-anchor="middle" opacity="0">R6</text>
</g>
<g class="stroked-text"><desc>R6</desc>
<path d="M87574380 88177666
L87098190 88511000
" />
<path d="M87574380 88749095
L86574380 88749095
L86574380 88368142
L86622000 88272904
L86669619 88225285
L86764857 88177666
L86907714 88177666
L87002952 88225285
L87050571 88272904
L87098190 88368142
L87098190 88749095
" />
<path d="M86574380 87320523
L86574380 87511000
L86622000 87606238
L86669619 87653857
L86812476 87749095
L87002952 87796714
L87383904 87796714
L87479142 87749095
L87526761 87701476
L87574380 87606238
L87574380 87415761
L87526761 87320523
L87479142 87272904
L87383904 87225285
L87145809 87225285
L87050571 87272904
L87002952 87320523
L86955333 87415761
L86955333 87606238
L87002952 87701476
L87050571 87749095
L87145809 87796714
" />
</g><g transform="rotate(-90.000000 69723000.000000 102489000.000000)">
<text x="69723000.000000" y="102989000.000000"
textLength="1956905.000000" font-size="1333333.000000" lengthAdjust="spacingAndGlyphs"
text-anchor="middle" opacity="0">L1</text>
</g>
<g class="stroked-text"><desc>L1</desc>
<path d="M70175380 102655666
L70175380 103131857
L69175380 103131857
" />
<path d="M70175380 101798523
L70175380 102369952
" />
<path d="M70175380 102084238
L69175380 102084238
L69318238 102179476
L69413476 102274714
L69461095 102369952
" />
</g><text x="77597000.000000" y="86860000.000000"
textLength="2909286.000000" font-size="1333333.000000" lengthAdjust="spacingAndGlyphs"
text-anchor="middle" opacity="0">JP2</text>
<g class="stroked-text"><desc>JP2</desc>
<path d="M76763666 85812380
L76763666 86526666
L76716047 86669523
L76620809 86764761
L76477952 86812380
L76382714 86812380
" />
<path d="M77239857 86812380
L77239857 85812380
L77620809 85812380
L77716047 85860000
L77763666 85907619
L77811285 86002857
L77811285 86145714
L77763666 86240952
L77716047 86288571
L77620809 86336190
L77239857 86336190
" />
<path d="M78192238 85907619
L78239857 85860000
L78335095 85812380
L78573190 85812380
L78668428 85860000
L78716047 85907619
L78763666 86002857
L78763666 86098095
L78716047 86240952
L78144619 86812380
L78763666 86812380
" />
</g><text x="55880000.000000" y="106037000.000000"
textLength="2147381.000000" font-size="1333333.000000" lengthAdjust="spacingAndGlyphs"
text-anchor="middle" opacity="0">R7</text>
<g class="stroked-text"><desc>R7</desc>
<path d="M55713333 105989380
L55380000 105513190
" />
<path d="M55141904 105989380
L55141904 104989380
L55522857 104989380
L55618095 105037000
L55665714 105084619
L55713333 105179857
L55713333 105322714
L55665714 105417952
L55618095 105465571
L55522857 105513190
L55141904 105513190
" />
<path d="M56046666 104989380
L56713333 104989380
L56284761 105989380
" />
</g><g transform="rotate(-90.000000 49022000.000000 100838000.000000)">
<text x="49022000.000000" y="101338000.000000"
textLength="2147381.000000" font-size="1333333.000000" lengthAdjust="spacingAndGlyphs"
text-anchor="middle" opacity="0">R8</text>
</g>
<g class="stroked-text"><desc>R8</desc>
<path d="M49474380 101004666
L48998190 101338000
" />
<path d="M49474380 101576095
L48474380 101576095
L48474380 101195142
L48522000 101099904
L48569619 101052285
L48664857 101004666
L48807714 101004666
L48902952 101052285
L48950571 101099904
L48998190 101195142
L48998190 101576095
" />
<path d="M48902952 100433238
L48855333 100528476
L48807714 100576095
L48712476 100623714
L48664857 100623714
L48569619 100576095
L48522000 100528476
L48474380 100433238
L48474380 100242761
L48522000 100147523
L48569619 100099904
L48664857 100052285
L48712476 100052285
L48807714 100099904
L48855333 100147523
L48902952 100242761
L48902952 100433238
L48950571 100528476
L48998190 100576095
L49093428 100623714
L49283904 100623714
L49379142 100576095
L49426761 100528476
L49474380 100433238
L49474380 100242761
L49426761 100147523
L49379142 100099904
L49283904 100052285
L49093428 100052285
L48998190 100099904
L48950571 100147523
L48902952 100242761
" />
</g><g transform="rotate(-90.000000 87249000.000000 92329000.000000)">
<text x="87249000.000000" y="92829000.000000"
textLength="2147381.000000" font-size="1333333.000000" lengthAdjust="spacingAndGlyphs"
text-anchor="middle" opacity="0">R5</text>
</g>
<g class="stroked-text"><desc>R5</desc>
<path d="M87701380 92495666
L87225190 92829000
" />
<path d="M87701380 93067095
L86701380 93067095
L86701380 92686142
L86749000 92590904
L86796619 92543285
L86891857 92495666
L87034714 92495666
L87129952 92543285
L87177571 92590904
L87225190 92686142
L87225190 93067095
" />
<path d="M86701380 91590904
L86701380 92067095
L87177571 92114714
L87129952 92067095
L87082333 91971857
L87082333 91733761
L87129952 91638523
L87177571 91590904
L87272809 91543285
L87510904 91543285
L87606142 91590904
L87653761 91638523
L87701380 91733761
L87701380 91971857
L87653761 92067095
L87606142 92114714
" />
</g><g transform="rotate(-90.000000 106426000.000000 85979000.000000)">
<text x="106426000.000000" y="86479000.000000"
textLength="1909286.000000" font-size="1333333.000000" lengthAdjust="spacingAndGlyphs"
text-anchor="middle" opacity="0">J2</text>
</g>
<g class="stroked-text"><desc>J2</desc>
<path d="M105878380 86312333
L106592666 86312333
L106735523 86359952
L106830761 86455190
L106878380 86598047
L106878380 86693285
" />
<path d="M105973619 85883761
L105926000 85836142
L105878380 85740904
L105878380 85502809
L105926000 85407571
L105973619 85359952
L106068857 85312333
L106164095 85312333
L106306952 85359952
L106878380 85931380
L106878380 85312333
" />
</g><text x="70104000.000000" y="88041500.000000"
textLength="2147381.000000" font-size="1333333.000000" lengthAdjust="spacingAndGlyphs"
text-anchor="middle" opacity="0">C6</text>
<g class="stroked-text"><desc>C6</desc>
<path d="M69937333 87898642
L69889714 87946261
L69746857 87993880
L69651619 87993880
L69508761 87946261
L69413523 87851023
L69365904 87755785
L69318285 87565309
L69318285 87422452
L69365904 87231976
L69413523 87136738
L69508761 87041500
L69651619 86993880
L69746857 86993880
L69889714 87041500
L69937333 87089119
" />
<path d="M70794476 86993880
L70604000 86993880
L70508761 87041500
L70461142 87089119
L70365904 87231976
L70318285 87422452
L70318285 87803404
L70365904 87898642
L70413523 87946261
L70508761 87993880
L70699238 87993880
L70794476 87946261
L70842095 87898642
L70889714 87803404
L70889714 87565309
L70842095 87470071
L70794476 87422452
L70699238 87374833
L70508761 87374833
L70413523 87422452
L70365904 87470071
L70318285 87565309
" />
</g><text x="57150000.000000" y="101465000.000000"
textLength="2195000.000000" font-size="1333333.000000" lengthAdjust="spacingAndGlyphs"
text-anchor="middle" opacity="0">U4</text>
<g class="stroked-text"><desc>U4</desc>
<path d="M56388095 100417380
L56388095 101226904
L56435714 101322142
L56483333 101369761
L56578571 101417380
L56769047 101417380
L56864285 101369761
L56911904 101322142
L56959523 101226904
L56959523 100417380
" />
<path d="M57864285 100750714
L57864285 101417380
" />
<path d="M57626190 100369761
L57388095 101084047
L58007142 101084047
" />
</g><g transform="rotate(-90.000000 53555000.000000 82301000.000000)">
<text x="53555000.000000" y="82801000.000000"
textLength="1909286.000000" font-size="1333333.000000" lengthAdjust="spacingAndGlyphs"
text-anchor="middle" opacity="0">J1</text>
</g>
<g class="stroked-text"><desc>J1</desc>
<path d="M53007380 82634333
L53721666 82634333
L53864523 82681952
L53959761 82777190
L54007380 82920047
L54007380 83015285
" />
<path d="M54007380 81634333
L54007380 82205761
" />
<path d="M54007380 81920047
L53007380 81920047
L53150238 82015285
L53245476 82110523
L53293095 82205761
" />
</g></g>
<g style="fill:#F2EDA1; fill-opacity:0.0; 
stroke:#F2EDA1; stroke-width:120000.000000; stroke-opacity:1; 
stroke-linecap:round; stroke-linejoin:round;">
<path d="M87309000 102616000
L87309000 107756000
" />
<path d="M84649000 100016000
L85979000 100016000
" />
<path d="M84649000 101346000
L84649000 100016000
" />
<path d="M84649000 107756000
L87309000 107756000
" />
<path d="M84649000 102616000
L87309000 102616000
" />
<path d="M84649000 102616000
L84649000 107756000
" />
<path d="M63001000 104676000
L67301000 104676000
" />
<path d="M67301000 104676000
L67301000 97376000
" />
<path d="M63001000 104676000
L63001000 97376000
" />
<path d="M61050000 97396752
L61050000 95974248
" />
<path d="M58330000 97396752
L58330000 95974248
" />
<path d="M54813252 89064000
L53390748 89064000
" />
<path d="M54813252 91784000
L53390748 91784000
" />
<path d="M67273000 91516252
L67273000 90093748
" />
<path d="M64553000 91516252
L64553000 90093748
" />
<path d="M83350263 86783000
L84797737 86783000
" />
<path d="M83350263 89493000
L84797737 89493000
" />
<path d="M70535000 94157000
L73535000 94157000
" />
<path d="M73535000 106757000
L70535000 106757000
" />
<path d="M80135000 94157000
L83135000 94157000
" />
<path d="M70535000 106757000
L70535000 94157000
" />
<path d="M83135000 106757000
L80135000 106757000
" />
<path d="M83135000 94157000
L83135000 106757000
" />
<path d="M75570000 87503000
L75570000 90103000
" />
<path d="M78170000 87443000
L72970000 87443000
" />
<path d="M78170000 87503000
L78170000 87443000
" />
<path d="M78170000 88773000
L78170000 90103000
" />
<path d="M75570000 90103000
L72970000 90103000
" />
<path d="M78170000 87503000
L75570000 87503000
" />
<path d="M72970000 90103000
L72970000 87443000
" />
<path d="M78170000 90103000
L76840000 90103000
" />
<path d="M58000737 104606000
L56553263 104606000
" />
<path d="M58000737 101896000
L56553263 101896000
" />
<path d="M48556000 98132737
L48556000 96685263
" />
<path d="M51266000 98132737
L51266000 96685263
" />
<path d="M84797737 90212000
L83350263 90212000
" />
<path d="M84797737 92922000
L83350263 92922000
" />
<path d="M105238000 86107500
L88818000 86107500
" />
<path d="M105238000 108447500
L105238000 95857500
" />
<path d="M88818000 108447500
L105238000 108447500
" />
<path d="M105473000 87647500
L105473000 89647500
" />
<path d="M105238000 93117500
L105238000 86107500
" />
<path d="M88818000 86107500
L88818000 93117500
" />
<path d="M88818000 95857500
L88818000 108447500
" />
<path d="M68744000 91516252
L68744000 90093748
" />
<path d="M71464000 91516252
L71464000 90093748
" />
<path d="M52431000 96520000
L52431000 98470000
" />
<path d="M57551000 96520000
L57551000 98470000
" />
<path d="M57551000 96520000
L57551000 93070000
" />
<path d="M52431000 96520000
L52431000 94570000
" />
<path d="M105475000 84901000
L105475000 79701000
" />
<path d="M57155000 82301000
L54555000 82301000
" />
<path d="M54555000 82301000
L54555000 79701000
" />
<path d="M54555000 84901000
L54555000 83571000
" />
<path d="M57155000 84901000
L57155000 82301000
" />
<path d="M55885000 84901000
L54555000 84901000
" />
<path d="M54555000 79701000
L105475000 79701000
" />
<path d="M57155000 84901000
L105475000 84901000
" />
<g >
</g>
<g >
</g>
<g >
</g>
<g >
</g>
<g >
</g>
<g >
</g>
<g >
</g>
<g >
</g>
<g >
</g>
<g >
</g>
<g >
</g>
<g >
</g>
<g >
</g>
<g >
</g>
<g >
</g>
<g >
</g>
<g >
</g>
<g >
</g>
<g >
</g>
<g >
</g>
<g >
</g>
<g >
</g>
<g >
</g>
<g >
</g>
<g >
</g>
<g >
</g>
<g >
</g>
<g >
</g>
<g >
</g>
<g >
</g>
<g >
</g>
<g >
</g>
</g>
<g style="fill:#000000; fill-opacity:0.0; 
stroke:#000000; stroke-width:120000.000000; stroke-opacity:1; 
stroke-linecap:round; stroke-linejoin:round;">
</g>
<g style="fill:#D0D2CD; fill-opacity:0.0; 
stroke:#D0D2CD; stroke-width:120000.000000; stroke-opacity:1; 
stroke-linecap:round; stroke-linejoin:round;">
</g>
<g style="fill:#D0D2CD; fill-opacity:0.0; 
stroke:#D0D2CD; stroke-width:100000.000000; stroke-opacity:1; 
stroke-linecap:round; stroke-linejoin:round;">
<path d="M50609626 78740000
L109510000 78740000
" />
<path d="M112554000 81750320
L112525739 105667739
" />
<path d="M109477739.000000 108715738.999750 A3048039.000000 3048039.000000 0.0 0 0 112525738.999750 105667739.000000" />
<path d="M50625000 108708261
L109477739 108715739
" />
<path d="M112553985.999934 81750319.999907 A3010486.000000 3010486.000000 0.0 0 0 109510000.004406 78740000.395892" />
<path d="M47625000 81915000
L47625000 105533261
" />
<path d="M50609626.010901 78740000.355718 A3080475.000000 3080475.000000 0.0 0 0 47625000.301053 81914999.990616" />
<path d="M47624959.738101 105533258.716627 A3004861.000000 3004861.000000 0.0 0 0 50625000.000000 108708261.000000" />
<g >
</g>
<g >
</g>
<g >
</g>
<g >
</g>
<g >
</g>
<g >
</g>
<g >
</g>
<g >
</g>
<g >
</g>
<g >
</g>
<g >
</g>
<g >
</g>
<g >
</g>
<g >
</g>
<g >
</g>
<g >
</g>
<g >
</g>
<g >
</g>
<g >
</g>
<g >
</g>
<g >
</g>
<g >
</g>
<g >
</g>
<g >
</g>
<g >
</g>
<g >
</g>
<g >
</g>
<g >
</g>
<g >
</g>
<g >
</g>
<g >
</g>
<g >
</g>
</g> 
</svg>
