%TF.GenerationSoftware,KiCad,Pcbnew,(6.0.5-0)*%
%TF.CreationDate,2024-08-31T12:48:39+10:00*%
%TF.ProjectId,AAPiHat,41415069-4861-4742-9e6b-696361645f70,rev?*%
%TF.SameCoordinates,Original*%
%TF.FileFunction,Legend,Top*%
%TF.FilePolarity,Positive*%
%FSLAX46Y46*%
G04 Gerber Fmt 4.6, Leading zero omitted, Abs format (unit mm)*
G04 Created by KiCad (PCBNEW (6.0.5-0)) date 2024-08-31 12:48:39*
%MOMM*%
%LPD*%
G01*
G04 APERTURE LIST*
%ADD10C,0.100000*%
%ADD11C,0.150000*%
%ADD12C,0.120000*%
G04 APERTURE END LIST*
D10*
X84138952Y-94141690D02*
X83853238Y-94141690D01*
X83996095Y-94141690D02*
X83996095Y-93641690D01*
X83948476Y-93713119D01*
X83900857Y-93760738D01*
X83853238Y-93784547D01*
X84353238Y-93951214D02*
X84734190Y-93951214D01*
X84948476Y-93689309D02*
X84972285Y-93665500D01*
X85019904Y-93641690D01*
X85138952Y-93641690D01*
X85186571Y-93665500D01*
X85210380Y-93689309D01*
X85234190Y-93736928D01*
X85234190Y-93784547D01*
X85210380Y-93855976D01*
X84924666Y-94141690D01*
X85234190Y-94141690D01*
X85829428Y-94141690D02*
X85829428Y-93641690D01*
X86019904Y-93641690D01*
X86067523Y-93665500D01*
X86091333Y-93689309D01*
X86115142Y-93736928D01*
X86115142Y-93808357D01*
X86091333Y-93855976D01*
X86067523Y-93879785D01*
X86019904Y-93903595D01*
X85829428Y-93903595D01*
X86210380Y-94189309D02*
X86591333Y-94189309D01*
X86710380Y-93879785D02*
X86877047Y-93879785D01*
X86948476Y-94141690D02*
X86710380Y-94141690D01*
X86710380Y-93641690D01*
X86948476Y-93641690D01*
X87162761Y-94141690D02*
X87162761Y-93641690D01*
X87448476Y-94141690D01*
X87448476Y-93641690D01*
X83877047Y-94899071D02*
X83900857Y-94922880D01*
X83877047Y-94946690D01*
X83853238Y-94922880D01*
X83877047Y-94899071D01*
X83877047Y-94946690D01*
X84115142Y-94899071D02*
X84138952Y-94922880D01*
X84115142Y-94946690D01*
X84091333Y-94922880D01*
X84115142Y-94899071D01*
X84115142Y-94946690D01*
X84424666Y-94946690D02*
X84377047Y-94922880D01*
X84353238Y-94899071D01*
X84329428Y-94851452D01*
X84329428Y-94708595D01*
X84353238Y-94660976D01*
X84377047Y-94637166D01*
X84424666Y-94613357D01*
X84496095Y-94613357D01*
X84543714Y-94637166D01*
X84567523Y-94660976D01*
X84591333Y-94708595D01*
X84591333Y-94851452D01*
X84567523Y-94899071D01*
X84543714Y-94922880D01*
X84496095Y-94946690D01*
X84424666Y-94946690D01*
X84805619Y-94946690D02*
X84805619Y-94613357D01*
X84805619Y-94708595D02*
X84829428Y-94660976D01*
X84853238Y-94637166D01*
X84900857Y-94613357D01*
X84948476Y-94613357D01*
X85115142Y-94899071D02*
X85138952Y-94922880D01*
X85115142Y-94946690D01*
X85091333Y-94922880D01*
X85115142Y-94899071D01*
X85115142Y-94946690D01*
X85353238Y-94899071D02*
X85377047Y-94922880D01*
X85353238Y-94946690D01*
X85329428Y-94922880D01*
X85353238Y-94899071D01*
X85353238Y-94946690D01*
X83853238Y-95299309D02*
X83877047Y-95275500D01*
X83924666Y-95251690D01*
X84043714Y-95251690D01*
X84091333Y-95275500D01*
X84115142Y-95299309D01*
X84138952Y-95346928D01*
X84138952Y-95394547D01*
X84115142Y-95465976D01*
X83829428Y-95751690D01*
X84138952Y-95751690D01*
X84353238Y-95489785D02*
X84734190Y-95489785D01*
X84734190Y-95632642D02*
X84353238Y-95632642D01*
X85234190Y-95751690D02*
X84948476Y-95751690D01*
X85091333Y-95751690D02*
X85091333Y-95251690D01*
X85043714Y-95323119D01*
X84996095Y-95370738D01*
X84948476Y-95394547D01*
X85424666Y-95299309D02*
X85448476Y-95275500D01*
X85496095Y-95251690D01*
X85615142Y-95251690D01*
X85662761Y-95275500D01*
X85686571Y-95299309D01*
X85710380Y-95346928D01*
X85710380Y-95394547D01*
X85686571Y-95465976D01*
X85400857Y-95751690D01*
X85710380Y-95751690D01*
X85877047Y-95418357D02*
X85996095Y-95751690D01*
X86115142Y-95418357D01*
X86686571Y-95489785D02*
X86853238Y-95489785D01*
X86924666Y-95751690D02*
X86686571Y-95751690D01*
X86686571Y-95251690D01*
X86924666Y-95251690D01*
X87091333Y-95251690D02*
X87424666Y-95751690D01*
X87424666Y-95251690D02*
X87091333Y-95751690D01*
X87543714Y-95251690D02*
X87829428Y-95251690D01*
X87686571Y-95751690D02*
X87686571Y-95251690D01*
X83829428Y-96056690D02*
X84138952Y-96056690D01*
X83972285Y-96247166D01*
X84043714Y-96247166D01*
X84091333Y-96270976D01*
X84115142Y-96294785D01*
X84138952Y-96342404D01*
X84138952Y-96461452D01*
X84115142Y-96509071D01*
X84091333Y-96532880D01*
X84043714Y-96556690D01*
X83900857Y-96556690D01*
X83853238Y-96532880D01*
X83829428Y-96509071D01*
X84353238Y-96294785D02*
X84734190Y-96294785D01*
X84734190Y-96437642D02*
X84353238Y-96437642D01*
X85234190Y-96080500D02*
X85186571Y-96056690D01*
X85115142Y-96056690D01*
X85043714Y-96080500D01*
X84996095Y-96128119D01*
X84972285Y-96175738D01*
X84948476Y-96270976D01*
X84948476Y-96342404D01*
X84972285Y-96437642D01*
X84996095Y-96485261D01*
X85043714Y-96532880D01*
X85115142Y-96556690D01*
X85162761Y-96556690D01*
X85234190Y-96532880D01*
X85258000Y-96509071D01*
X85258000Y-96342404D01*
X85162761Y-96342404D01*
X85472285Y-96556690D02*
X85472285Y-96056690D01*
X85758000Y-96556690D01*
X85758000Y-96056690D01*
X85996095Y-96556690D02*
X85996095Y-96056690D01*
X86115142Y-96056690D01*
X86186571Y-96080500D01*
X86234190Y-96128119D01*
X86258000Y-96175738D01*
X86281809Y-96270976D01*
X86281809Y-96342404D01*
X86258000Y-96437642D01*
X86234190Y-96485261D01*
X86186571Y-96532880D01*
X86115142Y-96556690D01*
X85996095Y-96556690D01*
X73748761Y-90940571D02*
X73724952Y-90964380D01*
X73653523Y-90988190D01*
X73605904Y-90988190D01*
X73534476Y-90964380D01*
X73486857Y-90916761D01*
X73463047Y-90869142D01*
X73439238Y-90773904D01*
X73439238Y-90702476D01*
X73463047Y-90607238D01*
X73486857Y-90559619D01*
X73534476Y-90512000D01*
X73605904Y-90488190D01*
X73653523Y-90488190D01*
X73724952Y-90512000D01*
X73748761Y-90535809D01*
X74034476Y-90988190D02*
X73986857Y-90964380D01*
X73963047Y-90916761D01*
X73963047Y-90488190D01*
X74296380Y-90988190D02*
X74248761Y-90964380D01*
X74224952Y-90940571D01*
X74201142Y-90892952D01*
X74201142Y-90750095D01*
X74224952Y-90702476D01*
X74248761Y-90678666D01*
X74296380Y-90654857D01*
X74367809Y-90654857D01*
X74415428Y-90678666D01*
X74439238Y-90702476D01*
X74463047Y-90750095D01*
X74463047Y-90892952D01*
X74439238Y-90940571D01*
X74415428Y-90964380D01*
X74367809Y-90988190D01*
X74296380Y-90988190D01*
X74653523Y-90964380D02*
X74701142Y-90988190D01*
X74796380Y-90988190D01*
X74844000Y-90964380D01*
X74867809Y-90916761D01*
X74867809Y-90892952D01*
X74844000Y-90845333D01*
X74796380Y-90821523D01*
X74724952Y-90821523D01*
X74677333Y-90797714D01*
X74653523Y-90750095D01*
X74653523Y-90726285D01*
X74677333Y-90678666D01*
X74724952Y-90654857D01*
X74796380Y-90654857D01*
X74844000Y-90678666D01*
X75272571Y-90964380D02*
X75224952Y-90988190D01*
X75129714Y-90988190D01*
X75082095Y-90964380D01*
X75058285Y-90916761D01*
X75058285Y-90726285D01*
X75082095Y-90678666D01*
X75129714Y-90654857D01*
X75224952Y-90654857D01*
X75272571Y-90678666D01*
X75296380Y-90726285D01*
X75296380Y-90773904D01*
X75058285Y-90821523D01*
X75724952Y-90988190D02*
X75724952Y-90488190D01*
X75724952Y-90964380D02*
X75677333Y-90988190D01*
X75582095Y-90988190D01*
X75534476Y-90964380D01*
X75510666Y-90940571D01*
X75486857Y-90892952D01*
X75486857Y-90750095D01*
X75510666Y-90702476D01*
X75534476Y-90678666D01*
X75582095Y-90654857D01*
X75677333Y-90654857D01*
X75724952Y-90678666D01*
X75963047Y-90940571D02*
X75986857Y-90964380D01*
X75963047Y-90988190D01*
X75939238Y-90964380D01*
X75963047Y-90940571D01*
X75963047Y-90988190D01*
X75963047Y-90678666D02*
X75986857Y-90702476D01*
X75963047Y-90726285D01*
X75939238Y-90702476D01*
X75963047Y-90678666D01*
X75963047Y-90726285D01*
X73844000Y-91531285D02*
X74010666Y-91531285D01*
X74082095Y-91793190D02*
X73844000Y-91793190D01*
X73844000Y-91293190D01*
X74082095Y-91293190D01*
X74296380Y-91459857D02*
X74296380Y-91793190D01*
X74296380Y-91507476D02*
X74320190Y-91483666D01*
X74367809Y-91459857D01*
X74439238Y-91459857D01*
X74486857Y-91483666D01*
X74510666Y-91531285D01*
X74510666Y-91793190D01*
X74963047Y-91793190D02*
X74963047Y-91531285D01*
X74939238Y-91483666D01*
X74891619Y-91459857D01*
X74796380Y-91459857D01*
X74748761Y-91483666D01*
X74963047Y-91769380D02*
X74915428Y-91793190D01*
X74796380Y-91793190D01*
X74748761Y-91769380D01*
X74724952Y-91721761D01*
X74724952Y-91674142D01*
X74748761Y-91626523D01*
X74796380Y-91602714D01*
X74915428Y-91602714D01*
X74963047Y-91578904D01*
X75201142Y-91793190D02*
X75201142Y-91293190D01*
X75201142Y-91483666D02*
X75248761Y-91459857D01*
X75344000Y-91459857D01*
X75391619Y-91483666D01*
X75415428Y-91507476D01*
X75439238Y-91555095D01*
X75439238Y-91697952D01*
X75415428Y-91745571D01*
X75391619Y-91769380D01*
X75344000Y-91793190D01*
X75248761Y-91793190D01*
X75201142Y-91769380D01*
X75724952Y-91793190D02*
X75677333Y-91769380D01*
X75653523Y-91721761D01*
X75653523Y-91293190D01*
X76105904Y-91769380D02*
X76058285Y-91793190D01*
X75963047Y-91793190D01*
X75915428Y-91769380D01*
X75891619Y-91721761D01*
X75891619Y-91531285D01*
X75915428Y-91483666D01*
X75963047Y-91459857D01*
X76058285Y-91459857D01*
X76105904Y-91483666D01*
X76129714Y-91531285D01*
X76129714Y-91578904D01*
X75891619Y-91626523D01*
X76724952Y-91602714D02*
X77105904Y-91602714D01*
X76915428Y-91793190D02*
X76915428Y-91412238D01*
X77582095Y-91293190D02*
X77344000Y-91293190D01*
X77320190Y-91531285D01*
X77344000Y-91507476D01*
X77391619Y-91483666D01*
X77510666Y-91483666D01*
X77558285Y-91507476D01*
X77582095Y-91531285D01*
X77605904Y-91578904D01*
X77605904Y-91697952D01*
X77582095Y-91745571D01*
X77558285Y-91769380D01*
X77510666Y-91793190D01*
X77391619Y-91793190D01*
X77344000Y-91769380D01*
X77320190Y-91745571D01*
X77748761Y-91293190D02*
X77915428Y-91793190D01*
X78082095Y-91293190D01*
X73820190Y-92574380D02*
X73867809Y-92598190D01*
X73963047Y-92598190D01*
X74010666Y-92574380D01*
X74034476Y-92526761D01*
X74034476Y-92502952D01*
X74010666Y-92455333D01*
X73963047Y-92431523D01*
X73891619Y-92431523D01*
X73844000Y-92407714D01*
X73820190Y-92360095D01*
X73820190Y-92336285D01*
X73844000Y-92288666D01*
X73891619Y-92264857D01*
X73963047Y-92264857D01*
X74010666Y-92288666D01*
X74463047Y-92264857D02*
X74463047Y-92598190D01*
X74248761Y-92264857D02*
X74248761Y-92526761D01*
X74272571Y-92574380D01*
X74320190Y-92598190D01*
X74391619Y-92598190D01*
X74439238Y-92574380D01*
X74463047Y-92550571D01*
X74701142Y-92264857D02*
X74701142Y-92764857D01*
X74701142Y-92288666D02*
X74748761Y-92264857D01*
X74844000Y-92264857D01*
X74891619Y-92288666D01*
X74915428Y-92312476D01*
X74939238Y-92360095D01*
X74939238Y-92502952D01*
X74915428Y-92550571D01*
X74891619Y-92574380D01*
X74844000Y-92598190D01*
X74748761Y-92598190D01*
X74701142Y-92574380D01*
X75153523Y-92264857D02*
X75153523Y-92764857D01*
X75153523Y-92288666D02*
X75201142Y-92264857D01*
X75296380Y-92264857D01*
X75344000Y-92288666D01*
X75367809Y-92312476D01*
X75391619Y-92360095D01*
X75391619Y-92502952D01*
X75367809Y-92550571D01*
X75344000Y-92574380D01*
X75296380Y-92598190D01*
X75201142Y-92598190D01*
X75153523Y-92574380D01*
X75677333Y-92598190D02*
X75629714Y-92574380D01*
X75605904Y-92526761D01*
X75605904Y-92098190D01*
X75820190Y-92264857D02*
X75939238Y-92598190D01*
X76058285Y-92264857D02*
X75939238Y-92598190D01*
X75891619Y-92717238D01*
X75867809Y-92741047D01*
X75820190Y-92764857D01*
X76558285Y-92264857D02*
X76748761Y-92264857D01*
X76629714Y-92098190D02*
X76629714Y-92526761D01*
X76653523Y-92574380D01*
X76701142Y-92598190D01*
X76748761Y-92598190D01*
X76986857Y-92598190D02*
X76939238Y-92574380D01*
X76915428Y-92550571D01*
X76891619Y-92502952D01*
X76891619Y-92360095D01*
X76915428Y-92312476D01*
X76939238Y-92288666D01*
X76986857Y-92264857D01*
X77058285Y-92264857D01*
X77105904Y-92288666D01*
X77129714Y-92312476D01*
X77153523Y-92360095D01*
X77153523Y-92502952D01*
X77129714Y-92550571D01*
X77105904Y-92574380D01*
X77058285Y-92598190D01*
X76986857Y-92598190D01*
X77748761Y-92598190D02*
X77748761Y-92098190D01*
X77939238Y-92098190D01*
X77986857Y-92122000D01*
X78010666Y-92145809D01*
X78034476Y-92193428D01*
X78034476Y-92264857D01*
X78010666Y-92312476D01*
X77986857Y-92336285D01*
X77939238Y-92360095D01*
X77748761Y-92360095D01*
X78248761Y-92598190D02*
X78248761Y-92264857D01*
X78248761Y-92098190D02*
X78224952Y-92122000D01*
X78248761Y-92145809D01*
X78272571Y-92122000D01*
X78248761Y-92098190D01*
X78248761Y-92145809D01*
X107828666Y-98444333D02*
X107828666Y-98111000D01*
X108028666Y-98511000D02*
X107328666Y-98277666D01*
X108028666Y-98044333D01*
X107828666Y-97844333D02*
X107828666Y-97511000D01*
X108028666Y-97911000D02*
X107328666Y-97677666D01*
X108028666Y-97444333D01*
X108028666Y-96677666D02*
X107328666Y-96677666D01*
X107328666Y-96411000D01*
X107362000Y-96344333D01*
X107395333Y-96311000D01*
X107462000Y-96277666D01*
X107562000Y-96277666D01*
X107628666Y-96311000D01*
X107662000Y-96344333D01*
X107695333Y-96411000D01*
X107695333Y-96677666D01*
X108028666Y-95977666D02*
X107562000Y-95977666D01*
X107328666Y-95977666D02*
X107362000Y-96011000D01*
X107395333Y-95977666D01*
X107362000Y-95944333D01*
X107328666Y-95977666D01*
X107395333Y-95977666D01*
X108028666Y-95111000D02*
X107328666Y-95111000D01*
X107662000Y-95111000D02*
X107662000Y-94711000D01*
X108028666Y-94711000D02*
X107328666Y-94711000D01*
X108028666Y-94077666D02*
X107662000Y-94077666D01*
X107595333Y-94111000D01*
X107562000Y-94177666D01*
X107562000Y-94311000D01*
X107595333Y-94377666D01*
X107995333Y-94077666D02*
X108028666Y-94144333D01*
X108028666Y-94311000D01*
X107995333Y-94377666D01*
X107928666Y-94411000D01*
X107862000Y-94411000D01*
X107795333Y-94377666D01*
X107762000Y-94311000D01*
X107762000Y-94144333D01*
X107728666Y-94077666D01*
X107562000Y-93844333D02*
X107562000Y-93577666D01*
X107328666Y-93744333D02*
X107928666Y-93744333D01*
X107995333Y-93711000D01*
X108028666Y-93644333D01*
X108028666Y-93577666D01*
X108028666Y-92811000D02*
X107562000Y-92811000D01*
X107695333Y-92811000D02*
X107628666Y-92777666D01*
X107595333Y-92744333D01*
X107562000Y-92677666D01*
X107562000Y-92611000D01*
X107995333Y-92111000D02*
X108028666Y-92177666D01*
X108028666Y-92311000D01*
X107995333Y-92377666D01*
X107928666Y-92411000D01*
X107662000Y-92411000D01*
X107595333Y-92377666D01*
X107562000Y-92311000D01*
X107562000Y-92177666D01*
X107595333Y-92111000D01*
X107662000Y-92077666D01*
X107728666Y-92077666D01*
X107795333Y-92411000D01*
X107562000Y-91844333D02*
X108028666Y-91677666D01*
X107562000Y-91511000D01*
X107828666Y-91277666D02*
X107828666Y-90944333D01*
X108028666Y-91344333D02*
X107328666Y-91111000D01*
X108028666Y-90877666D01*
X107328666Y-90511000D02*
X107328666Y-90444333D01*
X107362000Y-90377666D01*
X107395333Y-90344333D01*
X107462000Y-90311000D01*
X107595333Y-90277666D01*
X107762000Y-90277666D01*
X107895333Y-90311000D01*
X107962000Y-90344333D01*
X107995333Y-90377666D01*
X108028666Y-90444333D01*
X108028666Y-90511000D01*
X107995333Y-90577666D01*
X107962000Y-90611000D01*
X107895333Y-90644333D01*
X107762000Y-90677666D01*
X107595333Y-90677666D01*
X107462000Y-90644333D01*
X107395333Y-90611000D01*
X107362000Y-90577666D01*
X107328666Y-90511000D01*
X109422333Y-99711000D02*
X109389000Y-99744333D01*
X109289000Y-99811000D01*
X109222333Y-99844333D01*
X109122333Y-99877666D01*
X108955666Y-99911000D01*
X108822333Y-99911000D01*
X108655666Y-99877666D01*
X108555666Y-99844333D01*
X108489000Y-99811000D01*
X108389000Y-99744333D01*
X108355666Y-99711000D01*
X109122333Y-99144333D02*
X109155666Y-99211000D01*
X109155666Y-99344333D01*
X109122333Y-99411000D01*
X109089000Y-99444333D01*
X109022333Y-99477666D01*
X108822333Y-99477666D01*
X108755666Y-99444333D01*
X108722333Y-99411000D01*
X108689000Y-99344333D01*
X108689000Y-99211000D01*
X108722333Y-99144333D01*
X109422333Y-98911000D02*
X109389000Y-98877666D01*
X109289000Y-98811000D01*
X109222333Y-98777666D01*
X109122333Y-98744333D01*
X108955666Y-98711000D01*
X108822333Y-98711000D01*
X108655666Y-98744333D01*
X108555666Y-98777666D01*
X108489000Y-98811000D01*
X108389000Y-98877666D01*
X108355666Y-98911000D01*
X108522333Y-97877666D02*
X108489000Y-97844333D01*
X108455666Y-97777666D01*
X108455666Y-97611000D01*
X108489000Y-97544333D01*
X108522333Y-97511000D01*
X108589000Y-97477666D01*
X108655666Y-97477666D01*
X108755666Y-97511000D01*
X109155666Y-97911000D01*
X109155666Y-97477666D01*
X108455666Y-97044333D02*
X108455666Y-96977666D01*
X108489000Y-96911000D01*
X108522333Y-96877666D01*
X108589000Y-96844333D01*
X108722333Y-96811000D01*
X108889000Y-96811000D01*
X109022333Y-96844333D01*
X109089000Y-96877666D01*
X109122333Y-96911000D01*
X109155666Y-96977666D01*
X109155666Y-97044333D01*
X109122333Y-97111000D01*
X109089000Y-97144333D01*
X109022333Y-97177666D01*
X108889000Y-97211000D01*
X108722333Y-97211000D01*
X108589000Y-97177666D01*
X108522333Y-97144333D01*
X108489000Y-97111000D01*
X108455666Y-97044333D01*
X108522333Y-96544333D02*
X108489000Y-96511000D01*
X108455666Y-96444333D01*
X108455666Y-96277666D01*
X108489000Y-96211000D01*
X108522333Y-96177666D01*
X108589000Y-96144333D01*
X108655666Y-96144333D01*
X108755666Y-96177666D01*
X109155666Y-96577666D01*
X109155666Y-96144333D01*
X108522333Y-95877666D02*
X108489000Y-95844333D01*
X108455666Y-95777666D01*
X108455666Y-95611000D01*
X108489000Y-95544333D01*
X108522333Y-95511000D01*
X108589000Y-95477666D01*
X108655666Y-95477666D01*
X108755666Y-95511000D01*
X109155666Y-95911000D01*
X109155666Y-95477666D01*
X108889000Y-95177666D02*
X108889000Y-94644333D01*
X108522333Y-94344333D02*
X108489000Y-94311000D01*
X108455666Y-94244333D01*
X108455666Y-94077666D01*
X108489000Y-94011000D01*
X108522333Y-93977666D01*
X108589000Y-93944333D01*
X108655666Y-93944333D01*
X108755666Y-93977666D01*
X109155666Y-94377666D01*
X109155666Y-93944333D01*
X108689000Y-93344333D02*
X109155666Y-93344333D01*
X108422333Y-93511000D02*
X108922333Y-93677666D01*
X108922333Y-93244333D01*
X108822333Y-92011000D02*
X108789000Y-92044333D01*
X108755666Y-92111000D01*
X108755666Y-92177666D01*
X108789000Y-92244333D01*
X108822333Y-92277666D01*
X108889000Y-92311000D01*
X108955666Y-92311000D01*
X109022333Y-92277666D01*
X109055666Y-92244333D01*
X109089000Y-92177666D01*
X109089000Y-92111000D01*
X109055666Y-92044333D01*
X109022333Y-92011000D01*
X108755666Y-92011000D02*
X109022333Y-92011000D01*
X109055666Y-91977666D01*
X109055666Y-91944333D01*
X109022333Y-91877666D01*
X108955666Y-91844333D01*
X108789000Y-91844333D01*
X108689000Y-91911000D01*
X108622333Y-92011000D01*
X108589000Y-92144333D01*
X108622333Y-92277666D01*
X108689000Y-92377666D01*
X108789000Y-92444333D01*
X108922333Y-92477666D01*
X109055666Y-92444333D01*
X109155666Y-92377666D01*
X109222333Y-92277666D01*
X109255666Y-92144333D01*
X109222333Y-92011000D01*
X109155666Y-91911000D01*
X108689000Y-91244333D02*
X109255666Y-91244333D01*
X109322333Y-91277666D01*
X109355666Y-91311000D01*
X109389000Y-91377666D01*
X109389000Y-91477666D01*
X109355666Y-91544333D01*
X109122333Y-91244333D02*
X109155666Y-91311000D01*
X109155666Y-91444333D01*
X109122333Y-91511000D01*
X109089000Y-91544333D01*
X109022333Y-91577666D01*
X108822333Y-91577666D01*
X108755666Y-91544333D01*
X108722333Y-91511000D01*
X108689000Y-91444333D01*
X108689000Y-91311000D01*
X108722333Y-91244333D01*
X108689000Y-90611000D02*
X109155666Y-90611000D01*
X108689000Y-90911000D02*
X109055666Y-90911000D01*
X109122333Y-90877666D01*
X109155666Y-90811000D01*
X109155666Y-90711000D01*
X109122333Y-90644333D01*
X109089000Y-90611000D01*
X108689000Y-90277666D02*
X109155666Y-90277666D01*
X108755666Y-90277666D02*
X108722333Y-90244333D01*
X108689000Y-90177666D01*
X108689000Y-90077666D01*
X108722333Y-90011000D01*
X108789000Y-89977666D01*
X109155666Y-89977666D01*
X109155666Y-89344333D02*
X108455666Y-89344333D01*
X109122333Y-89344333D02*
X109155666Y-89411000D01*
X109155666Y-89544333D01*
X109122333Y-89611000D01*
X109089000Y-89644333D01*
X109022333Y-89677666D01*
X108822333Y-89677666D01*
X108755666Y-89644333D01*
X108722333Y-89611000D01*
X108689000Y-89544333D01*
X108689000Y-89411000D01*
X108722333Y-89344333D01*
X108689000Y-89077666D02*
X109155666Y-88911000D01*
X108689000Y-88744333D02*
X109155666Y-88911000D01*
X109322333Y-88977666D01*
X109355666Y-89011000D01*
X109389000Y-89077666D01*
X109816000Y-98677666D02*
X110382666Y-98677666D01*
X110449333Y-98711000D01*
X110482666Y-98744333D01*
X110516000Y-98811000D01*
X110516000Y-98911000D01*
X110482666Y-98977666D01*
X110249333Y-98677666D02*
X110282666Y-98744333D01*
X110282666Y-98877666D01*
X110249333Y-98944333D01*
X110216000Y-98977666D01*
X110149333Y-99011000D01*
X109949333Y-99011000D01*
X109882666Y-98977666D01*
X109849333Y-98944333D01*
X109816000Y-98877666D01*
X109816000Y-98744333D01*
X109849333Y-98677666D01*
X110282666Y-98344333D02*
X109816000Y-98344333D01*
X109582666Y-98344333D02*
X109616000Y-98377666D01*
X109649333Y-98344333D01*
X109616000Y-98311000D01*
X109582666Y-98344333D01*
X109649333Y-98344333D01*
X109816000Y-98111000D02*
X109816000Y-97844333D01*
X109582666Y-98011000D02*
X110182666Y-98011000D01*
X110249333Y-97977666D01*
X110282666Y-97911000D01*
X110282666Y-97844333D01*
X110282666Y-97611000D02*
X109582666Y-97611000D01*
X110282666Y-97311000D02*
X109916000Y-97311000D01*
X109849333Y-97344333D01*
X109816000Y-97411000D01*
X109816000Y-97511000D01*
X109849333Y-97577666D01*
X109882666Y-97611000D01*
X109816000Y-96677666D02*
X110282666Y-96677666D01*
X109816000Y-96977666D02*
X110182666Y-96977666D01*
X110249333Y-96944333D01*
X110282666Y-96877666D01*
X110282666Y-96777666D01*
X110249333Y-96711000D01*
X110216000Y-96677666D01*
X110282666Y-96344333D02*
X109582666Y-96344333D01*
X109849333Y-96344333D02*
X109816000Y-96277666D01*
X109816000Y-96144333D01*
X109849333Y-96077666D01*
X109882666Y-96044333D01*
X109949333Y-96011000D01*
X110149333Y-96011000D01*
X110216000Y-96044333D01*
X110249333Y-96077666D01*
X110282666Y-96144333D01*
X110282666Y-96277666D01*
X110249333Y-96344333D01*
X110216000Y-95711000D02*
X110249333Y-95677666D01*
X110282666Y-95711000D01*
X110249333Y-95744333D01*
X110216000Y-95711000D01*
X110282666Y-95711000D01*
X110249333Y-95077666D02*
X110282666Y-95144333D01*
X110282666Y-95277666D01*
X110249333Y-95344333D01*
X110216000Y-95377666D01*
X110149333Y-95411000D01*
X109949333Y-95411000D01*
X109882666Y-95377666D01*
X109849333Y-95344333D01*
X109816000Y-95277666D01*
X109816000Y-95144333D01*
X109849333Y-95077666D01*
X110282666Y-94677666D02*
X110249333Y-94744333D01*
X110216000Y-94777666D01*
X110149333Y-94811000D01*
X109949333Y-94811000D01*
X109882666Y-94777666D01*
X109849333Y-94744333D01*
X109816000Y-94677666D01*
X109816000Y-94577666D01*
X109849333Y-94511000D01*
X109882666Y-94477666D01*
X109949333Y-94444333D01*
X110149333Y-94444333D01*
X110216000Y-94477666D01*
X110249333Y-94511000D01*
X110282666Y-94577666D01*
X110282666Y-94677666D01*
X110282666Y-94144333D02*
X109816000Y-94144333D01*
X109882666Y-94144333D02*
X109849333Y-94111000D01*
X109816000Y-94044333D01*
X109816000Y-93944333D01*
X109849333Y-93877666D01*
X109916000Y-93844333D01*
X110282666Y-93844333D01*
X109916000Y-93844333D02*
X109849333Y-93811000D01*
X109816000Y-93744333D01*
X109816000Y-93644333D01*
X109849333Y-93577666D01*
X109916000Y-93544333D01*
X110282666Y-93544333D01*
X109549333Y-92711000D02*
X110449333Y-93311000D01*
X109816000Y-92177666D02*
X110382666Y-92177666D01*
X110449333Y-92211000D01*
X110482666Y-92244333D01*
X110516000Y-92311000D01*
X110516000Y-92411000D01*
X110482666Y-92477666D01*
X110249333Y-92177666D02*
X110282666Y-92244333D01*
X110282666Y-92377666D01*
X110249333Y-92444333D01*
X110216000Y-92477666D01*
X110149333Y-92511000D01*
X109949333Y-92511000D01*
X109882666Y-92477666D01*
X109849333Y-92444333D01*
X109816000Y-92377666D01*
X109816000Y-92244333D01*
X109849333Y-92177666D01*
X109816000Y-91544333D02*
X110282666Y-91544333D01*
X109816000Y-91844333D02*
X110182666Y-91844333D01*
X110249333Y-91811000D01*
X110282666Y-91744333D01*
X110282666Y-91644333D01*
X110249333Y-91577666D01*
X110216000Y-91544333D01*
X109816000Y-91211000D02*
X110282666Y-91211000D01*
X109882666Y-91211000D02*
X109849333Y-91177666D01*
X109816000Y-91111000D01*
X109816000Y-91011000D01*
X109849333Y-90944333D01*
X109916000Y-90911000D01*
X110282666Y-90911000D01*
X110282666Y-90277666D02*
X109582666Y-90277666D01*
X110249333Y-90277666D02*
X110282666Y-90344333D01*
X110282666Y-90477666D01*
X110249333Y-90544333D01*
X110216000Y-90577666D01*
X110149333Y-90611000D01*
X109949333Y-90611000D01*
X109882666Y-90577666D01*
X109849333Y-90544333D01*
X109816000Y-90477666D01*
X109816000Y-90344333D01*
X109849333Y-90277666D01*
X109816000Y-90011000D02*
X110282666Y-89844333D01*
X109816000Y-89677666D02*
X110282666Y-89844333D01*
X110449333Y-89911000D01*
X110482666Y-89944333D01*
X110516000Y-90011000D01*
D11*
%TO.C,JP1*%
X84002666Y-98468380D02*
X84002666Y-99182666D01*
X83955047Y-99325523D01*
X83859809Y-99420761D01*
X83716952Y-99468380D01*
X83621714Y-99468380D01*
X84478857Y-99468380D02*
X84478857Y-98468380D01*
X84859809Y-98468380D01*
X84955047Y-98516000D01*
X85002666Y-98563619D01*
X85050285Y-98658857D01*
X85050285Y-98801714D01*
X85002666Y-98896952D01*
X84955047Y-98944571D01*
X84859809Y-98992190D01*
X84478857Y-98992190D01*
X86002666Y-99468380D02*
X85431238Y-99468380D01*
X85716952Y-99468380D02*
X85716952Y-98468380D01*
X85621714Y-98611238D01*
X85526476Y-98706476D01*
X85431238Y-98754095D01*
%TO.C,D1*%
X64412904Y-106243380D02*
X64412904Y-105243380D01*
X64651000Y-105243380D01*
X64793857Y-105291000D01*
X64889095Y-105386238D01*
X64936714Y-105481476D01*
X64984333Y-105671952D01*
X64984333Y-105814809D01*
X64936714Y-106005285D01*
X64889095Y-106100523D01*
X64793857Y-106195761D01*
X64651000Y-106243380D01*
X64412904Y-106243380D01*
X65936714Y-106243380D02*
X65365285Y-106243380D01*
X65651000Y-106243380D02*
X65651000Y-105243380D01*
X65555761Y-105386238D01*
X65460523Y-105481476D01*
X65365285Y-105529095D01*
%TO.C,C5*%
X59523333Y-93956142D02*
X59475714Y-94003761D01*
X59332857Y-94051380D01*
X59237619Y-94051380D01*
X59094761Y-94003761D01*
X58999523Y-93908523D01*
X58951904Y-93813285D01*
X58904285Y-93622809D01*
X58904285Y-93479952D01*
X58951904Y-93289476D01*
X58999523Y-93194238D01*
X59094761Y-93099000D01*
X59237619Y-93051380D01*
X59332857Y-93051380D01*
X59475714Y-93099000D01*
X59523333Y-93146619D01*
X60428095Y-93051380D02*
X59951904Y-93051380D01*
X59904285Y-93527571D01*
X59951904Y-93479952D01*
X60047142Y-93432333D01*
X60285238Y-93432333D01*
X60380476Y-93479952D01*
X60428095Y-93527571D01*
X60475714Y-93622809D01*
X60475714Y-93860904D01*
X60428095Y-93956142D01*
X60380476Y-94003761D01*
X60285238Y-94051380D01*
X60047142Y-94051380D01*
X59951904Y-94003761D01*
X59904285Y-93956142D01*
%TO.C,C4*%
X49871333Y-90400142D02*
X49823714Y-90447761D01*
X49680857Y-90495380D01*
X49585619Y-90495380D01*
X49442761Y-90447761D01*
X49347523Y-90352523D01*
X49299904Y-90257285D01*
X49252285Y-90066809D01*
X49252285Y-89923952D01*
X49299904Y-89733476D01*
X49347523Y-89638238D01*
X49442761Y-89543000D01*
X49585619Y-89495380D01*
X49680857Y-89495380D01*
X49823714Y-89543000D01*
X49871333Y-89590619D01*
X50728476Y-89828714D02*
X50728476Y-90495380D01*
X50490380Y-89447761D02*
X50252285Y-90162047D01*
X50871333Y-90162047D01*
%TO.C,C7*%
X65746333Y-87987142D02*
X65698714Y-88034761D01*
X65555857Y-88082380D01*
X65460619Y-88082380D01*
X65317761Y-88034761D01*
X65222523Y-87939523D01*
X65174904Y-87844285D01*
X65127285Y-87653809D01*
X65127285Y-87510952D01*
X65174904Y-87320476D01*
X65222523Y-87225238D01*
X65317761Y-87130000D01*
X65460619Y-87082380D01*
X65555857Y-87082380D01*
X65698714Y-87130000D01*
X65746333Y-87177619D01*
X66079666Y-87082380D02*
X66746333Y-87082380D01*
X66317761Y-88082380D01*
%TO.C,R6*%
X87574380Y-88177666D02*
X87098190Y-88511000D01*
X87574380Y-88749095D02*
X86574380Y-88749095D01*
X86574380Y-88368142D01*
X86622000Y-88272904D01*
X86669619Y-88225285D01*
X86764857Y-88177666D01*
X86907714Y-88177666D01*
X87002952Y-88225285D01*
X87050571Y-88272904D01*
X87098190Y-88368142D01*
X87098190Y-88749095D01*
X86574380Y-87320523D02*
X86574380Y-87511000D01*
X86622000Y-87606238D01*
X86669619Y-87653857D01*
X86812476Y-87749095D01*
X87002952Y-87796714D01*
X87383904Y-87796714D01*
X87479142Y-87749095D01*
X87526761Y-87701476D01*
X87574380Y-87606238D01*
X87574380Y-87415761D01*
X87526761Y-87320523D01*
X87479142Y-87272904D01*
X87383904Y-87225285D01*
X87145809Y-87225285D01*
X87050571Y-87272904D01*
X87002952Y-87320523D01*
X86955333Y-87415761D01*
X86955333Y-87606238D01*
X87002952Y-87701476D01*
X87050571Y-87749095D01*
X87145809Y-87796714D01*
%TO.C,L1*%
X70175380Y-102655666D02*
X70175380Y-103131857D01*
X69175380Y-103131857D01*
X70175380Y-101798523D02*
X70175380Y-102369952D01*
X70175380Y-102084238D02*
X69175380Y-102084238D01*
X69318238Y-102179476D01*
X69413476Y-102274714D01*
X69461095Y-102369952D01*
%TO.C,JP2*%
X76763666Y-85812380D02*
X76763666Y-86526666D01*
X76716047Y-86669523D01*
X76620809Y-86764761D01*
X76477952Y-86812380D01*
X76382714Y-86812380D01*
X77239857Y-86812380D02*
X77239857Y-85812380D01*
X77620809Y-85812380D01*
X77716047Y-85860000D01*
X77763666Y-85907619D01*
X77811285Y-86002857D01*
X77811285Y-86145714D01*
X77763666Y-86240952D01*
X77716047Y-86288571D01*
X77620809Y-86336190D01*
X77239857Y-86336190D01*
X78192238Y-85907619D02*
X78239857Y-85860000D01*
X78335095Y-85812380D01*
X78573190Y-85812380D01*
X78668428Y-85860000D01*
X78716047Y-85907619D01*
X78763666Y-86002857D01*
X78763666Y-86098095D01*
X78716047Y-86240952D01*
X78144619Y-86812380D01*
X78763666Y-86812380D01*
%TO.C,R7*%
X55713333Y-105989380D02*
X55380000Y-105513190D01*
X55141904Y-105989380D02*
X55141904Y-104989380D01*
X55522857Y-104989380D01*
X55618095Y-105037000D01*
X55665714Y-105084619D01*
X55713333Y-105179857D01*
X55713333Y-105322714D01*
X55665714Y-105417952D01*
X55618095Y-105465571D01*
X55522857Y-105513190D01*
X55141904Y-105513190D01*
X56046666Y-104989380D02*
X56713333Y-104989380D01*
X56284761Y-105989380D01*
%TO.C,R8*%
X49474380Y-101004666D02*
X48998190Y-101338000D01*
X49474380Y-101576095D02*
X48474380Y-101576095D01*
X48474380Y-101195142D01*
X48522000Y-101099904D01*
X48569619Y-101052285D01*
X48664857Y-101004666D01*
X48807714Y-101004666D01*
X48902952Y-101052285D01*
X48950571Y-101099904D01*
X48998190Y-101195142D01*
X48998190Y-101576095D01*
X48902952Y-100433238D02*
X48855333Y-100528476D01*
X48807714Y-100576095D01*
X48712476Y-100623714D01*
X48664857Y-100623714D01*
X48569619Y-100576095D01*
X48522000Y-100528476D01*
X48474380Y-100433238D01*
X48474380Y-100242761D01*
X48522000Y-100147523D01*
X48569619Y-100099904D01*
X48664857Y-100052285D01*
X48712476Y-100052285D01*
X48807714Y-100099904D01*
X48855333Y-100147523D01*
X48902952Y-100242761D01*
X48902952Y-100433238D01*
X48950571Y-100528476D01*
X48998190Y-100576095D01*
X49093428Y-100623714D01*
X49283904Y-100623714D01*
X49379142Y-100576095D01*
X49426761Y-100528476D01*
X49474380Y-100433238D01*
X49474380Y-100242761D01*
X49426761Y-100147523D01*
X49379142Y-100099904D01*
X49283904Y-100052285D01*
X49093428Y-100052285D01*
X48998190Y-100099904D01*
X48950571Y-100147523D01*
X48902952Y-100242761D01*
%TO.C,R5*%
X87701380Y-92495666D02*
X87225190Y-92829000D01*
X87701380Y-93067095D02*
X86701380Y-93067095D01*
X86701380Y-92686142D01*
X86749000Y-92590904D01*
X86796619Y-92543285D01*
X86891857Y-92495666D01*
X87034714Y-92495666D01*
X87129952Y-92543285D01*
X87177571Y-92590904D01*
X87225190Y-92686142D01*
X87225190Y-93067095D01*
X86701380Y-91590904D02*
X86701380Y-92067095D01*
X87177571Y-92114714D01*
X87129952Y-92067095D01*
X87082333Y-91971857D01*
X87082333Y-91733761D01*
X87129952Y-91638523D01*
X87177571Y-91590904D01*
X87272809Y-91543285D01*
X87510904Y-91543285D01*
X87606142Y-91590904D01*
X87653761Y-91638523D01*
X87701380Y-91733761D01*
X87701380Y-91971857D01*
X87653761Y-92067095D01*
X87606142Y-92114714D01*
%TO.C,J2*%
X105878380Y-86312333D02*
X106592666Y-86312333D01*
X106735523Y-86359952D01*
X106830761Y-86455190D01*
X106878380Y-86598047D01*
X106878380Y-86693285D01*
X105973619Y-85883761D02*
X105926000Y-85836142D01*
X105878380Y-85740904D01*
X105878380Y-85502809D01*
X105926000Y-85407571D01*
X105973619Y-85359952D01*
X106068857Y-85312333D01*
X106164095Y-85312333D01*
X106306952Y-85359952D01*
X106878380Y-85931380D01*
X106878380Y-85312333D01*
%TO.C,C6*%
X69937333Y-87898642D02*
X69889714Y-87946261D01*
X69746857Y-87993880D01*
X69651619Y-87993880D01*
X69508761Y-87946261D01*
X69413523Y-87851023D01*
X69365904Y-87755785D01*
X69318285Y-87565309D01*
X69318285Y-87422452D01*
X69365904Y-87231976D01*
X69413523Y-87136738D01*
X69508761Y-87041500D01*
X69651619Y-86993880D01*
X69746857Y-86993880D01*
X69889714Y-87041500D01*
X69937333Y-87089119D01*
X70794476Y-86993880D02*
X70604000Y-86993880D01*
X70508761Y-87041500D01*
X70461142Y-87089119D01*
X70365904Y-87231976D01*
X70318285Y-87422452D01*
X70318285Y-87803404D01*
X70365904Y-87898642D01*
X70413523Y-87946261D01*
X70508761Y-87993880D01*
X70699238Y-87993880D01*
X70794476Y-87946261D01*
X70842095Y-87898642D01*
X70889714Y-87803404D01*
X70889714Y-87565309D01*
X70842095Y-87470071D01*
X70794476Y-87422452D01*
X70699238Y-87374833D01*
X70508761Y-87374833D01*
X70413523Y-87422452D01*
X70365904Y-87470071D01*
X70318285Y-87565309D01*
%TO.C,U4*%
X56388095Y-100417380D02*
X56388095Y-101226904D01*
X56435714Y-101322142D01*
X56483333Y-101369761D01*
X56578571Y-101417380D01*
X56769047Y-101417380D01*
X56864285Y-101369761D01*
X56911904Y-101322142D01*
X56959523Y-101226904D01*
X56959523Y-100417380D01*
X57864285Y-100750714D02*
X57864285Y-101417380D01*
X57626190Y-100369761D02*
X57388095Y-101084047D01*
X58007142Y-101084047D01*
%TO.C,J1*%
X53007380Y-82634333D02*
X53721666Y-82634333D01*
X53864523Y-82681952D01*
X53959761Y-82777190D01*
X54007380Y-82920047D01*
X54007380Y-83015285D01*
X54007380Y-81634333D02*
X54007380Y-82205761D01*
X54007380Y-81920047D02*
X53007380Y-81920047D01*
X53150238Y-82015285D01*
X53245476Y-82110523D01*
X53293095Y-82205761D01*
D12*
%TO.C,JP1*%
X87309000Y-102616000D02*
X87309000Y-107756000D01*
X84649000Y-100016000D02*
X85979000Y-100016000D01*
X84649000Y-101346000D02*
X84649000Y-100016000D01*
X84649000Y-107756000D02*
X87309000Y-107756000D01*
X84649000Y-102616000D02*
X87309000Y-102616000D01*
X84649000Y-102616000D02*
X84649000Y-107756000D01*
%TO.C,D1*%
X63001000Y-104676000D02*
X67301000Y-104676000D01*
X67301000Y-104676000D02*
X67301000Y-97376000D01*
X63001000Y-104676000D02*
X63001000Y-97376000D01*
%TO.C,C5*%
X61050000Y-97396752D02*
X61050000Y-95974248D01*
X58330000Y-97396752D02*
X58330000Y-95974248D01*
%TO.C,C4*%
X54813252Y-89064000D02*
X53390748Y-89064000D01*
X54813252Y-91784000D02*
X53390748Y-91784000D01*
%TO.C,C7*%
X67273000Y-91516252D02*
X67273000Y-90093748D01*
X64553000Y-91516252D02*
X64553000Y-90093748D01*
%TO.C,R6*%
X83350263Y-86783000D02*
X84797737Y-86783000D01*
X83350263Y-89493000D02*
X84797737Y-89493000D01*
%TO.C,L1*%
X70535000Y-94157000D02*
X73535000Y-94157000D01*
X73535000Y-106757000D02*
X70535000Y-106757000D01*
X80135000Y-94157000D02*
X83135000Y-94157000D01*
X70535000Y-106757000D02*
X70535000Y-94157000D01*
X83135000Y-106757000D02*
X80135000Y-106757000D01*
X83135000Y-94157000D02*
X83135000Y-106757000D01*
%TO.C,JP2*%
X75570000Y-87503000D02*
X75570000Y-90103000D01*
X78170000Y-87443000D02*
X72970000Y-87443000D01*
X78170000Y-87503000D02*
X78170000Y-87443000D01*
X78170000Y-88773000D02*
X78170000Y-90103000D01*
X75570000Y-90103000D02*
X72970000Y-90103000D01*
X78170000Y-87503000D02*
X75570000Y-87503000D01*
X72970000Y-90103000D02*
X72970000Y-87443000D01*
X78170000Y-90103000D02*
X76840000Y-90103000D01*
%TO.C,R7*%
X58000737Y-104606000D02*
X56553263Y-104606000D01*
X58000737Y-101896000D02*
X56553263Y-101896000D01*
%TO.C,R8*%
X48556000Y-98132737D02*
X48556000Y-96685263D01*
X51266000Y-98132737D02*
X51266000Y-96685263D01*
%TO.C,R5*%
X84797737Y-90212000D02*
X83350263Y-90212000D01*
X84797737Y-92922000D02*
X83350263Y-92922000D01*
%TO.C,J2*%
X105238000Y-86107500D02*
X88818000Y-86107500D01*
X105238000Y-108447500D02*
X105238000Y-95857500D01*
X88818000Y-108447500D02*
X105238000Y-108447500D01*
X105473000Y-87647500D02*
X105473000Y-89647500D01*
X105238000Y-93117500D02*
X105238000Y-86107500D01*
X88818000Y-86107500D02*
X88818000Y-93117500D01*
X88818000Y-95857500D02*
X88818000Y-108447500D01*
%TO.C,C6*%
X68744000Y-91516252D02*
X68744000Y-90093748D01*
X71464000Y-91516252D02*
X71464000Y-90093748D01*
%TO.C,U4*%
X52431000Y-96520000D02*
X52431000Y-98470000D01*
X57551000Y-96520000D02*
X57551000Y-98470000D01*
X57551000Y-96520000D02*
X57551000Y-93070000D01*
X52431000Y-96520000D02*
X52431000Y-94570000D01*
%TO.C,J1*%
X105475000Y-84901000D02*
X105475000Y-79701000D01*
X57155000Y-82301000D02*
X54555000Y-82301000D01*
X54555000Y-82301000D02*
X54555000Y-79701000D01*
X54555000Y-84901000D02*
X54555000Y-83571000D01*
X57155000Y-84901000D02*
X57155000Y-82301000D01*
X55885000Y-84901000D02*
X54555000Y-84901000D01*
X54555000Y-79701000D02*
X105475000Y-79701000D01*
X57155000Y-84901000D02*
X105475000Y-84901000D01*
%TD*%
M02*
